<svg aria-hidden="true" viewBox="0 0 34 34" fill="none" xmlns="http://www.w3.org/2000/svg">
  <path d="M34 17C34 26.3888 26.3888 34 17 34C7.61116 34 0 26.3888 0 17C0 7.61116 7.61116 0 17 0C26.3888 0 34 7.61116 34 17Z" fill="#7E1B55"/>
  <path d="M22.5 12C25.5376 12 28 14.4624 28 17.5C28 20.5376 25.5376 23 22.5 23C19.4624 23 17 20.5376 17 17.5C17 14.4624 19.4624 12 22.5 12ZM22.5 13.0996C20.0702 13.0999 18.1006 15.0701 18.1006 17.5C18.1007 19.9298 20.0702 21.8992 22.5 21.8994C24.93 21.8994 26.9003 19.93 26.9004 17.5C26.9004 15.0699 24.9301 13.0996 22.5 13.0996Z" fill="#FBFAFB"/>
  <path d="M25.3 16.8H23.2V14.7C23.2 14.3129 22.8871 14 22.5 14C22.1129 14 21.8 14.3129 21.8 14.7V16.8H19.7C19.3129 16.8 19 17.1129 19 17.5C19 17.8871 19.3129 18.2 19.7 18.2H21.8V20.3C21.8 20.6871 22.1129 21 22.5 21C22.8871 21 23.2 20.6871 23.2 20.3V18.2H25.3C25.6871 18.2 26 17.8871 26 17.5C26 17.1129 25.6871 16.8 25.3 16.8Z" fill="#FBFAFB"/>
  <path d="M17 23.3447C16.9998 24.7731 14.7188 26.0176 12 26.0176C9.3044 26.0175 7 24.7961 7 23.3447V22.8838C8.05986 23.8745 9.88025 24.497 12 24.4971C14.1198 24.4971 15.917 23.8515 17 22.8838V23.3447ZM7 20.3262C7.39176 20.6949 7.89867 21.018 8.47461 21.2715C9.51139 21.7093 10.7096 21.9629 11.9766 21.9629C13.2438 21.9629 14.4417 21.7321 15.4785 21.2715C15.6237 21.2076 15.7643 21.1387 15.9004 21.0664C16.0678 21.3756 16.2572 21.6711 16.4648 21.9521C16.1393 22.309 15.6754 22.6274 15.1104 22.8613C14.2119 23.2531 13.1289 23.4599 12 23.46C10.8711 23.46 9.78815 23.2528 8.88965 22.8613C8.22156 22.5618 7.6916 22.1928 7.36914 21.7549C7.13869 21.4323 7 21.1097 7 20.7871V20.3262ZM7 17.792C8.05986 18.7827 9.88025 19.4053 12 19.4053C13.1608 19.4053 14.224 19.2089 15.127 18.875C15.2085 19.3149 15.3287 19.741 15.4834 20.1504C14.5764 20.6263 13.342 20.9258 12 20.9258C9.3044 20.9257 7 19.7043 7 18.2529V17.792ZM7 15.2354C7.39172 15.604 7.89879 15.9263 8.47461 16.1797C9.51139 16.6175 10.7096 16.8711 11.9766 16.8711C13.0881 16.8711 14.1459 16.6924 15.0889 16.3379C15.03 16.7166 15 17.1048 15 17.5C15 17.6037 15.0036 17.7069 15.0078 17.8096C14.1298 18.1734 13.0869 18.3681 12 18.3682C10.8711 18.3682 9.78815 18.161 8.88965 17.7695C8.22155 17.47 7.69159 17.101 7.36914 16.6631C7.1387 16.3405 7 16.0179 7 15.6953V15.2354ZM7 12.7695C7.39172 13.1382 7.89873 13.4604 8.47461 13.7139C9.51138 14.1517 10.7096 14.4052 11.9766 14.4053C13.2437 14.4053 14.4417 14.1745 15.4785 13.7139C15.7726 13.5844 16.0487 13.4368 16.3037 13.2744C15.9156 13.8424 15.6041 14.4664 15.3828 15.1318C14.4883 15.5762 13.2947 15.8564 12 15.8564C9.30468 15.8564 7.00048 14.6358 7 13.1846V12.7695ZM12 8C14.6955 8 16.9536 9.22108 17 10.6494C17 10.972 16.8847 11.2951 16.6543 11.5947C16.3317 12.0324 15.8017 12.4237 15.1338 12.7002C14.2353 13.0919 13.1524 13.2988 12.0234 13.2988C10.8945 13.2988 9.81161 13.0917 8.91309 12.7002C8.24525 12.4007 7.71507 12.0324 7.39258 11.5947C7.16213 11.2951 7.04688 10.972 7.04688 10.6494C7.0471 9.22114 9.32739 8.00003 12 8Z" fill="#FBFAFB"/>
</svg>
