<svg aria-hidden="true" viewBox="0 0 24 24" fill="none" xmlns="http://www.w3.org/2000/svg">
<path d="M17.5 7C20.5376 7 23 9.46243 23 12.5C23 15.5376 20.5376 18 17.5 18C14.4624 18 12 15.5376 12 12.5C12 9.46243 14.4624 7 17.5 7ZM17.5 8.09961C15.0702 8.09987 13.1006 10.0701 13.1006 12.5C13.1007 14.9298 15.0702 16.8992 17.5 16.8994C19.93 16.8994 21.9003 14.93 21.9004 12.5C21.9004 10.0699 19.9301 8.09961 17.5 8.09961Z" fill="currentColor"/>
<path d="M20.3 11.8H18.2V9.7C18.2 9.3129 17.8871 9 17.5 9C17.1129 9 16.8 9.3129 16.8 9.7V11.8H14.7C14.3129 11.8 14 12.1129 14 12.5C14 12.8871 14.3129 13.2 14.7 13.2H16.8V15.3C16.8 15.6871 17.1129 16 17.5 16C17.8871 16 18.2 15.6871 18.2 15.3V13.2H20.3C20.6871 13.2 21 12.8871 21 12.5C21 12.1129 20.6871 11.8 20.3 11.8Z" fill="currentColor"/>
<path d="M12 18.3447C11.9998 19.7731 9.71879 21.0176 7 21.0176C4.3044 21.0175 2 19.7961 2 18.3447V17.8838C3.05986 18.8745 4.88025 19.497 7 19.4971C9.1198 19.4971 10.917 18.8515 12 17.8838V18.3447ZM2 15.3262C2.39176 15.6949 2.89867 16.018 3.47461 16.2715C4.51139 16.7093 5.70957 16.9629 6.97656 16.9629C8.24377 16.9629 9.44173 16.7321 10.4785 16.2715C10.6237 16.2076 10.7643 16.1387 10.9004 16.0664C11.0678 16.3756 11.2572 16.6711 11.4648 16.9521C11.1393 17.309 10.6754 17.6274 10.1104 17.8613C9.21189 18.2531 8.12892 18.4599 7 18.46C5.87114 18.46 4.78815 18.2528 3.88965 17.8613C3.22156 17.5618 2.6916 17.1928 2.36914 16.7549C2.13869 16.4323 2 16.1097 2 15.7871V15.3262ZM2 12.792C3.05986 13.7827 4.88025 14.4053 7 14.4053C8.1608 14.4053 9.22397 14.2089 10.127 13.875C10.2085 14.3149 10.3287 14.741 10.4834 15.1504C9.57641 15.6263 8.34199 15.9258 7 15.9258C4.3044 15.9257 2 14.7043 2 13.2529V12.792ZM2 10.2354C2.39172 10.604 2.89879 10.9263 3.47461 11.1797C4.51139 11.6175 5.70956 11.8711 6.97656 11.8711C8.08811 11.8711 9.14594 11.6924 10.0889 11.3379C10.03 11.7166 10 12.1048 10 12.5C10 12.6037 10.0036 12.7069 10.0078 12.8096C9.12979 13.1734 8.08685 13.3681 7 13.3682C5.87114 13.3682 4.78815 13.161 3.88965 12.7695C3.22155 12.47 2.69159 12.101 2.36914 11.6631C2.1387 11.3405 2 11.0179 2 10.6953V10.2354ZM2 7.76953C2.39172 8.13821 2.89873 8.46039 3.47461 8.71387C4.51138 9.15169 5.70956 9.40524 6.97656 9.40527C8.24374 9.40527 9.44174 9.1745 10.4785 8.71387C10.7726 8.58444 11.0487 8.43677 11.3037 8.27441C10.9156 8.84237 10.6041 9.46637 10.3828 10.1318C9.48832 10.5762 8.2947 10.8564 7 10.8564C4.30468 10.8564 2.00048 9.63578 2 8.18457V7.76953ZM7 3C9.69552 3 11.9536 4.22108 12 5.64941C12 5.97204 11.8847 6.29514 11.6543 6.59473C11.3317 7.03243 10.8017 7.42372 10.1338 7.7002C9.23531 8.09193 8.15238 8.2988 7.02344 8.29883C5.89453 8.29883 4.81161 8.09171 3.91309 7.7002C3.24525 7.40073 2.71507 7.03239 2.39258 6.59473C2.16213 6.29515 2.04688 5.97201 2.04688 5.64941C2.0471 4.22114 4.32739 3.00003 7 3Z" fill="currentColor"/>
</svg>
