<svg width="30" height="30" viewBox="0 0 30 30" fill="none" xmlns="http://www.w3.org/2000/svg">
<g clip-path="url(#clip0_710_50836)">
<path d="M26.6667 6.66634V26.6663H6.75C5.8739 26.6412 5.0406 26.2819 4.42085 25.6622C3.8011 25.0424 3.44183 24.2091 3.41667 23.333V6.66634H26.6667ZM30 3.33301H0V23.333C0 25.1011 0.702379 26.7968 1.95262 28.0471C3.20286 29.2973 4.89856 29.9997 6.66667 29.9997H30V3.33301Z" fill="#7198A6"/>
<path d="M10.0001 20H6.66675V23.3333H10.0001V20Z" fill="#7198A6"/>
<path d="M16.6666 20H13.3333V23.3333H16.6666V20Z" fill="#7198A6"/>
<path d="M10.0001 13.333H6.66675V16.6663H10.0001V13.333Z" fill="#7198A6"/>
<path d="M16.6666 13.333H13.3333V16.6663H16.6666V13.333Z" fill="#7198A6"/>
<path d="M10.0001 0H6.66675V10H10.0001V0Z" fill="#7198A6"/>
<path d="M23.3333 0H20V10H23.3333V0Z" fill="#7198A6"/>
<path d="M23.3333 20H20V23.3333H23.3333V20Z" fill="#7198A6"/>
<path d="M23.3333 13.333H20V16.6663H23.3333V13.333Z" fill="#7198A6"/>
</g>
<defs>
<clipPath id="clip0_710_50836">
<rect width="30" height="30" fill="white"/>
</clipPath>
</defs>
</svg>
