<svg
  width="48"
  height="48"
  viewBox="208 71 43 46"
  fill="none"
  xmlns="http://www.w3.org/2000/svg"
  aria-hidden="true"
>
  <path
    d="M229.255 72.625C240.384 72.625 249.422 81.0955 249.422 90.96C249.422 100.824 240.805 108.909 230.043 109.294C227.473 112.13 224.115 114.135 220.398 115.052C219.43 115.27 218.439 115.38 217.446 115.382C215.545 115.384 213.666 114.965 211.946 114.153C211.498 113.94 211.156 113.554 210.997 113.084C210.839 112.614 210.878 112.099 211.104 111.658C211.332 111.217 211.728 110.887 212.203 110.743C214.184 109.917 215.58 108.103 215.87 105.976C215.94 105.576 215.982 105.171 215.998 104.766C211.68 101.483 209.127 96.3842 209.086 90.96C209.086 80.8576 218.126 72.625 229.255 72.625ZM221.922 92.793C221.267 92.793 220.661 93.1427 220.333 93.71C220.006 94.277 220.006 94.9759 220.333 95.543C220.661 96.1102 221.267 96.46 221.922 96.46H236.589C237.075 96.46 237.542 96.2663 237.886 95.9229C238.229 95.579 238.422 95.113 238.422 94.627C238.422 94.1407 238.229 93.674 237.886 93.3301C237.542 92.9862 237.075 92.793 236.589 92.793H221.922ZM221.922 85.459C221.267 85.459 220.661 85.8087 220.333 86.376C220.006 86.9435 220.006 87.6419 220.333 88.209C220.661 88.7762 221.267 89.126 221.922 89.126H236.589C237.075 89.126 237.542 88.9328 237.886 88.5889C238.229 88.245 238.422 87.779 238.422 87.293C238.422 86.8067 238.229 86.34 237.886 85.9961C237.542 85.6522 237.075 85.459 236.589 85.459H221.922Z"
    fill="#ffffff"
  />
</svg>
