<svg
  width="48"
  height="48"
  viewBox="214 71 30 46"
  fill="none"
  xmlns="http://www.w3.org/2000/svg"
  aria-hidden="true"
>
  <path
    fill-rule="evenodd"
    clip-rule="evenodd"
    d="M240.961 71.5C242.618 71.5 243.961 72.8431 243.961 74.5V113.5C243.961 115.157 242.618 116.5 240.961 116.5H217.711C216.054 116.5 214.711 115.157 214.711 113.5V74.5C214.711 72.8431 216.054 71.5 217.711 71.5H240.961ZM227.086 110.875C226.465 110.875 225.961 111.379 225.961 112C225.961 112.621 226.465 113.125 227.086 113.125H231.586C232.207 113.125 232.711 112.621 232.711 112C232.711 111.379 232.207 110.875 231.586 110.875H227.086ZM229.336 96.25C224.365 96.25 220.336 100.279 220.336 105.25C220.336 105.871 220.84 106.375 221.461 106.375C222.082 106.375 222.586 105.871 222.586 105.25C222.586 101.522 225.608 98.5 229.336 98.5C233.064 98.5 236.086 101.522 236.086 105.25C236.086 105.871 236.59 106.375 237.211 106.375C237.832 106.375 238.336 105.871 238.336 105.25C238.336 100.279 234.307 96.25 229.336 96.25ZM229.336 81.625C226.229 81.625 223.711 84.1434 223.711 87.25C223.711 90.3566 226.229 92.875 229.336 92.875C232.443 92.875 234.961 90.3566 234.961 87.25C234.961 84.1434 232.443 81.625 229.336 81.625ZM229.336 83.875C231.2 83.875 232.711 85.386 232.711 87.25C232.711 89.114 231.2 90.625 229.336 90.625C227.472 90.625 225.961 89.114 225.961 87.25C225.961 85.386 227.472 83.875 229.336 83.875ZM229.336 74.875C228.715 74.875 228.211 75.3787 228.211 76C228.211 76.6213 228.715 77.125 229.336 77.125C229.957 77.125 230.461 76.6213 230.461 76C230.461 75.3787 229.957 74.875 229.336 74.875Z"
    fill="#ffffff"
  />
</svg>
