<svg
  width="48"
  height="48"
  viewBox="209 73 41 41"
  fill="none"
  xmlns="http://www.w3.org/2000/svg"
  aria-hidden="true"
>
  <path
    fill-rule="evenodd"
    clip-rule="evenodd"
    d="M226.059 75.747C228.097 74.585 230.576 74.585 232.614 75.747L248.43 84.7617C248.78 84.9618 249.072 85.254 249.275 85.6083C249.479 85.9631 249.586 86.3682 249.586 86.7802V106.199C249.586 108.036 248.875 109.798 247.609 111.097C246.344 112.396 244.626 113.125 242.836 113.125H215.836C214.046 113.125 212.328 112.396 211.062 111.097C209.797 109.798 209.086 108.036 209.086 106.199V86.7802C209.086 86.3683 209.193 85.9632 209.396 85.6083C209.6 85.254 209.892 84.9618 210.243 84.7617L226.059 75.747ZM234.133 88.8183C233.503 88.2399 232.525 88.2216 231.872 88.8017C231.219 89.3822 231.122 90.3554 231.623 91.0488L231.731 91.1835L233.735 93.4374H229.055C225.267 93.4374 222.732 94.7277 221.222 96.8046C219.786 98.7786 219.492 101.178 219.492 103C219.492 103.932 220.248 104.687 221.18 104.687C222.112 104.687 222.867 103.932 222.867 103C222.867 101.447 223.136 99.9086 223.95 98.789C224.69 97.7725 226.093 96.8124 229.055 96.8124H233.733C233.592 96.9711 233.455 97.1267 233.322 97.2763C232.87 97.7856 232.471 98.2335 232.187 98.5536C232.044 98.7136 231.93 98.8414 231.852 98.9296C231.812 98.9737 231.782 99.0091 231.762 99.0322C231.752 99.0433 231.743 99.0518 231.738 99.0576C231.736 99.0597 231.734 99.0625 231.733 99.0634L231.731 99.0673C231.113 99.7639 231.176 100.83 231.872 101.449C232.569 102.068 233.635 102.005 234.254 101.309L234.256 101.306C234.257 101.305 234.259 101.302 234.261 101.3C234.266 101.294 234.274 101.285 234.284 101.273C234.305 101.25 234.335 101.216 234.374 101.172C234.452 101.084 234.567 100.956 234.709 100.796C234.994 100.476 235.392 100.028 235.845 99.5185L238.617 96.3993C238.617 96.3993 239.18 95.87 239.18 95.1249C239.18 94.38 238.617 93.8505 238.617 93.8505L234.254 88.9423L234.133 88.8183Z"
    fill="#ffffff"
  />
</svg>
