<svg aria-hidden="true" viewBox="0 0 34 34" fill="none" xmlns="http://www.w3.org/2000/svg">
<path d="M34 17C34 26.3888 26.3888 34 17 34C7.61116 34 0 26.3888 0 17C0 7.61116 7.61116 0 17 0C26.3888 0 34 7.61116 34 17Z" fill="#00808F"/>
<g clip-path="url(#clip0_1057_38800)">
<path d="M20.9891 19.3314C19.3928 19.3314 17.7847 19.0359 16.7676 18.4609V19.5693C16.7676 19.6992 16.9865 20.0279 17.8152 20.3412C18.6546 20.6587 19.7817 20.8335 20.9891 20.8335C22.1965 20.8335 23.3237 20.6587 24.1631 20.3412C24.9917 20.0278 25.2107 19.6992 25.2107 19.5693V18.4609C24.1936 19.0359 22.5854 19.3314 20.9891 19.3314Z" fill="white"/>
<path d="M20.9891 16.7728C19.3928 16.7728 17.7847 16.4773 16.7676 15.9023V17.0108C16.7676 17.1407 16.9865 17.4693 17.8152 17.7827C18.6546 18.1001 19.7817 18.2749 20.9891 18.2749C22.1965 18.2749 23.3237 18.1002 24.1631 17.7827C24.9917 17.4693 25.2107 17.1407 25.2107 17.0108V15.9024C24.1936 16.4774 22.5854 16.7728 20.9891 16.7728Z" fill="white"/>
<path d="M20.9891 21.9096C19.3928 21.9096 17.7847 21.6141 16.7676 21.0391V22.1474C16.7676 22.2774 16.9865 22.606 17.8152 22.9193C18.6546 23.2368 19.7817 23.4116 20.9891 23.4116C22.1965 23.4116 23.3237 23.2368 24.1631 22.9193C24.9917 22.606 25.2107 22.2774 25.2107 22.1474V21.0391C24.1936 21.614 22.5854 21.9096 20.9891 21.9096Z" fill="white"/>
<path d="M20.9891 24.4643C19.3928 24.4643 17.7847 24.1687 16.7676 23.5938V24.7022C16.7676 24.8831 17.0954 25.2019 17.8152 25.4741C18.6546 25.7915 19.7817 25.9663 20.9891 25.9663C22.1965 25.9663 23.3237 25.7915 24.1631 25.4741C24.8829 25.2019 25.2107 24.8831 25.2107 24.7022V23.5938C24.1936 24.1688 22.5854 24.4643 20.9891 24.4643Z" fill="white"/>
<path d="M20.9891 14.1869C19.3928 14.1869 17.7847 13.8914 16.7676 13.3164V14.4248C16.7676 14.5547 16.9865 14.8834 17.8152 15.1967C18.6546 15.5142 19.7817 15.689 20.9891 15.689C22.1965 15.689 23.3237 15.5142 24.1631 15.1967C24.9917 14.8833 25.2107 14.5547 25.2107 14.4248V13.3164C24.1936 13.8914 22.5854 14.1869 20.9891 14.1869Z" fill="white"/>
<path d="M20.9891 11.6284C19.3928 11.6284 17.7847 11.3328 16.7676 10.7578V11.8662C16.7676 11.9961 16.9865 12.3247 17.8152 12.6381C18.6545 12.9555 19.7817 13.1303 20.9891 13.1303C22.1965 13.1303 23.3237 12.9556 24.1631 12.6381C24.9917 12.3247 25.2107 11.9961 25.2107 11.8662V10.7578C24.1936 11.3328 22.5854 11.6284 20.9891 11.6284Z" fill="white"/>
<path d="M11.4833 21.9096C9.88698 21.9096 8.27888 21.6141 7.26172 21.0391V22.1475C7.26172 22.2774 7.48069 22.606 8.30932 22.9193C9.14872 23.2368 10.2759 23.4116 11.4833 23.4116C12.6907 23.4116 13.8178 23.2368 14.6572 22.9193C15.4859 22.606 15.7048 22.2774 15.7048 22.1474V21.0391C14.6876 21.614 13.0796 21.9096 11.4833 21.9096Z" fill="white"/>
<path d="M11.4833 19.3314C9.88698 19.3314 8.27888 19.0359 7.26172 18.4609V19.5693C7.26172 19.6993 7.48069 20.0279 8.30932 20.3412C9.14869 20.6587 10.2759 20.8335 11.4833 20.8335C12.6907 20.8335 13.8178 20.6587 14.6572 20.3412C15.4859 20.0278 15.7048 19.6992 15.7048 19.5693V18.4609C14.6876 19.0359 13.0796 19.3314 11.4833 19.3314Z" fill="white"/>
<path d="M11.4833 24.4643C9.88698 24.4643 8.27888 24.1687 7.26172 23.5938V24.7022C7.26172 24.8831 7.58954 25.2019 8.30932 25.4741C9.14872 25.7915 10.2759 25.9663 11.4833 25.9663C12.6907 25.9663 13.8178 25.7915 14.6572 25.4741C15.377 25.2019 15.7048 24.8831 15.7048 24.7022V23.5938C14.6876 24.1688 13.0796 24.4643 11.4833 24.4643Z" fill="white"/>
<path d="M11.4833 16.7728C9.88698 16.7728 8.27888 16.4773 7.26172 15.9023V17.0108C7.26172 17.1407 7.48069 17.4693 8.30932 17.7827C9.14872 18.1001 10.2759 18.2749 11.4833 18.2749C12.6907 18.2749 13.8178 18.1002 14.6572 17.7827C15.4859 17.4693 15.7048 17.1407 15.7048 17.0108V15.9024C14.6876 16.4774 13.0796 16.7728 11.4833 16.7728Z" fill="white"/>
<path d="M14.6572 13.6524C13.8178 13.335 12.6907 13.1602 11.4833 13.1602C10.2759 13.1601 9.14869 13.3349 8.30932 13.6524C7.48069 13.9658 7.26172 14.2943 7.26172 14.4243C7.26172 14.5543 7.48069 14.8829 8.30932 15.1962C9.14872 15.5137 10.2759 15.6885 11.4833 15.6885C12.6907 15.6885 13.8178 15.5137 14.6572 15.1962C15.4859 14.8829 15.7048 14.5543 15.7048 14.4243C15.7048 14.2944 15.4859 13.9658 14.6572 13.6524Z" fill="white"/>
<path d="M24.1631 8.51179C23.3237 8.19431 22.1965 8.01953 20.9891 8.01953C19.7817 8.01953 18.6546 8.19431 17.8152 8.51179C16.9865 8.82516 16.7676 9.15375 16.7676 9.28368C16.7676 9.41361 16.9865 9.74224 17.8152 10.0556C18.6546 10.3731 19.7817 10.5479 20.9891 10.5479C22.1965 10.5479 23.3237 10.3731 24.1631 10.0556C24.9917 9.7422 25.2107 9.41361 25.2107 9.28368C25.2107 9.15375 24.9917 8.82513 24.1631 8.51179Z" fill="white"/>
</g>
<defs>
<clipPath id="clip0_1057_38800">
<rect width="17.9551" height="17.9551" fill="white" transform="translate(7.25781 8.02344)"/>
</clipPath>
</defs>
</svg>
