<svg aria-hidden="true" viewBox="0 0 24 24" fill="none" xmlns="http://www.w3.org/2000/svg">
<path d="M12 3C16.9706 3 21 7.02944 21 12C21 16.9706 16.9706 21 12 21C7.02944 21 3.00001 16.9706 3 12C3 7.02944 7.02944 3 12 3ZM12 5C8.13401 5 5 8.13401 5 12C5.00001 15.866 8.13401 19 12 19C15.866 19 19 15.866 19 12C19 8.13401 15.866 5 12 5ZM12 16.5C12.5523 16.5 13 16.9477 13 17.5C13 18.0523 12.5523 18.5 12 18.5C11.4477 18.5 11 18.0523 11 17.5C11 16.9477 11.4477 16.5 12 16.5ZM12 8C12.4141 8.00008 12.75 8.33583 12.75 8.75V11.9893L14.6807 10.875C15.0394 10.668 15.498 10.7907 15.7051 11.1494C15.9121 11.5081 15.7892 11.9667 15.4307 12.1738L12.3994 13.9238C12.098 14.0978 11.7282 14.0368 11.4941 13.8008C11.3449 13.6637 11.25 13.4686 11.25 13.25V8.75C11.25 8.33579 11.5858 8 12 8ZM6.5 11C7.05228 11 7.5 11.4477 7.5 12C7.5 12.5523 7.05228 13 6.5 13C5.94772 13 5.5 12.5523 5.5 12C5.5 11.4477 5.94772 11 6.5 11ZM17.5 11C18.0523 11 18.5 11.4477 18.5 12C18.5 12.5523 18.0523 13 17.5 13C16.9477 13 16.5 12.5523 16.5 12C16.5 11.4477 16.9477 11 17.5 11ZM12 5.5C12.5523 5.5 13 5.94772 13 6.5C13 7.05228 12.5523 7.5 12 7.5C11.4477 7.5 11 7.05228 11 6.5C11 5.94772 11.4477 5.5 12 5.5Z" fill="currentColor"/>
</svg>
