<svg aria-hidden="true" viewBox="0 0 34 34" fill="none" xmlns="http://www.w3.org/2000/svg">
  <path d="M34 17C34 26.3888 26.3888 34 17 34C7.61116 34 0 26.3888 0 17C0 7.61116 7.61116 0 17 0C26.3888 0 34 7.61116 34 17Z" fill="#666600"/>
  <circle cx="13" cy="20" r="5.4" stroke="white" stroke-width="1.2"/>
  <path d="M21 7C24.3137 7 27 9.68629 27 13C27 16.3137 24.3137 19 21 19C20.6581 19 20.3233 18.969 19.9971 18.9141C19.991 18.4831 19.94 18.0636 19.8477 17.6592C20.2169 17.7502 20.6026 17.7998 21 17.7998C23.651 17.7998 25.7998 15.651 25.7998 13C25.7998 10.349 23.651 8.2002 21 8.2002C18.349 8.2002 16.2002 10.349 16.2002 13C16.2002 13.1435 16.2064 13.2855 16.2188 13.4258C15.8312 13.2714 15.4243 13.156 15.002 13.085C15.0016 13.0567 15 13.0284 15 13C15 9.68629 17.6863 7 21 7Z" fill="white"/>
  <path d="M21 15.8574C21.3156 15.8574 21.5713 16.1131 21.5713 16.4287C21.5712 16.7442 21.3155 17 21 17C20.6845 17 20.4288 16.7442 20.4287 16.4287C20.4287 16.1131 20.6844 15.8574 21 15.8574ZM21 10.5215C21.3156 10.5215 21.5713 10.7772 21.5713 11.0928V12.7314L22.3281 12.2949C22.6014 12.1373 22.9506 12.2307 23.1084 12.5039C23.266 12.7771 23.1724 13.1263 22.8994 13.2842L21.3818 14.1602C21.2724 14.2233 21.1508 14.2443 21.0342 14.2314C21.0228 14.2321 21.0115 14.2354 21 14.2354C20.6845 14.2354 20.4289 13.9795 20.4287 13.6641V11.0928C20.4287 10.7772 20.6844 10.5215 21 10.5215ZM17.5713 12.4287C17.8869 12.4287 18.1426 12.6844 18.1426 13C18.1426 13.3156 17.8869 13.5713 17.5713 13.5713C17.2558 13.5712 17 13.3155 17 13C17 12.6845 17.2558 12.4288 17.5713 12.4287ZM24.4287 12.4287C24.7442 12.4288 25 12.6845 25 13C25 13.3155 24.7442 13.5712 24.4287 13.5713C24.1131 13.5713 23.8574 13.3156 23.8574 13C23.8574 12.6844 24.1131 12.4287 24.4287 12.4287ZM21 9C21.3155 9 21.5712 9.25576 21.5713 9.57129C21.5713 9.88688 21.3156 10.1426 21 10.1426C20.6844 10.1426 20.4287 9.88688 20.4287 9.57129C20.4288 9.25576 20.6845 9 21 9Z" fill="white"/>
  <path d="M14.1985 21.4322H15V22.0254C15 22.661 14.684 23 14.1137 23H11.1773V22.2542C11.6782 21.7712 11.9017 21.3051 11.9017 20.7119C11.9017 20.6017 11.8863 20.4915 11.8632 20.3814H11V19.6525H11.6089C11.4933 19.3729 11.4008 19.0763 11.4008 18.7458C11.4008 17.661 12.1021 17 13.0963 17C14.0289 17 14.7688 17.6271 14.8304 18.7288H14.0289C13.9827 18.0508 13.5819 17.7797 13.0963 17.7797C12.5954 17.7797 12.2023 18.1271 12.2023 18.7797C12.2023 19.1102 12.3025 19.3814 12.4181 19.6525H14.052V20.3814H12.6724C12.6879 20.4831 12.7033 20.5932 12.7033 20.7119C12.7033 21.2373 12.4335 21.7966 12.1021 22.2203H13.9287C14.0983 22.2203 14.1985 22.1102 14.1985 21.9237V21.4322Z" fill="white"/>
</svg>
