<svg aria-hidden="true" viewBox="0 0 24 24" fill="none" xmlns="http://www.w3.org/2000/svg">
  <circle cx="8" cy="15" r="5.4" stroke="currentColor" stroke-width="1.2"/>
  <path d="M16 2C19.3137 2 22 4.68629 22 8C22 11.3137 19.3137 14 16 14C15.6581 14 15.3233 13.969 14.9971 13.9141C14.991 13.4831 14.94 13.0636 14.8477 12.6592C15.2169 12.7502 15.6026 12.7998 16 12.7998C18.651 12.7998 20.7998 10.651 20.7998 8C20.7998 5.34903 18.651 3.2002 16 3.2002C13.349 3.2002 11.2002 5.34903 11.2002 8C11.2002 8.14348 11.2064 8.2855 11.2188 8.42578C10.8312 8.2714 10.4243 8.15599 10.002 8.08496C10.0016 8.05668 10 8.02837 10 8C10 4.68629 12.6863 2 16 2Z" fill="currentColor"/>
  <path d="M16 10.8574C16.3156 10.8574 16.5713 11.1131 16.5713 11.4287C16.5712 11.7442 16.3155 12 16 12C15.6845 12 15.4288 11.7442 15.4287 11.4287C15.4287 11.1131 15.6844 10.8574 16 10.8574ZM16 5.52148C16.3156 5.52148 16.5713 5.77718 16.5713 6.09277V7.73145L17.3281 7.29492C17.6014 7.1373 17.9506 7.23067 18.1084 7.50391C18.266 7.77709 18.1724 8.12632 17.8994 8.28418L16.3818 9.16016C16.2724 9.22334 16.1508 9.24428 16.0342 9.23145C16.0228 9.23212 16.0115 9.23535 16 9.23535C15.6845 9.23535 15.4289 8.97953 15.4287 8.66406V6.09277C15.4287 5.77718 15.6844 5.52148 16 5.52148ZM12.5713 7.42871C12.8869 7.42871 13.1426 7.68441 13.1426 8C13.1426 8.31559 12.8869 8.57129 12.5713 8.57129C12.2558 8.57121 12 8.31554 12 8C12 7.68446 12.2558 7.42879 12.5713 7.42871ZM19.4287 7.42871C19.7442 7.42879 20 7.68446 20 8C20 8.31554 19.7442 8.57121 19.4287 8.57129C19.1131 8.57129 18.8574 8.31559 18.8574 8C18.8574 7.68441 19.1131 7.42871 19.4287 7.42871ZM16 4C16.3155 4 16.5712 4.25576 16.5713 4.57129C16.5713 4.88688 16.3156 5.14258 16 5.14258C15.6844 5.14258 15.4287 4.88688 15.4287 4.57129C15.4288 4.25576 15.6845 4 16 4Z" fill="currentColor"/>
<path d="M9.19846 16.4322H10V17.0254C10 17.661 9.68401 18 9.11368 18H6.17726V17.2542C6.67823 16.7712 6.90173 16.3051 6.90173 15.7119C6.90173 15.6017 6.88632 15.4915 6.8632 15.3814H6V14.6525H6.60886C6.49326 14.3729 6.40077 14.0763 6.40077 13.7458C6.40077 12.661 7.10212 12 8.09634 12C9.0289 12 9.76879 12.6271 9.83044 13.7288H9.0289C8.98266 13.0508 8.58189 12.7797 8.09634 12.7797C7.59538 12.7797 7.20231 13.1271 7.20231 13.7797C7.20231 14.1102 7.3025 14.3814 7.41811 14.6525H9.05202V15.3814H7.67245C7.68786 15.4831 7.70328 15.5932 7.70328 15.7119C7.70328 16.2373 7.43353 16.7966 7.10212 17.2203H8.92871C9.09827 17.2203 9.19846 17.1102 9.19846 16.9237V16.4322Z" fill="currentColor"/>
</svg>
