<svg aria-hidden="true" viewBox="0 0 24 24" fill="none" xmlns="http://www.w3.org/2000/svg">
<path d="M24 12C24 18.6274 18.6274 24 12 24C5.37258 24 0 18.6274 0 12C0 5.37258 5.37258 0 12 0C18.6274 0 24 5.37258 24 12Z" fill="#F6D5E8" fill-opacity="0.5"/>
<path d="M12.5817 14.4818C12.5817 15.3045 12.2656 16.0738 11.683 16.6489L9.2305 19.1055C8.03474 20.3014 6.09258 20.3014 4.89682 19.1055C3.70106 17.9096 3.70106 15.9672 4.89682 14.7713L7.34927 12.3147C8.24419 11.4235 9.58847 11.1797 10.7271 11.6711L9.56181 12.8365C9.11245 12.8251 8.67451 12.9926 8.35082 13.3164L5.89456 15.7691C5.58229 16.0776 5.41092 16.4928 5.41092 16.9346C5.41092 17.3802 5.58229 17.7953 5.89456 18.1038C6.21825 18.4276 6.64096 18.5875 7.06366 18.5875C7.48637 18.5875 7.90907 18.4276 8.23276 18.1038L10.6852 15.6473C11.0089 15.3235 11.1765 14.8893 11.165 14.4361L12.3303 13.2707C12.4941 13.6553 12.5817 14.0667 12.5817 14.4818Z" fill="#C82A87"/>
<path d="M14.6605 9.94498C14.6605 10.1087 14.5958 10.2649 14.4815 10.383L14.1654 10.6991L14.1616 10.7029L10.3801 14.4849C10.1478 14.7172 9.74417 14.7172 9.50806 14.4849C9.26815 14.2411 9.26815 13.8526 9.50806 13.6127L13.6094 9.51079C13.7275 9.39272 13.8874 9.33179 14.0436 9.33179C14.1997 9.33179 14.3596 9.39272 14.4815 9.51079C14.5958 9.62505 14.6605 9.78121 14.6605 9.94498Z" fill="#C82A87"/>
<path d="M19.9999 7.0645C19.9999 7.87955 19.6839 8.64889 19.1012 9.2278L16.6488 11.6844C15.7577 12.5756 14.4134 12.8193 13.2747 12.328L14.4362 11.1626C14.4553 11.1626 14.4705 11.1664 14.4895 11.1664C14.9275 11.1664 15.3426 10.995 15.6548 10.6827L18.1073 8.22613C18.7509 7.58248 18.7509 6.5351 18.1073 5.88764C17.4637 5.24779 16.4165 5.24779 15.7729 5.88764L13.3166 8.3442C12.9929 8.66794 12.8216 9.10974 12.8368 9.56296L11.6715 10.7246C11.1803 9.58581 11.424 8.24137 12.3151 7.35015L14.7713 4.89359C15.9671 3.70149 17.9093 3.70149 19.1012 4.89359C19.6839 5.47631 19.9999 6.24565 19.9999 7.0645Z" fill="#C82A87"/>
</svg>
