<svg aria-hidden="true" viewBox="0 0 34 34" fill="none" xmlns="http://www.w3.org/2000/svg">
<path d="M34 17C34 26.3888 26.3888 34 17 34C7.61116 34 0 26.3888 0 17C0 7.61116 7.61116 0 17 0C26.3888 0 34 7.61116 34 17Z" fill="#F5E5EE"/>
<path d="M17.6544 19.7906C17.6544 20.7161 17.2988 21.5816 16.6433 22.2286L13.8843 24.9923C12.5391 26.3377 10.3542 26.3377 9.00892 24.9923C7.66369 23.6469 7.66369 21.4617 9.00892 20.1163L11.7679 17.3526C12.7747 16.35 14.287 16.0758 15.568 16.6285L14.257 17.9396C13.7515 17.9268 13.2588 18.1153 12.8947 18.4795L10.1314 21.2389C9.78007 21.5859 9.58729 22.053 9.58729 22.55C9.58729 23.0513 9.78007 23.5183 10.1314 23.8654C10.4955 24.2296 10.9711 24.4096 11.4466 24.4096C11.9222 24.4096 12.3977 24.2296 12.7619 23.8654L15.5209 21.1018C15.885 20.7376 16.0735 20.2491 16.0607 19.7392L17.3716 18.4281C17.5558 18.8609 17.6544 19.3236 17.6544 19.7906Z" fill="#C82A87"/>
<path d="M19.9911 14.6898C19.9911 14.8741 19.9183 15.0498 19.7897 15.1826L19.4342 15.5382L19.4299 15.5425L15.1757 19.7972C14.9144 20.0586 14.4602 20.0586 14.1946 19.7972C13.9247 19.523 13.9247 19.0859 14.1946 18.816L18.8087 14.2014C18.9415 14.0686 19.1214 14 19.2971 14C19.4727 14 19.6527 14.0686 19.7897 14.2014C19.9183 14.3299 19.9911 14.5056 19.9911 14.6898Z" fill="#C82A87"/>
<path d="M26.0019 11.4481C26.0019 12.365 25.6463 13.2306 24.9908 13.8818L22.2318 16.6455C21.2293 17.6481 19.717 17.9223 18.436 17.3696L19.7427 16.0585C19.7641 16.0585 19.7813 16.0627 19.8027 16.0627C20.2954 16.0627 20.7623 15.8699 21.1136 15.5186L23.8727 12.755C24.5967 12.0308 24.5967 10.8525 23.8727 10.1241C23.1486 9.40431 21.9705 9.40431 21.2465 10.1241L18.4832 12.8878C18.119 13.252 17.9262 13.749 17.9434 14.2589L16.6324 15.5657C16.0797 14.2846 16.3539 12.7721 17.3564 11.7695L20.1197 9.00583C21.4649 7.66472 23.6499 7.66472 24.9908 9.00583C25.6463 9.66139 26.0019 10.5269 26.0019 11.4481Z" fill="#C82A87"/>
</svg>
