<svg aria-hidden="true" viewBox="0 0 24 24" fill="none" xmlns="http://www.w3.org/2000/svg">
<path d="M17.0078 19L17.0078 21L8.00781 21L8.00781 19L17.0078 19Z" fill="currentColor"/>
<path d="M9.00556 8.50097L9.90341 8.96931L10.0182 8.74921V8.50097H9.00556ZM8.29299 3.36475C7.94162 2.92964 7.30404 2.86175 6.86893 3.21313C6.43381 3.56451 6.36593 4.20208 6.71731 4.63719L8.29299 3.36475ZM5.00557 17.001H6.01823C6.01823 15.639 5.90909 13.8595 7.13879 12.6301L6.42283 11.9139L5.70687 11.1978C3.76163 13.1425 3.99291 15.9326 3.99291 17.001H5.00557ZM6.42283 11.9139L7.13879 12.6301C8.08353 11.6856 8.98712 10.7259 9.90341 8.96931L9.00556 8.50097L8.10771 8.03263C7.32873 9.52602 6.58809 10.3168 5.70687 11.1978L6.42283 11.9139ZM9.00515 6.00097L9.88214 5.49464C9.69591 5.17208 9.27179 4.612 8.94745 4.19331C8.77457 3.97015 8.61131 3.76345 8.49144 3.61277C8.43143 3.53732 8.38211 3.47568 8.34767 3.43274C8.33044 3.41127 8.31693 3.39446 8.30764 3.38293C8.303 3.37716 8.29941 3.37271 8.29695 3.36966C8.29572 3.36813 8.29477 3.36695 8.29411 3.36613C8.29377 3.36572 8.29318 3.36498 8.29299 3.36475C8.29296 3.36472 8.29299 3.36475 7.50515 4.00097C6.71731 4.63719 6.71732 4.6372 6.71731 4.63719C6.71742 4.63733 6.7177 4.63768 6.71795 4.63799C6.71846 4.63862 6.71925 4.6396 6.72032 4.64092C6.72245 4.64358 6.72571 4.64761 6.73001 4.65295C6.73861 4.66364 6.7514 4.67954 6.76786 4.70006C6.80078 4.74111 6.84835 4.80056 6.90641 4.87355C7.0227 5.01974 7.18031 5.2193 7.34635 5.43363C7.69984 5.88994 8.02572 6.32986 8.12816 6.5073L9.00515 6.00097ZM9.00515 6.00097L8.12816 6.5073C8.07772 6.41994 8.10478 6.40947 8.11628 6.59492C8.12574 6.7474 8.12031 6.94556 8.10356 7.17829C8.08697 7.40882 8.06206 7.63965 8.03876 7.86604C8.01806 8.06711 7.99291 8.31264 7.99291 8.50097H9.00556H10.0182C10.0182 8.4393 10.0291 8.30983 10.0534 8.0734C10.0752 7.86229 10.1043 7.59312 10.1237 7.32365C10.1429 7.05638 10.1554 6.75454 10.1377 6.46952C10.1221 6.21747 10.0769 5.832 9.88214 5.49464L9.00515 6.00097Z" fill="currentColor"/>
<path d="M14.4727 12.3643H12.7979C12.4906 12.3644 12.2416 12.6063 12.2402 12.9062H12.2422V13.7275H14.4727V15.0918H12.2422V16.1807H14.4727V17.5439H10.0078V16.1807H10.8467V15.0918H10.0078V13.7275H10.8467V12.9092H10.8447C10.8447 11.855 11.7191 11.0001 12.7979 11H14.4727V12.3643Z" fill="currentColor"/>
<path d="M7.64062 7.85938C11.3696 8.7046 13.4746 8.69066 17.3621 7.85938M7.64062 4C11.3696 4.84522 13.4746 4.83129 17.3621 4" stroke="currentColor" stroke-width="2.02532" stroke-linecap="round"/>
<path d="M8.03974 21.0013C5.80264 21.0013 4 19.1861 4 17L5.0018 16.5L6.0018 17C6.0018 18.0931 6.92119 19.0221 8.03974 19.0221V21.0013Z" fill="currentColor"/>
<path d="M15.9375 8.50097H14.9249V8.74921L15.0397 8.96931L15.9375 8.50097ZM18.2258 4.63719C18.5772 4.20208 18.5093 3.56451 18.0742 3.21313C17.6391 2.86175 17.0015 2.92964 16.6501 3.36475L18.2258 4.63719ZM19.9375 17.001H20.9502C20.9502 15.9326 21.1815 13.1425 19.2362 11.1978L18.5203 11.9139L17.8043 12.6301C19.034 13.8595 18.9249 15.639 18.9249 17.001H19.9375ZM18.5203 11.9139L19.2362 11.1978C18.355 10.3168 17.6144 9.52602 16.8354 8.03263L15.9375 8.50097L15.0397 8.96931C15.956 10.7259 16.8596 11.6856 17.8043 12.6301L18.5203 11.9139ZM15.938 6.00097L16.8149 6.5073C16.9174 6.32986 17.2433 5.88994 17.5968 5.43363C17.7628 5.2193 17.9204 5.01974 18.0367 4.87355C18.0948 4.80056 18.1423 4.74111 18.1752 4.70006C18.1917 4.67954 18.2045 4.66364 18.2131 4.65295C18.2174 4.64761 18.2206 4.64358 18.2228 4.64092C18.2239 4.6396 18.2252 4.63782 18.2258 4.63719C18.2257 4.63733 18.226 4.63688 18.2258 4.63719C18.2258 4.6372 18.2258 4.63719 17.438 4.00097C16.6501 3.36475 16.6501 3.36472 16.6501 3.36475C16.6499 3.36498 16.6493 3.36572 16.649 3.36613C16.6483 3.36695 16.6474 3.36813 16.6462 3.36966C16.6437 3.37271 16.6401 3.37716 16.6355 3.38293C16.6262 3.39446 16.6127 3.41127 16.5954 3.43274C16.561 3.47568 16.5117 3.53732 16.4517 3.61277C16.3318 3.76345 16.1685 3.97015 15.9957 4.19331C15.6713 4.612 15.2472 5.17208 15.061 5.49464L15.938 6.00097ZM15.938 6.00097L15.061 5.49464C14.8662 5.832 14.821 6.21747 14.8054 6.46952C14.7877 6.75454 14.8002 7.05638 14.8194 7.32365C14.8388 7.59312 14.8679 7.86229 14.8897 8.0734C14.914 8.30983 14.9249 8.4393 14.9249 8.50097H15.9375H16.9502C16.9502 8.31264 16.925 8.06711 16.9043 7.86604C16.881 7.63965 16.8561 7.40882 16.8395 7.17829C16.8228 6.94556 16.8174 6.7474 16.8268 6.59492C16.8383 6.40947 16.8654 6.41994 16.8149 6.5073L15.938 6.00097Z" fill="currentColor"/>
<path d="M16.8984 21.0013C19.1355 21.0013 20.9381 19.1861 20.9381 17L19.9363 16.5L18.9363 17C18.9363 18.0931 18.0169 19.0221 16.8984 19.0221V21.0013Z" fill="currentColor"/>
</svg>
