<svg aria-hidden="true" viewBox="0 0 17 18" fill="none" xmlns="http://www.w3.org/2000/svg">
  <g>
    <rect width="2" height="9" transform="matrix(4.47307e-08 -1 -1 -4.27153e-08 13.0017 18)" fill="currentColor"/>
    <path d="M2.41939 8.91297L3.13535 9.62913L2.41939 8.91297ZM5.00212 5.5L5.89997 5.96834L6.01478 5.74824V5.5H5.00212ZM4.28955 0.363777C3.93818 -0.0713367 3.3006 -0.13922 2.86549 0.212157C2.43037 0.563533 2.36249 1.20111 2.71387 1.63622L4.28955 0.363777ZM1.00213 14H2.01479C2.01479 12.638 1.90565 10.8585 3.13535 9.62913L2.41939 8.91297L1.70343 8.19682C-0.241805 10.1415 -0.0105252 12.9316 -0.0105252 14H1.00213ZM2.41939 8.91297L3.13535 9.62913C4.08009 8.68466 4.98368 7.72495 5.89997 5.96834L5.00212 5.5L4.10427 5.03166C3.32529 6.52505 2.58465 7.31585 1.70343 8.19682L2.41939 8.91297ZM5.00171 3L5.8787 2.49367C5.69247 2.17111 5.26835 1.61103 4.94401 1.19234C4.77113 0.969174 4.60787 0.762481 4.488 0.611794C4.42799 0.536351 4.37867 0.474707 4.34423 0.43177C4.327 0.410296 4.31349 0.393487 4.3042 0.381953C4.29956 0.376186 4.29597 0.371737 4.29351 0.368683C4.29228 0.367156 4.29133 0.365977 4.29067 0.365156C4.29033 0.364746 4.29008 0.364425 4.28989 0.364194C4.2898 0.364079 4.28972 0.363987 4.28967 0.363917C4.28964 0.363883 4.28961 0.363847 4.2896 0.36383C4.28957 0.363801 4.28955 0.363777 3.50171 1C2.71387 1.63622 2.71386 1.63621 2.71385 1.6362C2.71385 1.63621 2.71385 1.63621 2.71386 1.63622C2.71388 1.63624 2.71392 1.63629 2.71397 1.63635C2.71408 1.63649 2.71426 1.63671 2.71451 1.63702C2.71502 1.63765 2.71581 1.63863 2.71688 1.63995C2.71901 1.64261 2.72227 1.64664 2.72657 1.65198C2.73517 1.66267 2.74796 1.67857 2.76442 1.69909C2.79734 1.74014 2.84491 1.79959 2.90297 1.87258C3.01926 2.01877 3.17687 2.21833 3.34291 2.43266C3.6964 2.88897 4.02228 3.32889 4.12472 3.50633L5.00171 3ZM5.00171 3L4.12472 3.50633C4.07428 3.41897 4.10134 3.4085 4.11284 3.59395C4.1223 3.74643 4.11687 3.94459 4.10012 4.17732C4.08353 4.40785 4.05862 4.63868 4.03532 4.86507C4.01462 5.06614 3.98947 5.31167 3.98947 5.5H5.00212H6.01478C6.01478 5.43833 6.02566 5.30886 6.04999 5.07243C6.07172 4.86132 6.10082 4.59215 6.12022 4.32268C6.13945 4.05541 6.15196 3.75357 6.13427 3.46855C6.11864 3.2165 6.07347 2.83103 5.8787 2.49367L5.00171 3Z" fill="currentColor"/>
    <path d="M10.4666 9.36426H8.79175V9.36328C8.48449 9.36341 8.23554 9.60628 8.23413 9.90625H8.23608V10.7275H10.4666V12.0918H8.23608V13.1807H10.4666V14.5439H6.00171V13.1807H6.84058V12.0918H6.00171V10.7275H6.84058V9.90918H6.83862C6.83862 8.85499 7.713 8.00013 8.79175 8H10.4666V9.36426Z" fill="currentColor"/>
    <path d="M3.63452 4.85938C7.36347 5.7046 9.4685 5.69066 13.356 4.85938M3.63452 1C7.36347 1.84522 9.46849 1.83129 13.356 1" stroke="currentColor" stroke-width="2.02532" stroke-linecap="round"/>
    <path d="M4.03974 18.0013C1.80264 18.0013 0 16.1861 0 14L1.0018 13.5L2.0018 14C2.0018 15.0931 2.92119 16.0221 4.03974 16.0221V18.0013Z" fill="currentColor"/>
    <path d="M14.513 8.91297L13.797 9.62913L14.513 8.91297ZM11.9302 5.5H10.9176V5.74824L11.0324 5.96834L11.9302 5.5ZM14.2185 1.63622C14.5699 1.20111 14.502 0.563533 14.0669 0.212157C13.6318 -0.13922 12.9942 -0.0713368 12.6428 0.363777L14.2185 1.63622ZM15.9302 14H16.9429C16.9429 12.9316 17.1742 10.1415 15.2289 8.19682L14.513 8.91297L13.797 9.62913C15.0267 10.8585 14.9176 12.638 14.9176 14H15.9302ZM14.513 8.91297L15.2289 8.19682C14.3477 7.31585 13.6071 6.52505 12.8281 5.03166L11.9302 5.5L11.0324 5.96834C11.9487 7.72495 12.8523 8.68466 13.797 9.62913L14.513 8.91297ZM11.9307 3L12.8076 3.50633C12.9101 3.32889 13.236 2.88897 13.5895 2.43266C13.7555 2.21833 13.9131 2.01877 14.0294 1.87258C14.0875 1.79959 14.135 1.74014 14.1679 1.69909C14.1844 1.67857 14.1972 1.66267 14.2058 1.65198C14.2101 1.64664 14.2133 1.64261 14.2155 1.63995C14.2166 1.63863 14.2173 1.63765 14.2179 1.63702C14.2181 1.63671 14.2183 1.63649 14.2184 1.63635C14.2184 1.63629 14.2185 1.63624 14.2185 1.63622C14.2185 1.63621 14.2185 1.63621 14.2185 1.6362C14.2185 1.63621 14.2185 1.63622 13.4307 1C12.6428 0.363777 12.6428 0.363801 12.6428 0.36383C12.6428 0.363847 12.6427 0.363883 12.6427 0.363917C12.6426 0.363987 12.6426 0.364079 12.6425 0.364194C12.6423 0.364425 12.642 0.364746 12.6417 0.365156C12.641 0.365977 12.6401 0.367156 12.6389 0.368683C12.6364 0.371737 12.6328 0.376186 12.6282 0.381953C12.6189 0.393486 12.6054 0.410296 12.5881 0.43177C12.5537 0.474707 12.5044 0.536351 12.4444 0.611794C12.3245 0.762481 12.1612 0.969174 11.9884 1.19234C11.664 1.61103 11.2399 2.17111 11.0537 2.49367L11.9307 3ZM11.9307 3L11.0537 2.49367C10.8589 2.83103 10.8137 3.2165 10.7981 3.46855C10.7804 3.75357 10.7929 4.05541 10.8121 4.32268C10.8315 4.59215 10.8606 4.86132 10.8824 5.07243C10.9067 5.30886 10.9176 5.43833 10.9176 5.5H11.9302H12.9429C12.9429 5.31167 12.9177 5.06614 12.897 4.86507C12.8737 4.63868 12.8488 4.40785 12.8322 4.17732C12.8155 3.94459 12.8101 3.74643 12.8195 3.59395C12.831 3.4085 12.8581 3.41897 12.8076 3.50633L11.9307 3Z" fill="currentColor"/>
    <path d="M12.8929 18.0013C15.13 18.0013 16.9326 16.1861 16.9326 14L15.9308 13.5L14.9308 14C14.9308 15.0931 14.0114 16.0221 12.8929 16.0221V18.0013Z" fill="currentColor"/>
  </g>
</svg>
