<svg aria-hidden="true" viewBox="0 0 26 31" fill="none" xmlns="http://www.w3.org/2000/svg">
  <path d="M0.513672 24.6055C0.513672 27.8907 3.17685 30.5538 6.46205 30.5538V27.5797C4.81945 27.5797 3.48786 26.2481 3.48786 24.6055H0.513672Z" fill="#792B9E"/>
  <rect width="2.97419" height="5.35354" transform="matrix(4.37114e-08 -1 -1 -4.37114e-08 19.5469 30.5508)" fill="#792B9E"/>
  <rect width="2.97419" height="5.35354" transform="matrix(4.37114e-08 -1 -1 -4.37114e-08 16.5742 30.5508)" fill="#792B9E"/>
  <path d="M2 20.4398C2 18.6553 3.13041 16.514 4.08193 15.0863C5.27122 13.3018 7.05612 11.2198 7.65096 10.625" stroke="#792B9E" stroke-width="2.97419"/>
  <path d="M5.86719 2L7.6517 7.35354C7.75084 7.35354 8.54396 9.73289 7.35428 10.9226" stroke="#792B9E" stroke-width="2.97419" stroke-linecap="round"/>
  <rect x="6.46094" y="30.5508" width="2.97419" height="5.35354" transform="rotate(-90 6.46094 30.5508)" fill="#792B9E"/>
  <rect x="0.513672" y="24.6055" width="4.16387" height="2.97419" transform="rotate(-90 0.513672 24.6055)" fill="#792B9E"/>
  <rect width="4.16387" height="2.97419" transform="matrix(4.37114e-08 -1 -1 -4.37114e-08 25.4961 24.6055)" fill="#792B9E"/>
  <path d="M25.4961 24.6055C25.4961 27.8907 22.8329 30.5538 19.5477 30.5538V27.5797C21.1903 27.5797 22.5219 26.2481 22.5219 24.6055H25.4961Z" fill="#792B9E"/>
  <path d="M24.0098 20.4398C24.0098 18.6553 22.8794 16.514 21.9278 15.0863C20.7385 13.3018 18.9536 11.2198 18.3588 10.625" stroke="#792B9E" stroke-width="2.97419"/>
  <path d="M18.3346 7.35354L19.7454 7.8238L19.4065 8.84064H18.3346V7.35354ZM18.7084 1.52974C18.9681 0.750586 19.8102 0.3295 20.5894 0.589218C21.3686 0.848936 21.7896 1.69111 21.5299 2.47026L18.7084 1.52974ZM18.3346 7.35354L16.9238 6.88328L18.7084 1.52974L20.1191 2L21.5299 2.47026L19.7454 7.8238L18.3346 7.35354ZM18.3346 7.35354V8.84064C18.701 8.84064 18.9697 8.70687 19.1053 8.62397C19.2474 8.53708 19.3436 8.4448 19.3944 8.39212C19.495 8.28768 19.554 8.19402 19.5731 8.16311C19.599 8.12119 19.6155 8.08894 19.6229 8.07415C19.6311 8.05747 19.6358 8.0466 19.6372 8.04342C19.6394 8.03821 19.6244 8.07439 19.6008 8.15607C19.5552 8.3141 19.504 8.55182 19.482 8.81542C19.4315 9.42069 19.5604 9.74785 19.6836 9.87103L18.632 10.9226L17.5805 11.9741C16.514 10.9076 16.4446 9.45026 16.5181 8.56843C16.5581 8.08849 16.6493 7.65701 16.7431 7.33174C16.7893 7.17176 16.8432 7.01276 16.9031 6.87278C16.9301 6.80975 16.9767 6.70671 17.044 6.59799C17.0741 6.54937 17.143 6.4422 17.2524 6.32869C17.3075 6.27147 17.4078 6.17576 17.5537 6.08657C17.693 6.00137 17.9651 5.86645 18.3346 5.86645V7.35354Z" fill="#792B9E"/>
  <path d="M15.9922 17.1348H13.5332C13.0816 17.1348 12.7154 17.4999 12.7139 17.9512H12.7178V19.1846H15.9922V21.2334H12.7178V22.8721H15.9922V24.9209H9.43555V22.8721H10.668V21.2334H9.43555V19.1846H10.668V17.9541H10.665C10.665 16.3698 11.9489 15.086 13.5332 15.0859H15.9922V17.1348Z" fill="#792B9E"/>
  <path d="M5.86719 9.13672C11.3432 10.3779 14.4344 10.3575 20.1433 9.13672" stroke="#792B9E" stroke-width="2.97419" stroke-linecap="round"/>
  <path d="M5.86719 2C11.3432 3.24122 14.4344 3.22075 20.1433 2" stroke="#792B9E" stroke-width="2.97419" stroke-linecap="round"/>
</svg>
