<svg width="18" height="19" viewBox="0 0 18 19" fill="none" xmlns="http://www.w3.org/2000/svg">
<g clip-path="url(#clip0_1503_13077)">
<path d="M9.5 2.5C11.4 2.5 13 4.1 13 6C13 7.9 11.4 9.5 9.5 9.5C7.6 9.5 6 7.9 6 6C6 4.1 7.6 2.5 9.5 2.5ZM9.5 0.5C6.5 0.5 4 3 4 6C4 9 6.5 11.5 9.5 11.5C12.5 11.5 15 9 15 6C15 3 12.6 0.5 9.5 0.5Z" fill="#33333F"/>
<path fill-rule="evenodd" clip-rule="evenodd" d="M0.310303 17.0759C2.5762 14.9179 5.61677 13.5 9.09996 13.5C12.4588 13.5 15.6151 14.8009 17.9071 17.0929L16.4929 18.5071C14.5848 16.5991 11.9411 15.5 9.09996 15.5C6.18314 15.5 3.62372 16.6821 1.68961 18.5241L0.310303 17.0759Z" fill="#33333F"/>
</g>
<defs>
<clipPath id="clip0_1503_13077">
<rect width="18" height="18" fill="white" transform="translate(0 0.5)"/>
</clipPath>
</defs>
</svg>
