<?xml version="1.0" encoding="UTF-8"?><svg id="Layer_1" xmlns="http://www.w3.org/2000/svg" xmlns:xlink="http://www.w3.org/1999/xlink" viewBox="0 0 184.32 62"><defs><style>.cls-1{fill:none;}.cls-2{fill:#1a6bb4;}.cls-3{fill:#231815;}.cls-4{clip-path:url(#clippath);}</style><clipPath id="clippath"><rect class="cls-1" width="184.32" height="62"/></clipPath></defs><g class="cls-4"><path class="cls-2" d="M2.06,0H0v61.57h2.06V0Z"/><path class="cls-3" d="M69.98,59.38c-1.35,1.85-3.56,2.62-5.65,2.62-5.25,0-8.36-4.28-8.36-8.9,0-5.14,2.8-9.57,8.36-9.57,3.84,0,6.88,1.72,7.56,5.85h-2.33c-.46-2.68-2.61-3.88-5.22-3.88-4.27,0-6.02,3.69-6.02,7.48s2.12,7.02,6.02,7.02c3.62,0,5.78-2.56,5.65-5.76h-5.62v-1.97h7.71v9.27h-1.47l-.61-2.15Z"/><path class="cls-3" d="M80.24,48.52c4.02,0,6.17,2.92,6.17,6.68s-2.15,6.65-6.17,6.65-6.17-2.92-6.17-6.65,2.15-6.68,6.17-6.68ZM80.24,60.03c2.18,0,3.96-1.72,3.96-4.8s-1.78-4.83-3.96-4.83-3.96,1.72-3.96,4.83,1.78,4.8,3.96,4.8Z"/><path class="cls-3" d="M93.54,61.57h-2.24l-4.73-12.74h2.33l3.59,10.62h.03l3.47-10.62h2.21l-4.67,12.74Z"/><path class="cls-3" d="M109.88,57.54c-.55,2.8-2.58,4.34-5.44,4.34-4.06,0-5.99-2.8-6.11-6.71,0-3.82,2.52-6.65,5.99-6.65,4.52,0,5.9,4.22,5.78,7.3h-9.52c-.06,2.22,1.17,4.19,3.96,4.19,1.72,0,2.92-.83,3.29-2.49h2.06v.03ZM107.86,53.97c-.09-2-1.6-3.6-3.66-3.6-2.18,0-3.5,1.66-3.66,3.6h7.31Z"/><path class="cls-3" d="M111.76,48.82h1.97v2.68h.06c1.01-2.06,2.43-3.05,4.67-2.99v2.22c-3.38,0-4.61,1.94-4.61,5.17v5.66h-2.09v-12.74Z"/><path class="cls-3" d="M119.62,48.82h1.97v2.03h.06c.89-1.57,2.3-2.31,4.15-2.31,3.35,0,4.39,1.91,4.39,4.65v8.37h-2.09v-8.62c0-1.54-.98-2.56-2.58-2.56-2.55,0-3.78,1.69-3.78,4v7.2h-2.09v-12.78h-.03Z"/><path class="cls-3" d="M132.68,48.82h1.97v1.88h.06c.92-1.42,2.37-2.19,4.12-2.19,1.57,0,2.98.62,3.5,2.19.86-1.35,2.37-2.19,3.99-2.19,2.55,0,4.24,1.05,4.24,3.69v9.36h-2.09v-8.37c0-1.57-.43-2.83-2.46-2.83s-3.32,1.29-3.32,3.26v7.94h-2.12v-8.37c0-1.66-.52-2.83-2.4-2.83-2.49,0-3.41,2.31-3.41,3.26v7.94h-2.09v-12.74Z"/><path class="cls-3" d="M163.95,57.54c-.55,2.8-2.58,4.34-5.44,4.34-4.05,0-5.99-2.8-6.11-6.71,0-3.82,2.52-6.65,5.99-6.65,4.52,0,5.9,4.22,5.78,7.3h-9.52c-.06,2.22,1.17,4.19,3.96,4.19,1.72,0,2.92-.83,3.29-2.49h2.06v.03ZM161.93,53.97c-.09-2-1.6-3.6-3.66-3.6-2.18,0-3.5,1.66-3.66,3.6h7.31Z"/><path class="cls-3" d="M165.86,48.82h1.97v2.03h.06c.89-1.57,2.3-2.31,4.15-2.31,3.35,0,4.39,1.91,4.39,4.65v8.37h-2.09v-8.62c0-1.54-.98-2.56-2.58-2.56-2.55,0-3.78,1.69-3.78,4v7.2h-2.09v-12.78h-.03Z"/><path class="cls-3" d="M181.77,48.82h2.55v1.85h-2.55v7.91c0,.95.28,1.14,1.57,1.14h.95v1.85h-1.6c-2.18,0-3.04-.43-3.04-2.8v-8.13h-2.18v-1.85h2.18v-3.82h2.09v3.85h.03Z"/><path class="cls-3" d="M11.92,43.96h2.33v7.57h9.25v-7.57h2.33v17.61h-2.33v-8.07h-9.25v8.07h-2.33v-17.61Z"/><path class="cls-3" d="M29.09,43.96h3.2l5.53,14.81,5.56-14.81h3.19v17.61h-2.21v-14.65h-.03l-5.5,14.65h-2l-5.5-14.65h-.03v14.65h-2.21v-17.61Z"/><path class="cls-3" d="M28.84,5.76c-.21.4-.37.62-.34.89.03.31.34.52.49.8.12-.34.37-.62.34-.89-.06-.22-.43-.58-.49-.8Z"/><path class="cls-3" d="M34,5.76c.22.4.37.62.34.89-.03.31-.34.52-.49.8-.12-.34-.37-.62-.34-.89.03-.22.43-.58.49-.8Z"/><path class="cls-3" d="M25.87,5.54c.18,0,.34-.15.34-.34s-.15-.34-.34-.34-.34.15-.34.34.15.34.34.34Z"/><path class="cls-3" d="M26.11,6.03c0-.18-.15-.34-.34-.34s-.34.15-.34.34.15.34.34.34c.18.03.34-.12.34-.34Z"/><path class="cls-3" d="M26.26,6.9c0-.18-.15-.34-.34-.34s-.34.15-.34.34.15.34.34.34.34-.15.34-.34Z"/><path class="cls-3" d="M27.8,3.88c.18,0,.34-.15.34-.34s-.15-.34-.34-.34-.34.15-.34.34.15.34.34.34Z"/><path class="cls-3" d="M26.94,4.16c.18,0,.34-.15.34-.34s-.15-.34-.34-.34-.34.15-.34.34c-.03.18.12.34.34.34Z"/><path class="cls-3" d="M26.26,4.74c.18,0,.34-.15.34-.34s-.15-.34-.34-.34-.34.15-.34.34c-.03.18.12.34.34.34Z"/><path class="cls-3" d="M28.72,3.97c.18,0,.34-.15.34-.34s-.15-.34-.34-.34-.34.15-.34.34c-.03.18.12.34.34.34Z"/><path class="cls-3" d="M29.58,4.22c.18,0,.34-.15.34-.34s-.15-.34-.34-.34-.34.15-.34.34c-.03.18.12.34.34.34Z"/><path class="cls-3" d="M30.38,4.59c.18,0,.34-.15.34-.34s-.15-.34-.34-.34-.34.15-.34.34.15.34.34.34Z"/><path class="cls-3" d="M36.62,5.2c0,.18.15.34.34.34s.34-.15.34-.34-.15-.34-.34-.34c-.18-.03-.34.12-.34.34Z"/><path class="cls-3" d="M37.08,5.69c-.18,0-.34.15-.34.34s.15.34.34.34.34-.15.34-.34-.15-.34-.34-.34Z"/><path class="cls-3" d="M36.89,6.53c-.18,0-.34.15-.34.34s.15.34.34.34.34-.15.34-.34c.03-.15-.15-.34-.34-.34Z"/><path class="cls-3" d="M35.02,3.88c.18,0,.34-.15.34-.34s-.15-.34-.34-.34-.34.15-.34.34.15.34.34.34Z"/><path class="cls-3" d="M35.88,4.16c.18,0,.34-.15.34-.34s-.15-.34-.34-.34-.34.15-.34.34.15.34.34.34Z"/><path class="cls-3" d="M36.58,4.74c.18,0,.34-.15.34-.34s-.15-.34-.34-.34-.34.15-.34.34c-.03.18.12.34.34.34Z"/><path class="cls-3" d="M34.13,3.97c.18,0,.34-.15.34-.34s-.15-.34-.34-.34-.34.15-.34.34c-.03.18.12.34.34.34Z"/><path class="cls-3" d="M33.24,4.22c.18,0,.34-.15.34-.34s-.15-.34-.34-.34-.34.15-.34.34.15.34.34.34Z"/><path class="cls-3" d="M32.1,4.25c0,.18.15.34.34.34s.34-.15.34-.34-.15-.34-.34-.34-.34.15-.34.34Z"/><path class="cls-3" d="M30.81,6.13h.4v-1.51c-.12-.03-.28-.06-.4-.12v1.63Z"/><path class="cls-3" d="M32.01,4.53c-.12.06-.25.09-.4.12v1.51h.4v-1.63Z"/><path class="cls-3" d="M31.18,2.86v-.89c-.43.09-.77.43-.86.89h.86Z"/><path class="cls-3" d="M31.64,2.86h.86c-.06-.43-.4-.8-.86-.89v.89Z"/><path class="cls-3" d="M30.35,3.29c.12.49.55.86,1.08.86s.95-.37,1.08-.86h-2.15Z"/><path class="cls-3" d="M32.01,1.85c-.25-.18-.43-.49-.46-.77.28.06.61.25.8.49V.37c-.18.25-.52.46-.8.49.03-.28.22-.55.46-.86h-1.17c.25.31.43.58.46.86-.28-.06-.61-.25-.8-.49v1.2c.18-.25.52-.46.8-.49-.03.31-.22.58-.46.77h1.17Z"/><path class="cls-3" d="M32.04,26.91c-.25,0-.43-.18-.43-.43s.18-.43.43-.43.43.18.43.43-.18.43-.43.43ZM29.98,26.26c-.25,0-.46-.22-.46-.46s.22-.46.46-.46.46.22.46.46c0,.28-.18.46-.46.46ZM29.27,24.2l-.12-.09c-.22-.15-.4-.15-.58,0-.09.09-.18.18-.25.28l-.12.12.09.06c.22.18.25.37.18.49-.03.03-.06.06-.12.09-.12.03-.28,0-.43-.12l-.09-.06-.06.09s-.03.03-.03.06c-.03.03-.03.06-.06.09-.09.15-.15.31-.15.4v.09c.03.12.12.18.22.22l.06.03c.09.06.25.15.34.22-.18.12-.4.12-.58.03-.31-.15-.49-.49-.49-.65,0-.25.12-.58.34-.92l.03-.06-.03-.06c-.06-.09-.12-.22-.15-.31.12.03.22.03.34.06h.06l.03-.03c.12-.15.58-.62,1.01-.62.18,0,.4.09.55.28.12.12.18.28.22.43-.06-.03-.12-.09-.18-.12ZM33.3,25.83c-1.11-.28-2.4-.74-3.62-1.29.03-.25-.06-.52-.25-.74s-.43-.34-.71-.34c-.12,0-.22.03-.34.06-.18-.15-.34-.34-.49-.52-.46-.55-.83-1.17-1.08-1.88-.15-.4-.25-.83-.31-1.23-.06.37-.46.83-1.14.83,0-.06,0-.25-.06-.28-.18.18-.46.43-1.08.18.09.49.22.95.4,1.42.37.99.89,1.88,1.57,2.65.21.25.46.49.71.71v.15c0,.25.25.68.61.83.31.15.61.09.89-.09.52.28,1.2.55,1.94.77.83.22,1.63.37,2.24.37.52,0,1.23-.25,1.94-.68.28-.18.55-.37.74-.55.03-.03.06-.06.06-.06-.55.03-1.35-.12-2.03-.31Z"/><path class="cls-3" d="M32.99,30.29c-.09-.15-.18-.25-.31-.25-.46,0-.28,1.17-.8,1.17-.25,0-.37-.15-.37-.31s.12-.22.12-.34-.09-.18-.21-.18-.22.06-.22.18.12.18.12.34-.12.31-.37.31c-.52,0-.37-1.17-.8-1.17-.09,0-.22.09-.31.25-.09-.15-.15-.34-.15-.46,0-.22.15-.52.52-.52.58,0,.46.83.74.83.12,0,.22-.09.22-.22,0-.25-.43-.46-.43-.8s.31-.62.65-.89c.34.28.65.55.65.89s-.43.55-.43.8c0,.12.09.22.22.22.28,0,.15-.83.74-.83.34,0,.52.31.52.52.03.12,0,.31-.09.46ZM31.42,31.95c-.15,0-.28-.12-.28-.28s.12-.28.28-.28.31.12.31.28c-.03.15-.15.28-.31.28ZM32.62,29.09c-.09,0-.15,0-.22.03v-1.32c-.58-.03-1.26-.12-1.9-.28v1.6c-.06-.03-.15-.03-.25-.03-.46,0-.74.4-.74.74s.18.65.37.86c.09-.22.15-.37.28-.37.22,0,.12,1.14.8,1.17-.03.06-.03.12-.03.18,0,.28.25.52.52.52s.52-.25.52-.52c0-.06,0-.12-.03-.18.68-.03.55-1.17.8-1.17.12,0,.18.15.28.37.18-.18.37-.52.37-.86-.03-.37-.31-.74-.77-.74Z"/><path class="cls-3" d="M48.01,30.66c-.03-.06-.09-.09-.18-.09-1.54.46-3.44-.83-5.28-2.06-1.57-1.05-3.01-2-4.27-2-.46,0-.89.09-1.23.28-.43.25-.77.62-.98,1.14-.22.52-.43.86-.61,1.14-.22.34-.37.58-.37.89,0,.25.09.46.31.68.18.18.43.34.8.55.09.03.15.09.25.12.31.15.49.25.52.43-.61.28-1.38.49-2.27.65-1.01.18-2.12.28-3.29.28s-2.27-.09-3.29-.28c-.89-.15-1.69-.37-2.3-.65.03-.25.22-.37.55-.52.09-.03.15-.06.25-.12.31-.15.58-.31.8-.49.22-.18.31-.4.31-.65,0-.31-.15-.55-.37-.89-.18-.28-.4-.65-.61-1.14-.22-.52-.55-.89-.98-1.14-.37-.18-.77-.31-1.23-.31-1.26,0-2.73.99-4.27,2-1.84,1.23-3.75,2.49-5.28,2.06-.06-.03-.15.03-.18.09-.03.06,0,.15.06.18.46.22.89.52,1.29.83.55.43,1.08.83,1.66.83.55,0,1.14-.18,1.84-.55.61-.34,1.26-.77,1.87-1.2,1.23-.83,2.46-1.69,3.66-1.79-.12.12-.25.25-.37.34-.34.31-.65.58-.65,1.14,0,.43.15.74.37,1.17.06.12.12.28.18.43.12.31.18.52.28.86.03.15.06.31.12.49.06.28.22.8,1.08,1.26,1.01.52,2.76.77,5.19.77s4.18-.28,5.19-.77c.86-.43,1.01-.99,1.08-1.26.06-.18.09-.34.12-.49.09-.34.12-.55.28-.86.09-.22.18-.4.28-.55.18-.34.34-.62.34-1.02,0-.55-.31-.83-.68-1.17-.12-.09-.25-.22-.37-.34,1.2.09,2.46.95,3.66,1.79.61.43,1.26.86,1.87,1.2.71.37,1.29.55,1.84.55.58,0,1.11-.4,1.66-.83.4-.31.8-.65,1.29-.83.09,0,.12-.09.09-.15Z"/><path class="cls-3" d="M31.64,18.72v-5.79c.61.03,1.2.18,1.75.46.58.31,1.14.71,1.6,1.26s.83,1.17,1.08,1.88c.25.71.37,1.45.4,2.19h-4.82ZM31.42,10.5c-1.63,0-2.76.49-3.41.92-.37-.22-.55-.46-.55-.71,0-.92,2.61-1.02,3.96-1.02s3.96.09,3.96,1.02c0,.25-.15.49-.55.71-.65-.43-1.78-.92-3.41-.92ZM31.33,18.72h-4.92c0-.77.15-1.51.4-2.19.25-.71.61-1.32,1.08-1.88.46-.55.98-.95,1.6-1.26.58-.28,1.2-.43,1.84-.46v5.79ZM38.8,18.35c-.18-.12-.46-.4-.58-.68-.18-.37-.95-1.88-1.08-2.09-.09-.15-.15-.31-.15-.46s.09-.28.15-.4c.06-.06.22-.25.28-.34.06-.06.09-.12.12-.18-.28-.49-.55-.83-.92-1.26-.46-.49-.95-.92-1.51-1.29.31-.18.58-.46.58-.92,0-.28-.12-.49-.31-.65.31-.99.86-2.19,1.32-2.71l-.98-.43c.25.4.28.86.22,1.11-.25-.18-.49-.43-.55-.74-.06.31-.22.77-.37,1.08.28-.12.52-.18.8-.06-.15.22-.58.58-1.23.43-.34-.09-.71-.28-.68-.55,0-.15.12-.37.34-.34.22.03.22.34.15.49.28-.15.58-.99.12-1.11-.34-.09-.68.37-.77.74-.06-.43-.25-.86-.58-.83-.46.03-.31.86-.15,1.08.03-.31.18-.46.34-.43.12,0,.28.09.25.37-.03.28-.4.43-.86.43-.43,0-1.14-.12-1.23-.92.28.06.71.25.89.52-.06-.49-.06-.83,0-1.35-.22.31-.61.49-.86.52.06-.34.37-.71.71-.92h-1.78c.34.22.65.58.71.92-.28-.03-.65-.22-.86-.52.06.49.06.86,0,1.35.18-.28.58-.46.86-.52-.06.8-.8.92-1.23.92s-.83-.15-.86-.43c-.03-.28.12-.37.25-.37s.31.15.31.43c.15-.22.31-1.05-.15-1.08-.34-.03-.52.4-.61.83-.12-.37-.43-.83-.77-.74-.43.12-.15.95.12,1.11-.06-.15-.06-.46.15-.49.22-.03.34.18.34.34.03.28-.34.46-.68.55-.65.15-1.08-.18-1.23-.4.31-.12.52-.06.83.06-.15-.28-.31-.77-.37-1.08-.06.34-.31.58-.55.77-.06-.28-.03-.74.22-1.11l-.98.43c.46.52,1.01,1.72,1.32,2.71-.18.15-.31.37-.31.65,0,.46.31.74.58.92-.55.37-1.04.8-1.47,1.29-.68.77-1.2,1.63-1.57,2.65.12.15.74.8.86.95.25.31.4.62.4.86,0,.46.12.62.34.92.06.09.18.43.18.65h4.92v5.36c-.18,0-.4.06-.55.28.55.22,1.11.43,1.66.62.06-.34.12-.55.31-.77,0,0-.71-.06-1.11-.09v-5.36h4.92c-.03.74-.15,1.45-.4,2.12-.25.71-.61,1.32-1.08,1.88s-.98.95-1.6,1.26c-.09.06-.09.12-.18.15-.09.09-.15.25-.25.43-.06.15-.09.28-.12.49.22.06.34.09.55.15,1.69.43,2.09.31,2.18.22.37-.28.74-.62,1.04-.99.68-.77,1.2-1.66,1.57-2.65.4-1.02.58-2.12.58-3.23.06-.31.06-.37.06-.55Z"/><path class="cls-3" d="M34.31,15.27s-.06.09-.06.12c.03.06.06.09.15.09-.06.03-.09.12-.12.22.09,0,.15,0,.22-.06-.03.09,0,.12.06.15.03.03.09.03.12,0,.37.58.61,1.26.71,1.94-.03-.03-.09-.06-.18-.06,0,.09.03.18.09.22h-1.2c0-.06-.03-.15-.09-.15-.06-.03-.09,0-.15.06,0-.06-.03-.15-.09-.22-.06.06-.09.15-.09.22-.06-.06-.12-.06-.15-.06-.06.03-.09.09-.09.15h-.98c.03-.06.06-.12.06-.22-.09,0-.15.03-.22.06v-1.66c.09,0,.15-.03.15-.09.03-.06,0-.12-.06-.15.06,0,.15-.03.22-.09-.06-.06-.15-.09-.22-.09.06-.06.06-.12.06-.15-.03-.06-.09-.09-.15-.09v-1.42s.09.06.18.06c0-.09,0-.15-.06-.22.31.09.61.25.92.46.37.34.71.65.98.99ZM35.66,17.76c.09.06.06.18-.06.18-.09-.86-.43-1.72-.92-2.43.09-.03.18-.12.22-.25-.15-.03-.25.06-.31.12-.03-.06-.06-.09-.09-.12-.31-.4-.65-.71-1.04-.99-.37-.25-.77-.43-1.17-.52,0-.09.12-.12.18-.03,0-.15-.12-.22-.18-.18-.03,0-.09.06-.09.12-.06-.06-.12-.09-.22-.12,0,.09.03.18.06.22-.06,0-.09.03-.12.06-.03.06,0,.22.15.22-.06-.06-.03-.18.06-.18v1.88c-.09-.03-.22-.03-.31.09.09.09.22.12.31.09v2.03c-.09,0-.12-.12-.06-.18-.15,0-.22.12-.18.22.03.06.06.09.15.06-.06.06-.09.12-.09.22.09,0,.15-.03.22-.09,0,.09.03.12.09.15.06.03.22-.03.22-.18-.06.09-.18.06-.18-.03h1.41c-.03.09,0,.22.09.31.09-.09.12-.22.09-.31h1.57c0,.09-.12.12-.18.06,0,.15.15.22.22.18.06-.03.09-.06.06-.15.06.03.12.06.22.06,0-.09-.03-.15-.09-.22.09,0,.12-.03.15-.09.06-.06,0-.18-.15-.18Z"/><path class="cls-3" d="M34.83,17.24c.06-.03.12-.06.12-.12-.06.03-.12,0-.12-.03.06-.03.09,0,.06-.09-.06-.09-.09-.09-.15-.03-.06.06-.43-.03-.43-.31.03.06.06.09.12.12,0,0,.03,0,.03.03h.06s.06.03.12.03h.03c.09-.03.15-.06.15-.15,0-.15-.12-.22-.31-.37-.06-.06-.12-.09-.15-.15-.06-.12-.03-.22-.15-.43,0-.06-.03-.09-.06-.18-.06.12-.12.4.09.62.15.18.49.34.49.49,0,.03-.03.06-.09.06h-.09s-.06,0-.06-.03c-.03-.03-.06-.06-.12-.09-.15-.12-.28-.34-.34-.43-.15-.22-.09-.4-.06-.55.12-.15-.06-.46-.18-.55,0,0,.03-.06,0-.15-.03.03-.06,0-.09,0q-.03-.06-.09-.06c-.06,0-.06-.06-.06-.06-.03.03-.06.06-.09.06-.06,0-.09,0-.09.03-.03.03-.06.03-.12.03s-.06.03-.06.09c0,.03,0,.06.06.09h.03l.06.06.03-.06s.12-.03.12.03c0,.03.03.06-.03.06h-.12s-.03.06-.03.09.03.06.12.03c.09-.03.22-.03.22.03,0,.18-.18.15-.25.37-.06-.03-.09-.06-.12-.12-.03-.06-.06-.12-.15-.18-.03-.03-.09-.09-.15-.12-.06-.03-.06-.06-.06-.15,0-.06.03-.12.03-.18,0,0,0-.03-.03-.06,0-.03-.06-.06-.09-.06,0,0,.03.03.03.06l-.03.03s-.03.03,0,.06v.03s-.03-.09-.06-.12h-.03s-.06-.09-.09-.03c0,0,.03,0,.03.03v.03s.03.06.09.06v.03c-.09-.03-.12,0-.12.03v.03s-.03.06.03.09v-.06l.03.03h.09c-.06.06-.03.09.03.12-.03.06-.12.03-.12-.06-.06.12.03.18.12.15v.12s0-.03.03-.03c0,.03,0,.06.06.06v-.03s.03.06.03.06c.03.09.12.28.34.37-.09.06-.18.15-.25.22-.06.06-.15.12-.18.09t-.06-.06s-.06-.03-.06-.03h-.03s-.09,0-.09.03h.06v.03s.03.06.12.03c0,0,.03,0,0,0,0,0-.03.03-.06,0-.06,0-.06-.06-.09,0,0,0,0,.03-.03.03s-.09.09-.03.12c0,0,0-.03.03-.06l.03.03s.06.06.12-.03c0,.06-.06.12,0,.12h.03c0,.06.09.06.12.06-.03,0-.06-.03-.06-.06h.03s0-.09,0-.12c0,.03.03.06.09.03t.03-.06c.06-.03.12-.06.18-.03,0-.03.03-.09.12-.12.06-.03.12,0,.12.03,0-.03.03-.09.06-.12,0,.31.4.31.49.46-.12-.06-.25-.09-.34-.06-.09.03-.28.12-.31.22-.03.09.09.25.18.31-.12.03-.15,0-.28,0-.09,0-.09-.15-.22-.12,0,0-.03,0-.03.03-.03,0-.09.06-.09.09,0,0,.03-.03.06-.03v.03s0,.03.03.03h.03s-.12-.03-.12.09c0,0,0,.03.03.03,0,.03.03.06.09.06l-.03-.03h.03v-.03.06s.06.09.12.03c-.03,0-.06,0-.06-.03h.03v-.03h.06s.03.06.09.03c.03,0,.03-.03.03-.03.03,0,.03.03.06.03,0-.03.03-.09.12-.03l.06-.06s.09.03.12,0c.06-.06.03-.06.03-.09-.03-.09-.06-.09-.09-.15-.03-.15.18-.25.31-.22.03.09.15.34.37.43.12.06.18-.09.25-.09l.03.03v.15s-.09,0-.15,0c-.03,0-.06.03-.06.03-.03,0-.09.03-.09.09.03,0,.03-.03.09-.03v.03c0,.06.06.09.12.03,0,0,.03,0,0,0-.03.03-.09.09-.03.09h.03s.03.06.06.09v-.06h.03s.03-.06.06-.09c0,.03-.03.09.03.09h.03s.06.06.09.03c0,0-.03-.03-.06-.03l.03-.03c.03-.09-.06-.09-.06-.12s.09-.03.09-.09c.03-.03.09-.06.09-.09,0,.22-.03.18-.03.18Z"/><path class="cls-3" d="M30.35,19.92h-.06c-.06,0-.18.03-.18.12s.06.15.15.15h.06v.06c-.03.15-.06.4-.09.68l-.74-1.05c.34-.12.61-.28.77-.28.09,0,.12.06.09.31ZM30.07,21.73l-1.17-1.66c.12-.03.25-.06.37-.12l.86,1.23c0,.22-.03.4-.06.55ZM29.95,22.5l-1.63-2.34h.15c.09,0,.15,0,.25-.03l1.32,1.88c-.03.18-.06.34-.09.49ZM28.11,20.16l1.78,2.59c-.95-.4-1.9-1.26-1.78-2.59ZM30.78,19.95h-.09v-.09c0-.28-.15-.49-.46-.49-.28,0-.8.37-1.57.37-.31,0-.71-.15-.92-.31l-.09.22v-.03c0-.09-.09-.18-.18-.18s-.18.09-.18.18.09.18.18.18c.06,0,.12-.03.15-.06l-.09.22s.06.03.09.03c-.12,1.14.74,2.59,2.21,3.02.22-.06.43-.03.43.22,0,.15-.06.22-.22.22-.09,0-.15-.06-.15-.12,0-.09.18-.03.18-.12.03-.09-.03-.12-.12-.12s-.25.06-.25.25c0,.22.15.34.34.34.15,0,.52-.09.46-.49.09,0,.15,0,.18-.09l.03-.22h-.09l.06-2.59h.06c.09,0,.18-.03.18-.12,0-.12-.06-.18-.15-.18Z"/><path class="cls-3" d="M29.46,14.47s.03-.03.03-.03t.03-.03s0-.03-.03-.06t.03-.03h-.03s0-.03.03-.03h.03l.09.03s.03,0,.03.03v.03s0-.03-.03-.03v.03s-.03-.03-.06,0v.09s-.03.06-.06.03c-.06.03-.06,0-.06-.03ZM29.58,14.22s-.06.06-.06.03c-.03-.03,0-.03-.03-.09.03.03.06.06.09.06ZM29.64,14.28s.09.03.12.03c-.06,0-.03.03-.06.03-.06,0-.06-.03-.06-.06ZM30.47,14.71c.34,0,.52-.12.52-.22,0-.4-.95-.15-.95-.4,0-.03.03-.06.06-.09.49-.03.49-.37.83-.43-.43-.06-.46.28-.65.28.09-.03.12-.15.12-.22-.09.12-.28.12-.37.25,0,.03-.03.06-.03.06-.06.03-.09.09-.09.15,0,.37.98.12.98.37,0,.09-.15.15-.43.15-.22,0-.34-.15-.71-.06,0-.06.12-.18.06-.25.03,0,.06-.03.06-.06-.03-.03-.06-.03-.06-.03t-.03-.06s0-.03-.03-.06c0,0-.03-.03-.09-.06-.03-.03-.06-.03-.09-.03h-.06s-.06,0-.06.03t-.06-.03s-.03.06,0,.09c-.03,0-.06.09-.09.09,0,.03.03.03.03.03-.03.06-.03.12-.06.12l.03.03c-.03.09-.03.18-.06.22-.03-.03-.06-.03-.09-.06-.06-.03-.06-.06-.03-.12,0-.06.03-.09.03-.12v-.03s-.06-.06-.06-.06c0,0,.03.03.03.06l-.03.03s-.03.03,0,.06v.03s-.03-.09-.06-.09h-.03s-.03-.06-.09-.03h.03s0,.03-.03.03c0,.03.03.06.06.06v.03c-.06-.03-.09,0-.12.03v.03s-.03.06,0,.06c0,0,0-.03.03-.03v.03h.09c-.06.03-.06.09,0,.09-.03.09-.12.06-.12,0-.09.09.03.15.12.12t.03.03s0-.03.03-.03c0,.03,0,.06.03.06v-.03s.03.06.09.12c-.09.03-.21.06-.21.06h-.18c-.06.03-.18.09-.25.03t-.03-.06s-.03-.03-.03-.03h-.03s-.06-.03-.09,0t.06.03v.03s0,.03.09.06h-.06s-.03-.06-.09-.03h-.03s-.09.03-.06.09c0,0,.03-.03.06-.03v.03s.03.09.12.03c-.03.03-.09.06-.03.09h.03c0,.06.03.09.06.09,0,0-.03-.03-.03-.06h.03s.03-.06.03-.09c0,.03,0,.06.06.06s.06-.06.06-.06c.03,0,.03.03.03.06l.03-.03s0,.06-.03.09c.03,0,.06-.03.09-.09,0,0,0,.03.03.03h.09v.06s0-.03.03-.03c0,0,0,.06.03.09,0-.12.09-.09.15-.12l-.03.03s.09-.03.09-.06c0,0,.03-.03.06-.03s.06,0,.09-.03c0,0,.03.06,0,.06.09,0,.18-.09.22-.09.18-.03-.12-.18.28-.15.03,0,.09-.03.12-.03-.03.06-.03.18.03.18.03,0,.06.03.09.03-.03,0-.06,0-.09.03-.09.06-.09-.12-.18-.09,0,0-.03,0-.03.03-.03,0-.09.03-.09.09,0,0,.03-.03.06-.03v.03s0,.03.03.03h.03s-.12-.03-.09.09c0,0,0,.03.03.03,0,.03.03.06.06.03l-.03-.03h.03v-.03.06s.06.06.09.03c0,0-.03,0-.06-.03h.03v-.03h.06s.03.03.06.03c.06-.03,0-.06.06-.09h.15s0-.12-.03-.15c-.03,0,0-.06-.03-.09.06.03.12.03.18.03.12,0,0-.03.06-.06.06-.03.15-.03.15-.03t.03.03v.12s-.06,0-.12,0t-.03.03s-.06.03-.06.06c0,0,.03-.03.06-.03,0,.06.06.06.09.03,0,0,.03,0,0,0-.03.03-.09.06-.03.09h.03s.03.06.03.06v-.06h.03s.03-.06.06-.06c0,.03-.03.06,0,.09h.03s.03.03.09.03c0,0-.03,0-.03-.03l.03-.03c.03-.06-.03-.06-.03-.09s.06,0,.06-.09c0,0,0-.03-.03-.03t.06-.03c-.06,0-.03-.03-.03-.06.03,0,.03-.03.03-.09-.03.03-.09.06-.09,0,0,0,0-.03-.06-.03.06-.03,0-.09-.15-.12t0,0Z"/><path class="cls-3" d="M28.87,16.59s0-.03,0,0h0ZM28.6,15.98s.03-.03.03-.03t.03-.03s0-.03-.03-.06c.03,0,.03-.03.03-.03h-.03s0-.03.03-.03h.03l.09.06s.03,0,.03.03v.03s0-.03-.03-.03-.03.03,0,.03c-.03,0-.06-.03-.06,0v.12s-.03.06-.09.03c-.03-.03-.03-.06-.03-.09ZM28.72,15.7s-.06.06-.09.03c-.03-.03,0-.03-.03-.09.06.03.12.06.12.06ZM28.81,15.73s.09.03.12.06c-.06,0-.03.03-.09.03-.03,0-.03-.03-.03-.09ZM30.96,16.04c0-.09-.12-.18-.46-.18s-1.11.12-1.11-.06c0-.09.15-.09.34-.06,0,0,.03.03.06.03.43.12.95-.09,1.23-.03-.31-.25-.58,0-.92-.06.18,0,.28-.06.28-.12-.15.09-.43-.06-.61.06,0,0-.03,0-.03.03-.25,0-.43,0-.43.15,0,.34.92.15,1.2.15s.34.03.34.09c0,.09-.28.09-.46.09-.25,0-1.01-.12-1.44-.03.03-.06.12-.15.06-.22.03-.03.06-.06.06-.09-.03-.03-.06-.03-.09-.03t-.03-.06s0-.06-.03-.06-.06-.03-.09-.06c-.06-.03-.09-.03-.09-.03h-.06s-.06,0-.06.03c-.03-.03-.06-.03-.09-.03-.03.03-.03.06,0,.12-.03,0-.09.12-.12.09,0,.03.03.03.03.03-.03.06-.06.12-.09.12.03.03.03.06.06.06v.12l-.06-.03h-.06.03-.03s-.09-.09-.15-.12c-.06-.03-.06-.06-.06-.15,0-.06.03-.12.03-.18v-.06s-.06-.06-.09-.06c0,0,.03.03.03.06l-.03.03s-.03.03,0,.06v.03s-.03-.09-.06-.12h-.03s-.03-.09-.09-.03c0,0,.03,0,.03.03v.03s.03.06.06.06v.03c-.06-.03-.12,0-.12.03v.03s-.03.06,0,.09c0,0,0-.03.03-.06l.03.03h.09c-.06.06-.06.09.03.12,0,.09-.15.09-.12-.03-.06.12.03.18.15.15t.03.03s0-.03.03-.03c0,.03,0,.06.03.06v-.03s.06.06.12.12c.06.03.12.09.15.06,0,.06.06.15.03.15h-.25c-.06.03-.22.09-.28.03-.03-.03,0-.03-.03-.09,0-.03-.03-.03-.06-.03h-.03s-.09-.03-.12,0t.06.03s0,.03-.03.03c0,.03,0,.06.09.09h-.06s-.03-.06-.09-.06c0,0-.03,0-.03.03-.03,0-.12.06-.09.09,0,0,.03-.03.06-.03v.03c0,.06.03.09.12.03-.03.03-.09.09-.03.12l.03.03c0,.06.06.09.09.09,0-.03-.03-.03-.03-.09h.03c.06-.03.03-.09.06-.09,0,.03,0,.09.06.06.06,0,.09-.06.09-.09.03,0,.03.03.03.06l.03-.03s0,.06-.03.09c.03,0,.09-.03.09-.09l.03.03h.12v.06l.03-.03s0,.06.03.09c0-.15.09-.09.18-.15,0,.03-.03.03-.03.06.09.03.28-.12.31-.22h.09c.31.03.09-.28.58-.18.03,0,.09-.03.12-.06-.03.06-.03.18.03.22.03,0,.09.03.12.06-.03,0-.09,0-.09.03-.09.06-.09-.15-.22-.12,0,0-.03,0-.03.03-.03,0-.09.06-.09.09,0,0,.03-.03.06-.03v.03s0,.03.03.03h.03s-.12-.03-.12.09c0,0,0,.03.03.03,0,.03.03.06.09.06l-.03-.03h.03v-.03.06s.06.09.12.03c-.03,0-.06,0-.06-.03h.03v-.03h.06s.03.06.09.03c.06-.03,0-.09.06-.09h.18s0-.12-.06-.15c-.03-.03,0-.06-.03-.12.06.03.12.06.22.06.15,0,.18-.03.28-.06.09-.06.15-.03.18-.03s.03,0,.03.03c-.03.09,0,.09,0,.12s-.09,0-.12,0-.06,0-.06.03c-.03,0-.09.03-.09.09,0,0,.03-.03.06-.03v.03c0,.06.06.06.09.03,0,0,.03,0,0,0-.03.03-.09.06-.03.09,0,0,.03,0,.03.03s.03.06.06.06v-.06h.03s.03-.06.06-.09c0,.03-.03.09,0,.09h.03s.06.06.09.03l-.03-.03.03-.03c.03-.09-.06-.09-.06-.12s.09,0,.09-.09t-.03-.06s.06,0,.06-.03c-.06,0-.03-.06-.06-.09.03,0,.03-.03.03-.09-.03.03-.09.06-.09,0,0,0,0-.03-.06-.03-.09,0-.18,0-.37-.03.46.03.8-.03.8-.15Z"/><path class="cls-3" d="M28.2,17.49s.03-.03.03-.03t.03-.03s0-.03-.03-.06c.03,0,.03-.03.03-.03h-.03s0-.03.03-.03h.03l.09.06s.03,0,.03.03v.03s0-.03-.03-.03v.03s-.06-.03-.06,0v.12s-.03.06-.06.03c-.06-.03-.06-.06-.06-.09ZM28.32,17.24s-.06.06-.09.03c-.03-.03,0-.03-.03-.09.06.03.12.06.12.06ZM28.41,17.27s.09.03.12.06c-.06,0-.03.03-.09.03-.03,0-.03-.06-.03-.09ZM30.81,17.55c0-.09-.12-.15-.43-.15-.34,0-1.32.12-1.32-.06,0-.12.34-.06.58-.06,0,.03.03.03.06.06.43.12.86-.15,1.17-.06-.25-.22-.55.03-.86-.03.18,0,.37-.03.4-.09-.15.09-.55-.06-.74.03,0,0-.03,0-.03.03-.31,0-.68-.03-.68.15,0,.34,1.14.12,1.41.12s.34.03.34.09c0,.09-.28.09-.43.09-.25,0-1.32-.12-1.75,0,.03-.06.12-.18.09-.25.03-.03.06-.06.06-.09-.03-.03-.06-.03-.09-.03t-.03-.06s0-.06-.03-.06-.06-.03-.09-.06c-.06-.03-.09-.03-.09-.03h-.06s-.06,0-.06.03t-.06-.03s-.03.06,0,.12c-.03,0-.09.09-.12.09,0,.03.03.03.03.03-.03.06-.03.12-.09.12,0,.03.03.03.03.03v.09h-.15c-.06,0-.09-.09-.18-.12-.06-.03-.06-.06-.06-.12s.03-.12.03-.15c0,0,0-.03-.03-.06,0-.03-.06-.06-.09-.06,0,0,.03.03.03.06l-.03.03s-.03.03,0,.06v.03s-.03-.09-.06-.09h-.03s-.06-.06-.09-.03c0,0,.03,0,.03.03v.03s.03.06.06.06v.03c-.06-.03-.09,0-.09.03v.03s-.03.06,0,.09c0,0,0-.03.03-.03l.03.03h.09c-.06.06-.03.09.03.09,0,.09-.12.06-.12-.03-.06.09.06.18.15.12t.03.03s0-.03.03-.03c0,.03,0,.06.03.06v-.03s.09.12.22.18c.03,0,.06,0,.06-.03,0,0,0,.03.03.03,0,.06.03.12.03.12h-.28c-.06.03-.22.09-.25.03t-.03-.06s-.03-.03-.06-.03h-.03s-.09-.03-.09,0t.06.03s0,.03-.03.03c0,.03,0,.06.09.09h-.06s-.03-.06-.09-.03h-.03s-.09.06-.09.09c0,0,.03-.03.06-.03v.03c0,.06.03.09.12.03-.03.03-.09.09-.03.12l.03.03c0,.06.06.09.09.09,0,0-.03-.03-.03-.09h.03c.06-.03.03-.06.06-.09,0,.03,0,.09.06.06.06,0,.09-.06.06-.09.03,0,.03.03.03.06l.03-.03s0,.06-.03.09c.03,0,.09-.03.09-.09l.03.03h.12v.06s0-.03.03-.03c0,0,0,.06.03.09,0-.15.18-.06.28-.12,0,.03-.03.03-.03.06.03,0,.09-.03.12-.06l.15-.06v-.03h.06c.09,0,.09-.06.12-.06.52.06.22-.22.86-.15t.06-.03c-.03.06-.03.15.03.18.03,0,.09.03.12.06-.03,0-.09,0-.09.03-.09.06-.09-.15-.22-.09,0,0-.03,0-.03.03-.03,0-.09.06-.09.09,0,0,.03-.03.06-.03v.03s0,.03.03.03.03,0,.03,0c0,.03-.12-.03-.09.09,0,0,0,.03.03.03,0,.03.03.06.09.06l-.03-.03h.03v.06s.06.09.12.03c0,0-.06,0-.06-.03h.03v-.03h.06s.03.06.09.03c.06-.03,0-.09.06-.09h.18s0-.12-.06-.15c-.03-.03,0-.06-.03-.12.06.03.12.06.22.06.15,0,.18-.03.25-.06.06-.03.15-.03.18-.03s.03,0,.03.03c-.03.09,0,.09,0,.12s-.09,0-.12,0-.06.03-.06.03c-.03,0-.09.03-.09.09,0,0,.03-.03.06-.03,0,.06.06.06.09.03,0,0,.03,0,0,0-.03.03-.09.06-.03.09h.03s.03.06.06.06v-.06h.03s.03-.06.06-.09c0,.03-.03.09,0,.09h.03s.06.06.09.03c0,0-.03,0-.03-.03l.03-.03c.03-.09-.03-.09-.03-.12s.09,0,.09-.09c0,0,0-.03-.03-.06t.06-.03c-.06,0-.03-.03-.06-.09.03,0,.03-.03.03-.09-.03.03-.09.06-.09,0,0,0,0-.03-.06-.03-.09,0-.15,0-.37-.03.31-.12.65-.15.65-.28Z"/><path class="cls-3" d="M32.9,19.67s.03-.03.03-.03t.03-.03s0-.03-.03-.06c.03,0,.03-.03.03-.03h-.03s0-.03.03-.03h.03l.09.06s.03,0,.03.03v.03s0-.03-.03-.03-.03,0,0,.03c-.03,0-.06-.03-.06,0v.12s-.03.06-.06.03c-.09-.03-.09-.06-.06-.09ZM33.02,19.43s-.06.06-.09.03c-.03-.03,0-.03-.03-.09.03,0,.09.06.12.06ZM33.08,19.46s.09.03.12.06c-.06,0-.03.03-.09.03-.03,0-.03-.06-.03-.09ZM35.45,20.07s0-.03,0,0c.03-.03.03-.06.03-.09-.03.03-.09.06-.09,0,0,0,0-.03-.06-.03-.09,0-.18,0-.37-.03,0,0-.03,0,0,0,.18,0,.52-.03.52-.15,0-.09-.12-.15-.43-.15-.34,0-1.32.12-1.32-.06,0-.12.34-.06.58-.06,0,.03.03.03.06.03.43.12.89-.18,1.17-.12-.34-.12-.52.09-.86.03.18,0,.37-.03.4-.09-.15.09-.55-.06-.74.03,0,0-.03,0-.03.03-.31,0-.68-.03-.68.15,0,.34,1.14.12,1.41.12s.34.03.34.09c0,.09-.28.09-.43.09-.25,0-1.32-.15-1.75,0,.03-.06.12-.18.09-.25.03-.03.06-.06.06-.09-.03-.03-.06-.03-.09-.03t-.03-.06s0-.06-.03-.06c0,0-.06-.03-.09-.06s-.09-.03-.09-.03h-.06s-.06,0-.06.03c-.03-.03-.06-.03-.09-.03-.03.03-.03.06,0,.12-.03,0-.09.09-.12.09,0,.03.03.03.03.03-.03.06-.03.12-.09.12.03.03.03.06.06.06v.09l-.06-.03h-.12c-.06,0-.09-.09-.18-.15-.06-.03-.06-.06-.06-.12s.03-.09.03-.15c0,0,0-.03-.03-.06,0-.03-.06-.06-.09-.06,0,0,.03.03.03.06l-.03.03v.09s-.03-.09-.06-.09h-.03s-.03-.06-.09-.03c0,0,.03,0,.03.03v.03s.03.06.06.06v.03c-.06-.03-.09,0-.12.03v.03s-.03.06.03.09c0,0,0-.03.03-.06h.12c-.06.06-.03.09.03.12,0,.09-.12.06-.12-.03-.06.09.06.18.15.12t.03.03s0-.03.03-.03c0,.03,0,.06.03.06v-.03s.09.12.22.22c0,0,.06-.03.09-.06,0,.03.03.06.03.06h.03c0,.06.06.12.06.12-.03,0-.15-.03-.18,0-.06.03-.22.09-.25.03t-.03-.06s-.03-.03-.06-.03h-.03s-.09-.03-.09,0t.06.03v.03s0,.06.09.09h-.06s-.03-.06-.09-.03h-.03s-.09.06-.09.09c0,0,.03-.03.06-.03v.03c0,.06.03.09.12.03-.03.03-.09.09-.03.12l.03.03c0,.06.06.09.09.09,0,0-.03-.03-.03-.09h.03c.06-.03.03-.09.06-.09,0,.03,0,.09.06.06.06,0,.09-.06.06-.09.03,0,.03.03.03.06l.03-.03s0,.06-.03.09c.03,0,.09-.03.09-.09l.03.03h.12v.06s0-.03.03-.03,0,.06.03.09c0-.15.09-.09.18-.15,0,.03-.03.03-.03.06.03.03.15-.06.15-.12,0,0,.06-.03.09-.03.09,0,.09-.06.12-.06.52.06.22-.22.86-.15.03,0,.03-.03.06-.06-.03.06-.03.18.03.18.03,0,.09.03.12.03-.03,0-.06,0-.09.03-.09.06-.09-.15-.22-.12l-.03.03s-.09.06-.09.09c0,0,.03-.03.06-.03v.03s0,.03.03.03h.03s-.12-.03-.09.09c0,0,0,.03.03.03,0,.03.03.06.09.03l-.03-.03h.03v-.03.06s.06.09.12.03c-.03,0-.06,0-.06-.03h.03v-.03h.06s.03.03.09.03c.06-.03,0-.09.06-.09h.18s0-.12-.06-.15c-.03-.03,0-.06-.03-.12.06.03.12.06.22.06.15,0,.18-.03.28-.06.09-.06.15-.03.18-.03s.03,0,.03.03c-.03.09,0,.09-.03.12,0,.03-.09,0-.12,0s-.03.03-.03.03c-.03,0-.09.03-.09.09,0,0,.03-.03.06-.03v.03c0,.06.06.06.09.03,0,0,.03,0,0,0-.03.03-.09.06-.03.09h.03s0,.06.03.06v-.06h.03s.03-.06.06-.09c0,.03-.03.09,0,.09h.03s.03.06.09.03c0,0-.03,0-.03-.03l.03-.03c.03-.09-.03-.09-.03-.12s.09,0,.09-.09c0,0,0-.03-.03-.06t.06-.03c.03.06.06.03.06,0Z"/><path class="cls-3" d="M33.08,20.99s-.06-.06-.03-.09c0,0,.09.03.12.06-.06,0-.06.03-.09.03ZM33.02,21.06s0-.03-.03-.03,0,0,0,.03c-.03,0-.03-.03-.06,0v.12s-.03.06-.06.03c-.03-.03-.03-.06-.03-.06,0-.03.03-.03.03-.03t.03-.03s0-.03-.03-.06c.03,0,.03-.03.03-.03h-.03s0-.03.03-.03h.03l.09.03s.03,0,.03.03c-.03,0,0,.03-.03.03ZM32.96,20.87s-.06.06-.09.03c-.03-.03,0-.03-.03-.09.06.03.12.06.12.06ZM33.97,20.9s.03.03.06.06c.4.12.86-.18,1.11-.12-.31-.12-.52.09-.83.03.18,0,.37-.03.37-.09-.12.09-.52-.06-.68.03,0,0-.03,0-.03.03-.22,0-.4,0-.4.15,0,.31.83.12,1.11.12.25,0,.22.03.22.09s-.31.09-.43.09c-.22,0-.89-.12-1.32-.03.03-.06.12-.15.06-.22.03,0,.06-.03.06-.09-.03-.03-.06-.03-.06-.03t-.03-.06s0-.03-.03-.06c0,0-.06-.03-.09-.06q-.06-.03-.09-.03h-.06s-.06,0-.06.03t-.06-.03s-.03.06,0,.12c-.03,0-.06.09-.12.09,0,.03.03.03.03.03-.03.06-.03.12-.09.12,0,.03.03.03.03.03,0,.03-.03.09-.03.12h-.06c-.06,0-.09,0-.15-.06-.06-.03-.06-.06-.06-.12s.03-.09.03-.15v-.06s-.06-.06-.09-.06c0,0,.03.03.03.06l-.03.03s-.03.03,0,.06v.03s-.03-.09-.06-.09h-.03s-.03-.06-.09-.03c0,0,.03,0,.03.03v.03s.03.06.06.06v.03c-.06-.03-.09,0-.09.03v.03s-.03.06,0,.09v-.03l.03.03h.06l.03.03c-.06.03-.03.09.03.09v.03c0,.09-.12.06-.12-.03-.06.09.06.18.12.12t.03.03s0-.03.03-.03c0,.03,0,.06.03.06v-.03s0-.03.12.03c0,.03.03.03.03.03h.09v.15h-.18c-.06.03-.22.09-.25.03t-.03-.06s-.03-.03-.06-.03h.09s-.06-.03-.09,0t.06.03v.03s0,.06.09.09h-.06s-.03-.06-.09-.03h-.03s-.09.06-.06.09c0,0,.03-.03.06-.03v.03c0,.06.03.09.12.03-.03.03-.09.09-.03.12h.03c0,.06.06.09.09.09,0,0-.03-.03-.03-.09h.03s.03-.06.06-.09c0,.03,0,.06.06.06s.06-.06.06-.06c.03,0,.03.03.03.06l.03-.03s0,.06-.03.09c.03,0,.06-.03.09-.09l.03.03h.09v.06s0-.03.03-.03c0,0,0,.06.03.09,0-.12.12-.09.21-.15,0,.03-.03.03-.03.03.09.06.18-.06.22-.12l.03-.03s0,.03-.03.03c.09,0,.09-.06.12-.06.28.03.06-.22.49-.15.03,0,.09-.03.12-.06-.03.06-.03.18.03.18.03,0,.09.03.09.03-.03,0-.06,0-.09.03-.09.06-.09-.15-.18-.09,0,0-.03,0-.03.03-.03,0-.09.06-.09.09,0,0,.03-.03.06-.03v.03s0,.03.03.03h.03s-.12-.03-.09.09c0,0,0,.03.03.03,0,.03.03.06.06.03l-.03-.03h.03v.06s.06.06.09.03c-.03,0-.06,0-.06-.03h.03v-.03h.06s.03.03.06.03c.06-.03,0-.09.06-.09h.18s0-.12-.06-.15c-.03,0,0-.06-.03-.09.06.03.12.06.18.06.15,0,.22-.03.28-.06.09-.03.15-.03.18-.03s.03,0,.03.03c-.03.06,0,.09-.03.12s-.06,0-.12,0c-.03,0-.06.03-.06.03-.03,0-.09.03-.09.09,0,0,.03-.03.06-.03v.03c0,.06.03.06.09.03,0,0,.03,0,0,0-.03.03-.09.06-.06.09h.03s0,.06.03.06t.03-.06h.03s.03-.06.06-.09c-.03.03-.03.09,0,.09h.03s.03.06.09.03l-.03-.03.03-.03c.03-.09-.03-.09-.03-.12s.09,0,.09-.09c0,0,0-.03-.03-.06t.06-.03c-.06,0-.03-.03-.03-.06.03,0,.03-.03.03-.09-.03.03-.09.06-.09,0,0,0,0-.03-.06-.03-.09,0-.25,0-.4-.03,0,0-.03,0,0,0,.18,0,.55-.03.55-.15,0-.09-.03-.15-.34-.15s-1.01.12-1.01-.06c.12-.25.28-.25.43-.22Z"/><path class="cls-3" d="M32.71,22.57s.03-.03.03-.03t.03-.03s0-.03-.03-.03c.03,0,.03-.03.03-.03h-.03s0-.03.03-.03h.03l.09.03s.03,0,.03.03v.03s0-.03-.03-.03v.03s-.03-.03-.06,0v.12s-.03.06-.06.03c-.06-.03-.06-.06-.06-.09ZM32.83,22.32s-.06.06-.06.03c-.03-.03,0-.03-.03-.09,0,.03.06.06.09.06ZM32.9,22.38s.09.03.12.03c-.06,0-.03.03-.06.03-.06,0-.06-.03-.06-.06ZM33.63,22.32s.03.03.06.06c.4.12.86-.18,1.11-.12-.31-.12-.52.09-.83.03.18,0,.37-.03.37-.09-.12.09-.52-.06-.68.03l-.03.03c-.12.03-.22.09-.22.18,0,.28,1.01.06,1.01.15,0,.06-.22.12-.46.12-.22,0-.55-.12-1.01-.03.03-.06.12-.18.09-.25.03,0,.06-.03.06-.06-.03-.03-.06-.03-.06-.03t-.03-.06s0-.03-.03-.06c0,0-.03-.03-.09-.06-.03-.03-.06-.03-.09-.03h-.06s-.06,0-.06.03t-.06-.03s-.03.06,0,.09c-.03,0-.06.09-.09.09,0,.03.03.03.03.03-.03.06-.03.12-.06.12,0,.03.03.03.03.03-.03.09-.03.18-.03.25-.06-.06-.15-.22-.22-.25-.06-.03-.06-.06-.06-.12s.03-.09.03-.15v-.06s-.06-.06-.09-.06c0,0,.03.03.03.06l-.03.03s-.03.03,0,.06v.03s-.03-.09-.06-.09h-.03s-.03-.06-.09-.03c0,0,.03,0,.03.03v.03s.03.06.06.06v.03c-.06-.03-.09,0-.09.03v.03s-.03.06,0,.09v-.03l.03.03h.06s-.03.09.03.09c0,.09-.12.06-.12-.03-.06.09.06.18.12.12,0,0,0,.03.03.03,0,0,0-.03.03-.03,0,.03,0,.06.03.06v-.03s0,.12.12.18c.03.06.09.12.15.09.03.06.06.09.03.09h-.18s-.09.03-.12.03-.09,0-.09-.03,0-.03-.03-.06c0-.03-.03-.03-.03-.03h-.03s-.06-.03-.09,0t.06.03v.03s0,.06.09.06h-.06s-.03-.06-.09-.03h-.03s-.09.03-.06.09l.03-.03v.03s.03.09.12.03c-.03.03-.09.06-.03.09h.03c0,.06.06.09.06.09,0,0-.03-.03-.03-.06h.03s.03-.06.03-.09c0,.03,0,.06.06.06s.06-.06.06-.06c.03,0,.03.03.03.06l.03-.03s0,.06-.03.09c.03,0,.06-.03.09-.09l.03.03h.09v.06s0-.03.03-.03c0,0,0,.06.03.09,0-.12.09-.09.15-.12l-.03.03s.12-.03.12-.09c0-.03.06-.06.06-.22h.03c.12,0,.15-.09.28-.09-.03.03-.03.09-.03.15s.09.12.09.15c-.03,0-.06,0-.09.03-.09.06-.09-.12-.18-.09,0,0-.03,0-.03.03-.03,0-.09.03-.09.09,0,0,.03-.03.06-.03v.03s0,.03.03.03h.03s-.12-.03-.09.09v.03s.03.06.06.03l-.03-.03h.03v-.03.06s.03.06.09.03c0,0-.06,0-.06-.03h.03v-.03h.06s.03.03.06.03c.06-.03,0-.06.06-.09h.03c.06,0,.09.03.09,0s0-.12-.06-.15c-.03-.03.03-.22-.09-.31.06.03.31.06.34,0,.06.03.15.06.15.06v.03c-.06.03-.06.06-.09.06-.03-.03-.03-.06-.06-.06h-.06s-.09,0-.09.03h.06v.03s-.09,0-.09.03v.03s-.03.06,0,.06t.03-.03v.03s.06-.03.09-.03c-.03,0-.06.03-.06.06v.03s0,.06.03.09v-.06h.03c.06-.03.03-.09.06-.09.03-.03.06.03.12,0,0,0,.03-.03,0-.06,0,0,.03.03.06.03-.03-.03,0-.06.03-.09t.06-.03s-.12-.03-.06-.06c.06-.03.09-.06.06-.09-.06-.06-.15-.09-.15-.15h.09c.34,0,.55-.09.55-.22,0-.25-1.04.03-1.04-.15.37.06.43,0,.49-.03Z"/><path class="cls-3" d="M16.89,4.28c0-.12-.12-.25-.25-.25s-.25.12-.25.25.12.25.25.25c.15,0,.25-.12.25-.25Z"/><path class="cls-3" d="M16.8,3.6c0-.12-.12-.25-.25-.25s-.25.12-.25.25.12.25.25.25c.15,0,.25-.09.25-.25Z"/><path class="cls-3" d="M16.95,3.29c.15,0,.25-.12.25-.25s-.12-.25-.25-.25-.25.12-.25.25c0,.15.12.25.25.25Z"/><path class="cls-3" d="M17.63,3.26c.15,0,.25-.12.25-.25s-.12-.25-.25-.25-.25.12-.25.25.09.25.25.25Z"/><path class="cls-3" d="M20.46,2.8c.09.09.25.09.37,0,.09-.09.09-.25,0-.34-.09-.09-.25-.09-.37,0-.09.06-.09.25,0,.34Z"/><path class="cls-3" d="M20.43,2.25c.09-.09.09-.25,0-.37-.09-.09-.25-.09-.37,0-.09.09-.09.25,0,.37.09.12.25.12.37,0Z"/><path class="cls-3" d="M19.75,2.15c.09-.09.09-.25,0-.37-.09-.09-.25-.09-.37,0-.09.09-.09.25,0,.37.12.09.28.09.37,0Z"/><path class="cls-3" d="M19.16,2.59c.09-.09.09-.25,0-.37-.09-.09-.25-.09-.37,0-.09.09-.09.25,0,.37.12.09.28.09.37,0Z"/><path class="cls-3" d="M17.57,2.22l.21.43.25-.31h.03c.03.15.03.4.03.55,0,.18.15.31.31.31.18,0,.31-.15.31-.31,0-.12-.06-.22-.18-.28-.12-.09-.28-.22-.37-.34v-.03l.43.03-.15-.46-.31.28h-.03l-.03-.46-.43.15.31.34s0,.03-.03.03l-.34.06Z"/><path class="cls-3" d="M20.49,3.02c.09.15.12.22.15.34-.06-.03-.15-.12-.25-.25l.06.58c.06-.09.12-.18.22-.22-.03.37-.18.52-.31.55-.15.03-.28-.06-.31-.18-.03-.18.12-.28.28-.12.03-.34-.25-.34-.37-.18.15-.34.09-.55-.22-.74-.18.31-.12.52.12.77-.25-.12-.43.09-.25.34.03-.22.25-.18.28,0,.03.15-.12.34-.37.43-.37.12-.46-.12-.55-.31.09-.06.28-.03.46.09l-.18-.58c-.09.22-.22.28-.34.34,0-.15.12-.49.12-.49l-.68.28s.31.15.43.28c-.15.06-.28.09-.49,0l.28.52c.06-.25.18-.37.28-.4.06.22.15.46-.18.62-.25.12-.46.09-.55-.06-.09-.15,0-.34.22-.22-.03-.34-.31-.34-.4-.09,0-.34-.09-.55-.43-.65-.09.34.03.55.37.68-.18-.03-.4.18-.12.4,0-.22.18-.25.28-.09.06.09.06.25-.09.34-.12.06-.34.06-.61-.18.09-.03.18-.03.31,0l-.37-.46c.03.15,0,.28-.03.34-.09-.09-.09-.15-.15-.34l-.28.25c.28.15.58.43.95.92.4-.25,1.11-.58,1.54-.77.43-.18,1.17-.43,1.63-.52-.09-.62-.06-1.02.03-1.32l-.46.12Z"/><path class="cls-3" d="M21.29,6.34c-.34.28-.83.03-1.01-.34.49-.18,1.04-.43,1.41-.65-.37.52-.12.77-.4.99ZM21.19,9.97c-.46.18-.8-.22-.89-.46-.09-.28-.15-.49-.06-.58.18-.18.25-.34.12-.58-.12-.28-.43-.15-.74-.06.15-.28.15-.46-.03-.43-.25.03-.25.43-.37.37-.12-.03-.06-.28-.06-.4,0-.15.12-.22.28-.31l1.32-.49c.15-.06.28-.09.4.03.09.09.31.18.22.31-.06.12-.34-.15-.52,0-.15.12-.03.25.28.34-.28.15-.58.28-.49.55.09.25.22.31.49.31.15,0,.25.22.37.46.15.28.18.77-.31.95ZM18.71,7.36c-.34.03-.34-.31-.95-.46.43-.09.98-.31,1.47-.49.09.4-.06.89-.52.95ZM25.99,18.99c.09-.28-.4-.58-.46-.95-.06-.4,0-.74-.46-1.26-.43-.49-1.94-2.12-2.4-2.62.12,0,.37-.06.65.18.15.15.49.46.77.74.4-1.02.89-1.79,1.6-2.56.09-.09.18-.22.28-.31-.25.09-.65.15-.89.31-.03-.43.03-.8-.28-1.08.12-.62,0-1.35-1.35-2.28.71.18,1.14.8,1.66.31-.49,0-.49-1.08-2.24-1.94.68,0,1.2,1.08,1.97.46-.74-.09-.98-1.39-2.27-1.79.46.06.92.28,1.32-.25-.46.12-.74-.31-1.23-.34.18-.55.15-.92-.06-1.35-.34.03-.71.12-.95.34-.03-.31-.37-.34-.65-.31,0,.12.09.34-.06.37-.25.03-1.01.25-1.63.49-.61.25-1.29.68-1.51.8-.12.09-.22-.12-.31-.22-.22.18-.43.43-.28.65-.34.03-.71.12-1.01.37,0,.4.34.77.8.99-.8.8-.09,1.57-.8,2.25,1.01.03.83-1.35,1.35-1.57-.06.99-.61,1.17-.61,2.22,0,.55.34,1.17.03,1.57.83-.25.61-2.09,1.14-2.65.09.31.03.62-.06.95-.31.86.03,2.06-.43,2.43.86-.09.95-1.48,1.66-1.97-.61,1.23-1.23,3.88-2.12,5.2-1.47,1.97-2.33,4.4-3.66,4.4-.58,0-1.04-.37-1.04-1.11,0-2.25,3.84-3.79,3.84-6.19,0-1.08-.86-1.48-1.41-1.48-.37,0-.8.18-1.17.49-.15-.06-.31-.09-.46-.09-1.35,0-1.01,2.46-2.18,2.43.46.28,1.29-.25,1.75-.92-.18,1.6-2.49,1.17-2.3,3.08.31-1.51,3.96-1.26,3.96-3.54,0-.25-.12-.46-.31-.65.28-.18.52-.25.77-.25.43,0,.83.34.83.95,0,2-3.84,3.69-3.84,6.16,0,.43.12.77.31,1.05-.28.12-.55.06-.77-.22-.03.65.89,1.05,1.44.71.12.03.25.06.4.09-.18.46-.77.62-1.08.58.95.74,2.58-.25,2.49-1.08.74-.62,1.23-1.63,1.75-2.31-.03.15-.06.31-.09.46-.55.99-1.08,1.91-1.2,3.2-.12,1.11-.68,2.09-1.44,2.09-.18,0-.46-.22-.58-.12-.25.22,0,.43,0,.62,0,.31-.61.62-.61,1.6,0,.43.25.95.15,1.23.25-.12.58-.55.71-1.08.28,1.29-.55,1.23.03,2.37.06-.37.46-.52.68-.37.21.15.12.28-.06.43-.18.15-.34,1.02.46.95-.15-.09-.15-.31.22-.4.52-.09.68.12,1.26.12.34,0,.46-.46.74-.46s.28.22.18.37c.46-.12.52-.37.52-.62s-.22-.4-.06-.49c.15-.09.68,0,.46.43.28-.06.4-.25.4-.55s-.37-.52-.74-.46c-.06-.22-.37-.31-.65-.31-.61,0-.52.49-.95.49-.68,0-1.35-.89-1.35-2.4,0-.8.86-1.02,1.47-1.29.61-.28,1.69-.92,2.33-2.03.52-.86.52-1.79.46-2.89.86.49.98,1.2.98,1.72,0,.68-.34.95-.61,1.08-.25.12-.31.06-.34.22-.03.18.09.28.18.34.31.15.25.46.34.8.09.34.37.83.86,1.2.06-.22.03-.52,0-.95.68.34.12,1.66,1.41,1.66-.25-.12-.18-.49-.03-.52.12-.06.31.09.55.43.25.34.18.31.8.31s.34-.22.65-.22c.34,0,.31.37.12.65.55-.15.71-.58.52-1.02.49-.25.74.12.8.37.46-.46,0-1.05-.37-1.08,0-.18-.15-.37-.34-.37s-.4-.03-.61,0c-.22,0-.34.34-.61.34-.8,0-2.43-1.48-2.43-2.12s1.54-1.02,1.54-2c0-1.29-1.26-1.72-2.33-2.56.37-.43,1.51-.52,2.12-.22.06-.37.31-.28.4-.89.22.55,0,1.02.22,1.26.18-.28.65-.22.61-.89.15.43-.18,1.08.15,1.35.06-.34.28-.4.4-.4s.25.09.25.31c0,.52-.65.28-.65.86,0,.25.31.34.31.49s-.25.4-.55.18c.09.22.31.43.58.43s.58-.22.71-.52c.15.37.03.77-.25.83.28.15.95,0,.86-.86.37.06.58.31.34.77.31-.06.58-.22.58-.55.18-.25-.09-.31.03-.65Z"/><path class="cls-3" d="M50.78,25.18c0-.43.37-.8.8-.8s.8.37.8.8-.37.8-.8.8c-.43.03-.8-.34-.8-.8ZM50.5,25.18c0,.58.49,1.08,1.08,1.08s1.08-.49,1.08-1.08-.49-1.08-1.08-1.08-1.08.49-1.08,1.08Z"/><path class="cls-3" d="M46.97,27.15c-.31-.06-.52-.28-.49-.52.03-.12.09-.18.15-.22.12-.09.31-.12.49-.09.28.06.49.25.49.46v.06c-.06.22-.34.37-.65.31ZM46.48,26.2c-.15.09-.25.25-.28.4-.03.18.03.37.15.55.12.15.34.25.55.31.22.03.43,0,.61-.09.18-.09.31-.25.34-.46.06-.37-.25-.74-.71-.83-.25-.06-.49-.03-.68.12Z"/><path class="cls-3" d="M40.45,11.61c0-.15.09-.31.22-.4.12-.09.28-.15.4-.12.06,0,.15.03.22.12.06.06.06.15.06.22-.03.12-.09.28-.22.37-.22.15-.49.18-.61.03-.03-.09-.06-.15-.06-.22ZM40.51,10.99c-.34.28-.43.71-.22.99.22.28.68.28,1.01.03.18-.15.31-.34.34-.55.03-.15-.03-.31-.12-.43-.09-.12-.22-.18-.4-.22-.22-.03-.43.03-.61.18Z"/><path class="cls-3" d="M45.62,25.61c-.12,0-.18-.06-.25-.12-.09-.12-.15-.28-.15-.46s.06-.34.18-.46c.06-.06.12-.12.25-.12.22,0,.4.28.4.58,0,.18-.06.34-.18.46-.03.06-.12.12-.25.12ZM45.22,24.38c-.15.15-.25.4-.28.65v.03c0,.25.09.49.25.65.12.12.28.18.43.18s.31-.06.43-.18c.15-.15.25-.4.28-.65,0-.22-.06-.43-.18-.58-.12-.18-.31-.28-.49-.28-.15,0-.31.06-.43.18Z"/><path class="cls-3" d="M40.11,16.69c-.28-.12-.43-.4-.34-.62.06-.09.12-.15.22-.18.15-.06.31-.03.49.03.15.09.28.22.34.34.03.06.03.18,0,.28-.06.09-.15.15-.22.18-.15.06-.31.06-.49-.03ZM39.9,15.64c-.15.06-.31.18-.37.31-.15.34.03.8.46.99.25.12.49.12.71.06.15-.06.31-.15.37-.31.06-.15.06-.31.03-.49-.06-.22-.25-.4-.49-.52-.25-.09-.49-.12-.71-.03Z"/><path class="cls-3" d="M47.74,20.56c-.18.25-.49.34-.68.18-.18-.15-.22-.46-.03-.71.18-.25.49-.34.68-.22.22.18.22.49.03.74ZM46.48,22.6c-.18.25-.49.34-.68.22-.18-.15-.22-.46-.03-.71.18-.25.49-.34.68-.22.18.12.22.43.03.71ZM42.11,11.54c.15-.46.43-1.42.43-1.42l.49.18c-.15.06-.31.18-.46.34.12.06.31.06.43-.03l-.18.49c-.03-.09-.18-.25-.31-.28-.09.4.15.55.34.65.31.15.49.18.58.03.09-.18-.09-.4-.37-.31-.03-.25.12-.4.28-.4.12,0,.25.12.28.28-.03-.43.18-.74.55-.86.15.4.03.68-.28.99.15-.06.34-.06.43.06.09.15.06.34-.15.46-.06-.28-.37-.28-.46-.12-.09.18.03.34.31.49.31.18.58.06.74-.22-.09-.03-.28,0-.46.09l.34-.62c.03.09.06.25.22.37.06-.12.12-.37.03-.58l.71.4c-.25.03-.4.22-.49.31.18.06.34.03.4,0l-.37.58c0-.22-.06-.37-.15-.43-.15.28-.12.55.18.74.28.15.49.18.58.03.09-.15-.06-.43-.34-.34,0-.25.15-.4.31-.37.12,0,.25.15.28.34.09-.4.28-.65.71-.74.09.4-.09.71-.46.92.15-.06.34-.03.4.09.09.15.03.34-.18.46-.03-.28-.34-.34-.43-.15-.09.15.03.31.34.49.18.12.43.25.71-.03-.09-.12-.31-.12-.4-.12l.34-.43c0,.15.09.34.18.4.06-.22.09-.43.06-.58l.4.34s-.68.71-.98,1.08l-4.55-2.59ZM47.4,17.58c0-.06.03-.18.09-.25.09-.06.18-.09.25-.09.15,0,.31.09.43.22.12.12.18.31.18.46,0,.06-.03.15-.09.25-.09.06-.18.09-.25.09-.15,0-.31-.09-.43-.22-.12-.15-.18-.34-.18-.46ZM49.33,26.51c.03-.15.12-.31.28-.4.15-.09.34-.15.49-.12.06.03.15.06.22.15.06.09.06.18.03.28-.03.15-.12.31-.28.4-.28.18-.58.15-.71-.03-.06-.12-.03-.22-.03-.28ZM40.12,13.05c0,.15-.06.31-.15.37-.03.03-.12.09-.22.09-.18,0-.34-.22-.34-.46v-.03c0-.15.06-.31.15-.37.03-.03.12-.09.22-.09s.15.06.18.09c.12.09.15.25.15.4ZM42.98,7.17c.15-.28,0-.74.52-.74.25,0,.49.25.8.37-.49.03-.95.15-1.32.37ZM51.27,14.53c.34.95,1.04,1.32,1.6,1.08-1.2-.15-.22-2.19-1.75-2.19-.09,0-.18,0-.25.03-.28-.28-.55-.4-1.01-.4-.65,0-1.78.62-1.78,1.94,0,2.8,3.26,3.05,3.26,5.51,0,.74-.55,1.17-1.17,1.17-.55,0-.98-.62-1.44-1.57-.22-.46-.68-1.08-1.2-1.72.15.09.31.15.49.15s.34-.06.46-.15c.12-.12.18-.28.18-.43v-.03c0-.22-.09-.46-.28-.62-.18-.18-.4-.31-.65-.31-.18,0-.34.06-.46.15-.12.12-.18.28-.18.43v.03c0,.09.03.18.06.28-.71-.92-1.35-1.82-1.35-2.31,0-.43.31-.8.68-1.26.03,0,.12.06.12.06l.09-.12c.12-.15.4-.43.95-1.05l.03-.03.12-.15-.34-.28c.09-.22.18-.43.25-.68.12.46.34.74.65.65-.22-.46.22-1.08-.06-2.22.28.43.65.68.92.58-.71-.65.22-1.54-.71-2.89.31.09.52.03.65-.12-.86-.12-.46-1.2-1.97-1.6.37-.06.58-.28.52-.49-.4.28-.74-.52-2.03-.52-.09-.49-.52-.99-1.04-1.23.09.37,0,.71-.09.99l-4.24-4.16c-.12-.12-.18-.15-.22-.09-.03.03-.03.12.06.22l3.62,4.56c-.28.09-.55.22-.83.31-.18.06-.31.25-.31.46-.68.34-1.26.74-1.57,1.02-.22.22-.4.25-.22.71.06.18-.15.62.37.28.34-.22,1.14-.65,1.23-.37.06.15-.34.34-.58.43-.28.09-.55.31-.52.4.03.09.25,0,.28.09,0,.12.09.22.22.22.09,0,.25-.22.34-.15.09.06-.03.58-.12.71.4-.06.68-.43.68-.74s.09-.37.15-.43c.06-.03.12.34.06.55.22-.03.43-.34.4-.86.12-.09.22-.15.31-.15.12,0,.4.37.8.37.71,0,1.11-.58,1.17-.86.03-.22.03-.43-.09-.58.25.22.34.52.34.77,0,1.02-1.81,1.51-2.55,2.22-.03.03-.06.06-.09.06l-.86-.34-.06.18s0,.03-.06.15c-.09.28-.28.89-.4,1.23l-.03.12.06.03c-.49.68-.89,1.42-.98,2.19-.22-.22-.4-.37-.61-.55.03-.06.03-.15.03-.25,0-.22-.06-.43-.18-.58-.09-.12-.25-.18-.4-.18s-.31.03-.4.15c-.03.03-.06.06-.06.09-.03-.03-.06-.06-.09-.06-.28-.22-.61-.46-.83-.71-.09-.09-.18-.15-.37-.15h-.37c-.12,0-.18.09-.34.22-.06.06-.28.22-.49.37.09.09.22.22.31.34.06.06.09.12.15.18.06-.03.12-.09.15-.12.09-.06.22-.09.31-.09.12,0,.28.09.37.25.06.12.77,1.02,1.32,1.63-.06.03-.12.03-.18.06-.25.09-.8.09-1.04.06-.25-.03-.28-.09-.46.18-.06.09-.15.22-.22.31-.09.09-.15.22.03.49.25.43.86,1.54,1.08,2.03.22.49.46.58.83.74.4.15,1.08.55,1.14.65l.03-.37c-.12-.12-.49-.25-.65-.31-.15-.06-.18-.12,0-.12.15,0,.65.18.98.31-.09-.37-.46-.8-.68-1.02-.28-.09-.58-.09-.68,0,0,.09-.03.18-.15.18s-.18-.09-.15-.18c.03-.12.22-.15.15-.37-.03-.22-.31-.25-.46-.28-.25-.34-.52-.86-.65-1.08-.12-.22-.06-.34.03-.4.22-.15.65.09,1.51.15.31.03.68.03,1.08.06.12.99.52,1.94,1.9,2.31.68.15,1.38.68,1.63,1.32-2.76-.06-3.23,1.05-3.23,2.06,0,1.17.98,1.11.98,1.97,0,.77-2.33,1.08-3.04,1.17-.58.09-.95.22-1.23.52-.28.28-.58.55-1.11,1.08,0,0,.22.06.43.03l.4-.52c.12-.18.18-.31.28-.31s.03.15-.06.34l-.34.55c1.38.09,1.44-.43,1.44-.62,0-.22-.34-.34-.15-.49.18-.12.37-.03.52.15.15.18.22.34.58.18,0,0,2.98-1.23,3.35-1.42.34-.15.25-.31.03-.46-.22-.18-.25-.49-.25-.8,0-.89.55-1.2,1.51-1.17-.03.15-.03.31-.03.43,0,1.42,2.12,2.8,2.7,2.8.25,0,.61-.18.61.65.03.62.15,1.08.03,1.79-.12.71-.31.83-.77,1.14-.43.31-.83,1.26-1.01,1.45.18.12.4.15.55-.31.12-.4.28-.65.46-.74-.15.43-.31,1.05-.37,1.23.55.09,1.41-.4,1.41-.8,0-.37-.31-.34-.31-.62,0-.12.12-.25.31-.25.22,0,.4.18.4.25.25-.12.4-.37.4-.92,0-.22,0-.46-.03-.68,0,.03.03.06.06.09.09.15.28.25.49.28.18.03.4-.03.58-.15.22-.15.37-.34.4-.58,0-.03.03-.09.03-.12,0-.12-.03-.25-.09-.34-.09-.12-.25-.22-.4-.28-.22-.06-.46,0-.68.15-.18.12-.34.31-.4.52-.03-.77-.09-1.51-.09-1.79.03-.43.06-.62-.09-.68-.15-.06-.31.18-.52.18s-.83-.58-.83-1.2.65-1.39.61-2.25c0-.25.15-.4.25-.15.12.28.31.68.58.99-.18,1.05.98,2.06,1.94,1.32-.46.06-.8-.34-1.01-.77.09,0,.15.03.25.03h.15c.34.4,1.38.37,1.66-.65-.18.22-.55.37-.83.34.4-.31.61-.83.61-1.35,0-2.68-3.23-2.99-3.23-5.39,0-.89.8-1.48,1.32-1.48.22,0,.37.06.49.15-.22.22-.31.52-.31.92.09,1.91,3.19,1.82,3.26,2.74.55-1.29-1.78-.86-1.87-2.71Z"/></g></svg>