<svg xmlns="http://www.w3.org/2000/svg" width="273" height="154" fill="none" viewBox="0 0 273 154">
  <g clip-path="url(#clip0_4818_19844)">
    <path fill="#fff0eb" d="M0 0h272.333v154H0z" />
    <path fill="#fff0eb" d="M3 8h261v149H3z" />
    <g clip-path="url(#clip1_4818_19844)">
      <path fill="#a0d4f3"
        d="M178.046 91.442H81.428c-21.315 0-31.992-26.422-16.92-41.52l25.423-25.47c21.898-21.936 57.531-21.936 79.432 0l25.548 25.595c15.027 15.053 4.598 41.395-16.653 41.395" />
      <path fill="#e3f5ff"
        d="M135.376 91.452H61.365c-16.328 0-24.507-20.267-12.96-31.847L67.879 40.07c16.774-16.827 44.069-16.827 60.845 0l19.571 19.63c11.511 11.547 3.522 31.752-12.756 31.752" />
      <path fill="#efe7d4"
        d="M178.853 91.442h-48.57c-10.716 0-16.083 13.027-8.505 20.645l12.778 12.849c11.008 11.07 28.922 11.07 39.931 0l12.844-12.913c7.554-7.595 2.204-20.581-8.478-20.581" />
      <path fill="#f9e9c5"
        d="M127.004 91.442H59.701c-14.848 0-22.286 17.972-11.786 28.481l17.71 17.73c15.254 15.27 40.076 15.27 55.332 0l17.797-17.816c10.468-10.478 3.055-28.395-11.748-28.395" />
      <g clip-path="url(#clip2_4818_19844)">
        <mask id="mask0_4818_19844" width="159" height="142" x="43" y="8" maskUnits="userSpaceOnUse"
          style="mask-type:alpha">
          <path fill="#efe7d4" fill-rule="evenodd"
            d="M89.933 24.453c21.898-21.937 57.531-21.937 79.431 0l25.549 25.594c15.027 15.053 4.598 41.395-16.653 41.395h.591c10.683 0 16.032 12.986 8.479 20.581l-12.844 12.913c-11.01 11.07-28.923 11.07-39.931 0l-.447-.449-13.151 13.166c-15.256 15.27-40.078 15.27-55.333 0l-17.71-17.73c-10.499-10.509-3.061-28.48 11.787-28.48h1.072C44.842 90.958 37 71.043 48.405 59.604L67.88 40.07a42.74 42.74 0 0 1 16.892-10.446zm37.651 67q.606.018 1.194.077.488-.058.992-.078z"
            clip-rule="evenodd" />
        </mask>
        <g mask="url(#mask0_4818_19844)">
          <path fill="#000"
            d="M65.007 122.269c.341-2.515-1.45-4.817-3.922-5.115-1.534-.214-3.026.213-4.263 1.15-1.236.938-2.003 2.26-2.174 3.794l3.624.043a2.49 2.49 0 0 1 2.77-2.131 1.96 1.96 0 0 1 1.706 2.259c-.085.895-.938 1.492-1.79 1.407-.725-.086-1.237-.768-1.109-1.45v-.042c.043-.256.17-.512.384-.682a1.07 1.07 0 0 1 .81-.214c.469.043.81.512.767.981 0 .213-.128.341-.256.469q-.255.192-.511.128a.45.45 0 0 1-.384-.213.8.8 0 0 1-.128-.427v-.042a.7.7 0 0 1 .17-.299c.086-.085.214-.128.384-.085.213.043.384.256.341.469 0 .085-.042.17-.128.213a.6.6 0 0 1-.255.085c-.086 0-.128-.042-.213-.128-.043-.085-.086-.127-.043-.213v-.042c0-.043.043-.086.085-.128s.128-.043.17-.043c.086 0 .129.085.171.128 0-.085-.085-.17-.17-.17s-.17 0-.213.085c-.043.042-.086.085-.086.128v.085c0 .128 0 .213.086.298.085.086.17.128.255.171.128 0 .256 0 .384-.085s.17-.214.213-.341a.68.68 0 0 0-.597-.768.82.82 0 0 0-.64.171.95.95 0 0 0-.34.554v.043a1.12 1.12 0 0 0 .98 1.278c.768.086 1.492-.469 1.62-1.236.128-.98-.597-1.918-1.577-2.046-1.236-.171-2.387.725-2.558 1.918v.043c-.213 1.577.938 3.027 2.515 3.24 1.833.128 3.666-1.279 3.922-3.24"
            opacity=".2" />
          <path fill="#fff" stroke="#000"
            d="M58.302 117.906c1.335-1.013 2.959-1.48 4.633-1.248v.001c2.746.336 4.727 2.89 4.35 5.677-.293 2.228-2.363 3.817-4.453 3.672l-.017-.002-.015-.002c-1.695-.229-2.978-1.682-2.973-3.366l-3.403-.039-.552-.007.06-.549c.187-1.675 1.028-3.119 2.37-4.137Z" />
          <path fill="#f0cdbe"
            d="M90.897 114.65a.64.64 0 1 0 0-1.278.64.64 0 0 0 0 1.278m-32.441-8.014a.64.64 0 1 0 0-1.279.64.64 0 0 0 0 1.279m2.43-51.41a.64.64 0 1 0 0-1.279.64.64 0 0 0 0 1.279m122.003 89.307a.64.64 0 1 0 0-1.28.64.64 0 0 0 0 1.28" />
          <path fill="#fff"
            d="M50.784 141.762a.64.64 0 1 0-.001-1.28.64.64 0 0 0 .001 1.28M144.78 87.24a.64.64 0 1 0 0-1.278.64.64 0 0 0 0 1.278m24.211-27.794a.64.64 0 1 0 0-1.278.64.64 0 0 0 0 1.278m-28.434 57.079a.64.64 0 1 0 .002-1.278.64.64 0 0 0-.002 1.278m-61-32.099a.64.64 0 1 0 0-1.279.64.64 0 0 0 0 1.28" />
          <path fill="#f0cdbe" d="M169.462 138.266a.341.341 0 1 0 0-.683.341.341 0 0 0 0 .683" />
          <path fill="#ab7b61"
            d="M166.818 139.076a.256.256 0 1 0 0-.512.256.256 0 0 0 0 .512m1.879 1.193a.297.297 0 1 0 0-.596.298.298 0 1 0 0 .596m5.456 0a.426.426 0 1 0 0-.853.426.426 0 0 0 0 .853m-93.229 7.46a.213.213 0 1 0 0-.426.213.213 0 0 0 0 .426" />
          <path fill="#f0cdbe" d="M87.274 143.68a.469.469 0 1 0 0-.938.469.469 0 0 0 0 .938" />
          <path fill="#ab7b61"
            d="M117.797 144.916a.427.427 0 1 0 0-.853.427.427 0 0 0 0 .853m1.108.298a.17.17 0 1 0-.001-.34.17.17 0 0 0 .001.34" />
          <path fill="#f0cdbe" d="M117.627 146.493a.256.256 0 1 0 0-.512.256.256 0 0 0 0 .512" />
          <path fill="#ab7b61"
            d="M120.354 142.87a.128.128 0 0 0 0-.256.128.128 0 0 0 0 .256m-15.56-3.197a.383.383 0 1 0 0-.766.383.383 0 0 0 0 .766" />
          <path fill="#f0cdbe" d="M151.259 148.028a.383.383 0 1 0 0-.766.383.383 0 0 0 0 .766" />
          <path fill="#ab7b61"
            d="M153.603 146.962a.256.256 0 1 0 0-.512.256.256 0 0 0 0 .512m24.301-18.757a.256.256 0 1 0 0-.511.256.256 0 0 0 0 .511" />
          <path fill="#f0cdbe"
            d="M181.1 133.79a.256.256 0 1 0-.001-.511.256.256 0 0 0 .001.511m-104.822 6.735a.469.469 0 1 0 0-.938.469.469 0 0 0 0 .938" />
          <path fill="#ab7b61"
            d="M142.395 141.975a.469.469 0 1 0 0-.938.469.469 0 0 0 0 .938m-69.828-13.812a.469.469 0 1 0 0-.938.469.469 0 0 0 0 .938m-20.844-3.538a.469.469 0 1 0 0-.938.469.469 0 0 0 0 .938m56.055-32.185a.469.469 0 1 0-.002-.937.469.469 0 0 0 .002.937" />
          <path fill="#f0cdbe"
            d="M182.634 149.051a.3.3 0 0 0 0-.597.299.299 0 0 0 0 .597m-31.16-87.857a.341.341 0 1 0 0-.683.341.341 0 0 0 0 .682" />
          <path fill="#fff"
            d="M133.993 85.322a.34.34 0 1 0 0-.682.34.34 0 0 0 0 .681M77.68 117.762a.341.341 0 1 0 0-.682.341.341 0 0 0 0 .682m40.798 13.939a.341.341 0 1 0 0-.683.341.341 0 0 0 0 .683m-6.821-15.943a.34.34 0 1 0 0-.682.34.34 0 0 0 0 .682m-3.113-30.522a.341.341 0 1 0 0-.682.341.341 0 0 0 0 .682" />
          <path fill="#f0cdbe"
            d="M182.208 99.73a.34.34 0 1 0 0-.681.34.34 0 0 0 0 .68m-5.328-6.564a.341.341 0 1 0 0-.683.341.341 0 0 0 0 .683M113.021 65.84a.341.341 0 1 0 0-.682.341.341 0 0 0 0 .682m13.429-7.843a.34.34 0 1 0 0-.682.34.34 0 0 0 0 .681" />
          <path fill="#ab7b61"
            d="M148.873 62.004a.256.256 0 1 0 0-.513.256.256 0 0 0 0 .513m34.824 30.479a.256.256 0 1 0 0-.512.256.256 0 0 0 0 .512m-36.574 15.431a.256.256 0 1 0 0-.511.256.256 0 0 0 0 .511m-20.078-2.174a.256.256 0 1 0 0-.511.256.256 0 0 0 0 .511m22.89 16.199a.255.255 0 1 0 0-.511.255.255 0 0 0 0 .511m-3.066 3.581a.256.256 0 0 0 0-.512.256.256 0 0 0 0 .512m10.699 2.941a.255.255 0 1 0 0-.511.256.256 0 1 0 0 .511m17.008-30.607a.256.256 0 1 0 0-.512.256.256 0 0 0 0 .512m3.582-1.024a.256.256 0 1 0 0-.511.256.256 0 0 0 0 .512m-.981-14.75a.299.299 0 1 0 0-.597.299.299 0 0 0 0 .597m4.605-14.152a.426.426 0 1 0 0-.853.426.426 0 0 0 0 .853m-28.434 44.888a.426.426 0 1 0 0-.852.426.426 0 0 0 0 .852m-90.416-42.16a.213.213 0 1 0 0-.426.213.213 0 0 0 0 .426" />
          <path fill="#f0cdbe" d="M73.375 60.98a.469.469 0 1 0 0-.937.469.469 0 0 0 0 .938" />
          <path fill="#ab7b61"
            d="M51.89 70.06a.17.17 0 1 0 0-.34.17.17 0 0 0 0 .34m46.935-12.404a.426.426 0 1 0 0-.853.426.426 0 0 0 0 .853m2.092 10.486a.17.17 0 1 0 0-.34.17.17 0 0 0 0 .34" />
          <path fill="#f0cdbe" d="M99.635 69.421a.256.256 0 1 0 0-.511.256.256 0 0 0 0 .511" />
          <path fill="#ab7b61"
            d="M102.366 65.755a.128.128 0 1 0 0-.256.128.128 0 0 0 0 .256m-10.828 46.763a.128.128 0 1 0 0-.255.128.128 0 0 0 0 .255m-5.246-.426a.128.128 0 1 0 0-.255.128.128 0 0 0 0 .255m28.562 16.241a.127.127 0 1 0 .001-.255.127.127 0 0 0-.001.255m3.11.256a.128.128 0 0 0 0-.256.128.128 0 0 0 0 .256m-1.832 1.407a.128.128 0 1 0 0-.256.128.128 0 0 0 0 .256m.387-1.407a.128.128 0 0 0 0-.256.128.128 0 0 0 0 .256m18.199 3.24a.128.128 0 1 0 0-.256.128.128 0 0 0 0 .256m13.726-.682a.13.13 0 0 0 .128-.128.128.128 0 1 0-.128.128M124.405 90.18a.17.17 0 1 0 0-.34.17.17 0 0 0 0 .34m-21.699.086a.17.17 0 1 0 0-.34.17.17 0 0 0 0 .34" />
          <path fill="#f0cdbe" d="M118.221 90.607a.255.255 0 1 0 0-.51.255.255 0 0 0 0 .51" />
          <path fill="#ab7b61"
            d="M120.948 86.941a.128.128 0 1 0 0-.255.128.128 0 0 0 0 .255m-42.33-21.399a.384.384 0 1 0 0-.768.384.384 0 0 0 0 .768m12.746 25.619a.384.384 0 1 0 0-.767.384.384 0 0 0 0 .767" />
          <path fill="#f0cdbe" d="M133.27 70.956a.384.384 0 1 0 0-.768.384.384 0 0 0 0 .767" />
          <path fill="#ab7b61" d="M139.537 73.556a.256.256 0 1 0 0-.512.256.256 0 0 0 0 .512" />
          <path fill="#fff" d="M88.252 99.048a.256.256 0 1 0 0-.512.256.256 0 0 0 0 .512" />
          <path fill="#ab7b61"
            d="M80.752 94.53a.256.256 0 1 0 0-.512.256.256 0 0 0 0 .511m99.023-31.971a.255.255 0 1 0 .001-.511.255.255 0 0 0-.001.51" />
          <path fill="#f0cdbe"
            d="M163.107 56.675a.255.255 0 1 0 .001-.51.255.255 0 0 0-.001.51M49.078 74.963a.469.469 0 1 0 0-.938.469.469 0 0 0 0 .938" />
          <path fill="#ab7b61"
            d="M119.498 73.3a.256.256 0 1 0 0-.512.256.256 0 0 0 0 .512m4.905-8.398a.469.469 0 1 0-.002-.937.469.469 0 0 0 .002.937" />
          <path fill="#f0cdbe" d="M180.033 71.979a.298.298 0 1 0 0-.596.298.298 0 0 0 0 .596" />
          <path fill="#fff" d="M131.818 95.978a.298.298 0 1 0 0-.595.298.298 0 0 0 0 .595" />
          <path fill="#000"
            d="M173.528 113.059a.37.37 0 0 0-.48-.222l-3.66.739-.443-3.696a.37.37 0 1 0-.739 0l-.481 3.733-3.659-.702c-.185-.074-.407.037-.481.259-.074.184.037.406.259.48l3.401 1.552-1.775 3.253c-.11.185-.074.407.074.518.185.111.407.074.518-.074l2.55-2.736 2.551 2.699c.11.185.369.222.517.074.185-.111.222-.37.074-.518l-1.811-3.252 3.363-1.59c.185-.111.296-.296.222-.517"
            opacity=".2" />
          <path fill="#38868c"
            d="M174.749 113.059a.37.37 0 0 0-.48-.222l-3.66.739-.443-3.696a.37.37 0 0 0-.74 0l-.443 3.733-3.659-.702c-.185-.074-.407.037-.481.259-.074.184.037.406.259.48l3.4 1.552-1.774 3.253c-.111.185-.074.407.074.518.185.111.407.074.518-.074l2.55-2.736 2.55 2.699c.111.185.37.222.518.074.185-.111.222-.37.074-.518l-1.811-3.252 3.363-1.59c.148-.111.259-.296.185-.517" />
          <path fill="#5ac0d1"
            d="m171.163 114.204-.962.444.518.924c.037.037.037.111-.037.148-.037.037-.111.037-.148-.037l-.739-.776-.739.776c-.037.037-.111.074-.148.037s-.074-.111-.037-.148l.517-.924-.998-.444c-.074 0-.074-.074-.074-.147.037-.074.074-.074.148-.074l1.035.184.111-1.071q0-.111.111-.111t.111.111l.148 1.071 1.072-.221c.074 0 .111 0 .147.074.037.11.037.184-.036.184" />
          <path fill="#000"
            d="m94.346 143.683-8.213-3.81 4.336-7.852c.296-.394.197-.985-.197-1.281s-.985-.197-1.281.197l-6.143 6.636-6.143-6.537a.93.93 0 0 0-1.281-.197.93.93 0 0 0-.198 1.281l4.435 7.917-8.114 3.811a.95.95 0 0 0-.591 1.149.95.95 0 0 0 1.15.592l8.87-1.774 1.116 8.903c0 .492.395.919.92.919.493 0 .92-.394.92-.919l1.084-9.002 8.804 1.709c.46.164.986-.099 1.15-.592.131-.493-.131-1.018-.624-1.15"
            opacity=".2" />
          <path fill="#f7e496"
            d="M72.795 144.965a.95.95 0 0 0 1.15.591l8.87-1.774 1.116 8.903c0 .492.395.919.92.919.493 0 .92-.394.92-.919l1.084-9.002 8.804 1.709c.46.164.986-.099 1.15-.592.164-.46-.099-.985-.591-1.15l-8.213-3.81 4.336-7.852c.296-.394.197-.985-.197-1.281s-.985-.197-1.281.197l-6.143 6.636-6.144-6.537a.93.93 0 0 0-1.28-.197.93.93 0 0 0-.198 1.281l4.435 7.917-8.114 3.811c-.526.164-.788.69-.624 1.15" />
          <path fill="#f89c6d"
            d="m91.226 131.824-6.472 8.903-6.439-8.903-.295.23 6.438 8.903-10.446 3.383.131.362 10.447-3.384v11.005h.361v-11.005l10.48 3.384.098-.362-10.446-3.383 6.471-8.903z" />
          <g clip-path="url(#clip3_4818_19844)">
            <path fill="#000" fill-opacity=".2"
              d="M134.883 82.536h.403c.576 0 1.042-.466 1.042-1.042v-2.149c0-.575-.466-1.041-1.042-1.041h-8.084c-.476 0-.891-.323-1.009-.784l-.483-1.882-.941-3.679-.849-3.31-.556-2.174-1.794-6.991-.613-2.4-1.791-6.99-.676-2.64a.023.023 0 0 1 .022-.028 2.114 2.114 0 1 0 0-4.23h-75.37a2.114 2.114 0 1 0 0 4.228h1.22c.475 0 .89.323 1.009.784l.482 1.885 1.79 6.99.614 2.4 1.79 6.991.56 2.173 1.79 6.991.6 2.34a.26.26 0 0 1-.252.326.26.26 0 0 0-.261.26v3.604c0 .203.165.368.368.368a.37.37 0 0 1 .357.46l-6.532 25.491c-.168.659.33 1.3 1.01 1.3h2.218c.475 0 .89-.322 1.008-.783l5.018-19.576 1.564-6.109a1.04 1.04 0 0 1 1.009-.783h2.47c.477 0 .892.322 1.01.783l6.58 25.685c.119.461.534.783 1.01.783h2.218c.68 0 1.177-.641 1.009-1.3l-6.316-24.65a1.042 1.042 0 0 1 1.009-1.301h53.217c.68 0 1.178.641 1.009 1.3l-6.316 24.651c-.169.659.329 1.3 1.009 1.3h2.218c.476 0 .891-.322 1.009-.783l5.122-19.993 1.459-5.692c.118-.46.533-.783 1.009-.783h2.472c.475 0 .891.322 1.009.783l6.58 25.685c.119.461.534.783 1.01.783h2.217c.681 0 1.178-.641 1.009-1.3l-6.648-25.947q0-.004.004-.004M51.028 50.094c-.475 0-.89-.323-1.009-.784l-.15-.584a1.042 1.042 0 0 1 1.01-1.3H113.3c.476 0 .891.322 1.009.783l.15.585c.169.659-.329 1.3-1.009 1.3zm2.409 9.389c-.476 0-.892-.323-1.01-.784l-.08-.315a1.04 1.04 0 0 1 1.009-1.3h62.422c.476 0 .892.322 1.01.783l.08.316c.169.659-.329 1.3-1.009 1.3zm2.346 9.164c-.476 0-.891-.322-1.01-.783l-.022-.09a1.042 1.042 0 0 1 1.009-1.3h62.422c.476 0 .892.322 1.01.783l.023.09c.168.66-.329 1.3-1.01 1.3zm2.477 9.656c-.475 0-.89-.322-1.009-.782l-.149-.582a1.042 1.042 0 0 1 1.01-1.3h62.418c.476 0 .891.322 1.009.782l.15.582c.168.659-.329 1.3-1.01 1.3z" />
          </g>
        </g>
      </g>
      <path fill="#e99674" stroke="#000" stroke-linejoin="round" stroke-width="1.042"
        d="M120.813 42.462a2.635 2.635 0 0 1 .622 5.193l.537 2.096 1.79 6.99.614 2.4 1.793 6.99.557 2.173.848 3.312.942 3.679.583 2.273h9.53c.287 0 .52.234.52.522v4.232a.52.52 0 0 1-.52.52h-.778l6.815 26.602a.518.518 0 0 1-.505.65h-4.368a.52.52 0 0 1-.505-.392l-6.881-26.86h-3.281l-1.559 6.085-5.322 20.775a.52.52 0 0 1-.505.392h-4.368a.523.523 0 0 1-.505-.65l6.816-26.601H69.124l6.816 26.601a.52.52 0 0 1-.505.65h-4.369a.52.52 0 0 1-.505-.392l-6.881-26.86H60.4l-1.664 6.502-5.217 20.358a.52.52 0 0 1-.505.392h-4.369a.523.523 0 0 1-.504-.65l6.815-26.601h-.172a.52.52 0 0 1-.52-.521V78.09a.52.52 0 0 1 .448-.515l-.519-2.022-1.79-6.99-.56-2.174-1.79-6.99-.613-2.4-1.79-6.991-.584-2.277h-1.624a2.635 2.635 0 0 1 0-5.268v-.001zM60.156 77.568h63.495l-.416-1.623H59.741zm-2.476-9.656h63.497l-.289-1.131H57.391zm-2.347-9.164h63.498l-.348-1.358H54.985zm-2.408-9.389h63.498l-.417-1.627H52.508z" />
      <path fill="#a65e3b"
        d="M132.898 82.67h1.632l6.893 26.904h-1.631zm-68.734 0h1.632l6.893 26.904h-1.631zm61.738 0h-1.632l-6.893 26.904h1.632zm-68.73 0H55.54l-6.893 26.904h1.631zm-3.199-27.116h64.57l.342 1.317h-64.57zm2.41 9.389h64.57l.342 1.317h-64.57zm2.336 9.164h64.57l.342 1.317h-64.57zM43.441 45.702c.365.3.83.48 1.338.48h77.063c.318 0 .618-.074.888-.2a2.11 2.11 0 0 1-1.915 1.226H45.464a2.11 2.11 0 0 1-2.023-1.506" />
      <path fill="#a65e3b" stroke="#000" stroke-width="1.042"
        d="M140.796 77.57a2.64 2.64 0 0 1 2.638 2.635l-.014.27a2.637 2.637 0 0 1-2.624 2.368H58.55V77.57z" />
      <path fill="#e99674" stroke="#000" stroke-width="1.042"
        d="M71.413 77.569a2.637 2.637 0 0 1 0 5.273h-18.78a2.637 2.637 0 1 1 0-5.273z" />
      <path fill="#7a452b"
        d="M75.648 78.09c1.911 0 3.008 3.083.596 4.232h23.787c4.671 0 5.614-4.233 5.614-4.233zm37.438 0 1.761 4.232h2.686l-1.604-4.233z" />
      <path fill="#563a39" stroke="#000" stroke-width="1.042"
        d="M108.861 41.998a6.29 6.29 0 0 1 7.978 3.348l.122.299a.783.783 0 0 1-1.464.555 4.72 4.72 0 0 0-5.852-2.818l-.23.08a4.72 4.72 0 0 0-2.817 5.853l.08.229 22.685 59.841a.783.783 0 0 1-.382.978l-.073.029a.78.78 0 0 1-.977-.381l-.033-.073-22.683-59.84a6.287 6.287 0 0 1 3.646-8.1Z" />
      <path fill="#92706f"
        d="M116.549 46.064a.29.29 0 0 1-.27-.186c-.075-.196-1.914-4.78-7.478-3.31a.29.29 0 1 1-.148-.56c6.078-1.607 8.147 3.61 8.167 3.664a.29.29 0 0 1-.271.393zm12.507 63.326a.29.29 0 0 1-.272-.187l-22.257-58.31a.29.29 0 0 1 .167-.373.29.29 0 0 1 .374.167l22.258 58.31a.29.29 0 0 1-.27.393" />
      <path fill="#fff8dc" stroke="#000" stroke-width="1.042"
        d="M95.31 71.82c-2.849-.298-5.902-.415-8.79-.277a7 7 0 0 0-.7.078c-.215.032-.402.06-.591.068-.334.014-.674.01-1.03.004-.352-.005-.72-.011-1.089.001-1.42.049-2.827.186-4.209.38a60 60 0 0 0-3.376.578c-.661.132-1.547.236-2.294.563a2.6 2.6 0 0 0-.528.294 1.15 1.15 0 0 0-.448.667c-.056.253-.004.486.04.638.16.546.581.995.978 1.334.409.347.87.643 1.199.854.91.588 1.904 1.014 2.861 1.4a30 30 0 0 0 4.835 1.475l.707.145c4.263.829 8.641.844 12.922.449 1.889-.175 3.797-.431 5.661-.922 1.686-.445 3.661-1.068 5.083-2.339a5 5 0 0 0 .18-.169h.009l.155-.168c.191-.208.434-.514.551-.856.06-.178.096-.396.044-.626a1.04 1.04 0 0 0-.393-.602c-.18-.14-.392-.189-.475-.21v-.002c-.244-.064-.499-.119-.731-.172a9 9 0 0 1-.668-.17l-.277-.101a8 8 0 0 1-.297-.127c-.199-.089-.427-.194-.655-.28a27 27 0 0 0-2.742-.868c-1.95-.509-3.942-.83-5.932-1.039Z" />
      <path fill="#ffc2a6"
        d="M99.427 75.07c-1.258.694-2.671 1.042-4.077 1.298a28 28 0 0 1-4.415.442 28 28 0 0 1-4.477-.28c-1.41-.202-2.844-.478-4.174-.995a9 9 0 0 1-1.088-.501c-.304-.167-.641-.349-.832-.65-.331-.522-.025-1.25.541-1.45l.057.416c-.255-.008-.436.202-.503.431-.083.286.034.56.236.767.547.563 1.418.57 2.116.83.25.095.153.489-.114.408-.818-.246-1.754-.255-2.423-.847-.276-.244-.501-.582-.557-.949a1.17 1.17 0 0 1 .342-1.023c.3-.292.723-.438 1.133-.494l.056.414a3.8 3.8 0 0 0-1.266.216c-.149.053-.31.12-.407.25a.55.55 0 0 0-.084.41c.1.658.822 1.112 1.445 1.173l-.056.415c-.574-.19-1.26-.43-1.553-1.004-.246-.483-.201-1.14.294-1.448.13-.08.335.022.32.182-.03.337.063.673.286.934.07.082.093.22 0 .299-.262.221-.637.184-.882-.047-.29-.274-.25-.728-.071-1.05.349-.625 1.117-.822 1.77-.958l.114.407a8 8 0 0 0-1.34.304c-.279.09-.695.202-.828.496-.149.328.227.654.456.83.32.247.693.416 1.086.51.267.063.154.47-.113.407a3.3 3.3 0 0 1-1.015-.431c-.3-.195-.616-.445-.773-.773a.83.83 0 0 1 .14-.962c.24-.252.588-.373.91-.477q.668-.215 1.363-.311c.114-.016.229.027.262.147.03.105-.036.236-.149.26-.464.097-.992.2-1.343.543-.16.156-.315.405-.242.637.038.119.227.276.354.169v.298a1.67 1.67 0 0 1-.41-1.232l.32.182c-.321.2-.27.675-.094.954.26.414.812.58 1.25.727.215.071.196.44-.056.415-.677-.067-1.366-.436-1.696-1.047-.154-.284-.24-.64-.136-.956.116-.35.415-.534.746-.654a4.1 4.1 0 0 1 1.399-.237c.23 0 .3.381.056.415-.536.074-1.26.359-1.175 1.02.089.682.804 1.03 1.397 1.182.425.11.862.17 1.284.297l-.114.407c-.69-.258-1.472-.292-2.078-.746-.514-.385-.802-1.03-.462-1.627.165-.29.463-.495.805-.486.247.007.28.337.057.415-.188.066-.309.246-.35.433-.048.217.035.401.198.547.223.2.52.34.786.475q.446.224.915.396c1.268.466 2.62.73 3.954.923a27.1 27.1 0 0 0 8.378-.096c1.48-.25 2.99-.585 4.312-1.315.24-.133.454.232.215.364" />
      <path fill="#ffc2a6"
        d="M79.166 73.399c-.206.053-.222.344-.135.502.165.299.548.437.843.572a22.94 22.94 0 0 0 9.964 2.062c.274-.005.274.417 0 .422a23.4 23.4 0 0 1-5.35-.515 22.6 22.6 0 0 1-5.07-1.717c-.363-.174-.77-.435-.846-.861-.064-.361.098-.773.481-.873.265-.068.379.339.113.408" />
      <path fill="#ffc2a6"
        d="M80.07 72.805a5 5 0 0 0-.685.172c-.202.066-.434.137-.61.26-.334.232.118.682.305.846.33.29.733.498 1.124.692q.606.3 1.246.518.742.254 1.514.398c.268.05.155.457-.114.407a11 11 0 0 1-2.943-1c-.44-.223-.886-.47-1.24-.82-.31-.306-.613-.819-.303-1.228.165-.219.46-.316.708-.41q.432-.16.886-.242c.113-.02.229.03.261.148.029.102-.034.24-.148.26" />
      <path fill="#fff8dc" stroke="#000" stroke-width="1.042"
        d="M96.824 62.577c-1.008-.65-2.053-.813-3.205-.637-.613.093-1.24.258-1.795.378-.575.124-1.115.212-1.656.195-.52-.016-1.05-.093-1.608-.179-.547-.084-1.126-.176-1.697-.205-1.166-.059-2.363.144-3.42 1.214-.558.565-.918 1.245-1.187 1.924-.265.669-.46 1.389-.65 2.004a37 37 0 0 0-1.064 4.417c-.072.397-.135.827-.044 1.241.1.45.363.818.802 1.14 1.09.803 2.406 1.183 3.638 1.444 2.736.58 5.568.703 8.345.38a26 26 0 0 0 3.56-.668l.5-.136q.188-.051.455-.111c.173-.04.368-.084.56-.136.368-.098.813-.241 1.134-.49.379-.294.465-.703.458-1.035-.006-.308-.094-.633-.141-.832-.276-1.167-.473-2.35-.689-3.558-.214-1.2-.446-2.418-.792-3.618v-.001c-.068-.236-.145-.528-.225-.787-.206-.676-.518-1.453-1.279-1.944Z" />
      <path fill="#ffc2a6"
        d="M95.175 74.147c-2.565-.749-5.177-1.516-7.473-2.912-1.17-.711-2.213-1.594-3.151-2.584a27 27 0 0 1-1.341-1.537c-.078-.096-.167-.232-.288-.278-.119-.046-.208.07-.258.16-.069.123-.103.272-.146.404q-.081.247-.156.496c-.395 1.304-.72 2.648-.896 4l-.396-.107c.32-.541.511-1.185.625-1.799.067-.358.082-.723.146-1.081.073-.409.176-.814.313-1.205.137-.389.322-.773.642-1.046.125-.106.384-.049.364.15-.09.856-.36 1.674-.54 2.512-.17.781-.24 1.605.043 2.368h-.41c.307-1.5.08-3.13.865-4.51.052-.09.2-.145.291-.076.849.647 1.564 1.434 2.329 2.172.778.752 1.637 1.404 2.535 2.008.507.341 1.023.668 1.54.995.159.102.122.327-.052.386-.738.254-1.572-.115-2.19-.51-.622-.4-1.151-.925-1.634-1.479-.512-.587-.982-1.21-1.52-1.775a9 9 0 0 0-.413-.405c-.134-.123-.278-.278-.445-.356-.135-.063-.17.057-.198.168-.047.18-.07.367-.1.55-.132.826-.216 1.73.154 2.51l-.397.106q-.024-.925.064-1.845c.052-.525.148-1.04.486-1.463.068-.085.231-.078.3 0a15 15 0 0 0 1.807 1.73q.492.397 1.02.744c.335.218.686.407 1.032.606.378.218.748.46 1.04.786.149.164.002.389-.206.353-.59-.1-1.219-.156-1.777-.38-.447-.18-.822-.48-1.144-.832-.317-.345-.588-.729-.886-1.09a6 6 0 0 0-.474-.514 3 3 0 0 0-.242-.21c-.025-.018-.095-.073-.11-.07a.2.2 0 0 0-.045.058c-.063.12-.076.279-.097.411a3.9 3.9 0 0 0 .078 1.518l-.418.056a7 7 0 0 1 .147-1.363c.038-.19.07-.418.212-.564a.38.38 0 0 1 .524-.032c.143.117.226.306.327.456q.163.244.348.47.375.456.822.841.506.434 1.09.76c.212.119.068.445-.164.386-1.217-.31-2.12-1.251-2.815-2.242l.389-.05a2.35 2.35 0 0 0-.034 1.227c.053.224-.277.385-.39.163-.106-.211-.115-.497.056-.682.16-.173.435-.173.628-.056.196.12.303.338.461.498.161.162.355.293.568.378.107.042.182.14.149.26-.028.1-.155.19-.262.147q-.691-.271-1.355-.605l.32-.182-.003-.006-.055-.093c.016.02.024.015.004.012.017.002.037.01.053.013q.084.019.167.034.168.031.336.058a9 9 0 0 0 1.01.1c.01.001.203.006.198-.008l-.028.042q-.022.078-.049.016c-.015-.01-.032-.04-.043-.054a6 6 0 0 0-.322-.357c-.608-.635-1.21-1.268-1.77-1.946q-.483-.586-.932-1.196l.367-.214c.188.42.32.855.387 1.31.02.144-.092.318-.262.259l-.27-.093c-.257-.09-.146-.498.113-.408l.27.094-.262.26a4.6 4.6 0 0 0-.343-1.209.213.213 0 0 1 .367-.213 26 26 0 0 0 2.02 2.42c.35.371.74.717 1.043 1.127.154.209.097.48-.161.567-.218.072-.489.02-.712 0q-.466-.04-.926-.121c-.214-.038-.663-.075-.623-.394.021-.16.165-.26.32-.182q.615.31 1.254.562l-.113.408a2.14 2.14 0 0 1-.853-.592c-.085-.1-.178-.294-.308-.343-.112-.043-.11.098-.07.176l-.39.163a2.8 2.8 0 0 1 .034-1.452c.054-.184.287-.197.39-.05.63.9 1.454 1.766 2.56 2.047l-.164.386a7.1 7.1 0 0 1-2.343-2.12c-.095-.136-.178-.282-.273-.419l-.02-.022c0-.002-.009-.027.023-.004s.012-.016.005.03c-.011.076-.048.159-.065.235q-.148.676-.156 1.367c-.003.234-.36.293-.418.056a4.3 4.3 0 0 1-.035-1.973c.055-.25.191-.533.487-.547.266-.012.51.246.688.415.716.68 1.17 1.66 2.037 2.178.283.169.597.257.92.322.372.074.748.131 1.123.195l-.207.353c-.516-.573-1.267-.865-1.907-1.274a14 14 0 0 1-1.991-1.561q-.525-.492-1.001-1.03h.3c-.288.362-.334.864-.373 1.307q-.073.85-.05 1.702c.005.2-.306.3-.397.106-.355-.748-.366-1.574-.262-2.38q.04-.315.094-.63c.032-.18.053-.367.127-.537a.54.54 0 0 1 .356-.324c.226-.058.433.064.604.198 1.27.998 2.059 2.46 3.294 3.495.325.272.684.51 1.071.686.407.185.878.321 1.316.17l-.05.386c-.92-.582-1.84-1.166-2.705-1.825-.43-.327-.846-.67-1.24-1.04-.39-.364-.762-.748-1.141-1.124-.419-.416-.847-.827-1.317-1.186l.29-.076c-.369.649-.497 1.39-.568 2.123-.074.763-.1 1.533-.254 2.286-.046.222-.345.179-.41 0-.62-1.67.309-3.336.481-4.992l.363.15c-.265.226-.418.535-.532.859a8 8 0 0 0-.31 1.181c-.064.355-.08.716-.143 1.071-.059.328-.147.65-.254.966a5 5 0 0 1-.42.968c-.1.167-.426.11-.397-.107.161-1.246.443-2.481.787-3.69q.136-.481.293-.958c.097-.297.192-.643.502-.788.327-.154.627.043.834.29.233.276.458.557.694.83.914 1.053 1.914 2.042 3.067 2.838 1.128.78 2.37 1.386 3.647 1.885 1.445.565 2.935 1.003 4.423 1.437.262.077.15.484-.113.407z" />
      <path fill="#563a39"
        d="M99.743 74.642a.3.3 0 0 1-.099.076c-2.779 1.406-6.19 1.903-9.285 1.773-1.81-.077-3.632-.181-5.405-.571a13.4 13.4 0 0 1-2.564-.823c-.6-.267-1.917-.694-1.768-1.495l.452-2.437c.01-.054.158-.92.188-.904 1.08.543 2.138.91 3.302 1.24 1.317.376 2.673.617 4.039.718 1.563.114 3.134.046 4.699-.032 2-.1 4.02-.275 5.794-1.28.02-.012.043-.024.067-.021.045.005.065.058.075.102q.242 1.009.413 2.033c.064.376.383 1.292.092 1.62" />
      <path fill="#ffc2a6"
        d="M92.231 63.167c-1.944.36-3.862 1.258-5.878.89-.229-.042-.51-.092-.635-.313a.398.398 0 0 1 .205-.573c.106-.044.234.047.262.147.033.122-.042.217-.149.26.11-.045 0-.069.09-.015.07.042.167.052.246.068q.3.061.609.08c.416.027.835.005 1.249-.049.844-.11 1.663-.353 2.483-.573a19 19 0 0 1 1.405-.33c.113-.02.23.031.262.148.029.103-.035.238-.149.26m13.953 12.87c-.987 1.278-2.513 1.954-4.019 2.435-1.772.567-3.605.932-5.452 1.158-1.92.235-3.859.312-5.793.286a48 48 0 0 1-4.477-.252 48 48 0 0 1-2.01-.258c-.562-.085-1.13-.174-1.678-.324a4 4 0 0 1-.279-.087c-.108-.038-.18-.143-.149-.26.029-.103.154-.186.262-.147.469.169.973.25 1.463.332.64.108 1.286.194 1.931.27a47 47 0 0 0 4.147.287c1.894.053 3.793.012 5.679-.17 1.868-.182 3.725-.508 5.529-1.026 1.46-.42 3.008-.946 4.105-2.04q.2-.195.373-.418c.07-.09.183-.138.291-.075.09.052.147.197.076.289z" />
      <path fill="#fff"
        d="M95.157 62.67c.54.02 1.032.288 1.396.676.396.422.627.963.802 1.506.387 1.2.665 2.443.883 3.683q.189 1.075.304 2.158c.012.114-.106.212-.213.212-.125 0-.2-.098-.213-.212a31 31 0 0 0-1.042-5.302c-.15-.517-.311-1.04-.617-1.49-.293-.431-.76-.788-1.3-.81-.273-.01-.274-.432 0-.422m5.219 10.868c1.569.446 3.112.981 4.62 1.602.106.044.182.14.149.26-.028.1-.156.191-.262.147a43 43 0 0 0-4.62-1.602c-.263-.075-.151-.483.113-.407" />
      <path fill="#a65e3b"
        d="M99.03 74.392a22 22 0 0 0-.452-2.44c-.065-.264.346-.377.41-.112q.308 1.262.468 2.552c.014.113-.108.21-.213.21-.127 0-.199-.097-.213-.21" />
      <path fill="#fff3d8" stroke="#000"
        d="M185.593 35.404a5.433 5.433 0 0 1 5.429 5.436v45.357a5.434 5.434 0 0 1-5.429 5.437h-34.202c-3 0-5.43-2.436-5.43-5.437V40.84a5.433 5.433 0 0 1 5.43-5.436z" />
      <path fill="#d3559f" stroke="#000"
        d="M185.593 35.404a5.433 5.433 0 0 1 5.429 5.436v13.768h-45.061V40.84a5.433 5.433 0 0 1 5.43-5.436z" />
      <path fill="#4fab82" stroke="#000"
        d="M184.962 39.583c.528 0 1.006.178 1.354.526s.527.828.527 1.356v6.906c0 .528-.179 1.007-.527 1.355s-.826.527-1.354.527h-33.144c-.528 0-1.006-.179-1.354-.527s-.526-.827-.526-1.355v-6.906c0-.528.178-1.008.526-1.356s.826-.526 1.354-.526z" />
      <path fill="#33691e" d="M180.817 44.228h2.762v2.763h-2.762zm-5.524 0h2.762v2.763h-2.762z" />
      <path fill="#ff614d" stroke="#000"
        d="M184.961 56.16c.528 0 1.007.179 1.355.527s.527.828.527 1.355v2.763c0 .528-.179 1.007-.527 1.355s-.827.526-1.355.526h-4.143c-.528 0-1.006-.178-1.354-.526s-.526-.827-.526-1.355v-2.763l.008-.196c.039-.45.213-.854.518-1.159.348-.348.826-.526 1.354-.526z" />
      <path fill="#cfd1ec" stroke="#000"
        d="M155.961 81.026c.528 0 1.007.178 1.355.526s.527.828.527 1.356v2.762c0 .528-.179 1.008-.527 1.356s-.827.526-1.355.526h-4.143c-.527 0-1.006-.178-1.354-.526s-.526-.828-.526-1.356v-2.762c0-.528.178-1.008.526-1.356s.827-.526 1.354-.526zm9.667 0c.528 0 1.007.178 1.355.526s.526.828.526 1.356v2.762c0 .528-.178 1.008-.526 1.356s-.827.526-1.355.526h-4.143c-.527 0-1.006-.178-1.354-.526s-.527-.828-.527-1.356v-2.762c.001-.528.179-1.008.527-1.356s.827-.526 1.354-.526zm9.667 0c.528 0 1.006.178 1.354.526s.527.828.527 1.356v2.762c0 .528-.179 1.008-.527 1.356s-.826.526-1.354.526h-4.143c-.528 0-1.007-.178-1.355-.526s-.526-.828-.526-1.356v-2.762c0-.528.178-1.008.526-1.356s.827-.526 1.355-.526zm-19.334-8.288c.528 0 1.007.178 1.355.526s.527.828.527 1.356v2.762c0 .528-.179 1.007-.527 1.355s-.827.526-1.355.526h-4.143c-.528 0-1.006-.178-1.354-.526s-.526-.827-.526-1.355V74.62c0-.528.178-1.008.526-1.356s.826-.526 1.354-.526zm9.667 0c.528 0 1.007.178 1.355.526s.526.828.526 1.356v2.762c0 .528-.178 1.007-.526 1.355s-.827.526-1.355.526h-4.143c-.528 0-1.006-.178-1.354-.526s-.526-.827-.527-1.355V74.62c0-.528.179-1.008.527-1.356s.826-.526 1.354-.526zm9.667 0c.528 0 1.006.178 1.354.526s.527.828.527 1.356v2.762c0 .528-.179 1.007-.527 1.355s-.826.526-1.354.526h-4.143c-.528 0-1.007-.178-1.355-.526s-.525-.827-.526-1.355V74.62c0-.528.178-1.008.526-1.356s.827-.526 1.355-.526zm-19.334-8.29c.528 0 1.007.18 1.355.528s.527.827.527 1.355v2.762c0 .528-.179 1.008-.527 1.356s-.827.526-1.355.526h-4.143c-.527 0-1.006-.178-1.354-.526s-.526-.828-.526-1.356v-2.762c0-.528.178-1.007.526-1.355s.826-.527 1.354-.527zm9.667 0c.528 0 1.007.18 1.355.528s.526.827.526 1.355v2.762c0 .528-.178 1.008-.526 1.356s-.827.526-1.355.526h-4.143c-.527 0-1.006-.178-1.354-.526s-.527-.828-.527-1.356v-2.762c.001-.528.179-1.007.527-1.355s.826-.527 1.354-.527zm9.667 0c.528 0 1.006.18 1.354.528s.527.827.527 1.355v2.762c0 .528-.179 1.008-.527 1.356s-.826.526-1.354.526h-4.143c-.528 0-1.007-.178-1.355-.526s-.526-.828-.526-1.356v-2.762c0-.528.178-1.007.526-1.355s.827-.527 1.355-.527zm-19.334-8.287c.528 0 1.007.178 1.355.526s.527.828.527 1.355v2.763c0 .528-.179 1.007-.527 1.355s-.827.526-1.355.526h-4.143c-.528 0-1.006-.178-1.354-.526s-.526-.827-.526-1.355v-2.763l.008-.196c.039-.45.213-.854.518-1.159.348-.348.826-.526 1.354-.526zm9.667 0c.528 0 1.007.178 1.355.526s.526.828.526 1.355v2.763c0 .528-.178 1.007-.526 1.355s-.827.526-1.355.526h-4.143c-.528 0-1.006-.178-1.354-.526s-.526-.827-.527-1.355v-2.763c0-.528.179-1.007.527-1.355s.827-.526 1.354-.526zm9.667 0c.528 0 1.006.178 1.354.526s.527.828.527 1.355v2.763c0 .528-.179 1.007-.527 1.355s-.826.526-1.354.526h-4.143c-.528 0-1.007-.178-1.355-.526s-.525-.827-.526-1.355v-2.763c0-.527.178-1.007.526-1.355s.827-.526 1.355-.526zm9.666 24.865c.528 0 1.007.178 1.355.526s.527.827.527 1.355v2.763c0 .528-.179 1.007-.527 1.355s-.827.526-1.355.526h-4.143c-.528 0-1.006-.178-1.354-.526s-.526-.827-.526-1.355v-2.763c0-.528.178-1.007.526-1.355s.826-.526 1.354-.526zm0-8.29c.528 0 1.007.18 1.355.528s.527.827.527 1.354v2.763c0 .528-.179 1.007-.527 1.356-.348.348-.827.526-1.355.526h-4.143c-.527 0-1.006-.178-1.354-.526s-.526-.828-.526-1.356v-2.763c0-.527.178-1.006.526-1.354s.826-.527 1.354-.527zm0-8.288c.528 0 1.007.179 1.355.527s.527.827.527 1.355v2.763c0 .528-.179 1.006-.527 1.355-.348.348-.827.526-1.355.526h-4.143c-.528 0-1.006-.178-1.354-.526s-.526-.827-.526-1.355V66.33c0-.528.178-1.007.526-1.355s.826-.526 1.354-.526z" />
      <path fill="#fdfdf6"
        d="M136.953 24.662c.355-.62 1.028-1.065 1.764-1.17a2.55 2.55 0 0 1 2.052.626c.414-.895 1.263-1.184 2.19-1.618.927-.433 1.921-1.05 2.075-2.017.351.673-.046 1.501-.629 2.012-.583.509-1.329.82-1.943 1.296-.614.475-1.11 1.227-.895 1.949-1.071-1.256-3.06-1.74-4.614-1.078m-19.711-6.752c.936.703 2.236.585 3.389.382 1.153-.204 2.399-.447 3.448.073.519-.753 1.378-1.088 2.198-1.494a6.8 6.8 0 0 0 3.011-2.958c.026.985-.501 1.92-1.21 2.605s-1.59 1.159-2.458 1.625c-.111.571-.529 1.025-1.065 1.251-.255.107-.534.155-.777.283-.244.13-.458.377-.427.652a3.1 3.1 0 0 1-.168-1.585c-.889.502-2.091.613-3.103.474-1.011-.14-2.116-.584-2.838-1.308" />
    </g>
  </g>
  <defs>
    <clipPath id="clip0_4818_19844">
      <path fill="#fff" d="M0 0h272.333v154H0z" />
    </clipPath>
    <clipPath id="clip1_4818_19844">
      <path fill="#fff" d="M43 8h159v141.26H43z" />
    </clipPath>
    <clipPath id="clip2_4818_19844">
      <path fill="#fff" d="M43 8h159v141.26H43z" />
    </clipPath>
    <clipPath id="clip3_4818_19844">
      <path fill="#fff" d="M41.027 91.442h133.705v18.397H41.027z" />
    </clipPath>
  </defs>
</svg>
