<svg xmlns="http://www.w3.org/2000/svg" width="273" height="159" fill="none" viewBox="0 0 273 159">
  <path fill="#f4f1fb" d="M0 0h272.333v158.091H0z" />
  <path fill="#a0d4f3"
    d="M220.159 142.08H75.817c-31.845 0-47.793-38.487-25.277-60.993l37.98-37.966c32.718-32.703 85.954-32.703 118.672 0l38.168 38.15c22.448 22.438 6.552 60.805-25.197 60.805" />
  <path fill="#dbf0fc"
    d="M237.371 142.08H162.58c-16.503 0-24.767-20.046-13.097-31.766l19.679-19.772c16.955-17.034 44.537-17.034 61.488 0l19.775 19.868c11.631 11.686 3.392 31.67-13.059 31.67" />
  <path fill="#fff3d8" stroke="#000"
    d="M176.442 58.267a7.93 7.93 0 0 1 7.928 7.927v68.243a7.927 7.927 0 0 1-7.928 7.927h-51.53a7.93 7.93 0 0 1-7.928-7.927V66.194a7.93 7.93 0 0 1 7.928-7.927z" />
  <path fill="#ff614d" fill-rule="evenodd"
    d="M171.503 93.415a4.18 4.18 0 0 1 0 5.909l-24.14 24.14a4.18 4.18 0 0 1-5.909 0l-12.07-12.07a4.178 4.178 0 1 1 5.909-5.909l9.115 9.116 21.186-21.186a4.18 4.18 0 0 1 5.909 0"
    clip-rule="evenodd" />
  <path fill="#fff3d8" stroke="#000"
    d="M176.442 58.267a7.93 7.93 0 0 1 7.928 7.927v12.57h-67.386v-12.57a7.93 7.93 0 0 1 7.928-7.927z" />
  <path fill="#e5d4b2"
    d="M135.59 58.712h7.428v7.428a3.714 3.714 0 0 1-7.428 0zm27.39 0h7.428v7.428a3.714 3.714 0 0 1-7.428 0z" />
  <circle cx="137.446" cy="67.587" r="5.571" fill="#000" />
  <circle cx="164.836" cy="67.587" r="5.571" fill="#000" />
  <rect width="8.428" height="21.426" x="133.23" y="48.982" fill="#d3559f" stroke="#000" stroke-miterlimit="10"
    rx="4.214" />
  <rect width="8.428" height="21.426" x="160.621" y="48.982" fill="#d3559f" stroke="#000" stroke-miterlimit="10"
    rx="4.214" />
  <path fill="#c82a87"
    d="M141.16 65.266v.928a3.714 3.714 0 0 1-7.428 0v-.928zm27.391 0v.928a3.714 3.714 0 0 1-7.428 0v-.928z" />
  <mask id="mask0_4818_19830" width="70" height="86" x="116" y="57" maskUnits="userSpaceOnUse" style="mask-type:alpha">
    <path fill="#fff3d8" stroke="#000"
      d="M176.858 58.173c4.376 0 7.922 3.535 7.916 7.9l-.093 67.978c-.006 4.364-3.562 7.898-7.937 7.898h-51.525c-4.376 0-7.922-3.534-7.916-7.898l.093-67.979c.006-4.364 3.562-7.9 7.938-7.9z" />
  </mask>
  <g mask="url(#mask0_4818_19830)">
    <path fill="#000"
      d="M58.928 66.17c-.005-4.086 3.315-7.399 7.417-7.399h51.524c4.101 0 7.431 3.313 7.437 7.399l.093 67.978c.005 4.087-3.315 7.399-7.417 7.399H66.458c-4.102 0-7.431-3.312-7.437-7.399z"
      opacity=".15" style="mix-blend-mode:plus-darker" />
  </g>
  <path fill="#fff3d8" stroke="#000"
    d="M113.165 58.1a7.93 7.93 0 0 1 7.928 7.929v68.242a7.93 7.93 0 0 1-7.928 7.927h-51.53a7.927 7.927 0 0 1-7.928-7.927V66.029a7.93 7.93 0 0 1 7.928-7.928z" />
  <path fill="#d3559f" stroke="#000"
    d="M113.165 58.1a7.93 7.93 0 0 1 7.928 7.929V86.49H53.707V66.029a7.93 7.93 0 0 1 7.928-7.928z" />
  <path fill="#4fab82" stroke="#000"
    d="M112.212 64.389c.737 0 1.391.248 1.861.717.471.47.719 1.124.719 1.86V77.36c0 .738-.248 1.39-.719 1.86-.47.47-1.124.718-1.861.719H62.276c-.737 0-1.391-.248-1.862-.718-.47-.47-.719-1.123-.719-1.86V66.966c0-.737.249-1.39.72-1.86.47-.47 1.124-.718 1.861-.718z" />
  <path fill="#33691e" d="M105.971 71.125h4.161v4.157h-4.161zm-8.323 0h4.162v4.157h-4.162z" />
  <path fill="#ff614d" stroke="#000"
    d="M112.217 89.331c.737 0 1.392.248 1.862.718s.719 1.123.719 1.86v4.158c0 .737-.248 1.39-.719 1.86-.47.47-1.125.718-1.862.718h-6.241c-.738 0-1.392-.248-1.863-.718-.47-.47-.718-1.123-.718-1.86v-4.158c0-.737.248-1.39.718-1.86.471-.47 1.125-.718 1.863-.718z" />
  <path fill="#cfd1ec" stroke="#000"
    d="M68.518 126.743c.737 0 1.391.248 1.862.718.47.47.719 1.124.719 1.862v4.156c0 .737-.249 1.391-.72 1.861-.47.47-1.124.718-1.861.718h-6.242c-.737 0-1.391-.248-1.862-.718-.47-.47-.719-1.124-.719-1.861v-4.156c0-.738.248-1.392.72-1.862.47-.47 1.124-.718 1.861-.718zm14.564 0c.738 0 1.392.248 1.862.718s.72 1.124.72 1.862v4.156c0 .737-.25 1.391-.72 1.861s-1.124.718-1.862.718h-6.241c-.738 0-1.392-.248-1.862-.718s-.72-1.124-.72-1.861v-4.156c0-.738.249-1.392.72-1.862.47-.47 1.124-.718 1.862-.718zm14.566 0c.737.001 1.39.248 1.86.718s.72 1.124.72 1.862v4.156c0 .737-.249 1.391-.72 1.861-.47.47-1.123.718-1.86.718h-6.243c-.737 0-1.392-.248-1.862-.718s-.719-1.124-.719-1.861v-4.156c0-.738.248-1.392.719-1.862.47-.47 1.125-.718 1.862-.718zm-29.13-12.47c.737 0 1.391.247 1.862.717.47.471.719 1.124.719 1.862v4.156c0 .737-.249 1.391-.72 1.861-.47.47-1.124.718-1.861.718h-6.242c-.737 0-1.391-.248-1.862-.718-.47-.47-.719-1.124-.719-1.861v-4.156c0-.738.248-1.391.72-1.862.47-.469 1.124-.717 1.861-.717zm14.564 0c.738 0 1.392.248 1.862.717.47.471.72 1.124.72 1.862v4.156c0 .737-.25 1.391-.72 1.861s-1.124.718-1.862.718h-6.241c-.738 0-1.392-.248-1.862-.718s-.72-1.124-.72-1.861v-4.156c0-.738.249-1.391.72-1.862.47-.47 1.124-.717 1.862-.717zm14.566 0c.737 0 1.39.248 1.86.717.471.471.72 1.124.72 1.862v4.156c0 .737-.249 1.391-.72 1.861-.47.47-1.123.718-1.86.718h-6.243c-.737 0-1.392-.248-1.862-.718s-.719-1.124-.719-1.861v-4.156c0-.738.248-1.391.719-1.862.47-.47 1.125-.717 1.862-.717zm-29.13-12.471c.737 0 1.391.248 1.862.718.47.47.719 1.123.719 1.86v4.157c0 .738-.249 1.391-.72 1.861-.47.47-1.124.718-1.861.718h-6.242c-.737 0-1.391-.248-1.862-.718-.47-.47-.719-1.123-.719-1.861v-4.157c0-.737.249-1.39.72-1.86.47-.47 1.124-.718 1.861-.718zm14.564 0c.738 0 1.392.248 1.862.718s.719 1.123.72 1.86v4.157c0 .738-.25 1.391-.72 1.861s-1.124.718-1.862.718h-6.241c-.738 0-1.392-.248-1.862-.718s-.72-1.123-.72-1.861v-4.157c0-.737.249-1.39.72-1.86.47-.47 1.124-.718 1.862-.718zm14.566 0c.737 0 1.39.248 1.86.718s.719 1.123.72 1.86v4.157c0 .738-.249 1.391-.72 1.861-.47.47-1.123.718-1.86.718h-6.243c-.737 0-1.392-.248-1.862-.718s-.719-1.123-.719-1.861v-4.157c0-.737.249-1.39.719-1.86s1.125-.718 1.862-.718zm-29.13-12.47c.737 0 1.391.247 1.862.717.47.47.719 1.123.719 1.86v4.158c0 .737-.249 1.39-.72 1.86-.47.47-1.124.718-1.861.718h-6.242c-.737 0-1.391-.248-1.862-.718-.47-.47-.719-1.123-.719-1.86v-4.158c0-.737.249-1.39.72-1.86.47-.47 1.124-.718 1.861-.718zm14.564 0c.738 0 1.392.247 1.862.717s.719 1.123.72 1.86v4.158c0 .737-.25 1.39-.72 1.86s-1.124.718-1.862.718h-6.241c-.738 0-1.392-.248-1.862-.718s-.72-1.123-.72-1.86v-4.158c0-.737.249-1.39.72-1.86.47-.47 1.124-.718 1.862-.718zm14.566 0 .272.011c.625.054 1.177.295 1.589.706.47.47.718 1.123.719 1.86v4.158c0 .737-.249 1.39-.72 1.86-.47.47-1.123.718-1.86.718h-6.243c-.737 0-1.392-.248-1.862-.718s-.719-1.123-.719-1.86v-4.158c0-.737.249-1.39.719-1.86s1.125-.718 1.862-.718zm14.569 37.411c.737 0 1.392.247 1.862.717.471.471.719 1.124.719 1.862v4.156c0 .737-.248 1.391-.719 1.861-.47.47-1.125.718-1.862.718h-6.241c-.738 0-1.392-.248-1.863-.718-.47-.47-.718-1.124-.718-1.861v-4.156c0-.738.248-1.391.718-1.862.471-.47 1.125-.717 1.863-.717zm0-12.471c.737 0 1.392.248 1.862.718s.719 1.123.719 1.86v4.157c0 .737-.249 1.391-.719 1.861s-1.125.718-1.862.718h-6.241c-.738 0-1.392-.248-1.863-.718-.47-.47-.718-1.123-.718-1.861v-4.157c0-.737.248-1.39.718-1.86.471-.47 1.125-.718 1.863-.718zm0-12.471c.737 0 1.392.248 1.862.718s.719 1.123.719 1.86v4.158c0 .737-.248 1.39-.719 1.86-.47.47-1.125.718-1.862.718h-6.241c-.738 0-1.392-.248-1.863-.718-.47-.47-.718-1.123-.718-1.86v-4.158c0-.737.248-1.39.718-1.86.471-.47 1.125-.718 1.863-.718z" />
</svg>
