<svg xmlns="http://www.w3.org/2000/svg" width="273" height="159" fill="none" viewBox="0 0 273 159">
  <path fill="#fbf3e0" d="M0 0h272.333v158.091H0z" />
  <path fill="#a0d4f3"
    d="M222.714 142.07H86.832c-29.98 0-44.993-36.213-23.797-57.39L98.79 48.958c30.8-30.77 80.917-30.77 111.717 0l35.932 35.897c21.133 21.112 6.168 57.212-23.721 57.212" />
  <path fill="#e3f5ff"
    d="M162.431 142.087h-98.09c-21.64 0-32.48-26.189-17.178-41.503l25.81-25.835c22.233-22.251 58.41-22.251 80.644 0l25.939 25.961c15.256 15.269 4.453 41.377-17.122 41.377" />
  <path fill="#fff3d8" stroke="#000"
    d="M229.06 58.025a7.927 7.927 0 0 1 7.927 7.928v68.242a7.93 7.93 0 0 1-7.927 7.928h-51.531a7.93 7.93 0 0 1-7.927-7.928V65.953a7.927 7.927 0 0 1 7.927-7.928z" />
  <path fill="#d3559f" stroke="#000"
    d="M229.06 58.025a7.927 7.927 0 0 1 7.927 7.928v20.462h-67.385V65.953a7.927 7.927 0 0 1 7.927-7.928z" />
  <path fill="#4fab82" stroke="#000"
    d="M228.106 64.313c.738 0 1.391.248 1.862.718.47.47.718 1.123.719 1.86v10.392c0 .738-.249 1.39-.719 1.86-.471.47-1.124.719-1.862.719h-49.935c-.738 0-1.392-.248-1.862-.718s-.719-1.123-.719-1.86V66.89l.012-.273c.054-.625.295-1.176.707-1.587.47-.47 1.124-.718 1.862-.718z" />
  <path fill="#33691e" d="M221.866 71.05h4.161v4.156h-4.161zm-8.323 0h4.161v4.156h-4.161z" />
  <path fill="#ff614d" stroke="#000"
    d="m228.111 89.255.273.012c.626.054 1.178.295 1.59.706.47.47.718 1.123.718 1.86v4.158c0 .737-.248 1.39-.718 1.86-.471.47-1.125.718-1.863.718h-6.241c-.738 0-1.392-.248-1.862-.718s-.719-1.123-.719-1.86v-4.157c0-.738.248-1.39.719-1.86.47-.47 1.124-.719 1.862-.719z" />
  <path fill="#cfd1ec" stroke="#000"
    d="M184.412 126.667c.738 0 1.392.248 1.862.718s.719 1.124.719 1.862v4.156c0 .737-.248 1.391-.719 1.861-.47.47-1.124.718-1.862.718h-6.241c-.738 0-1.392-.248-1.862-.718s-.719-1.124-.719-1.861v-4.156c0-.738.248-1.392.719-1.862.47-.47 1.124-.718 1.862-.718zm14.565 0c.737 0 1.391.248 1.862.718.47.47.719 1.124.719 1.862v4.156c0 .737-.249 1.391-.719 1.861-.471.47-1.125.718-1.862.718h-6.242c-.737 0-1.391-.248-1.862-.718s-.719-1.124-.719-1.861v-4.156c0-.738.248-1.392.719-1.862s1.125-.718 1.862-.718zm14.564 0c.738 0 1.392.248 1.862.718s.719 1.124.719 1.862v4.156c0 .737-.248 1.391-.719 1.861-.47.47-1.124.718-1.862.718H207.3c-.738 0-1.392-.248-1.862-.718s-.719-1.124-.719-1.861v-4.156c0-.738.248-1.392.719-1.862.47-.47 1.124-.718 1.862-.718zm-29.129-12.47c.738 0 1.392.248 1.862.718s.719 1.124.719 1.861v4.156c0 .737-.248 1.391-.719 1.861-.47.47-1.124.718-1.862.718h-6.241c-.738 0-1.392-.248-1.862-.718s-.719-1.124-.719-1.861v-4.156c0-.737.248-1.391.719-1.861.47-.47 1.124-.718 1.862-.718zm14.565 0c.737 0 1.391.248 1.862.718.47.47.719 1.124.719 1.861v4.156c0 .737-.249 1.391-.719 1.861-.471.47-1.125.718-1.862.718h-6.242c-.737 0-1.391-.248-1.862-.718s-.719-1.124-.719-1.861v-4.156c0-.737.248-1.391.719-1.861s1.125-.718 1.862-.718zm14.564 0c.738 0 1.392.248 1.862.718s.719 1.124.719 1.861v4.156c0 .737-.248 1.391-.719 1.861-.47.47-1.124.718-1.862.718H207.3c-.738 0-1.392-.248-1.862-.718s-.719-1.124-.719-1.861v-4.156c0-.737.248-1.391.719-1.861.47-.47 1.124-.718 1.862-.718zm-29.129-12.471c.738 0 1.392.248 1.862.718s.719 1.123.719 1.86v4.157c0 .738-.248 1.391-.719 1.861-.47.47-1.124.719-1.862.719h-6.241c-.738 0-1.392-.249-1.862-.719s-.719-1.123-.719-1.861v-4.157c0-.737.248-1.39.719-1.86.47-.47 1.124-.718 1.862-.718zm14.565 0c.737 0 1.391.248 1.862.718.47.47.719 1.123.719 1.86v4.157c0 .738-.249 1.391-.719 1.861-.471.47-1.125.719-1.862.719h-6.242c-.737 0-1.391-.249-1.862-.719-.47-.47-.719-1.123-.719-1.861v-4.157c0-.737.249-1.39.719-1.86.471-.47 1.125-.718 1.862-.718zm14.564 0c.738 0 1.392.248 1.862.718s.719 1.123.719 1.86v4.157c0 .738-.248 1.391-.719 1.861-.47.47-1.124.719-1.862.719H207.3c-.738 0-1.392-.249-1.862-.719s-.719-1.123-.719-1.861v-4.157c0-.737.248-1.39.719-1.86.47-.47 1.124-.718 1.862-.718zm-29.129-12.47.273.011c.625.054 1.178.295 1.589.706.471.47.719 1.123.719 1.86v4.158c0 .737-.248 1.39-.719 1.86-.47.47-1.124.718-1.862.718h-6.241c-.738 0-1.392-.248-1.862-.718s-.719-1.123-.719-1.86v-4.157c0-.738.248-1.39.719-1.86.47-.47 1.124-.719 1.862-.719zm14.565 0c.737 0 1.391.247 1.862.717.47.47.719 1.123.719 1.86v4.158c0 .737-.249 1.39-.719 1.86-.471.47-1.125.718-1.862.718h-6.242c-.737 0-1.391-.248-1.862-.718-.47-.47-.719-1.123-.719-1.86v-4.157c0-.738.249-1.39.719-1.86.471-.47 1.125-.719 1.862-.719zm14.564 0c.738 0 1.392.247 1.862.717s.719 1.123.719 1.86v4.158c0 .737-.248 1.39-.719 1.86-.47.47-1.124.718-1.862.718H207.3c-.738 0-1.392-.248-1.862-.718s-.719-1.123-.719-1.86v-4.157c0-.738.248-1.39.719-1.86.47-.47 1.124-.719 1.862-.719zm14.57 37.411c.738 0 1.392.248 1.863.718.47.47.718 1.124.718 1.861v4.156c0 .737-.248 1.391-.718 1.861-.471.47-1.125.718-1.863.718h-6.241c-.737 0-1.392-.248-1.862-.718s-.719-1.124-.719-1.861v-4.156c0-.737.248-1.391.719-1.861.47-.47 1.125-.718 1.862-.718zm0-12.471c.738 0 1.392.248 1.863.718.47.47.718 1.123.718 1.86v4.157c0 .738-.248 1.391-.718 1.861-.471.47-1.125.718-1.863.718h-6.241c-.738 0-1.392-.248-1.862-.718s-.719-1.123-.719-1.861v-4.157c0-.737.248-1.39.719-1.86.47-.47 1.124-.718 1.862-.718zm0-12.471.273.012c.626.054 1.178.295 1.59.706.47.47.718 1.123.718 1.86v4.158c0 .737-.248 1.39-.718 1.86-.471.47-1.125.718-1.863.718h-6.241c-.738 0-1.392-.248-1.862-.718s-.719-1.123-.719-1.86v-4.158c0-.737.248-1.39.719-1.86.47-.47 1.124-.718 1.862-.718z" />
  <path fill="#fd950e" stroke="#000"
    d="M164.651 132.01h.011c2.59-.013 4.787 2.115 4.774 4.802v.003c0 2.451-1.989 4.789-4.818 4.776h-.003c-2.713-.001-4.787-2.177-4.775-4.8a4.785 4.785 0 0 1 4.811-4.781Z" />
  <path fill="#fec33b" stroke="#000"
    d="M166.269 132.01h.01c2.59-.013 4.787 2.115 4.774 4.802v.003c0 2.451-1.988 4.789-4.818 4.776h-.003c-2.713-.001-4.787-2.177-4.775-4.8a4.786 4.786 0 0 1 4.812-4.781Z" />
  <path fill="#fd950e" stroke="#000"
    d="M159.288 122.862h.011c2.59-.013 4.786 2.115 4.773 4.802v.003c0 2.451-1.988 4.788-4.817 4.775h-.003c-2.713 0-4.787-2.176-4.775-4.799a4.784 4.784 0 0 1 4.811-4.781Z" />
  <path fill="#fec33b" stroke="#000"
    d="M160.905 122.862h.011c2.59-.013 4.787 2.115 4.773 4.802v.003c0 2.451-1.988 4.788-4.817 4.775h-.003c-2.713 0-4.787-2.176-4.775-4.799a4.784 4.784 0 0 1 4.811-4.781Z" />
  <path fill="#fd950e" stroke="#000"
    d="M154.161 131.915h.011c2.616-.014 4.834 2.136 4.82 4.85v.002c0 2.476-2.007 4.838-4.865 4.824h-.003c-2.74 0-4.835-2.199-4.823-4.848.027-2.893 2.406-4.869 4.86-4.828Z" />
  <path fill="#fec33b" stroke="#000"
    d="M155.794 131.915h.011c2.616-.014 4.833 2.136 4.82 4.85v.002c0 2.476-2.008 4.838-4.865 4.824h-.003c-2.74 0-4.836-2.199-4.823-4.848.027-2.893 2.406-4.869 4.86-4.828Z" />
  <path fill="#fd950e" stroke="#000"
    d="M57.612 131.542h.011c2.59-.013 4.787 2.115 4.774 4.802v.003c0 2.451-1.989 4.789-4.818 4.776h-.003c-2.713-.001-4.787-2.177-4.775-4.8a4.785 4.785 0 0 1 4.811-4.781Z" />
  <path fill="#fec33b" stroke="#000"
    d="M59.23 131.542h.01c2.59-.013 4.787 2.115 4.774 4.802v.003c0 2.451-1.988 4.789-4.818 4.776h-.003c-2.713-.001-4.787-2.177-4.775-4.8a4.785 4.785 0 0 1 4.812-4.781Z" />
  <path fill="#fd950e" stroke="#000"
    d="M239.026 131.865h.011c2.59-.014 4.787 2.114 4.774 4.801v.003c0 2.451-1.989 4.789-4.818 4.776h-.003c-2.713-.001-4.787-2.177-4.775-4.8a4.783 4.783 0 0 1 4.811-4.78Z" />
  <path fill="#fec33b" stroke="#000"
    d="M240.644 131.865h.01c2.59-.014 4.787 2.114 4.774 4.801v.003c0 2.451-1.988 4.789-4.818 4.776h-.003c-2.713-.001-4.787-2.177-4.775-4.8a4.784 4.784 0 0 1 4.812-4.78Z" />
  <g filter="url(#filter0_d_4818_19859)">
    <path fill="#434559"
      d="M126.617 111.681c3.445 4.558 2.959 8.323-1.313 12.563 2.78-1.529 7.097.081 4.555 5.25-1.329-3.215-4.179-2.499-4.778.266-.401 1.953.791 4.255 3.383 4.725 2.125.388 5.397-1.055 8.025-6.683-1.476.036-2.769.778-4.443 1.928l2.755-9.131c.694 2.564 1.582 4.245 2.52 5.154.629-1.843.543-3.18-.025-6.057l5.693 2.014c-3.024 4.103-5.951 9.858-8.351 19.913H78.671c-2.4-10.055-5.327-15.815-8.35-19.913l5.692-2.014c-.563 2.871-.654 4.209-.026 6.057.939-.909 1.827-2.595 2.521-5.154l2.755 9.131c-1.674-1.145-2.967-1.887-4.443-1.928 2.623 5.623 5.9 7.066 8.025 6.683 2.593-.47 3.779-2.772 3.383-4.725-.599-2.765-3.45-3.481-4.778-.266-2.542-5.169 1.775-6.779 4.555-5.25-4.271-4.24-4.758-8.01-1.313-12.563 4.804 3.654 4.86 7.268 2.698 12.361 2.806-3.19 7.168-1.479 5.59 3.679-2.018-3.113-4.702-1.155-4.281 1.802.355 2.58 3.78 4.659 8.042 4.29 6.107-.55 6.473-4.744 6.625-8.211-1.502-.278-4.205 1.11-6.508 4.33l-.848-9.686c2.506 2.604 4.785 3.094 7.316 3.175-.845-2.607-4.694-6.874-4.718-6.9h12.094s-3.87 4.285-4.718 6.9c2.537-.081 4.809-.571 7.315-3.175l-.847 9.686c-2.309-3.22-5.012-4.608-6.509-4.33.152 3.472.518 7.661 6.625 8.211 4.262.369 7.682-1.715 8.042-4.29.421-2.957-2.258-4.916-4.282-1.802-1.582-5.158 2.785-6.869 5.591-3.679-2.161-5.088-2.101-8.707 2.698-12.361m-51.948-4.664c2.303 0 4.17 1.858 4.17 4.149-.001 2.291-1.867 4.149-4.17 4.149s-4.17-1.858-4.17-4.149 1.867-4.149 4.17-4.149m62.964.112c2.242-.526 4.488.855 5.017 3.085s-.859 4.464-3.1 4.991-4.488-.855-5.017-3.085.859-4.464 3.1-4.991" />
    <path fill="#434559"
      d="M106.639 104.109a4.16 4.16 0 0 1 4.156 3.856c.007.098.015.198.015.298 0 2.292-1.868 4.15-4.171 4.15s-4.169-1.858-4.169-4.15q0-.227.023-.446a4.164 4.164 0 0 1 4.146-3.708M82.09 96.028c2.304 0 4.17 1.858 4.17 4.149s-1.866 4.15-4.17 4.15c-2.302 0-4.17-1.858-4.17-4.15 0-2.291 1.868-4.149 4.17-4.149m49.088 0c2.303 0 4.17 1.858 4.17 4.149s-1.867 4.15-4.17 4.15-4.169-1.858-4.169-4.15c0-2.291 1.866-4.149 4.169-4.149m-22.839-15.854q.313.235.543.544l5.296-1.67v7.78l-5.302-2.772a2.8 2.8 0 0 1-.557.555h.004l3.019 9.066c1.06 3.19-1.325 6.48-4.703 6.48s-5.768-3.29-4.703-6.48l3.019-9.067a2.8 2.8 0 0 1-.557-.554l-5.302 2.771V79.05l5.296 1.67q.237-.31.542-.545l-2.13-6.678h7.666zm-15.032 9.167c2.303 0 4.17 1.857 4.171 4.148 0 2.291-1.868 4.15-4.171 4.15s-4.17-1.859-4.17-4.15 1.867-4.148 4.17-4.148m26.655 0c2.303 0 4.169 1.857 4.169 4.148s-1.866 4.15-4.169 4.15-4.171-1.859-4.171-4.15 1.868-4.148 4.171-4.148" />
    <path stroke="#000" stroke-linejoin="round"
      d="M126.685 111.186c.131.018.25.087.331.193 1.767 2.338 2.578 4.545 2.335 6.758-.191 1.732-1.024 3.4-2.428 5.084 1.068-.118 2.149.114 2.96.741.663.513 1.12 1.276 1.225 2.264.104.976-.138 2.142-.8 3.489a.5.5 0 0 1-.911-.03c-.616-1.49-1.493-1.888-2.137-1.805-.679.087-1.42.738-1.691 1.986-.344 1.694.687 3.711 2.984 4.127h.001c1.699.311 4.573-.74 7.073-5.575-.995.237-1.998.831-3.298 1.725a.5.5 0 0 1-.762-.557l2.755-9.131.031-.077a.498.498 0 0 1 .93.091c.53 1.956 1.164 3.343 1.814 4.249.297-1.325.173-2.575-.291-4.926a.5.5 0 0 1 .657-.567l5.692 2.013a.5.5 0 0 1 .312.324.5.5 0 0 1-.075.444c-2.976 4.039-5.881 9.729-8.268 19.732a.5.5 0 0 1-.486.385H78.671a.5.5 0 0 1-.486-.385c-2.388-10.003-5.291-15.698-8.267-19.731a.5.5 0 0 1 .235-.769l5.693-2.013a.5.5 0 0 1 .494.092.5.5 0 0 1 .163.475c-.46 2.348-.588 3.597-.291 4.925.65-.907 1.284-2.296 1.814-4.249l.028-.077a.5.5 0 0 1 .934.064l2.753 9.131a.5.5 0 0 1-.76.558c-1.3-.89-2.303-1.484-3.3-1.723 2.414 4.668 5.186 5.805 6.904 5.598l.172-.027c2.295-.416 3.322-2.431 2.982-4.126l-.055-.227c-.307-1.101-.999-1.677-1.635-1.759-.645-.083-1.521.315-2.137 1.805a.5.5 0 0 1-.911.03c-.662-1.347-.904-2.513-.8-3.489.105-.988.561-1.751 1.225-2.264.81-.627 1.89-.859 2.959-.741-1.404-1.684-2.236-3.354-2.427-5.086-.244-2.214.568-4.42 2.335-6.756a.5.5 0 0 1 .702-.096c2.465 1.875 3.778 3.792 4.15 5.953.283 1.641.012 3.367-.622 5.243 1.2-.665 2.5-.734 3.544-.167 1.537.832 2.218 2.854 1.392 5.555a.5.5 0 0 1-.898.126c-.467-.72-.94-1.096-1.343-1.255-.393-.154-.75-.118-1.056.047-.592.32-1.093 1.207-.996 2.421l.028.247v.002c.15 1.086.96 2.135 2.304 2.882 1.337.742 3.156 1.154 5.197.978l.532-.059c2.572-.345 3.895-1.407 4.624-2.7.731-1.298.907-2.895.991-4.485-.56.033-1.307.276-2.166.809-1.088.675-2.294 1.778-3.412 3.343a.5.5 0 0 1-.905-.247l-.847-9.687a.502.502 0 0 1 .858-.39c1.21 1.257 2.345 1.985 3.467 2.413.888.34 1.785.496 2.732.567-.516-1.105-1.427-2.425-2.306-3.571-1.057-1.378-2.013-2.438-2.026-2.453a.5.5 0 0 1 .371-.834h12.094a.5.5 0 0 1 .371.834v.001l-.002.002-.039.044-.122.138a46 46 0 0 0-1.852 2.255c-.883 1.15-1.8 2.474-2.319 3.584.95-.071 1.848-.227 2.736-.567 1.12-.428 2.255-1.156 3.463-2.413a.501.501 0 0 1 .859.39l-.848 9.687a.499.499 0 0 1-.904.247c-1.121-1.565-2.328-2.668-3.416-3.343-.859-.533-1.605-.776-2.162-.809.084 1.592.26 3.189.991 4.487.778 1.379 2.231 2.494 5.155 2.757h-.001c2.042.177 3.861-.237 5.198-.98 1.344-.748 2.154-1.797 2.305-2.881v-.001c.191-1.341-.335-2.327-.967-2.668-.304-.164-.662-.201-1.054-.047-.404.159-.879.535-1.347 1.255a.5.5 0 0 1-.896-.126c-.829-2.701-.148-4.723 1.389-5.555 1.045-.566 2.343-.498 3.543.167-.632-1.875-.901-3.6-.618-5.241.373-2.161 1.687-4.08 4.149-5.955l.084-.052a.5.5 0 0 1 .287-.045Zm-52.016-4.669c2.577 0 4.669 2.079 4.669 4.649s-2.092 4.649-4.67 4.649c-2.576 0-4.669-2.079-4.669-4.649s2.093-4.649 4.67-4.649Zm62.851.126c2.507-.589 5.023.955 5.617 3.456.593 2.501-.964 5.003-3.473 5.592s-5.024-.955-5.617-3.456.964-5.003 3.473-5.592Zm-30.881-3.034a4.66 4.66 0 0 1 4.655 4.32l.016.335c-.001 2.57-2.095 4.649-4.671 4.649s-4.669-2.08-4.669-4.649q0-.253.026-.5l.028-.218a4.666 4.666 0 0 1 4.615-3.937Zm-24.548-8.08c2.577 0 4.67 2.079 4.67 4.649s-2.094 4.649-4.67 4.649-4.67-2.079-4.671-4.649c0-2.57 2.094-4.65 4.67-4.65Zm49.087 0c2.577 0 4.67 2.079 4.67 4.649-.001 2.569-2.093 4.649-4.67 4.649s-4.669-2.08-4.669-4.649 2.092-4.65 4.669-4.65ZM110.47 72.995a.5.5 0 0 1 .476.652l-2.03 6.362q.067.064.131.13l4.98-1.568a.502.502 0 0 1 .651.477v7.778a.5.5 0 0 1-.732.444l-4.953-2.59q-.043.045-.09.088l2.913 8.75c1.168 3.517-1.461 7.137-5.177 7.137s-6.352-3.62-5.178-7.137l2.912-8.748q-.048-.044-.095-.09l-4.95 2.59a.5.5 0 0 1-.732-.444V79.05a.5.5 0 0 1 .65-.477l4.982 1.57q.063-.067.129-.13l-2.03-6.364a.503.503 0 0 1 .477-.652zM93.307 88.841c2.576 0 4.67 2.078 4.67 4.648s-2.094 4.65-4.67 4.65-4.67-2.08-4.67-4.65 2.093-4.648 4.67-4.648Zm26.655 0c2.576 0 4.67 2.079 4.67 4.648 0 2.57-2.093 4.65-4.67 4.65s-4.671-2.08-4.671-4.65 2.095-4.648 4.671-4.648Z" />
  </g>
  <defs>
    <filter id="filter0_d_4818_19859" width="78.668" height="70.127" x="69.32" y="72.496"
      color-interpolation-filters="sRGB" filterUnits="userSpaceOnUse">
      <feFlood flood-opacity="0" result="BackgroundImageFix" />
      <feColorMatrix in="SourceAlpha" result="hardAlpha" values="0 0 0 0 0 0 0 0 0 0 0 0 0 0 0 0 0 0 127 0" />
      <feOffset dx="4" />
      <feComposite in2="hardAlpha" operator="out" />
      <feColorMatrix values="0 0 0 0 0.813916 0 0 0 0 0.813916 0 0 0 0 0.813916 0 0 0 1 0" />
      <feBlend in2="BackgroundImageFix" result="effect1_dropShadow_4818_19859" />
      <feBlend in="SourceGraphic" in2="effect1_dropShadow_4818_19859" result="shape" />
    </filter>
  </defs>
</svg>
