<svg width="30" height="30" viewBox="0 0 30 30" fill="none" xmlns="http://www.w3.org/2000/svg">
<path fill-rule="evenodd" clip-rule="evenodd" d="M9.83907 2.23209H19.9279V4.48084H22.1587V0H7.62486V4.48084H9.83907V2.23209ZM11.2708 20.0056L3.34628 19.2393L0.0166473 18.9062V16.241V4.48085H7.62486H9.83907H14.9334V4.56414H14.9501L14.9501 6.77957V7.81233H3.34628V15.8912L11.2708 16.6574V20.0056ZM14.9501 7.79567V6.77957L15.0666 6.77957L14.9501 6.77957V4.56414V4.48085H15.0666H19.9279H19.9445H22.1587H30V16.241L30 18.9062L29.9667 18.9095V30H6.37625C4.68363 29.9956 3.06185 29.3197 1.86655 28.1206C0.671244 26.9216 -5.73935e-06 25.2971 0 23.6035V18.9062L3.32963 19.2393V23.6369C3.33181 24.0372 3.41278 24.4331 3.5679 24.8021C3.72303 25.1711 3.94927 25.506 4.23373 25.7875C4.51818 26.069 4.85526 26.2917 5.22573 26.4429C5.59621 26.594 5.99281 26.6707 6.3929 26.6685H26.6371V19.2425L18.6959 20.0056L18.6959 21.538H11.2708V20.0056V16.6574V14.1088H18.6959L18.6959 16.6574L26.6704 15.8912V7.81233H15.0666L15.0666 7.79567H14.9501ZM16.4817 16.8906V16.3243H13.485V19.3226H16.3152H16.4817L16.4817 16.8906Z" fill="#C82A87"/>
</svg>
