<svg width="50" height="50" viewBox="0 0 50 50" fill="none" xmlns="http://www.w3.org/2000/svg">
<path fill-rule="evenodd" clip-rule="evenodd" d="M37.5124 41.0585C33.5592 44.2366 28.5363 46.1383 23.0692 46.1383C10.3284 46.1383 0 35.8099 0 23.0692C0 10.3284 10.3284 0 23.0692 0C35.8099 0 46.1383 10.3284 46.1383 23.0692C46.1383 28.5362 44.2366 33.5591 41.0586 37.5123L49.9993 46.453L46.4531 49.9991L37.5124 41.0585ZM41.1233 23.0692C41.1233 33.0402 33.0402 41.1233 23.0692 41.1233C13.0981 41.1233 5.01504 33.0402 5.01504 23.0692C5.01504 13.0981 13.0981 5.01504 23.0692 5.01504C33.0402 5.01504 41.1233 13.0981 41.1233 23.0692ZM11.0332 11.0331H11.0331V27.0812H11.0332C11.0332 32.6206 15.5238 37.1113 21.0633 37.1113H28.0843H33.0994V32.0962V16.0481V11.0331H28.0843H16.0481H11.0332ZM16.0481 16.0481V27.0812H16.0482C16.0482 29.8509 18.2935 32.0962 21.0633 32.0962H28.0843V16.0481H16.0481ZM23.0683 18.0541C21.1299 18.0541 19.5584 19.6256 19.5584 21.564H19.5626V23.0692H18.0541V25.5767H19.5626V27.5827H18.0541V30.0902H19.5626H22.0701H26.076V27.5827H22.0701V25.5767H26.076V23.0692H22.0701V21.562H22.0655C22.0666 21.0095 22.5144 20.5619 23.067 20.5612V20.5616H26.0754V18.0546H23.0683V18.0541Z" fill="#C82A87"/>
</svg>
