<svg width="42" height="50" viewBox="0 0 42 50" fill="none" xmlns="http://www.w3.org/2000/svg">
<path fill-rule="evenodd" clip-rule="evenodd" d="M30 29.7088C30.6125 29.8961 31.2889 30 32 30C34.7614 30 37 28.433 37 26.5C37 24.567 34.7614 23 32 23C31.2889 23 30.6125 23.1039 30 23.2912C28.2341 23.8313 27 25.0648 27 26.5C27 27.9352 28.2341 29.1687 30 29.7088ZM25 21.1439V5L5 5V28C5 30.7614 7.23858 33 10 33H22.2C22.4444 32.0972 22.9049 31.2533 23.5394 30.5C22.5643 29.3423 22 27.9706 22 26.5C22 24.402 23.1486 22.5051 25 21.1439ZM23.1534 38H10C4.47715 38 0 33.5228 0 28V5V0H5H25H30V5V19.15C30.6462 19.0516 31.3151 19 32 19C37.5228 19 42 22.3579 42 26.5C42 27.9706 41.4357 29.3423 40.4606 30.5C41.4357 31.6577 42 33.0294 42 34.5C42 35.9706 41.4357 37.3423 40.4606 38.5C41.4357 39.6577 42 41.0294 42 42.5C42 46.6421 37.5228 50 32 50C26.4772 50 22 46.6421 22 42.5C22 41.0294 22.5643 39.6577 23.5394 38.5C23.4025 38.3374 23.2737 38.1707 23.1534 38ZM30 37.7088C30.6125 37.8961 31.2889 38 32 38C34.7614 38 37 36.433 37 34.5C37 34.0232 36.8638 33.5687 36.6172 33.1544C35.2359 33.6946 33.6655 34 32 34C30.3345 34 28.7641 33.6946 27.3828 33.1544C27.1362 33.5687 27 34.0232 27 34.5C27 35.9352 28.2341 37.1687 30 37.7088ZM8 19H10.5V29H8V19ZM16 14H13.5V29H16V14ZM19 9H21.5V29H19V9ZM27 42.5C27 42.0232 27.1362 41.5687 27.3828 41.1544C28.7641 41.6946 30.3345 42 32 42C33.6655 42 35.2359 41.6946 36.6172 41.1544C36.8638 41.5687 37 42.0232 37 42.5C37 44.433 34.7614 46 32 46C29.2386 46 27 44.433 27 42.5Z" fill="#C82A87"/>
</svg>
