<?xml version="1.0" encoding="UTF-8"?><svg id="Layer_1" xmlns="http://www.w3.org/2000/svg" viewBox="0 0 138.88 47.26"><defs><style>.cls-1{fill:#0c64af;}</style></defs><path class="cls-1" d="M1.49,0H0v43.61h1.49V0Z"/><path d="M20.51,4.09c-.13.26-.26.45-.26.65s.26.39.32.58c.06-.26.26-.45.26-.65s-.32-.45-.32-.58Z"/><path d="M24.14,4.09c.13.26.26.45.26.65s-.26.39-.32.58c-.06-.26-.26-.45-.26-.65s.26-.45.32-.58Z"/><path d="M18.37,3.89c.13,0,.26-.13.26-.26s-.13-.26-.26-.26-.26.13-.26.26.13.26.26.26Z"/><path d="M18.56,4.28c0-.13-.13-.26-.26-.26s-.26.13-.26.26.13.26.26.26.26-.13.26-.26Z"/><path d="M18.69,4.87c0-.13-.13-.26-.26-.26s-.26.13-.26.26.13.26.26.26.26-.13.26-.26Z"/><path d="M19.73,2.73c.13,0,.26-.13.26-.26s-.13-.26-.26-.26-.26.13-.26.26c.06.19.13.26.26.26Z"/><path d="M19.15,2.92c.13,0,.26-.13.26-.26s-.13-.26-.26-.26-.26.13-.26.26.13.26.26.26Z"/><path d="M18.63,3.37c.13,0,.26-.13.26-.26s-.13-.26-.26-.26-.26.13-.26.26c.06.13.13.26.26.26Z"/><path d="M20.38,2.79c.13,0,.26-.13.26-.26s-.13-.26-.26-.26-.26.13-.26.26c.06.13.13.26.26.26Z"/><path d="M21.03,2.99c.13,0,.26-.13.26-.26s-.13-.26-.26-.26-.26.13-.26.26.13.26.26.26Z"/><path d="M21.61,3.25c.13,0,.26-.13.26-.26s-.13-.26-.26-.26-.26.13-.26.26.13.26.26.26Z"/><path d="M26.03,3.7c0,.13.13.26.26.26s.26-.13.26-.26-.13-.26-.26-.26-.26.13-.26.26Z"/><path d="M26.35,4.02c-.13,0-.26.13-.26.26s.13.26.26.26.26-.13.26-.26-.13-.26-.26-.26Z"/><path d="M26.22,4.61c-.13,0-.26.13-.26.26s.13.26.26.26.26-.13.26-.26-.13-.26-.26-.26Z"/><path d="M24.86,2.73c.13,0,.26-.13.26-.26s-.13-.26-.26-.26-.26.13-.26.26c.06.19.13.26.26.26Z"/><path d="M25.51,2.92c.13,0,.26-.13.26-.26s-.13-.26-.26-.26-.26.13-.26.26.13.26.26.26Z"/><path d="M25.96,3.37c.13,0,.26-.13.26-.26s-.13-.26-.26-.26-.26.13-.26.26c.06.13.13.26.26.26Z"/><path d="M24.27,2.79c.13,0,.26-.13.26-.26s-.13-.26-.26-.26-.26.13-.26.26.06.26.26.26Z"/><path d="M23.62,2.99c.13,0,.26-.13.26-.26s-.13-.26-.26-.26-.26.13-.26.26.13.26.26.26Z"/><path d="M22.78,2.99c0,.13.13.26.26.26s.26-.13.26-.26-.13-.26-.26-.26-.26.13-.26.26Z"/><path d="M21.87,4.35h.26v-1.04c-.06-.06-.13-.06-.26-.13v1.17Z"/><path d="M22.72,3.18c-.06.06-.13.06-.26.13v1.04h.26v-1.17Z"/><path d="M22.13,2.01v-.65c-.32.06-.58.32-.58.65h.58Z"/><path d="M22.46,2.01h.58c-.06-.32-.32-.58-.58-.65v.65Z"/><path d="M21.55,2.34c.06.32.39.58.78.58s.65-.26.78-.58h-1.56Z"/><path d="M22.78,1.3c-.19-.13-.32-.32-.32-.52.19.06.45.19.58.32V.26c-.13.19-.39.32-.58.39,0-.19.13-.39.32-.58h-.84c.19.19.32.39.32.58-.19-.06-.45-.19-.58-.39v.84c.13-.19.39-.32.58-.32,0,.19-.13.39-.32.52h.84Z"/><path d="M22.78,19.08c-.19,0-.32-.13-.32-.32s.13-.32.32-.32.32.13.32.32-.19.32-.32.32ZM21.29,18.63c-.19,0-.32-.13-.32-.32s.13-.32.32-.32.32.13.32.32-.13.32-.32.32ZM20.83,17.13l-.06-.06c-.13-.13-.26-.13-.39,0-.06.06-.13.13-.19.19l-.06.06.06.06c.13.13.19.26.13.32l-.06.06c-.06,0-.19,0-.32-.06l-.06-.06-.06.06v.06s0,.06-.06.06c-.06.13-.13.19-.13.26v.06c0,.06.06.13.13.13h.06c.06.06.19.13.26.13-.13.06-.26.06-.45,0-.19-.13-.32-.32-.32-.45,0-.19.06-.39.26-.65v-.13c-.06-.06-.06-.13-.13-.19.06,0,.13,0,.26.06h.06c.06-.13.39-.45.71-.45.13,0,.26.06.39.19.06.06.13.19.13.32-.06.06-.13.06-.13,0ZM23.69,18.3c-.78-.19-1.69-.52-2.6-.91,0-.19-.07-.39-.19-.52s-.32-.26-.52-.26c-.06,0-.13,0-.26.06-.13-.13-.26-.26-.39-.39-.32-.39-.58-.84-.78-1.3-.13-.26-.19-.58-.19-.91-.06.26-.32.58-.84.58,0-.06,0-.19-.06-.19-.13.13-.32.32-.78.13.06.32.19.71.26,1.04.26.71.65,1.36,1.1,1.88.13.19.32.32.52.52v.13c0,.19.19.45.45.58.19.13.45.06.65-.06.39.19.84.39,1.36.52.58.13,1.17.26,1.56.26s.91-.19,1.36-.52c.19-.13.39-.26.52-.39l.06-.06c-.19.06-.78-.06-1.23-.19Z"/><path d="M23.43,21.48c-.06-.13-.13-.19-.19-.19-.32,0-.19.84-.58.84-.19,0-.26-.13-.26-.19,0-.13.06-.13.06-.26s-.06-.13-.13-.13-.13.06-.13.13.06.13.06.26-.06.19-.26.19c-.39,0-.26-.84-.58-.84-.06,0-.13.06-.19.19-.06-.13-.13-.26-.13-.32,0-.13.13-.39.39-.39.45,0,.32.58.52.58.06,0,.13-.06.13-.13,0-.19-.32-.32-.32-.58s.19-.45.45-.65c.26.19.45.39.45.65s-.32.39-.32.58c0,.06.06.13.13.13.19,0,.13-.58.52-.58.26,0,.39.19.39.39.13.06.06.19,0,.32ZM22.33,22.65c-.13,0-.19-.07-.19-.19s.06-.19.19-.19.19.06.19.19c0,.06-.06.19-.19.19ZM23.17,20.64h-.13v-.91c-.39,0-.91-.06-1.36-.19v1.17h-.19c-.32,0-.52.26-.52.52s.13.45.26.58c.06-.13.13-.26.19-.26.13,0,.06.78.58.84v.13c0,.19.19.39.39.39s.39-.19.39-.39v-.13c.45,0,.39-.84.58-.84.06,0,.13.13.19.26.13-.13.26-.39.26-.58-.13-.32-.32-.58-.65-.58Z"/><path d="M34.14,21.74c0-.06-.06-.06-.13-.06-1.1.32-2.47-.58-3.76-1.43-1.1-.71-2.14-1.43-3.05-1.43-.32,0-.65.06-.91.19-.32.19-.52.45-.71.78-.13.39-.32.58-.45.84s-.26.39-.26.65c0,.19.06.32.19.52.13.13.32.26.58.39.06,0,.13.06.19.06.19.13.32.19.39.32-.39.13-.91.26-1.56.39-.71.13-1.49.19-2.34.19s-1.62-.06-2.34-.19c-.65-.13-1.17-.26-1.62-.45,0-.19.13-.26.39-.39.06,0,.13-.06.19-.06.19-.13.45-.26.58-.32.13-.13.19-.26.19-.45s-.13-.39-.26-.65c-.13-.19-.26-.45-.45-.84-.13-.39-.39-.65-.71-.78-.26-.13-.52-.19-.84-.19-.91,0-1.95.71-3.05,1.43-1.3.84-2.66,1.75-3.76,1.43-.06,0-.13,0-.13.06s0,.13.06.13c.32.13.65.39.91.58.39.32.78.58,1.17.58s.78-.13,1.3-.39c.45-.26.91-.52,1.36-.84.84-.58,1.75-1.17,2.6-1.23l-.26.26c-.26.19-.45.39-.45.78,0,.32.13.52.26.84.06.06.06.19.13.32.06.19.13.39.19.58,0,.13.06.19.06.32.06.19.13.58.78.91.71.39,1.95.58,3.7.58s2.99-.19,3.7-.58c.65-.32.71-.71.78-.91.06-.13.06-.26.06-.32.06-.26.06-.39.19-.58.06-.13.13-.26.19-.39.13-.26.26-.45.26-.71,0-.39-.19-.58-.52-.84-.06-.06-.19-.13-.26-.26.84.06,1.75.65,2.6,1.3.45.32.91.58,1.36.84.52.26.91.39,1.3.39s.78-.26,1.17-.58c.26-.19.58-.45.91-.58q.06-.13.06-.19Z"/><path d="M22.46,13.24v-4.09c.45,0,.84.13,1.23.32.45.19.78.52,1.1.91.32.39.58.84.78,1.3.19.52.26,1.04.26,1.56h-3.37ZM22.33,7.46c-1.17,0-1.95.32-2.4.65-.26-.13-.39-.32-.39-.52,0-.65,1.88-.71,2.79-.71.97,0,2.79.06,2.79.71,0,.19-.13.32-.39.52-.45-.32-1.23-.65-2.4-.65ZM22.26,13.24h-3.5c0-.52.13-1.04.26-1.56.19-.52.45-.97.78-1.3.32-.39.71-.71,1.1-.91.39-.19.84-.32,1.3-.32v4.09h.06ZM27.58,12.98c-.13-.06-.32-.26-.39-.52-.13-.26-.65-1.36-.78-1.49-.06-.13-.13-.19-.13-.32s.06-.19.13-.26c.06-.06.13-.19.19-.26q.06-.06.06-.13c-.19-.32-.39-.58-.65-.91-.32-.39-.65-.65-1.04-.91.19-.13.39-.32.39-.65,0-.19-.06-.32-.19-.45.19-.71.58-1.56.97-1.88l-.71-.32c.19.26.19.58.13.78-.19-.13-.32-.32-.39-.52-.06.19-.13.58-.26.78.19-.06.39-.06.58,0-.13.13-.39.39-.91.32-.26-.06-.52-.19-.52-.39,0-.13.06-.26.26-.26.13,0,.13.26.13.32.19-.13.45-.71.13-.78-.26-.06-.45.26-.58.52-.06-.32-.19-.58-.45-.58-.32,0-.19.65-.13.78,0-.19.13-.32.26-.32.06,0,.19.06.19.26s-.26.32-.58.32-.84-.06-.84-.65c.19.06.52.19.65.39-.06-.32-.06-.58,0-.97-.19.19-.45.32-.65.32.06-.26.26-.52.52-.65h-1.3c.26.13.45.39.52.65-.19-.06-.45-.13-.58-.39.06.39.06.58,0,.97.13-.19.39-.32.58-.39-.06.58-.58.65-.84.65-.32,0-.58-.13-.58-.32s.06-.26.19-.26c.06,0,.19.13.26.32.13-.13.19-.78-.13-.78-.26,0-.39.26-.45.58-.06-.26-.32-.58-.58-.52-.32.06-.13.65.06.78,0,0,0-.26.13-.26s.26.13.26.26c0,.19-.26.32-.52.39-.45.13-.78-.13-.91-.26.26-.13.45-.13.65,0-.13-.26-.19-.58-.26-.78-.06.26-.19.39-.39.52-.06-.19,0-.52.13-.78l-.71.26c.32.39.71,1.23.97,1.95-.13.13-.19.26-.19.45,0,.32.19.52.39.65-.39.26-.71.58-1.04.91-.45.58-.84,1.17-1.1,1.88.06.13.52.58.58.71.19.19.26.45.26.58,0,.32.06.45.26.65.06.06.13.32.13.45h3.5v3.76c-.13,0-.26.06-.39.19.39.13.78.32,1.17.45.06-.26.06-.39.19-.58,0,0-.52-.06-.78-.06v-3.76h3.37c0,.52-.13,1.04-.26,1.49-.19.52-.45.97-.78,1.3-.32.39-.71.71-1.1.91l-.13.13c-.06.06-.13.19-.19.32-.06.13-.06.19-.06.32.13.06.26.06.39.13,1.17.32,1.49.19,1.56.13.26-.19.52-.45.78-.71.45-.52.84-1.17,1.1-1.88.26-.71.39-1.49.39-2.27.06-.13.06-.19.06-.32Z"/><path d="M24.4,10.84l-.06.06c0,.06.06.06.13.06-.06,0-.06.06-.06.13.06,0,.13,0,.13-.06q0,.06.06.13h.06c.26.39.45.91.52,1.36-.06,0-.06-.06-.13-.06,0,.06,0,.13.06.13h-.84c0-.06,0-.13-.06-.13s-.06,0-.13.06c0-.06,0-.13-.06-.13-.06.06-.06.13-.06.13q-.06-.06-.13-.06c-.06,0-.07.06-.07.13h-.71c0-.06.06-.06.06-.13-.06,0-.13,0-.13.06v-1.17c.06,0,.13,0,.13-.06s0-.06-.06-.13c.06,0,.13,0,.13-.06-.06-.06-.13-.06-.13-.06q.06-.06.06-.13c0-.06-.06-.06-.13-.06v-.97s.06.06.13.06c0-.06,0-.13-.06-.13.19.06.45.19.65.32.26.26.52.45.71.71ZM25.31,12.59c.06.06.06.13-.06.13-.06-.65-.32-1.23-.65-1.75.06,0,.13-.06.13-.19-.13,0-.19.06-.19.06,0-.06-.06-.06-.06-.06-.19-.26-.45-.52-.71-.71-.26-.19-.52-.32-.84-.39,0-.06.06-.06.13,0,0-.13-.06-.13-.13-.13l-.06.06q-.06-.06-.13-.06c0,.06,0,.13.06.19q-.06,0-.06.06c0,.06,0,.13.13.13-.06-.06,0-.13.06-.13v1.36c-.06,0-.13,0-.19.06.06.06.13.06.19.06v1.43c-.06,0-.06-.06-.06-.13-.13,0-.13.06-.13.13s.06.06.13.06q-.06.06-.06.13c.06,0,.13,0,.13-.06q0,.06.06.13c.06,0,.13,0,.13-.13-.06.06-.13.06-.13,0h.97c0,.06,0,.13.06.19.06-.06.06-.13.06-.19h1.1c0,.06-.06.06-.13.06,0,.13.13.13.13.13.06,0,.06-.06.06-.13q.06.06.13.06c0-.06,0-.13-.06-.13q.06,0,.13-.06c.06-.13,0-.19-.13-.19Z"/><path d="M24.73,12.2c.06,0,.06-.06.06-.06h-.06q.06,0,.06-.06t-.13,0c-.06.06-.32,0-.32-.19,0,.06.06.06.06.06h.19c.06,0,.13-.06.13-.13,0-.13-.06-.19-.19-.26q-.06-.06-.13-.13c-.06-.06,0-.13-.13-.32q0-.06-.06-.13c-.06.06-.06.26.06.45.13.13.32.26.32.32,0,0,0,.06-.06.06h-.13l-.06-.06c-.13-.06-.19-.26-.26-.32-.13-.13-.06-.26-.06-.39.06-.13-.06-.32-.13-.39v-.13h-.06q0-.06-.06-.06c-.06,0-.06-.06-.06-.06l-.06.06h-.13q-.06,0-.06.06s0,.06.06.06l.06.06v-.06h.06v.06h-.13v.06s0,.06.06,0h.13c0,.13-.13.13-.19.26-.06,0-.06-.06-.06-.06,0-.06-.06-.06-.13-.13,0,0-.06-.06-.13-.06s-.06-.06-.06-.13v-.19l-.06-.06v.13s0-.06-.06-.06c0,0-.06-.06-.06,0v.06s0,.06.06.06h-.06v.06-.06c-.06.06,0,.06,0,.06,0,.06-.06,0-.06-.06-.06.06,0,.13.06.13v.06s0,.06.06.06v.06c0,.06.06.19.26.26-.06.06-.13.13-.19.13-.06.06-.13.06-.13.06,0,0,0,0-.07-.06h-.13s0,0,.06,0c0,0,0,.06.06.06h-.06c-.06,0-.06-.06-.06,0,0,0-.06.06,0,.06v-.06c0,.06.06.06.06,0,0,.06-.06.06,0,.06v-.06s0,.06.06,0v-.06c.06,0,.06-.06.13,0,0,0,0-.06.07-.06s.06,0,.06,0c0,0,0-.06.07-.06,0,.19.26.19.32.32-.06-.06-.19-.06-.26-.06s-.19.06-.19.13.06.19.13.26h-.19c-.06,0-.06-.13-.13-.06l-.06.06h.06s-.06,0-.06.06c0,0,0,.06.06.06,0,0,.06.06.06,0h-.06s0,.06.06,0h.06s0-.06.06,0l.06-.06h.06c.06-.06,0-.06,0-.06,0-.06-.06-.06-.06-.13,0-.13.13-.19.19-.13,0,.06.13.26.26.32.13.06.13-.06.19-.06v.13h-.19l-.06.06h.06c0,.06.06.06.06,0,0,0-.06.06,0,.06,0,0,0,.06.06.06v-.06s0-.06.06-.06v.06s.06.06.06,0h-.06c0-.06-.06-.06-.06-.06,0,0,.06,0,.06-.06l.06-.06c.97.45.91.39.91.39Z"/><path d="M21.55,14.08c-.13,0-.19,0-.19.06s.06.13.13.13h.06v.06c0,.13-.06.26-.06.45l-.52-.71c.26-.13.45-.19.52-.19s.13.06.06.19ZM21.35,15.38l-.84-1.17c.06,0,.19-.06.26-.06l.65.91c0,.13,0,.26-.06.32ZM21.29,15.97l-1.17-1.69h.32l.91,1.36c0,.06-.06.19-.06.32ZM19.99,14.28l1.3,1.82c-.71-.26-1.43-.84-1.3-1.82ZM21.87,14.15c-.06-.26-.19-.39-.39-.39s-.58.26-1.1.26c-.19,0-.52-.13-.65-.19l-.06.13c0-.06-.06-.13-.13-.13s-.13.06-.13.13.06.13.13.13.06,0,.13-.06l-.06.13h.06c-.06.78.52,1.82,1.56,2.14.13-.06.32,0,.32.13s-.06.13-.13.13-.13-.06-.13-.06c0-.06.13,0,.13-.06s0-.06-.13-.06c-.06,0-.19.06-.19.19s.13.26.26.26.39-.06.32-.32c.06,0,.13,0,.13-.06v-.19h-.06l.06-1.82h.06c.06,0,.13,0,.13-.13s-.06-.13-.13-.13Z"/><path d="M20.96,10.25q.06-.06,0-.06h.06l-.06.06c0,.06.06.06,0,0ZM21.03,10.06c-.06.06,0,.06,0,0q-.06,0-.06-.06c0,.06.06.06.06.06ZM21.09,10.12h.06c-.06,0-.06.06-.06,0ZM21.68,10.45c.26,0,.39-.06.39-.13,0-.26-.71-.13-.71-.26,0,0,0-.06.06-.06.32,0,.32-.26.58-.32-.32-.06-.32.19-.45.19.06-.06.06-.13.06-.13-.07,0-.19,0-.26.13v.06c-.06,0-.06.06-.06.13,0,.26.71.06.71.26-.06,0-.19.06-.32.13-.13-.06-.26-.13-.52-.06,0-.06.06-.13.06-.19,0,0,.06,0,.06-.06h-.06v-.13l-.06-.06h-.26v.06l-.06.06q0,.06-.06.06c0,.06,0,.13-.06.13,0,0-.06,0-.06-.06-.06,0-.06-.06,0-.06v-.06l-.06-.06v.13s0-.06-.06-.06c0,0,0-.06-.06,0,0,0,0,.06.06.06h-.06v.06c-.06,0-.06.06,0,.06,0,.06-.06.06-.06,0-.06.06,0,.13.06.06v.06s0,.06.06.06c-.06,0-.13.06-.13.06h-.13c-.06,0-.13.06-.19,0v-.06h-.06.06l.06.06h-.06s0-.06-.06,0c0,0-.06,0-.06.06,0,0,0,.06.06,0,0,0-.06.06,0,.06q0,.06.06.06v-.06s0-.06.06-.06c0,0,0,.06.06.06s.06-.06.06-.06v.13s.06,0,.06-.06h.06v.13c0-.06.06-.06.13-.06,0,0,.06,0,.06-.06h.13v.06c.06,0,.13-.06.13-.06.13,0-.06-.13.19-.13h.06v.13c-.06.06-.06-.06-.13-.06l-.06.06h.06s-.06,0-.06.06c0,0,0,.06.06,0,0,0,.06.06.06,0h-.06.06c.06,0,0-.06.06-.06h.06s0-.06-.06-.13v-.06h.13c.06,0,0,0,.06-.06h.13v.06h-.06s-.06,0-.06.06h.06c0,.06.06.06.06,0,0,0-.06.06,0,.06v.06-.06s0-.06.06-.06v.06h.06v-.06s.06,0,.06-.06h.06c-.06,0,0,0,0-.06v-.06s-.06.06-.06,0h-.06c.26.19.19.13.13.13s-.06,0,0,0Z"/><path d="M20.31,11.29q.06,0,0,0t0-.06h-.06l.06.06h-.06v.13c.13-.06.13,0,.06-.13q0,.06,0,0ZM20.44,11.1q-.06.06,0,0ZM20.51,11.16s.06,0,.06.06q-.06,0-.06-.06c-.06,0,0,.06,0,0ZM22,11.36c0-.06-.06-.13-.32-.13s-.78.06-.78-.06c0-.06.13-.06.26-.06h.06c.32.06.71-.06.84,0-.19-.19-.39,0-.65-.06.13,0,.19-.06.19-.06-.13.06-.32-.06-.45.06-.19,0-.32,0-.32.13,0,.26.65.13.84.13s.26,0,.26.06-.19.06-.32.06c-.19,0-.71-.06-1.04,0,0-.06.06-.13.06-.13l.06-.06h-.06v-.13l-.06-.06h-.26v.06l-.06.06c0,.06-.06.06-.06.06,0,0,0,.06.06.06v.06h-.06s-.06-.06-.13-.06-.06-.06-.06-.13v-.19l-.06-.06v.13s0-.06-.06-.06c0,0,0-.06-.06,0,0,0,0,.06.06.06h-.06v.06-.06q-.06.06,0,.06c0,.06-.13.06-.06,0-.06.06,0,.13.13.13v.06l.06.06c.06,0,.06.06.13.06,0,.06.06.13,0,.13h-.19c-.06,0-.13.06-.19,0v-.06h-.13.06s0,.06.06.06h-.06s0-.06-.06-.06l-.06.06h.06q0,.06.06,0s-.06.06,0,.06c0,.06.06.06.06.06v-.06c.06,0,0-.06.06-.06,0,0,0,.06.06.06s.06-.06.06-.06v.13s.06,0,.06-.06h.06v.13c0-.13.06-.06.13-.13v.06c.06,0,.19-.13.19-.13h.06c.19,0,.06-.19.39-.13,0,0,.06,0,.06-.06v.13s.06,0,.06.06h-.06c-.06.06-.06-.13-.13-.06l-.06.06h.06s-.06,0-.06.06c0,0,0,.06.06.06,0,0,.06.06.06,0h-.06s0,.06.06,0c.06,0,0-.06.06-.06h.13s0-.06-.06-.13v-.06c.06,0,.06.06.13.06q.13,0,.19-.06c.06-.06.13,0,.13,0v.06h-.13s-.06,0-.06.06h.06c0,.06.06.06.06,0,0,0-.06.06,0,.06,0,0,0,.06.06.06v-.06s0-.06.06-.06v.06s.06.06.06,0-.06-.06-.06-.06c0,0,.06,0,.06-.06v-.06h.06c-.06,0,0-.06-.06-.06v-.06s-.06.06-.06,0h-.32c.65.19.91.13.91.06Z"/><path d="M20.06,12.4q.06,0,0,0t0-.06l.06.06h-.06v.13q.06-.06,0-.13ZM20.12,12.2q-.06,0-.06-.06c0,.06.06.06.06.06ZM20.18,12.27s.06,0,.06.06c0-.06,0,0-.06-.06ZM21.87,12.46c0-.06-.06-.13-.32-.13s-.97.06-.97-.06c0-.06.26-.06.39-.06l.06.06c.32.06.58-.13.84-.06-.19-.13-.39,0-.58,0,.13,0,.26,0,.26-.06-.13.06-.39-.06-.52,0-.19,0-.52,0-.52.13,0,.26.84.06,1.04.06s.26,0,.26.06-.19.06-.32.06c-.19,0-.91-.13-1.23,0,0-.06.06-.13.06-.19l.06-.06h-.06v-.13s-.06,0-.06-.06h-.26v.06l-.06.06q0,.06-.06.06v.06h-.13c-.06,0-.06-.06-.13-.13-.06,0-.06-.06-.06-.06v-.19l-.06-.06v.13s0-.06-.06-.06c0,0-.06-.06-.06,0,0,0,0,.06.06.06h-.06v.06-.06c-.06.06,0,.06,0,.06,0,.06-.06.06-.06,0-.06.06.06.13.13.06v.06s.06.06.13.13h.06v.06h-.19c-.06,0-.13.06-.19,0v-.06h-.13.06s0,.06.06.06h-.06s0-.06-.06-.06l-.06.06h.06q0,.06.06,0s-.06.06,0,.06c0,.06.06.06.06.06v-.06c.06,0,0-.06.06-.06,0,0,0,.06.06.06s.06-.06.06-.06v.13s.06,0,.06-.06h.06v.13c0-.13.13-.06.19-.06v.06s.06,0,.06-.06l.13-.06h.06c.06,0,.06-.06.06-.06.39.06.13-.19.58-.13h.07v.13s.06,0,.06.06h-.06c-.07.06-.07-.13-.13-.06l-.06.06h.06s-.06,0-.06.06c0,0,0,.06.06.06,0,0,.06.06.06,0h-.06s0,.06.06,0c.06,0,0-.06.07-.06h.13s0-.06-.06-.13v-.06c.06,0,.06.06.13.06q.13,0,.19-.06h.13v.06h-.06s-.06,0-.06.06h.06c0,.06.06.06.06,0,0,0-.06.06,0,.06,0,0,0,.06.06.06v-.06s0-.06.06-.06v.06s.06.06.06,0v-.06s.06,0,.06-.06v-.06h.06c-.06,0,0-.06-.06-.06v-.06s-.06.06-.06,0h-.32c.52.39.78.39.78.32Z"/><path d="M23.36,13.95q.06-.06,0,0t0-.06l.06.06h-.06v.13q.06-.06,0-.13ZM23.43,13.76q-.06,0-.06-.06c.06,0,.06.06.06.06ZM23.49,13.76s.06,0,.06.06l-.06-.06q0,.06,0,0ZM25.18,14.21v-.06s-.06.06-.06,0h-.32c.13,0,.39,0,.39-.13,0-.06-.06-.13-.32-.13s-.97.06-.97-.06c0-.06.26-.06.39-.06h.06c.32.06.65-.13.84-.06-.26-.06-.39.06-.58,0,.13,0,.26,0,.26-.06-.13.06-.39-.06-.52,0-.19,0-.52,0-.52.13,0,.26.78.06.97.06s.26,0,.26.06-.19.06-.32.06c-.19,0-.91-.13-1.23,0,0-.06.06-.13.06-.19l.06-.06h-.06v-.13s-.06,0-.06-.06h-.26v.06l-.06.06c0,.06-.06.06-.06.06,0,0,0,.06.06.06v.06h-.19c-.06,0-.06-.06-.13-.13-.06,0-.06-.06-.06-.06v-.19l-.06-.06v.13s0-.06-.06-.06c0,0-.06-.06-.06,0,0,0,0,.06.06.06h-.06v.06-.06c-.06.06,0,.06,0,.06,0,.06-.06.06-.06,0-.06.06.06.13.13.06v.06s.06.06.13.13c0,0,.06,0,.06-.06,0,0,0,.06.06.06,0,.06.06.06.06.06h-.13c-.06,0-.13.06-.19,0v-.06h-.13.06s0,.06.06.06h-.06s0-.06-.06,0l-.06.06.06-.06q0,.06.06,0s-.06.06,0,.06c0,.06.06.06.06.06v-.06c.06,0,0-.06.06-.06,0,0,0,.06.06.06s.06-.06.06-.06v.13s.06,0,.06-.06h.06v.13c0-.13.06-.06.13-.13v.06l.13-.06h.06c.06,0,.06-.06.06-.06.39.06.13-.13.58-.13l.06-.06v.13c-.06.06-.06-.13-.13-.06l-.06.06h.06s-.06,0-.06.06c0,0,0,.06.06.06,0,0,.06.06.06,0h-.06s0,.06.06,0c.06,0,0-.06.06-.06h.13s0-.06-.06-.13v-.06c.06,0,.06.06.13.06q.13,0,.19-.06c.06-.06.13,0,.13,0v.06h-.13s-.06,0-.06.06h.06c0,.06.06.06.06,0l-.06.06v.06-.06s0-.06.06-.06v.06s0,.06.06,0v-.06s.06,0,.06-.06v-.06q.58.58.58.52Z"/><path d="M23.49,14.86c.06,0,0-.06,0,0ZM23.49,14.93c-.06,0-.06-.06,0,0l-.06.06s0,.06-.06,0v-.13l.13.06q0-.06,0,0ZM23.43,14.8q-.06,0-.06-.06l.06.06ZM24.14,14.8c.32.13.65-.06.84-.06-.19-.06-.39.06-.58,0,.13,0,.26,0,.26-.06-.06.13-.39,0-.52.13q0-.06,0,0c-.13-.06-.26-.06-.26.06,0,.19.58.06.78.06s.19,0,.19.06-.19.06-.32.06-.65-.06-.91,0c0-.06.06-.13.06-.13l.06-.06h-.06v-.13s-.06,0-.06-.06h-.26v.06l-.06.06q0,.06-.06.06v.06q-.06,0-.13-.06c-.06,0-.06-.06-.06-.06v-.19l-.06-.06v.13s0-.06-.06-.06c0,0,0-.06-.06,0,0,0,0,.06.06.06h-.06v.06c-.06.06,0,.06,0,.06,0,.06-.06.06-.06,0-.06.06.06.13.06.06v.06h.13v.13h-.13c-.06,0-.13.06-.19,0v-.06h-.13.06s0,.06.06.06h-.06s0-.06-.06,0l-.06.06h.06q0,.06.06,0s-.06.06,0,.06c0,.06.06.06.06.06v-.06c.06,0,0-.06.06-.06,0,0,0,.06.06.06s.06-.06.06-.06v.13s.06,0,.06-.06h.06v.13c0-.13.06-.07.13-.13.06.06.13-.06.13-.13.06,0,.06-.06.06-.06.19,0,.06-.13.32-.13,0,0,.06,0,.06-.06v.13c-.06.06-.06-.13-.13-.06l-.06.06h.06s-.06,0-.06.06c0,0,0,.06.06.06,0,0,.06.06.06,0h-.06.06c.06,0,0-.06.06-.06h.13s0-.06-.06-.13v-.06c.06,0,.06.06.13.06q.13,0,.19-.06h.13v.06h-.13s-.06,0-.06.06h.06q0,.06.06,0l-.06.06v.06-.06s0-.06.06-.06v.06s0,.06.06,0v-.06s.06,0,.06-.06v-.06h.06c-.06,0,0,0,0-.06l.06-.06s-.06.06-.06,0h-.32c.13,0,.39,0,.39-.13,0-.06,0-.13-.26-.13s-.71.06-.71-.06c.52.45.58.45.71.45Z"/><path d="M23.23,15.97q.06,0,0,0t0-.06h.06c.06.06,0,.06-.06.06h.06s0,.06-.06,0q.06.06,0,0t0,0ZM23.3,15.84q-.06,0-.06-.06c.06,0,.06.06.06.06ZM23.36,15.84s.06,0,.06.06l-.06-.06q0,.06,0,0ZM23.88,15.84q.06,0,0,0c.32.13.65-.06.84-.06-.19-.06-.39.06-.58,0,.13,0,.26,0,.26-.06-.13.06-.39-.06-.52,0q.06.06,0,.13c-.06,0-.13,0-.13.06,0,.19.71.06.71.13s-.13.06-.32.06c-.13,0-.39-.06-.71,0,0-.06.06-.13.06-.19,0,0,.06,0,.06-.06h-.06v-.13l-.06-.06h-.26v.06l-.06.06q0,.06-.06.06v.19c-.06-.06-.13-.13-.13-.19-.06,0-.06-.06-.06-.06v-.19l-.06-.06v.13s0-.06-.06-.06c0,0,0-.06-.06,0,0,0,0,.06.06.06h-.06v.13c0,.06-.06.06-.06,0-.06.06.06.13.06.06v.06s0,.06.06.13c0,.06.06.06.13.06,0,.06.06.06,0,.06h-.26v-.06h-.06.06s0,.06.06.06h-.06s0-.06-.06,0c0,0-.06,0-.06.06h.06s0,.06.06,0c0,0-.06.06,0,.06,0,.06.06.06.06.06v-.06s0-.06.06-.06c0,0,0,.06.06.06s.06-.06.06-.06v.13s.06,0,.06-.06h.06v.13c0-.06.06-.06.13-.06,0,0,.06,0,.06-.06,0,0,.06-.06.06-.13.06,0,.13-.06.19-.06v.13c0,.06.06.06.06.13h-.06c-.06.06-.06-.06-.13-.06,0,0-.06,0-.06.06h.06s-.06,0-.06.06c0,0,0,.06.06,0,0,0,0,.06.06,0h-.06.06c.06,0,0-.06.06-.06h.06s0-.06-.06-.13c0,0,.06-.13-.06-.19.06,0,.19.06.26,0,.06,0,.13.06.13.06-.06,0-.06.06-.06.06,0,0,0-.06-.06-.06h-.13.06-.06v.06h.06s-.06,0-.06.06v.06-.06c.06,0,0-.06.06-.06h.06v-.06h.06v-.06h.06s-.06,0-.06-.06c.06,0,.06-.06.06-.06-.06-.06-.13-.06-.13-.13h.06c.26,0,.39-.06.39-.13,0-.19-.71,0-.71-.13.45.39.52.32.52.32Z"/><path d="M12.01,3.05c0-.13-.06-.19-.19-.19-.06,0-.19.06-.19.19s.06.19.19.19c.13-.06.19-.13.19-.19Z"/><path d="M11.94,2.53c0-.13-.06-.19-.19-.19-.06,0-.19.06-.19.19s.06.19.19.19.19-.06.19-.19Z"/><path d="M12.07,2.34c.13,0,.19-.06.19-.19s-.13-.19-.19-.19c-.13,0-.19.06-.19.19s.06.19.19.19Z"/><path d="M12.53,2.27c.13,0,.19-.06.19-.19,0-.06-.06-.19-.19-.19-.13.06-.19.13-.19.26,0,.06.06.13.19.13Z"/><path d="M14.54,1.95c.06.06.19.06.26,0,.06-.06.06-.19,0-.26-.06-.06-.19-.06-.26,0-.06.13-.06.19,0,.26Z"/><path d="M14.54,1.62c.06-.06.06-.19,0-.26-.13-.06-.19-.06-.26,0-.06.06-.06.19,0,.26.06.06.13.06.26,0Z"/><path d="M14.02,1.49c.06-.06.06-.19,0-.26-.06-.06-.19-.06-.26,0-.06.06-.06.19,0,.26.06.06.19.06.26,0Z"/><path d="M13.63,1.82c.06-.06.06-.19,0-.26-.06-.06-.19-.06-.26,0-.06.06-.06.19,0,.26.06.06.19.06.26,0Z"/><path d="M12.53,1.56l.13.32.19-.19v.39c0,.13.13.26.19.26s.26-.13.26-.26c0-.06-.06-.13-.13-.19-.06-.06-.19-.13-.26-.26h.32l-.13-.32-.19.19v-.32l-.32.13.19.26h-.26Z"/><path d="M14.54,2.14q.06.13.13.26c-.06,0-.13-.06-.19-.19l.06.39c.06-.06.06-.13.13-.13,0,.26-.13.39-.19.39-.13,0-.19-.06-.19-.13,0-.13.06-.19.19-.06,0-.26-.19-.26-.26-.13.07-.26,0-.45-.19-.58-.13.19-.06.39.06.52-.19-.06-.32.06-.19.26,0-.13.19-.13.19,0s-.06.26-.26.32c-.26.06-.32-.06-.39-.19.06-.06.19,0,.32.06l-.13-.39c-.06.13-.13.19-.26.26,0-.13.06-.32.06-.32l-.39.13s.26.13.32.19c-.13.06-.19.06-.32,0l.19.39c.06-.19.13-.26.19-.26.06.13.13.32-.13.45-.19.06-.32.06-.39-.06-.06-.13,0-.26.13-.13,0-.26-.19-.26-.26-.06,0-.26-.06-.39-.32-.45-.06.26,0,.39.26.45-.13,0-.26.13-.06.26,0-.13.13-.19.19-.06.06.06.06.19-.06.26-.06.06-.26.06-.45-.13h.19l-.26-.32v.26c-.06-.06-.06-.13-.13-.26l-.19.19c.19.13.39.32.65.65.26-.19.78-.39,1.1-.52.32-.13.84-.32,1.17-.39-.06-.45-.06-.71,0-.97l-.32.06Z"/><path d="M15.12,4.48c-.26.19-.58,0-.71-.26.32-.13.71-.32.97-.45-.26.39-.06.58-.26.71ZM15.06,7.07c-.32.13-.58-.13-.65-.32-.06-.19-.13-.32-.06-.45.13-.13.19-.26.13-.39-.06-.19-.32-.13-.52-.06.13-.19.13-.32,0-.32-.19,0-.19.32-.26.26-.13,0-.06-.13-.06-.26s.06-.13.19-.19l.91-.32c.13-.06.19-.06.26,0,.06.06.19.13.13.19-.06.06-.26-.13-.39,0-.13.06,0,.19.19.26-.19.13-.39.19-.32.39.06.19.13.19.39.19.13,0,.19.13.26.32.13.26.13.58-.19.71ZM13.31,5.19c-.26,0-.26-.19-.71-.32.32-.06.71-.19,1.04-.32.13.26,0,.65-.32.65ZM18.5,13.43c.06-.19-.26-.39-.32-.65-.06-.26,0-.52-.32-.91-.32-.39-1.36-1.49-1.69-1.88.06,0,.26-.06.45.13.13.13.32.32.58.52.26-.71.65-1.23,1.1-1.82.06-.06.13-.13.19-.19-.19.06-.45.13-.65.19,0-.32,0-.58-.19-.78.06-.45,0-.97-.97-1.62.52.13.78.58,1.17.19-.32,0-.32-.78-1.62-1.36.45,0,.84.78,1.43.32-.52-.06-.71-.97-1.62-1.3.32.06.65.19.91-.19-.32.06-.52-.19-.84-.26.13-.39.13-.65-.06-.97-.26,0-.52.06-.65.26,0-.19-.26-.26-.45-.19,0,.19.06.32-.06.32-.19,0-.71.19-1.17.32-.45.19-.91.45-1.04.58-.06.06-.13-.06-.19-.13-.13.13-.32.32-.19.45-.26,0-.52.06-.71.26,0,.26.26.52.58.71-.58.58-.06,1.1-.58,1.62.71,0,.58-.97.97-1.1-.06.71-.45.84-.45,1.56,0,.39.26.84,0,1.1.58-.19.45-1.49.84-1.88.06.19,0,.45-.06.65-.19.58,0,1.43-.32,1.75.58-.06.71-1.04,1.17-1.43-.45.91-.84,2.73-1.49,3.7-1.04,1.43-1.62,3.12-2.6,3.12-.39,0-.71-.26-.71-.78,0-1.62,2.73-2.66,2.73-4.41,0-.78-.65-1.04-.97-1.04-.26,0-.58.13-.84.32-.13-.06-.19-.06-.32-.06-.97,0-.71,1.75-1.56,1.75.32.19.91-.19,1.23-.65-.13,1.1-1.75.84-1.62,2.21.26-1.04,2.79-.91,2.79-2.53,0-.19-.06-.32-.19-.45.19-.13.39-.19.52-.19.32,0,.58.26.58.71,0,1.43-2.73,2.6-2.73,4.35,0,.32.06.52.19.71-.19.06-.39.06-.58-.13,0,.45.65.71,1.04.52.06,0,.19.06.26.06-.13.32-.52.45-.78.39.65.52,1.82-.19,1.75-.78.52-.45.84-1.17,1.23-1.62,0,.13-.06.19-.06.32-.39.71-.78,1.36-.84,2.27-.06.78-.45,1.49-1.04,1.49-.13,0-.32-.13-.39-.06-.19.13,0,.32,0,.45,0,.19-.45.45-.45,1.1,0,.32.19.65.13.91.19-.06.39-.39.52-.78.19.91-.39.84,0,1.69.06-.26.32-.39.45-.26.19.13.06.19-.06.32-.13.13-.26.71.32.71-.13-.06-.13-.26.13-.26.39-.06.52.06.91.06.26,0,.32-.32.52-.32s.19.13.13.26c.32-.06.39-.26.39-.45s-.13-.26-.06-.39c.13-.06.45,0,.32.32.19-.06.32-.19.32-.39,0-.26-.26-.39-.52-.32-.06-.13-.26-.19-.45-.19-.45,0-.39.32-.71.32-.52,0-.97-.65-.97-1.69,0-.58.65-.71,1.04-.91.45-.19,1.23-.65,1.69-1.43.39-.58.39-1.23.32-2.08.58.32.71.84.71,1.23,0,.45-.26.65-.45.78q-.19.06-.26.13c0,.13.06.19.13.26.19.13.19.32.26.58.06.26.26.58.58.84.06-.13,0-.39,0-.65.45.26.06,1.17,1.04,1.17-.19-.06-.13-.32,0-.39s.19.06.39.32c.19.26.13.26.58.26s.26-.13.45-.13c.26,0,.19.26.06.45.39-.13.52-.39.39-.71.32-.19.52.06.58.26.32-.32,0-.71-.26-.78,0-.13-.13-.26-.26-.26h-.45c-.13,0-.26.26-.45.26-.58,0-1.69-1.04-1.69-1.49s1.1-.71,1.1-1.43c0-.91-.91-1.23-1.69-1.82.26-.32,1.04-.39,1.49-.13.06-.26.19-.19.26-.65.13.39,0,.71.13.91.13-.19.45-.13.45-.65.13.32-.13.78.13.97.06-.26.19-.32.26-.32s.19.06.19.19c0,.39-.45.19-.45.58,0,.19.19.26.19.32,0,.13-.19.26-.39.13.06.13.19.32.39.32s.39-.13.52-.39c.13.26,0,.58-.19.58.19.13.65,0,.65-.58.26.06.39.19.26.52.19-.06.39-.13.39-.39.26-.19.06-.26.19-.52Z"/><path d="M36.09,17.85c0-.32.26-.58.58-.58s.58.26.58.58-.26.58-.58.58-.58-.26-.58-.58ZM35.89,17.85c0,.45.32.78.78.78s.78-.32.78-.78-.32-.78-.78-.78-.78.39-.78.78Z"/><path d="M33.36,19.28c-.19-.06-.39-.19-.32-.39,0-.06.06-.13.13-.13.06-.06.19-.06.32-.06.19.06.32.19.32.32v.06c0,.13-.19.19-.45.19ZM33.04,18.56c-.13.06-.19.19-.19.26,0,.13,0,.26.13.39.06.13.26.19.39.19s.32,0,.45-.06c.13-.06.19-.19.26-.32.06-.26-.19-.52-.52-.58-.19,0-.39.06-.52.13Z"/><path d="M28.75,8.24c0-.13.06-.19.19-.32.06-.06.19-.13.26-.06.06,0,.13,0,.13.06.06.06.06.13.06.13,0,.06-.06.19-.13.26-.13.13-.32.13-.45,0-.06,0-.06-.06-.06-.06ZM28.82,7.79c-.26.19-.32.52-.13.71.13.19.45.19.71,0,.13-.13.19-.26.26-.39,0-.13,0-.19-.06-.32-.06-.06-.13-.13-.26-.13-.26,0-.39,0-.52.13Z"/><path d="M32.45,18.17c-.06,0-.13-.06-.19-.06-.06-.06-.13-.19-.13-.32s.06-.26.13-.32q.06-.06.19-.06c.19,0,.32.19.26.39,0,.13-.06.26-.13.32,0,0-.06.06-.13.06ZM32.13,17.26c-.13.13-.19.26-.19.45s.06.32.19.45c.06.06.19.13.32.13s.26-.06.32-.13c.13-.13.19-.26.19-.45,0-.13-.06-.32-.13-.39-.06-.13-.19-.19-.32-.19-.19,0-.32.06-.39.13Z"/><path d="M28.49,11.81c-.19-.06-.32-.32-.26-.45.06-.06.13-.13.13-.13.13-.06.26,0,.32,0,.13.06.19.13.26.26v.19c-.06.06-.13.13-.13.13-.06.06-.19.06-.32,0ZM28.36,11.1c-.13.06-.19.13-.26.19-.13.26,0,.58.32.71.19.06.32.06.52.06.13-.06.19-.13.26-.19.06-.13.06-.19,0-.32-.06-.13-.19-.26-.32-.39-.19-.13-.39-.13-.52-.06Z"/><path d="M33.94,14.6c-.13.19-.32.26-.45.13-.13-.13-.13-.32,0-.52s.32-.26.45-.13c.13.06.13.32,0,.52ZM33.03,16.03c-.13.19-.32.26-.45.13-.13-.13-.13-.32,0-.52s.32-.26.45-.13c.13.06.13.32,0,.52ZM29.92,8.18c.13-.32.32-.97.32-.97l.32.13c-.13.06-.19.13-.32.26.06.06.19.06.32,0l-.13.32c0-.06-.13-.19-.26-.19-.06.26.13.39.26.45.19.13.32.13.39,0,.06-.13-.06-.26-.26-.19,0-.19.06-.26.19-.26.06,0,.19.06.19.19,0-.32.13-.52.39-.58.13.26,0,.45-.19.71.13-.06.26-.06.32.06.06.13.06.26-.13.32-.06-.19-.26-.19-.32-.06-.06.13.06.26.26.32.19.13.39.06.52-.13-.06,0-.19,0-.32.06l.26-.45c0,.06.06.19.13.26.06-.06.06-.26,0-.45l.52.26c-.19,0-.26.13-.39.19.13.06.26,0,.32,0l-.26.39c0-.13-.06-.26-.13-.32-.13.19-.06.39.13.52.19.13.32.13.39,0,.06-.13-.06-.32-.26-.26,0-.19.13-.26.19-.26.13,0,.19.13.19.26.06-.26.19-.45.52-.52.06.26-.06.52-.32.65.13-.06.26,0,.26.06.06.13,0,.26-.13.32,0-.19-.26-.26-.32-.13-.06.13,0,.19.26.32.13.06.32.19.52,0-.06-.06-.26-.13-.26-.13l.26-.32c0,.13.06.26.13.26.06-.13.06-.32.06-.39l.32.26s-.45.52-.71.78l-3.25-1.75ZM33.68,12.46c0-.06,0-.13.06-.19.06-.06.13-.06.19-.06.13,0,.19.06.32.13.06.06.13.19.13.32,0,.06,0,.13-.06.19-.06.06-.13.06-.19.06-.13,0-.19-.06-.32-.13-.06-.13-.13-.26-.13-.32ZM35.05,18.76c0-.13.13-.19.19-.26.13-.06.26-.13.32-.06.06,0,.13.06.13.13.06.06.06.13,0,.19,0,.13-.13.19-.19.26-.19.13-.39.13-.52,0,.06-.13.06-.19.06-.26ZM28.49,9.22c0,.13-.06.19-.13.26,0,0-.06.06-.13.06-.13,0-.26-.13-.26-.32,0-.13.06-.19.13-.26,0,0,.06-.06.13-.06s.13.06.13.06c.13.06.13.19.13.26ZM30.5,5.06c.13-.19,0-.52.39-.52.19,0,.32.19.58.26-.39.06-.71.13-.97.26ZM36.41,10.25c.26.71.78.91,1.1.78-.84-.13-.13-1.56-1.23-1.56h-.19c-.19-.19-.39-.26-.71-.26-.45,0-1.23.45-1.23,1.36,0,2.01,2.27,2.14,2.27,3.89,0,.52-.39.84-.84.84-.39,0-.71-.45-1.04-1.1-.13-.32-.52-.78-.84-1.23.13.06.19.13.32.13s.26-.06.32-.13.13-.19.13-.32-.06-.32-.19-.45c-.13-.13-.26-.19-.45-.19-.13,0-.26.06-.32.13-.06.06-.13.19-.13.32,0,.06,0,.13.06.19-.52-.65-.97-1.3-.97-1.62s.19-.58.45-.91l.06.06.06-.06c.06-.13.26-.32.71-.71l.06-.13-.06-.26c.06-.13.13-.32.19-.45.06.32.26.52.45.45-.13-.32.13-.78-.06-1.56.19.32.45.45.65.39-.52-.45.13-1.1-.52-2.08.19.06.39,0,.45-.06-.58-.06-.32-.84-1.36-1.1.26-.06.39-.19.39-.32-.32.13-.52-.45-1.49-.39-.06-.32-.39-.71-.71-.91.06.26,0,.52-.06.71l-2.99-2.92q-.13-.13-.19-.13s0,.06.06.13l2.6,3.25c-.19.06-.39.13-.58.19-.13.06-.19.19-.19.32-.52.32-.97.58-1.17.78-.13.13-.26.19-.13.52.06.13-.13.45.26.19.26-.13.78-.45.91-.26.06.13-.26.26-.39.32-.19.06-.39.19-.39.26s.19,0,.19.06.06.13.13.13.19-.13.26-.13c.06.06,0,.39-.06.52.32-.06.45-.32.52-.52,0-.19.06-.26.13-.32.06,0,.13.26.06.39.13-.06.32-.26.32-.58-.13,0-.06-.06,0-.06.13,0,.32.26.58.26.52,0,.78-.39.84-.58,0-.13,0-.32-.06-.45.19.13.26.39.26.52,0,.71-1.3,1.04-1.82,1.56l-.06.06-.58-.26-.06.19-.06.13c-.06.19-.19.65-.26.91v.13h.06c-.32.45-.65.97-.71,1.56-.13-.13-.26-.26-.45-.39v-.19c0-.13-.06-.32-.13-.45-.06-.06-.19-.13-.26-.13-.13,0-.19.06-.32.13l-.06.06-.06-.06c-.19-.13-.45-.32-.58-.52-.06-.06-.13-.13-.26-.13h-.26c-.06,0-.13.06-.26.13-.06.06-.19.13-.32.26.06.06.13.13.19.26q.06.06.13.13t.13-.06c.06-.06.13-.06.19-.06s.19.06.26.19c.06.06.52.71.97,1.17q-.06,0-.13.06c-.19.06-.58.06-.71.06-.19,0-.19-.06-.32.13-.06.06-.13.13-.13.19-.06.06-.13.13,0,.32.19.32.65,1.1.78,1.43s.32.39.58.52c.26.13.78.39.84.45v-.26c-.06-.06-.32-.19-.45-.19q-.13-.06,0-.06c.13,0,.45.13.71.19-.06-.26-.32-.58-.45-.71-.19-.06-.39-.06-.52,0,0,.06,0,.13-.13.13-.06,0-.13-.06-.13-.13s.13-.13.13-.26-.19-.19-.32-.19c-.19-.26-.39-.58-.45-.78-.06-.13-.06-.26,0-.26.13-.13.45.06,1.04.13.19,0,.45,0,.78.06.06.65.32,1.3,1.36,1.56.45.13.97.45,1.17.91-1.95-.06-2.27.71-2.27,1.43,0,.84.71.78.71,1.36,0,.52-1.69.78-2.14.84s-.65.13-.84.39c-.19.19-.39.39-.78.78,0,0,.13.06.32,0l.26-.39c.06-.13.13-.19.19-.19s0,.13-.06.26l-.26.39c.97.06,1.04-.32,1.04-.45s-.26-.26-.13-.32c.13-.06.26,0,.39.13s.13.26.39.13c0,0,2.14-.91,2.4-.97.26-.13.19-.19,0-.32-.13-.13-.19-.32-.19-.58,0-.65.39-.84,1.1-.84v.32c0,.97,1.49,2.01,1.95,2.01.19,0,.45-.13.45.45,0,.45.13.78,0,1.3-.06.52-.26.58-.52.78-.32.19-.58.91-.71,1.04.13.06.26.13.39-.26.06-.26.19-.45.32-.52-.13.32-.19.71-.26.84.39.06,1.04-.26,1.04-.58s-.19-.26-.19-.45c0-.06.06-.19.19-.19s.26.13.26.19c.19-.06.26-.26.26-.65v-.45s0,.06.06.06c.06.13.19.19.32.19s.26,0,.45-.13c.13-.13.26-.26.26-.39v-.06c0-.06,0-.19-.06-.26-.06-.06-.19-.13-.26-.19-.13-.06-.32,0-.52.13-.13.06-.26.19-.26.39,0-.52-.06-1.04-.06-1.23,0-.32.06-.45-.06-.52s-.19.13-.39.13c-.13,0-.58-.39-.58-.84s.45-.97.45-1.56c0-.19.13-.26.19-.13.06.19.19.45.45.71-.13.71.71,1.49,1.36.91-.32.06-.58-.26-.71-.52h.32c.26.26.97.26,1.17-.45-.13.13-.39.26-.58.26.26-.19.45-.58.45-.97,0-1.88-2.27-2.08-2.27-3.83,0-.65.58-1.04.97-1.04.13,0,.26.06.32.13-.13.13-.26.39-.19.65.06,1.36,2.27,1.3,2.34,1.95,0-1.04-1.69-.71-1.75-2.08Z"/><path d="M138.88,39.12c0,1.6-.43,2.8-1.28,3.6-.85.79-2.07,1.19-3.64,1.19s-2.87-.38-3.78-1.14c-.9-.77-1.35-1.99-1.35-3.66v-7.98h1.66v7.98c0,1.12.3,1.97.89,2.56.6.57,1.45.86,2.57.86,1.06,0,1.87-.29,2.42-.86.56-.58.84-1.43.84-2.56v-7.98h1.66v7.98Z"/><path d="M118.86,42.24h2.76c.19,0,.42-.01.7-.03.28-.03.58-.1.89-.21.31-.12.62-.28.93-.49.31-.21.59-.5.84-.86.25-.36.44-.81.6-1.35.16-.55.24-1.21.24-1.98s-.08-1.41-.23-2c-.14-.59-.38-1.1-.72-1.5-.33-.42-.75-.74-1.28-.94-.52-.22-1.17-.33-1.94-.33h-2.8v9.69ZM117.2,31.14h4.29c1.93,0,3.41.49,4.44,1.47,1.04.98,1.56,2.47,1.56,4.48,0,1.05-.12,1.98-.35,2.8-.23.81-.6,1.49-1.08,2.05-.49.55-1.11.97-1.87,1.26-.76.29-1.66.44-2.69.44h-4.29v-12.49Z"/><path d="M108.11,44.84c-.18.44-.35.82-.53,1.12-.16.3-.35.55-.56.73-.2.2-.43.34-.68.42-.25.09-.53.14-.86.14-.18,0-.35-.01-.53-.03-.17-.02-.35-.06-.51-.12v-1.36c.13.06.27.1.44.14.18.05.32.07.44.07.3,0,.55-.08.75-.23.21-.14.37-.34.47-.61l.61-1.52-3.59-8.99h1.68l2.64,7.4h.03l2.54-7.4h1.57l-3.94,10.25Z"/><path d="M90.33,31.16h1.49v4.8h.06c.52-1.1,1.75-1.56,2.86-1.56,2.4,0,3.12,1.36,3.12,3.31v5.97h-1.49v-6.1c0-1.1-.71-1.82-1.82-1.82-1.82,0-2.66,1.23-2.66,2.86v5.13h-1.49v-12.59h-.06Z"/><path d="M87.41,34.6h1.82v1.3h-1.82v5.65c0,.71.19.78,1.1.78h.71v1.3h-1.17c-1.56,0-2.14-.32-2.14-1.95v-5.78h-1.56v-1.3h1.56v-2.73h1.49v2.73Z"/><path d="M84.1,40.76c-.39,2.01-1.82,3.05-3.89,3.05-2.86,0-4.22-2.01-4.35-4.74,0-2.73,1.75-4.67,4.22-4.67,3.18,0,4.15,2.99,4.09,5.19h-6.75c-.06,1.56.84,2.99,2.79,2.99,1.23,0,2.08-.58,2.34-1.75h1.56v-.06ZM82.67,38.23c-.06-1.43-1.17-2.53-2.6-2.53-1.56,0-2.47,1.17-2.6,2.53h5.19Z"/><path d="M75.47,43.62c-.26.13-.58.26-1.04.26-.78,0-1.23-.39-1.23-1.43-.84.97-1.95,1.43-3.18,1.43-1.62,0-2.99-.71-2.99-2.53,0-2.08,1.49-2.47,3.05-2.79,1.62-.32,3.05-.19,3.05-1.3,0-1.3-1.04-1.49-2.01-1.49-1.23,0-2.21.39-2.27,1.69h-1.49c.06-2.21,1.82-3.05,3.83-3.05,1.62,0,3.37.39,3.37,2.47v4.67c0,.71,0,1.04.45,1.04.13,0,.26,0,.45-.06v1.1ZM73.06,39.01c-.58.39-1.69.45-2.73.58-.97.19-1.82.52-1.82,1.62,0,.97.84,1.3,1.75,1.3,1.95,0,2.79-1.23,2.79-2.08v-1.43Z"/><path d="M61.97,34.6h1.43v1.88h.06c.71-1.43,1.69-2.14,3.31-2.14v1.56c-2.4,0-3.25,1.36-3.25,3.63v4.02h-1.49v-8.96h-.06Z"/><path d="M58.66,43.62v-1.23h-.06c-.52.97-1.62,1.43-2.86,1.43-2.79,0-4.15-2.21-4.15-4.74s1.36-4.67,4.15-4.67c.91,0,2.27.32,2.92,1.43h.06v-4.67h1.49v12.46h-1.56ZM55.93,42.58c2.01,0,2.79-1.69,2.79-3.44s-.78-3.44-2.86-3.44-2.73,1.75-2.73,3.5.91,3.37,2.79,3.37Z"/><path d="M46.26,34.4c2.86,0,4.41,2.08,4.41,4.74s-1.49,4.74-4.41,4.74-4.41-2.08-4.41-4.74c.06-2.66,1.56-4.74,4.41-4.74ZM46.26,42.58c1.56,0,2.79-1.23,2.79-3.44s-1.23-3.44-2.79-3.44-2.79,1.23-2.79,3.44,1.23,3.44,2.79,3.44Z"/><path d="M38.8,43.62h-1.56l-1.88-7.14-1.82,7.14h-1.62l-2.92-9.02h1.69l2.01,7.4h.06l1.82-7.4h1.62l1.88,7.4,2.08-7.4h1.49l-2.86,9.02Z"/><path d="M24.58,44.85c-.71,1.75-1.3,2.4-2.6,2.4-.32,0-.71-.06-1.04-.13v-1.36c.26.06.58.19.84.19.58,0,.97-.32,1.23-.84l.58-1.56-3.57-9.02h1.69l2.66,7.4h.06l2.53-7.4h1.56l-3.96,10.32Z"/><path d="M19.03,31h-1.48v12.4h1.48v-12.4Z"/><path d="M8.38,31h1.68v11.04h6.59v1.36h-8.26v-12.4Z"/></svg>