<svg width="128" height="68" viewBox="0 0 128 68" fill="none" xmlns="http://www.w3.org/2000/svg">
<g clip-path="url(#clip0_14210_37267)">
<rect width="128" height="68" fill="#3C3C3B"/>
<path d="M128 0H0V68H128V0Z" fill="white"/>
<path d="M39.1299 22.8057C39.7517 22.8058 40.4275 23.0282 40.9111 23.627H40.9414V23.0361H42.8301V29.248H40.9414V28.6562H40.9111C40.4275 29.2243 39.7517 29.4784 39.1299 29.4785C37.4329 29.4478 36.25 28.0958 36.25 26.1455L36.2637 25.7793C36.4006 24.0204 37.5462 22.8057 39.1299 22.8057ZM94.8828 22.8057C96.7408 22.8057 97.9842 24.0725 97.9844 26.1914V26.752H93.5771C93.746 27.5119 94.2835 27.9959 94.959 27.9961C95.3813 27.9961 95.8345 27.7964 96.0342 27.4893H97.9004C97.6163 28.6717 96.4338 29.4629 94.9365 29.4629C93.017 29.4322 91.7424 28.1117 91.7422 26.1309L91.7646 25.7705C91.9115 23.9732 93.1407 22.8057 94.8828 22.8057ZM67.9941 26.3301C67.9941 27.2054 68.4473 27.7744 69.123 27.7744C69.7985 27.7741 70.251 27.2052 70.251 26.3301V22.998H72.1709V26.5303C72.1708 28.2807 70.9579 29.4402 69.123 29.4404C67.2879 29.4404 66.0743 28.2809 66.0742 26.5303V22.998H67.9941V26.3301ZM86.5215 23.5879H86.5518C86.951 23.0812 87.6267 22.7667 88.333 22.7666C89.9992 22.7973 91.1816 24.1796 91.1816 26.1299L91.168 26.4961C91.0285 28.2514 89.8647 29.4394 88.3027 29.4395C87.5963 29.4395 87.0052 29.1854 86.5215 28.6172H86.4902V29.209H84.6016V19.2959H86.5215V23.5879ZM105.728 22.8057C107.225 22.8058 108.322 23.5122 108.491 24.9248H106.771C106.687 24.3875 106.211 24.1339 105.728 24.1338C105.328 24.1338 104.99 24.3336 104.99 24.6943C104.99 25.9382 108.553 24.7485 108.553 27.4053C108.553 28.6721 107.539 29.4395 105.788 29.4395C104.038 29.4393 102.932 28.5338 102.848 27.1826H104.545C104.66 27.7735 105.113 28.0575 105.788 28.0576C106.264 28.0576 106.579 27.8348 106.579 27.4893C106.579 26.2765 103.132 27.4892 103.132 24.8096C103.132 23.5965 104.146 22.8057 105.728 22.8057ZM29.4229 20.2637C31.4804 20.2637 32.8699 21.5305 32.8701 23.4268C32.8701 25.3233 31.4576 26.706 29.3691 26.7061H27.9561V29.2783H25.9209V20.2715H25.8906V20.2637H29.4229ZM62.9717 25.9072V20.2637H65.0068V29.2402H63.3633L59.1562 23.7344V29.2402H57.1211V20.2637H58.7334L62.9717 25.9072ZM35.4082 29.2393H33.4883V19.3262H35.4082V29.2393ZM45.9111 29.2393H43.9922V22.9961H45.9111V29.2393ZM102.061 22.7744C102.26 22.7744 102.46 22.7742 102.629 22.8584V24.6094C102.429 24.5557 102.229 24.5254 102.061 24.5254C101.27 24.5257 100.764 25.2316 100.764 26.3291V29.2393H98.8438L98.874 22.9971H100.756V23.7344H100.786C101.039 23.1126 101.523 22.7746 102.061 22.7744ZM50.7676 22.7676C52.211 22.7676 53.2244 23.9268 53.2246 25.5928V29.2324H51.3057V25.9004C51.3057 25.0251 50.8832 24.4571 50.1768 24.457C49.4704 24.457 49.0176 24.9943 49.0176 25.8389V29.2256H47.0977V22.998H48.9863V23.5889H49.0176C49.4398 23.0517 50.1458 22.7677 50.7676 22.7676ZM80.8438 22.7676C82.4254 22.7676 83.5545 23.9268 83.5547 25.5928V29.2324H81.6348V25.9004C81.6348 25.025 81.2123 24.457 80.5059 24.457C79.7996 24.4572 79.377 24.9944 79.377 25.8389V29.2256H77.458V25.8926C77.458 25.0173 77.0048 24.4492 76.3291 24.4492C75.6535 24.4492 75.17 24.9866 75.1699 25.8311V29.2178H73.25V22.998H75.1387V23.5889H75.1699C75.6767 23.0209 76.3293 22.7676 77.0049 22.7676C77.6805 22.7676 78.3868 23.0746 78.8398 23.5889C79.3773 23.0208 80.1144 22.7676 80.8438 22.7676ZM39.5283 24.3027C38.7147 24.303 38.1466 25.0401 38.1465 26.1377C38.1465 27.2355 38.7146 27.9422 39.5283 27.9424C40.3422 27.9424 40.9111 27.205 40.9111 26.1377C40.911 25.0629 40.3421 24.3027 39.5283 24.3027ZM87.9111 24.3027C87.0972 24.3027 86.498 25.0397 86.498 26.1377C86.4981 27.2356 87.0666 27.9414 87.9111 27.9414C88.7556 27.9413 89.2929 27.2048 89.293 26.1377C89.293 25.0628 88.725 24.3028 87.9111 24.3027ZM94.9131 24.249C94.2068 24.2492 93.6699 24.7868 93.5547 25.6006H96.1807C96.1499 24.8097 95.6732 24.249 94.9131 24.249ZM27.9258 25.001H29.2227C30.1823 25.001 30.8045 24.3488 30.8047 23.4199C30.8047 22.5446 30.1518 21.9531 29.2227 21.9531H27.9258V25.001ZM45.9502 21.0771H43.9688V19.3262H45.9502V21.0771Z" fill="#3C3C3B"/>
<path d="M24.1932 15.4873H11.5391V18.8735H24.1932V15.4873Z" fill="#FF671C"/>
<path d="M24.1932 9.9209H11.5391V13.3071H24.1932V9.9209Z" fill="#FF671C"/>
<path d="M25.8594 36.7266H108.349" stroke="#3C3C3B" stroke-width="0.138212" stroke-miterlimit="10"/>
<path d="M108.349 36.5264H25.8594V36.9487H108.349V36.5264Z" fill="#3C3C3B"/>
<path d="M56.249 47.207C56.3872 46.6391 56.5329 46.6696 56.9551 46.8691C57.4311 47.1225 57.4082 47.2921 57.3545 47.5762C57.2697 47.7465 56.9318 48.9278 56.5635 49.8945C57.1854 49.2419 57.3541 49.0726 58.0605 48.3662C58.3983 48.0284 59.1357 47.4611 59.4736 47.4609C59.727 47.4609 60.2109 47.7985 60.2109 48.1133C60.2109 48.428 60.0958 48.7888 60.042 49.1035C59.9882 49.3876 59.8428 49.9795 59.8428 50.4863C59.8428 51.0235 59.9269 51.53 60.4102 51.5303C60.7846 51.5303 61.2328 51.205 61.5547 50.9795C61.547 50.9156 61.543 50.8505 61.543 50.7852C61.543 50.3631 61.6808 49.9104 61.8496 49.542C62.2719 48.6974 63.2633 47.1997 64.3613 47.1689C64.4994 47.169 64.6452 47.1993 64.7832 47.2529C65.0366 47.3374 65.2671 47.4531 65.5742 47.8447C65.6894 47.5914 65.7967 47.422 66.1113 47.4219C66.6488 47.3912 66.8184 47.5913 66.8184 47.8447C66.8183 48.0674 66.7026 48.3517 66.6182 48.6357C66.3955 49.3114 66.1649 50.271 65.8809 51.5146C66.3339 51.2843 67.632 50.6094 68.5381 50.2178C68.6533 50.164 68.707 50.1866 68.707 50.248C68.7069 50.417 68.085 51.1538 67.2637 51.6299C66.611 52.0215 66.2191 52.3365 65.6279 52.7588C65.4283 53.3499 63.7625 56.6816 63.3398 57.2812C62.6642 58.241 61.9576 59.4002 60.9365 59.4004C60.5987 59.4311 60.2295 59.3163 59.8379 59.0322C59.1623 58.5562 58.8789 58.0413 58.8789 57.5039C58.8791 56.2063 60.4602 54.8777 61.5889 54.0869C62.349 53.5187 63.2019 52.9895 64.6377 52.2217C64.8604 51.6305 64.9446 51.3154 65.29 49.9336C64.4992 50.8933 63.5086 51.9676 62.6104 51.9678C62.5259 51.9678 62.4102 51.9678 62.3027 51.9141C62.0584 51.8281 61.8835 51.6955 61.7637 51.5342C61.4042 51.8929 61.1412 52.0827 60.748 52.1826C60.6329 52.2133 60.4643 52.2363 60.3262 52.2363C59.9039 52.2901 59.2822 52.1213 58.998 51.6455L58.9316 51.5459C58.6931 51.0565 58.6673 50.0911 59.0127 48.8965C58.7588 49.0661 57.6852 50.2786 57.6006 50.3633C57.2628 50.7318 56.6944 51.3227 56.4717 51.6299C56.272 51.914 56.0181 52.2822 55.7109 52.2822C55.5958 52.282 55.4271 52.198 55.2891 52.0293C55.1509 51.8604 55.0898 51.7447 55.0898 51.5527C55.0899 51.467 55.1164 51.3283 55.165 51.1328C54.9656 51.4061 54.7201 51.7 54.4414 51.9453C53.904 52.4213 53.1438 52.736 52.4912 52.2832C51.5007 51.6075 51.731 50.5014 51.9844 49.5723C52.4911 47.5915 52.6905 47.3999 53.3662 47.707C54.2722 48.0756 53.8734 48.014 53.3359 49.2041C53.1363 49.5957 52.4605 51.2921 53.0518 51.5762C53.4475 51.7632 54.4603 51.1989 55.3574 50.4326C55.5644 49.7109 55.8773 48.6516 56.249 47.207ZM64.0771 53.7881C63.7931 53.8418 62.9482 54.4629 62.5488 54.6934C62.0958 54.9774 61.7576 55.3155 61.3584 55.707C61.0743 55.9911 59.9151 57.0894 59.915 57.8496C59.915 57.9033 59.9147 57.9649 59.9453 58.0186C60.0298 58.2412 60.3375 58.5864 60.7061 58.5557C60.8211 58.5249 60.9289 58.4717 61.0439 58.418L61.1514 58.3506C61.6418 57.9928 62.0344 57.3422 62.3799 56.8672C62.8867 56.1301 63.3394 55.3387 63.708 54.5479C63.8462 54.2408 63.9313 54.0721 64.0771 53.7881ZM96.2344 41.126C96.3495 41.126 96.4879 41.2407 96.6338 41.3252C96.8334 41.4634 96.9179 41.694 96.918 41.9473C96.918 42.1699 96.4956 43.4755 96.2959 43.8672C96.0732 44.3739 95.8428 44.9958 95.6738 45.6484C95.6201 45.8174 95.0521 47.4838 94.3457 49.5723C94.9368 48.9197 95.2205 48.6658 96.1494 47.9365C96.2338 47.8828 96.4872 47.7064 96.6025 47.7061C97.0555 47.7061 97.6775 48.1055 97.6777 48.5508C97.647 49.3954 97.3936 50.1866 97.3936 50.6396C97.3936 50.9466 97.5319 50.9775 97.7314 50.9775C97.8466 50.9775 97.9854 50.9468 98.1543 50.8623C98.4423 50.7549 98.7054 50.6129 98.9971 50.4648C98.9706 50.3168 98.9606 50.162 98.9531 49.9941C98.9227 48.2436 100.788 46.5776 101.917 46.5469C102.086 46.5469 102.255 46.6011 102.424 46.6855C102.677 46.8237 102.762 46.9924 102.823 47.2764C102.854 47.3608 102.854 47.4454 102.854 47.5605C102.854 47.7831 102.823 48.044 102.738 48.3203C102.539 48.9959 102.002 49.7026 101.157 49.9023C101.103 49.9331 101.041 49.9326 100.957 49.9326C100.673 49.9326 100.282 49.8485 100.028 49.6797C99.8901 50.1558 99.8902 50.6085 100.144 50.8926C100.282 51.0308 100.512 51.0928 100.819 51.0928C101.558 51.0926 102.589 50.7428 103.548 49.8467C103.587 49.6802 103.624 49.5353 103.645 49.4336C104.297 46.5235 104.605 46.3237 104.805 46.4082C105.511 46.6615 105.511 46.8306 105.48 47.084C105.427 47.3912 105.227 48.0131 104.912 48.8652C105.311 48.0744 105.925 47.3369 106.493 46.8301C106.831 46.546 107.254 46.6924 107.423 47.1992C107.622 47.7671 107.76 48.0207 108.183 48.3584C108.298 48.4429 107.96 48.8651 107.699 48.8652C107.162 48.8652 106.878 48.5809 106.602 47.9053C106.233 48.1587 105.526 49.0343 105.304 49.4873C105.104 49.8788 104.881 50.362 104.712 50.7305C104.574 51.0989 104.29 51.8053 104.121 51.8057C103.361 51.8057 103.246 51.5834 103.246 51.3301L103.26 51.1768C103.278 51.0521 103.314 50.8816 103.355 50.6934C102.812 51.3322 101.819 51.8758 100.98 51.876C100.443 51.8453 99.8817 51.622 99.5361 51.3379L99.3652 51.1865C99.2638 51.0798 99.1892 50.9749 99.1328 50.8701C98.687 51.3581 97.9965 51.7373 97.501 51.7373C97.1016 51.7371 96.3418 51.3151 96.3418 50.5781C96.3418 50.0714 96.4575 49.3881 96.5957 48.7969C95.4977 49.8104 95.0135 50.5786 94.4453 51.2236C94.1076 51.6458 94.0535 51.876 93.6543 51.876C93.6005 51.8453 93.5161 51.8447 93.4316 51.8447L93.2002 51.8066C92.997 51.7451 92.9023 51.611 92.9023 50.9541C92.9026 50.6553 93.321 49.2449 93.9043 47.4268C93.6197 47.6116 93.2418 47.7874 92.9014 47.8447C92.4483 47.9292 92.0254 47.9829 91.6338 48.0674C91.5186 48.2901 91.1581 49.3346 90.9814 49.9873C90.897 50.3865 90.7583 50.8625 90.7275 51.3154C90.6968 51.4844 90.7588 51.6231 90.7588 51.7383C90.7279 51.8763 90.5584 51.9682 90.3896 51.9375C90.1364 51.9067 89.9139 51.799 89.7988 51.5381L89.7705 51.5059C89.7139 51.3829 89.7148 51.1869 89.7148 50.9854C89.7166 50.9408 89.721 50.895 89.7246 50.8477C89.173 51.4662 88.2076 51.9844 87.3896 51.9844C86.9367 52.015 86.3456 51.8459 86.0615 51.4775L85.9521 51.334C85.7429 51.0271 85.6347 50.7143 85.6035 50.3604C84.8775 51.1416 84.5491 51.4175 83.249 52.9355C82.4274 54.9703 81.8051 56.0686 81.2676 57.0898C81.0985 57.397 80.7073 57.8804 80.3389 57.9111C80.0318 57.9111 79.4942 57.489 79.3789 57.0898C79.2637 56.752 79.5485 56.1833 80.5928 54.7705C81.0686 54.1795 81.2147 54.0329 82.0361 53.0195C82.1517 52.7341 82.6584 51.0385 82.9424 50.1943C82.3511 50.7011 81.56 51.4385 81.3066 51.6074C80.7999 51.9453 80.0394 52.3978 79.502 51.8604C79.026 51.4073 79.1334 50.6704 79.333 50.1406C79.7016 49.0964 81.2219 46.8081 82.6348 46.7773C83.2567 46.7773 83.5405 47.0615 83.6787 47.6221C83.8476 47.3995 84.101 47.4839 84.1855 47.5684C84.6078 47.9369 84.4932 48.1057 84.3857 48.7275C84.2168 49.5184 83.8481 50.5324 83.5947 51.4385C84.186 50.8472 84.6079 50.3936 84.8613 50.1709C85.0823 49.9761 85.431 49.6075 85.75 49.2715C86.0113 48.402 86.567 47.6554 87.3135 47.0547C87.851 46.6324 88.6114 46.3171 89.1182 46.9697C89.4866 47.392 89.4867 47.7076 89.1182 48.2373C89.0028 48.4065 88.4414 49.1967 87.2285 50.1562C87.0289 50.2944 86.9216 50.4103 86.5762 50.6406C86.5763 50.9782 86.7761 51.2012 87.252 51.2012C87.9605 51.2011 88.9144 50.8852 89.8398 50.0635C89.9684 49.4304 90.1809 48.7216 90.4209 48.1367C90.3364 48.106 90.1669 48.167 90.0518 48.167C89.7681 48.1669 89.7148 48.0521 89.7148 47.7988C89.7149 47.1463 89.9677 47.2919 90.7891 47.123C90.9887 46.6163 91.043 46.4163 91.3271 45.7637L92.0332 44.0674C92.1484 43.7295 92.4561 42.9917 92.625 42.9072C92.6784 42.8768 92.7092 42.877 92.7627 42.877C93.1313 42.877 93.5229 43.3301 93.4385 43.5527C93.2389 44.0902 92.8475 45.0191 92.6172 45.5566C92.502 45.8407 92.248 46.4625 92.0254 47.0537C92.3325 47.0537 92.5938 47.0004 92.9316 46.9697C93.3702 46.9414 93.698 46.8941 94.0771 46.8867C94.5099 45.5519 95.0131 44.048 95.4971 42.623C95.6353 42.2006 95.9733 41.126 96.2344 41.126ZM29.1602 41.3564C29.5516 41.3564 29.8358 41.6404 29.8359 42.1162C29.8359 42.2851 29.4989 43.1609 29.0459 44.3203C28.1706 46.6622 26.8111 50.1946 26.8418 51.5537C26.8418 51.8607 26.9264 52.0293 27.126 52.0293C27.4331 52.0291 27.9709 51.4684 28.7617 50.3936C30.7112 47.6534 31.1874 46.609 31.3027 46.1328C31.3334 46.0483 31.3564 45.9327 31.3564 45.8789C31.4102 45.5949 31.4414 45.4566 31.6641 45.4873C32.255 45.6024 32.5926 45.7101 32.5928 46.3086C32.5928 46.5082 32.562 46.7315 32.4775 47.0156C32.3624 47.3538 32.2246 48.651 32.2246 49.7871C32.2246 51.1385 32.4243 51.9067 32.7852 51.876C32.8388 51.8759 32.9004 51.8453 32.9541 51.8223C34.2516 51.1463 35.7181 47.3307 35.6953 45.2422C35.6953 44.052 34.9576 43.7753 34.5967 43.6602C34.428 43.6065 34.3975 43.5752 34.3975 43.5752C34.3977 43.5215 34.4514 43.4599 34.5127 43.4062C34.6816 43.2682 34.8815 43.2066 35.0811 43.1836C35.6722 43.1838 36.2944 43.6911 36.4326 44.0059C36.6321 44.4281 36.7695 44.9349 36.7695 45.5566C36.8002 48.3206 34.7355 52.3051 33.2383 52.6436C33.0388 52.6742 32.8696 52.6972 32.7314 52.6973C31.3724 52.728 31.1801 51.6839 31.1494 50.5244C31.1494 50.2174 31.149 49.9334 31.1797 49.6494C31.1797 49.3653 31.1801 49.1117 31.1494 48.7432C30.8423 49.1117 30.5277 49.588 30.1592 50.1562C29.2301 51.5691 27.9856 53.4346 26.8262 53.4346C26.8262 53.5189 26.7422 53.5189 26.6885 53.4883L26.5693 53.4521C25.9226 53.3259 25.6055 52.8464 25.6055 51.9756C25.5748 50.1097 26.9344 46.6084 28.8232 41.5254C28.854 41.4411 28.9915 41.3566 29.1602 41.3564ZM48.7324 42.2939C48.9321 41.8179 49.8306 42.5163 49.6924 42.9463C49.4391 43.6832 49.3548 43.9367 49.209 44.3281C48.8097 45.4261 47.9654 47.7758 47.8809 48.1445C47.6505 48.851 47.5117 49.3889 46.9512 51.0244C46.8129 51.4167 46.4982 52.8052 46.1299 52.6904C45.7307 52.5522 45.5391 52.4061 45.5391 52.0684L45.5518 51.8867C45.6126 51.442 45.8822 50.7113 46.2988 49.3809C46.9515 47.3998 47.4586 45.8258 48.165 43.8447C48.3032 43.4225 48.4178 43.0845 48.7324 42.2939ZM45.0117 46.7158C45.1269 46.7158 45.2118 46.7461 45.3193 46.7998C45.5497 46.938 45.6035 47.1689 45.6035 47.3916C45.6035 47.5912 45.5723 47.7911 45.5723 47.96C45.5723 48.3285 45.6029 48.8893 45.626 49.0889C45.6798 49.5108 45.9331 49.6796 45.5957 49.6797C45.5112 49.6797 45.4263 49.6801 45.2881 49.6494C44.7509 49.5956 44.6967 49.2575 44.6123 48.6895C44.5816 48.4361 44.5278 48.3203 44.4434 48.3203C44.2745 48.3209 44.0438 48.7741 43.8213 49.0273C43.5136 49.4197 42.1866 51.2605 42.1016 51.3994C41.9326 51.6835 41.564 52.2442 41.2568 52.3057C41.0881 52.3363 40.95 52.3594 40.835 52.3594C40.4971 52.4131 40.3584 52.3056 40.3584 52.0215L40.3564 51.9375C40.3808 51.7041 40.487 51.336 40.6348 50.8389C40.6984 50.6524 40.7519 50.4663 40.8018 50.2803C40.392 50.5545 39.8907 50.7915 39.3359 50.8467C39.167 51.0463 38.9443 51.3848 38.6602 51.7227C38.0921 52.3445 37.731 52.5136 36.9404 52.5137C36.2648 52.4292 36.0108 51.9221 36.0107 51.2158L36.0068 50.9395C36.1141 49.5087 37.0116 47.3746 38.3145 47.3457C39.2205 47.3457 40.0116 48.3058 39.9502 49.043C39.9501 49.2655 39.8958 49.4114 39.6963 49.918C40.0059 49.8992 40.5073 49.7016 41.0049 49.4482C41.0488 49.2563 41.0926 49.0624 41.1416 48.8662C41.2261 48.4439 41.3643 48.0208 41.4795 47.2529C41.5104 47.0842 41.6798 47 41.8486 47C42.1557 47.0001 42.5857 47.2226 42.5859 47.5908C42.5859 47.8978 42.3556 48.351 42.3018 48.6045C42.271 48.7197 42.079 49.4498 41.8486 50.1562C42.4399 49.3654 43.1158 48.4586 43.2617 48.2666C43.5997 47.867 44.3593 46.7161 45.0117 46.7158ZM50.6836 47.1768C51.0211 47.177 51.1593 47.431 51.2207 47.8838C51.2508 48.1372 50.5678 48.5358 50.207 48.7891C49.7003 49.1807 48.8789 49.6652 48.541 50.2871C48.5413 51.6379 50.1221 51.6148 50.8594 51.7529C50.6597 52.4056 50.207 52.5137 49.8691 52.5137H49.6387C49.3316 52.4829 48.9627 52.3754 48.6787 52.1758C48.3409 51.9531 48.0259 51.6073 47.834 51.2695C47.7494 51.1002 47.4966 50.4253 47.4658 50.1719C47.4351 49.9185 47.5508 49.665 47.7197 49.4961C48.2265 48.9893 48.9329 48.0291 49.8926 47.4609C50.2303 47.2614 50.484 47.1768 50.6836 47.1768ZM74.7432 43.0762C75.1117 43.0762 75.5034 43.5293 75.4189 43.752C75.2193 44.2894 74.828 45.2184 74.5977 45.7559C74.4825 46.0399 74.2285 46.6618 74.0059 47.2529C74.313 47.2529 74.5666 47.1997 74.9121 47.1689C75.3298 47.142 75.6471 47.0984 76.0039 47.0879C76.2371 46.7353 76.487 46.4509 76.7207 46.416C76.9434 46.3853 77.3965 46.7232 77.5117 46.9229C77.5959 47.0913 77.5967 47.1757 77.5967 47.2295V47.2607C77.5967 47.3144 77.6271 47.3453 77.7959 47.4834C78.3027 47.9057 78.8711 48.0519 78.8711 48.7275V48.9502C78.7866 49.6563 78.3333 50.0784 77.9111 50.585C77.4044 51.1762 76.7821 51.8525 76.0449 51.8525C75.7917 51.9062 75.5921 51.8524 75.3926 51.7373L75.29 51.7119C74.8011 51.4956 74.6328 51.0662 74.6328 50.5625C74.6328 49.8562 74.9396 48.981 75.2236 48.5049C75.306 48.3576 75.4334 48.0941 75.5869 47.8027C75.3691 47.9139 75.1312 48.0057 74.9121 48.0439C74.4592 48.1284 74.0369 48.1822 73.6377 48.2666C73.5225 48.4893 73.161 49.5339 72.9844 50.1865C72.8999 50.5857 72.7545 51.0617 72.7314 51.5146C72.7007 51.6836 72.7617 51.8223 72.7617 51.9375C72.7307 52.0755 72.5623 52.1674 72.3936 52.1367C72.1402 52.1367 71.9174 52.0214 71.7715 51.7373L71.751 51.7051C71.6944 51.5822 71.6953 51.3862 71.6953 51.1846C71.726 50.4244 72.0328 49.2343 72.4014 48.3359C72.3169 48.3052 72.1474 48.3662 72.0322 48.3662C71.7485 48.3661 71.6953 48.2513 71.6953 47.998C71.6953 47.3455 71.9482 47.4911 72.7695 47.3223C72.9692 46.8155 73.0235 46.6156 73.3076 45.9629L74.0137 44.2666C74.1288 43.9287 74.4365 43.1909 74.6055 43.1064C74.6589 43.0761 74.6896 43.0762 74.7432 43.0762ZM37.4395 49.9414C37.2399 50.2792 37.0704 50.9004 37.0703 51.292C37.0703 51.4302 37.101 51.546 37.124 51.6074C37.3774 51.6074 37.8844 51.0391 38.1992 50.5938C37.9766 50.4249 37.6621 50.256 37.4395 49.9414ZM83.5254 48.0518C83.3872 47.8524 83.0729 47.8834 82.9346 47.9141C82.3126 48.0523 81.8055 48.5899 81.4062 49.043C81.2903 49.182 80.5311 50.0337 80.416 50.7627C80.3854 50.9315 80.4161 51.0469 80.5312 51.0469C80.9009 51.0455 83.0418 48.8731 83.5254 48.0518ZM77.7959 48.3584C77.7959 48.3891 77.12 48.1358 76.8359 48.3047C76.2448 48.6732 75.9297 49.6328 75.7607 50.0859C75.6763 50.3393 75.5611 50.6548 75.5918 50.793C75.5919 50.931 75.646 50.9922 75.7305 50.9922C76.1835 50.9919 77.9021 49.1044 77.8799 48.5664L77.875 48.5C77.8638 48.4464 77.8362 48.4045 77.7959 48.3584ZM64.9521 48.167C64.7526 48.167 64.5302 48.221 64.3613 48.3896C63.6012 49.0116 63.1171 49.6031 62.833 50.1943C62.7793 50.3095 62.4951 50.7549 62.6641 50.8701C62.8024 50.9234 63.2853 50.5017 63.3701 50.417L63.5762 50.1973C63.7766 49.9914 63.9485 49.8334 64.1846 49.5801C64.4074 49.3572 65.1436 48.5048 65.2588 48.2207C65.2049 48.1901 65.09 48.167 64.9521 48.167ZM38.5449 47.9902C38.2071 48.0209 37.8922 48.835 37.7539 49.2881C38.0073 49.5415 38.2608 49.7417 38.5986 49.8799C38.7676 49.542 38.9898 49.035 38.9668 48.6357L38.9531 48.5176C38.9122 48.2268 38.8137 47.9701 38.5449 47.9902ZM88.5039 47.6299C88.5571 47.3464 88.0812 47.6002 87.4902 48.3369C87.4058 48.4521 87.0673 48.8127 86.8369 49.3809C87.8505 48.6437 88.3887 48.0522 88.5039 47.6299ZM102.108 47.3994C101.993 47.2 100.811 48.159 100.389 48.9805C100.642 49.0956 100.957 48.8662 101.149 48.6973C101.318 48.582 102.224 47.6221 102.108 47.3994ZM53.9648 44.5508C54.103 44.5508 54.2725 44.6349 54.4414 44.8037C54.5566 44.9189 54.5791 45.0883 54.5791 45.2803C54.5791 45.6795 54.1037 46.6391 53.6738 46.6396C53.6201 46.6396 53.5044 46.5551 53.4199 46.417L53.3916 46.3076C53.3589 46.1917 53.3355 46.0303 53.3125 45.8174C53.3126 45.4487 53.5122 44.5513 53.9648 44.5508Z" fill="#FF671C"/>
</g>
<defs>
<clipPath id="clip0_14210_37267">
<rect width="128" height="68" fill="white"/>
</clipPath>
</defs>
</svg>
