<svg viewBox="0 0 253 135" fill="none" xmlns="http://www.w3.org/2000/svg">
<g clip-path="url(#clip0_1387_41904)">
<path d="M123.13 2.39062C129.818 2.39074 135.239 7.81221 135.239 14.5V121.166C135.239 127.854 129.818 133.275 123.13 133.275H42.5859C35.8981 133.275 30.4767 127.854 30.4766 121.166V14.5C30.4768 7.81229 35.8982 2.39088 42.5859 2.39062H123.13Z" fill="#FFF3D8" stroke="black"/>
<path d="M123.13 2.39062C129.818 2.39074 135.239 7.81221 135.239 14.5V46.2021H30.4766V14.5C30.4768 7.81229 35.8982 2.39088 42.5859 2.39062H123.13Z" fill="#D3559F" stroke="black"/>
<path d="M121.639 12.2188C122.728 12.2188 123.675 12.584 124.351 13.2588C125.026 13.9336 125.392 14.8796 125.392 15.9678V32.2109C125.392 33.2992 125.026 34.2451 124.351 34.9199C123.675 35.5948 122.728 35.96 121.639 35.96H43.5879C42.4989 35.9599 41.5525 35.5947 40.877 34.9199C40.2014 34.245 39.8359 33.2993 39.8359 32.2109V15.9678C39.8359 14.8795 40.2015 13.9337 40.877 13.2588C41.5525 12.584 42.4989 12.2188 43.5879 12.2188H121.639Z" fill="#4FAB82" stroke="black"/>
<path d="M111.883 22.4648H118.388V28.9623H111.883V22.4648ZM98.875 22.4648H105.379V28.9623H98.875V22.4648Z" fill="#33691E"/>
<path d="M121.649 51.2031C122.738 51.2032 123.685 51.5684 124.36 52.2432C125.036 52.918 125.401 53.8639 125.401 54.9521V61.4492C125.401 62.5376 125.036 63.4833 124.36 64.1582C123.685 64.833 122.738 65.1982 121.649 65.1982H111.893C110.804 65.1982 109.857 64.833 109.182 64.1582C108.506 63.4833 108.141 62.5376 108.141 61.4492V54.9521C108.141 53.8638 108.506 52.918 109.182 52.2432C109.857 51.5684 110.804 51.2032 111.893 51.2031H121.649Z" fill="#FF614D" stroke="black"/>
<path d="M53.3447 109.68C54.4337 109.68 55.3802 110.045 56.0557 110.72C56.7312 111.395 57.0967 112.34 57.0967 113.429V119.926C57.0967 121.014 56.7313 121.961 56.0557 122.636C55.3802 123.31 54.4336 123.675 53.3447 123.675H43.5879C42.499 123.675 41.5524 123.31 40.877 122.636C40.2014 121.961 39.8359 121.014 39.8359 119.926V113.429C39.836 112.34 40.2014 111.395 40.877 110.72C41.5525 110.045 42.4989 109.68 43.5879 109.68H53.3447ZM76.1094 109.68C77.1984 109.68 78.1448 110.045 78.8203 110.72C79.4959 111.395 79.8613 112.34 79.8613 113.429V119.926C79.8613 121.014 79.4959 121.961 78.8203 122.636C78.1448 123.31 77.1983 123.675 76.1094 123.675H66.3525C65.2637 123.675 64.3171 123.31 63.6416 122.636C62.966 121.961 62.6006 121.014 62.6006 119.926V113.429C62.6006 112.34 62.9661 111.395 63.6416 110.72C64.3171 110.045 65.2636 109.68 66.3525 109.68H76.1094ZM98.874 109.68C99.963 109.68 100.909 110.045 101.585 110.72C102.261 111.395 102.626 112.34 102.626 113.429V119.926C102.626 121.014 102.261 121.961 101.585 122.636C100.909 123.31 99.9629 123.675 98.874 123.675H89.1182C88.0291 123.675 87.0818 123.311 86.4062 122.636C85.7307 121.961 85.3652 121.014 85.3652 119.926V113.429C85.3653 112.34 85.7308 111.395 86.4062 110.72C87.0818 110.045 88.0291 109.68 89.1182 109.68H98.874ZM53.3447 90.1875C54.4337 90.1876 55.3802 90.5528 56.0557 91.2275C56.7312 91.9024 57.0967 92.8482 57.0967 93.9365V100.434C57.0967 101.522 56.7311 102.468 56.0557 103.143C55.3802 103.817 54.4337 104.183 53.3447 104.183H43.5879C42.4989 104.183 41.5525 103.817 40.877 103.143C40.2015 102.468 39.8359 101.522 39.8359 100.434V93.9365C39.8359 92.8481 40.2014 91.9024 40.877 91.2275C41.5525 90.5527 42.4989 90.1875 43.5879 90.1875H53.3447ZM76.1094 90.1875C77.1984 90.1875 78.1448 90.5527 78.8203 91.2275C79.4959 91.9024 79.8613 92.8481 79.8613 93.9365V100.434C79.8613 101.522 79.4958 102.468 78.8203 103.143C78.1448 103.817 77.1985 104.183 76.1094 104.183H66.3525C65.2636 104.183 64.3171 103.817 63.6416 103.143C62.9662 102.468 62.6006 101.522 62.6006 100.434V93.9365C62.6006 92.8482 62.9661 91.9024 63.6416 91.2275C64.3171 90.5528 65.2636 90.1876 66.3525 90.1875H76.1094ZM98.874 90.1875C99.9631 90.1875 100.909 90.5528 101.585 91.2275C102.261 91.9024 102.626 92.8481 102.626 93.9365V100.434C102.626 101.522 102.261 102.468 101.585 103.143C100.909 103.817 99.9631 104.183 98.874 104.183H89.1182C88.0291 104.183 87.0818 103.817 86.4062 103.143C85.7309 102.468 85.3652 101.522 85.3652 100.434V93.9365C85.3652 92.8483 85.7308 91.9024 86.4062 91.2275C87.0818 90.5527 88.0291 90.1875 89.1182 90.1875H98.874ZM53.3447 70.6953C54.4337 70.6954 55.3802 71.0606 56.0557 71.7354C56.7312 72.4102 57.0967 73.356 57.0967 74.4443V80.9414C57.0967 82.0297 56.7311 82.9755 56.0557 83.6504C55.3802 84.3252 54.4337 84.6904 53.3447 84.6904H43.5879C42.4989 84.6904 41.5525 84.3252 40.877 83.6504C40.2014 82.9755 39.8359 82.0297 39.8359 80.9414V74.4443C39.8359 73.356 40.2014 72.4102 40.877 71.7354C41.5525 71.0606 42.4989 70.6954 43.5879 70.6953H53.3447ZM76.1094 70.6953C77.1985 70.6953 78.1448 71.0605 78.8203 71.7354C79.4959 72.4102 79.8613 73.356 79.8613 74.4443V80.9414C79.8613 82.0298 79.4959 82.9755 78.8203 83.6504C78.1448 84.3252 77.1985 84.6904 76.1094 84.6904H66.3525C65.2636 84.6903 64.3171 84.3251 63.6416 83.6504C62.9662 82.9755 62.6006 82.0297 62.6006 80.9414V74.4443C62.6006 73.3561 62.9661 72.4102 63.6416 71.7354C64.3171 71.0606 65.2636 70.6954 66.3525 70.6953H76.1094ZM98.874 70.6953C99.9631 70.6953 100.909 71.0606 101.585 71.7354C102.261 72.4102 102.626 73.3559 102.626 74.4443V80.9414C102.626 82.0298 102.261 82.9755 101.585 83.6504C100.909 84.3252 99.9631 84.6904 98.874 84.6904H89.1182C88.0291 84.6904 87.0818 84.3252 86.4062 83.6504C85.7309 82.9755 85.3652 82.0296 85.3652 80.9414V74.4443C85.3652 73.3561 85.7309 72.4102 86.4062 71.7354C87.0818 71.0605 88.0291 70.6953 89.1182 70.6953H98.874ZM53.3447 51.2031C54.4337 51.2032 55.3802 51.5684 56.0557 52.2432C56.7311 52.918 57.0967 53.8639 57.0967 54.9521V61.4492C57.0967 62.5376 56.7312 63.4833 56.0557 64.1582C55.3802 64.833 54.4337 65.1982 53.3447 65.1982H43.5879C42.4989 65.1982 41.5525 64.833 40.877 64.1582C40.2014 63.4833 39.8359 62.5376 39.8359 61.4492V54.9521C39.8359 53.8638 40.2015 52.918 40.877 52.2432C41.5525 51.5684 42.4989 51.2032 43.5879 51.2031H53.3447ZM76.1094 51.2031C77.1985 51.2031 78.1448 51.5683 78.8203 52.2432C79.4958 52.918 79.8613 53.8638 79.8613 54.9521V61.4492C79.8613 62.5376 79.4959 63.4833 78.8203 64.1582C78.1448 64.833 77.1984 65.1982 76.1094 65.1982H66.3525C65.2636 65.1982 64.3171 64.833 63.6416 64.1582C62.9661 63.4833 62.6006 62.5375 62.6006 61.4492V54.9521C62.6006 53.8639 62.9662 52.918 63.6416 52.2432C64.3171 51.5684 65.2636 51.2032 66.3525 51.2031H76.1094ZM98.874 51.2031C99.9631 51.2031 100.909 51.5683 101.585 52.2432C102.261 52.918 102.626 53.8638 102.626 54.9521V61.4492C102.626 62.5376 102.261 63.4833 101.585 64.1582C100.909 64.833 99.9631 65.1982 98.874 65.1982H89.1182C88.0291 65.1982 87.0818 64.833 86.4062 64.1582C85.7308 63.4833 85.3652 62.5375 85.3652 61.4492V54.9521C85.3652 53.864 85.7309 52.918 86.4062 52.2432C87.0818 51.5683 88.0291 51.2031 89.1182 51.2031H98.874Z" fill="#CFD1EC" stroke="black"/>
<path d="M121.649 109.68C122.738 109.68 123.685 110.045 124.36 110.72C125.036 111.395 125.401 112.34 125.401 113.429V119.926C125.401 121.014 125.036 121.96 124.36 122.635C123.685 123.31 122.738 123.675 121.649 123.675H111.893C110.804 123.675 109.857 123.31 109.182 122.635C108.506 121.96 108.141 121.014 108.141 119.926V113.429C108.141 112.34 108.506 111.395 109.182 110.72C109.857 110.045 110.804 109.68 111.893 109.68H121.649ZM121.649 90.1875C122.738 90.1876 123.685 90.5528 124.36 91.2275C125.036 91.9024 125.401 92.8482 125.401 93.9365V100.434C125.401 101.522 125.036 102.468 124.36 103.143C123.685 103.817 122.738 104.183 121.649 104.183H111.893C110.804 104.183 109.857 103.817 109.182 103.143C108.506 102.468 108.141 101.522 108.141 100.434V93.9365C108.141 92.8482 108.506 91.9024 109.182 91.2275C109.857 90.5527 110.804 90.1875 111.893 90.1875H121.649ZM121.649 70.6953C122.738 70.6954 123.685 71.0606 124.36 71.7354C125.036 72.4102 125.401 73.3561 125.401 74.4443V80.9414C125.401 82.0297 125.036 82.9755 124.36 83.6504C123.685 84.3252 122.738 84.6904 121.649 84.6904H111.893C110.804 84.6904 109.857 84.3252 109.182 83.6504C108.506 82.9755 108.141 82.0298 108.141 80.9414V74.4443C108.141 73.356 108.506 72.4102 109.182 71.7354C109.857 71.0606 110.804 70.6954 111.893 70.6953H121.649Z" fill="#CFD1EC" stroke="black"/>
<path d="M239.43 113.493H239.44C245.006 113.465 249.72 118.035 249.691 123.805V123.807C249.691 129.065 245.429 134.089 239.35 134.061H239.348C233.522 134.061 229.066 129.382 229.094 123.752C229.151 117.607 234.208 113.408 239.43 113.493Z" fill="#FD950E" stroke="black"/>
<path d="M242.727 113.493H242.737C248.303 113.465 253.017 118.035 252.988 123.805V123.807C252.988 129.065 248.726 134.089 242.646 134.061H242.645C236.818 134.061 232.363 129.382 232.391 123.752C232.448 117.607 237.505 113.408 242.727 113.493Z" fill="#FEC33B" stroke="black"/>
<path d="M11.3281 113.489H11.3389C16.905 113.461 21.6194 118.031 21.5908 123.802V123.804C21.5908 129.063 17.3292 134.087 11.249 134.059H11.2471C5.42046 134.059 0.964839 129.379 0.992188 123.749C1.04936 117.604 6.10578 113.404 11.3281 113.489Z" fill="#FD950E" stroke="black"/>
<path d="M14.625 113.489H14.6357C20.2019 113.461 24.9163 118.031 24.8877 123.802V123.804C24.8877 129.063 20.6261 134.087 14.5459 134.059H14.5439C8.71734 134.059 4.26171 129.379 4.28906 123.749C4.34623 117.604 9.40265 113.404 14.625 113.489Z" fill="#FEC33B" stroke="black"/>
<path d="M41.2939 113.56H41.3047C46.8523 113.531 51.5509 118.086 51.5225 123.838V123.84C51.5225 129.082 47.2748 134.089 41.2148 134.061H41.2129C35.4056 134.061 30.9649 129.397 30.9922 123.785C31.0492 117.66 36.0889 113.474 41.2939 113.56Z" fill="#FD950E" stroke="black"/>
<path d="M44.583 113.56H44.5938C50.1414 113.531 54.84 118.086 54.8115 123.838V123.84C54.8115 129.082 50.5639 134.089 44.5039 134.061H44.502C38.6946 134.061 34.2539 129.397 34.2812 123.785C34.3382 117.66 39.378 113.474 44.583 113.56Z" fill="#FEC33B" stroke="black"/>
<path d="M205.738 113.778H205.749C211.237 113.75 215.886 118.256 215.857 123.946V123.949C215.857 129.135 211.655 134.088 205.66 134.06H205.658C199.913 134.06 195.52 129.446 195.547 123.895C195.603 117.835 200.589 113.694 205.738 113.778Z" fill="#FD950E" stroke="black"/>
<path d="M208.988 113.778H208.999C214.487 113.75 219.136 118.256 219.107 123.946V123.949C219.107 129.135 214.905 134.088 208.91 134.06H208.908C203.163 134.06 198.77 129.446 198.797 123.895C198.853 117.835 203.839 113.694 208.988 113.778Z" fill="#FEC33B" stroke="black"/>
<path d="M184.395 113.778H184.405C189.893 113.75 194.542 118.256 194.514 123.946V123.949C194.513 129.135 190.311 134.088 184.316 134.06H184.314C178.569 134.06 174.176 129.446 174.203 123.895C174.259 117.835 179.245 113.694 184.395 113.778Z" fill="#FD950E" stroke="black"/>
<path d="M187.645 113.778H187.655C193.143 113.75 197.792 118.256 197.764 123.946V123.949C197.763 129.135 193.561 134.088 187.566 134.06H187.564C181.819 134.06 177.426 129.446 177.453 123.895C177.509 117.835 182.495 113.694 187.645 113.778Z" fill="#FEC33B" stroke="black"/>
<path d="M162.992 113.583H163.003C168.543 113.555 173.236 118.104 173.208 123.848V123.851C173.208 129.086 168.965 134.086 162.913 134.058H162.911C157.111 134.058 152.676 129.4 152.703 123.796C152.76 117.678 157.794 113.498 162.992 113.583Z" fill="#FD950E" stroke="black"/>
<path d="M166.273 113.583H166.284C171.825 113.555 176.517 118.104 176.489 123.848V123.851C176.489 129.086 172.247 134.086 166.194 134.058H166.192C160.393 134.058 155.957 129.4 155.984 123.796C156.041 117.678 161.075 113.498 166.273 113.583Z" fill="#FEC33B" stroke="black"/>
<path d="M141.582 113.778H141.593C147.081 113.75 151.729 118.256 151.701 123.946V123.949C151.701 129.135 147.499 134.088 141.504 134.06H141.502C135.757 134.06 131.364 129.446 131.391 123.895C131.447 117.835 136.433 113.694 141.582 113.778Z" fill="#FD950E" stroke="black"/>
<path d="M144.832 113.778H144.843C150.331 113.75 154.979 118.256 154.951 123.946V123.949C154.951 129.135 150.749 134.088 144.754 134.06H144.752C139.007 134.06 134.614 129.446 134.641 123.895C134.697 117.835 139.683 113.694 144.832 113.778Z" fill="#FEC33B" stroke="black"/>
<path d="M120.27 113.778H120.28C125.768 113.75 130.417 118.256 130.389 123.946V123.949C130.388 129.135 126.186 134.088 120.191 134.06H120.189C114.444 134.06 110.051 129.446 110.078 123.895C110.134 117.835 115.12 113.694 120.27 113.778Z" fill="#FD950E" stroke="black"/>
<path d="M123.52 113.778H123.53C129.018 113.75 133.667 118.256 133.639 123.946V123.949C133.638 129.135 129.436 134.088 123.441 134.06H123.439C117.694 134.06 113.301 129.446 113.328 123.895C113.384 117.835 118.37 113.694 123.52 113.778Z" fill="#FEC33B" stroke="black"/>
<path d="M196.762 95.0518H196.772C202.261 95.0236 206.909 99.5299 206.881 105.22V105.223C206.881 110.408 202.679 115.361 196.684 115.333H196.682C190.937 115.333 186.543 110.719 186.57 105.168C186.627 99.1083 191.612 94.9675 196.762 95.0518Z" fill="#FD950E" stroke="black"/>
<path d="M200.012 95.0518H200.022C205.511 95.0236 210.159 99.5299 210.131 105.22V105.223C210.131 110.408 205.929 115.361 199.934 115.333H199.932C194.187 115.333 189.793 110.719 189.82 105.168C189.877 99.1083 194.862 94.9675 200.012 95.0518Z" fill="#FEC33B" stroke="black"/>
<path d="M175.359 94.8564H175.37C180.911 94.8281 185.603 99.3772 185.575 105.121V105.124C185.575 110.359 181.333 115.359 175.28 115.331H175.278C169.478 115.331 165.043 110.674 165.07 105.069C165.127 98.9518 170.161 94.7712 175.359 94.8564Z" fill="#FD950E" stroke="black"/>
<path d="M178.641 94.8564H178.651C184.192 94.8281 188.885 99.3772 188.856 105.121V105.124C188.856 110.359 184.614 115.359 178.562 115.331H178.56C172.76 115.331 168.324 110.674 168.352 105.069C168.408 98.9518 173.442 94.7712 178.641 94.8564Z" fill="#FEC33B" stroke="black"/>
<path d="M153.949 95.0518H153.96C159.448 95.0236 164.096 99.5299 164.068 105.22V105.223C164.068 110.408 159.866 115.361 153.871 115.333H153.869C148.124 115.333 143.731 110.719 143.758 105.168C143.814 99.1083 148.8 94.9675 153.949 95.0518Z" fill="#FD950E" stroke="black"/>
<path d="M157.199 95.0518H157.21C162.698 95.0236 167.346 99.5299 167.318 105.22V105.223C167.318 110.408 163.116 115.361 157.121 115.333H157.119C151.374 115.333 146.981 110.719 147.008 105.168C147.064 99.1083 152.05 94.9675 157.199 95.0518Z" fill="#FEC33B" stroke="black"/>
<path d="M132.637 95.0518H132.647C138.136 95.0236 142.784 99.5299 142.756 105.22V105.223C142.756 110.408 138.554 115.361 132.559 115.333H132.557C126.812 115.333 122.418 110.719 122.445 105.168C122.502 99.1083 127.487 94.9675 132.637 95.0518Z" fill="#FD950E" stroke="black"/>
<path d="M135.887 95.0518H135.897C141.386 95.0236 146.034 99.5299 146.006 105.22V105.223C146.006 110.408 141.804 115.361 135.809 115.333H135.807C130.062 115.333 125.668 110.719 125.695 105.168C125.752 99.1083 130.737 94.9675 135.887 95.0518Z" fill="#FEC33B" stroke="black"/>
<path d="M187.672 76.2939H187.683C193.223 76.2656 197.916 80.8147 197.888 86.5586V86.5615C197.888 91.7966 193.645 96.797 187.593 96.7686H187.591C181.791 96.7686 177.356 92.111 177.383 86.5068C177.44 80.3893 182.473 76.2087 187.672 76.2939Z" fill="#FD950E" stroke="black"/>
<path d="M190.953 76.2939H190.964C196.504 76.2656 201.197 80.8147 201.169 86.5586V86.5615C201.169 91.7966 196.926 96.797 190.874 96.7686H190.872C185.072 96.7686 180.637 92.111 180.664 86.5068C180.721 80.3893 185.755 76.2087 190.953 76.2939Z" fill="#FEC33B" stroke="black"/>
<path d="M166.262 76.4854H166.272C171.761 76.4572 176.409 80.9635 176.381 86.6533V86.6562C176.381 91.8418 172.179 96.7947 166.184 96.7666H166.182C160.437 96.7666 156.043 92.153 156.07 86.6016C156.127 80.5419 161.112 76.4011 166.262 76.4854Z" fill="#FD950E" stroke="black"/>
<path d="M169.512 76.4854H169.522C175.011 76.4572 179.659 80.9635 179.631 86.6533V86.6562C179.631 91.8418 175.429 96.7947 169.434 96.7666H169.432C163.687 96.7666 159.293 92.153 159.32 86.6016C159.377 80.5419 164.362 76.4011 169.512 76.4854Z" fill="#FEC33B" stroke="black"/>
<path d="M144.949 76.4854H144.96C150.448 76.4572 155.096 80.9635 155.068 86.6533V86.6562C155.068 91.8418 150.866 96.7947 144.871 96.7666H144.869C139.124 96.7666 134.731 92.153 134.758 86.6016C134.814 80.5419 139.8 76.4011 144.949 76.4854Z" fill="#FD950E" stroke="black"/>
<path d="M148.199 76.4854H148.21C153.698 76.4572 158.346 80.9635 158.318 86.6533V86.6562C158.318 91.8418 154.116 96.7947 148.121 96.7666H148.119C142.374 96.7666 137.981 92.153 138.008 86.6016C138.064 80.5419 143.05 76.4011 148.199 76.4854Z" fill="#FEC33B" stroke="black"/>
<path d="M178.512 58.0049H178.522C184.011 57.9767 188.659 62.4831 188.631 68.1729V68.1758C188.631 73.3614 184.429 78.3143 178.434 78.2861H178.432C172.687 78.2861 168.293 73.6725 168.32 68.1211C168.377 62.0614 173.362 57.9206 178.512 58.0049Z" fill="#FD950E" stroke="black"/>
<path d="M181.762 58.0049H181.772C187.261 57.9767 191.909 62.4831 191.881 68.1729V68.1758C191.881 73.3614 187.679 78.3143 181.684 78.2861H181.682C175.937 78.2861 171.543 73.6725 171.57 68.1211C171.627 62.0614 176.612 57.9206 181.762 58.0049Z" fill="#FEC33B" stroke="black"/>
<path d="M157.199 58.0049H157.21C162.698 57.9767 167.346 62.4831 167.318 68.1729V68.1758C167.318 73.3614 163.116 78.3143 157.121 78.2861H157.119C151.374 78.2861 146.981 73.6725 147.008 68.1211C147.064 62.0614 152.05 57.9206 157.199 58.0049Z" fill="#FD950E" stroke="black"/>
<path d="M160.449 58.0049H160.46C165.948 57.9767 170.596 62.4831 170.568 68.1729V68.1758C170.568 73.3614 166.366 78.3143 160.371 78.2861H160.369C154.624 78.2861 150.231 73.6725 150.258 68.1211C150.314 62.0614 155.3 57.9206 160.449 58.0049Z" fill="#FEC33B" stroke="black"/>
<path d="M169.512 39.1963H169.522C175.011 39.1681 179.659 43.6745 179.631 49.3643V49.3672C179.631 54.5528 175.429 59.5057 169.434 59.4775H169.432C163.687 59.4775 159.293 54.8639 159.32 49.3125C159.377 43.2529 164.362 39.112 169.512 39.1963Z" fill="#FD950E" stroke="black"/>
<path d="M172.762 39.1963H172.772C178.261 39.1681 182.909 43.6745 182.881 49.3643V49.3672C182.881 54.5528 178.679 59.5057 172.684 59.4775H172.682C166.937 59.4775 162.543 54.8639 162.57 49.3125C162.627 43.2529 167.612 39.112 172.762 39.1963Z" fill="#FEC33B" stroke="black"/>
</g>
<defs>
<clipPath id="clip0_1387_41904">
<rect width="253" height="135" fill="white"/>
</clipPath>
</defs>
</svg>
