<svg viewBox="0 0 300 186" fill="none" xmlns="http://www.w3.org/2000/svg">
<g clip-path="url(#clip0_1203_85191)">
<path d="M253.382 185.921H64.9463C23.3731 185.921 2.5525 135.702 31.9469 106.336L81.5296 56.7962C124.242 14.1252 193.741 14.1252 236.453 56.7962L286.282 106.576C315.587 135.854 294.835 185.916 253.387 185.916" fill="#A0D4F3"/>
<path d="M169.781 185.945H33.7544C3.74438 185.945 -11.2878 149.628 9.93368 128.392L45.7264 92.5646C76.5568 61.7076 126.725 61.7076 157.559 92.5646L193.529 128.566C214.685 149.74 199.704 185.945 169.785 185.945" fill="#E3F5FF"/>
<path d="M262.179 69.7568C268.039 69.7569 272.789 74.5073 272.789 80.3672V175.002C272.789 180.862 268.039 185.612 262.179 185.612H190.72C184.86 185.612 180.109 180.862 180.109 175.002V80.3672C180.109 74.5073 184.86 69.7568 190.72 69.7568H262.179Z" fill="#FFF3D8" stroke="black" stroke-width="0.619835"/>
<path d="M262.179 69.7568C268.039 69.7569 272.789 74.5073 272.789 80.3672V108.359H180.109V80.3672C180.109 74.5073 184.86 69.7568 190.72 69.7568H262.179Z" fill="#D3559F" stroke="black" stroke-width="0.619835"/>
<path d="M260.859 78.4756C261.795 78.4757 262.599 78.7882 263.17 79.3584C263.741 79.9286 264.055 80.732 264.055 81.667V96.0791C264.055 97.0142 263.741 97.8174 263.17 98.3877C262.599 98.9579 261.795 99.2714 260.859 99.2715H191.611C190.675 99.2715 189.871 98.958 189.3 98.3877C188.729 97.8174 188.416 97.0142 188.416 96.0791V81.667C188.416 80.732 188.729 79.9286 189.3 79.3584C189.871 78.7881 190.675 78.4756 191.611 78.4756H260.859Z" fill="#4FAB82" stroke="black" stroke-width="0.619835"/>
<path d="M252.203 87.4336H257.974V93.1982H252.203V87.4336ZM240.662 87.4336H246.433V93.1982H240.662V87.4336Z" fill="#33691E"/>
<path d="M260.864 113.065C261.8 113.065 262.605 113.378 263.176 113.948C263.747 114.518 264.059 115.322 264.06 116.257V122.021C264.06 122.957 263.747 123.761 263.176 124.331C262.605 124.901 261.8 125.214 260.864 125.214H252.209C251.273 125.214 250.468 124.901 249.897 124.331C249.327 123.761 249.014 122.957 249.014 122.021V116.257C249.014 115.322 249.327 114.518 249.897 113.948C250.468 113.378 251.273 113.065 252.209 113.065H260.864Z" fill="#FF614D" stroke="black" stroke-width="0.619835"/>
<path d="M200.267 164.946C201.203 164.946 202.007 165.26 202.578 165.83C203.149 166.4 203.462 167.204 203.462 168.139V173.903C203.462 174.839 203.149 175.643 202.578 176.213C202.007 176.783 201.203 177.096 200.267 177.096H191.611C190.675 177.096 189.871 176.783 189.3 176.213C188.729 175.643 188.416 174.839 188.416 173.903V168.139C188.416 167.204 188.729 166.4 189.3 165.83C189.871 165.26 190.675 164.946 191.611 164.946H200.267ZM220.464 164.946C221.4 164.946 222.204 165.26 222.775 165.83C223.346 166.4 223.659 167.204 223.659 168.139V173.903C223.659 174.839 223.346 175.643 222.775 176.213C222.204 176.783 221.4 177.096 220.464 177.096H211.809C210.873 177.096 210.068 176.783 209.497 176.213C208.926 175.643 208.613 174.839 208.613 173.903V168.139C208.613 167.204 208.926 166.4 209.497 165.83C210.068 165.26 210.873 164.946 211.809 164.946H220.464ZM240.662 164.946C241.598 164.946 242.402 165.26 242.973 165.83C243.543 166.4 243.856 167.204 243.856 168.139V173.903C243.856 174.839 243.544 175.643 242.973 176.213C242.402 176.783 241.598 177.096 240.662 177.096H232.006C231.07 177.096 230.265 176.783 229.694 176.213C229.123 175.643 228.811 174.839 228.811 173.903V168.139C228.811 167.204 229.124 166.4 229.694 165.83C230.265 165.26 231.07 164.946 232.006 164.946H240.662ZM200.267 147.653C201.203 147.653 202.007 147.966 202.578 148.536C203.149 149.106 203.462 149.91 203.462 150.845V156.609C203.462 157.545 203.149 158.349 202.578 158.919C202.007 159.489 201.203 159.802 200.267 159.802H191.611C190.675 159.802 189.871 159.489 189.3 158.919C188.729 158.349 188.416 157.545 188.416 156.609V150.845C188.416 149.91 188.729 149.106 189.3 148.536C189.871 147.966 190.675 147.653 191.611 147.653H200.267ZM220.464 147.653C221.4 147.653 222.204 147.966 222.775 148.536C223.346 149.106 223.659 149.91 223.659 150.845V156.609C223.659 157.545 223.346 158.349 222.775 158.919C222.204 159.489 221.4 159.802 220.464 159.802H211.809C210.873 159.802 210.068 159.489 209.497 158.919C208.926 158.349 208.613 157.545 208.613 156.609V150.845C208.613 149.91 208.926 149.106 209.497 148.536C210.068 147.966 210.873 147.653 211.809 147.653H220.464ZM240.662 147.653C241.598 147.653 242.402 147.966 242.973 148.536C243.543 149.106 243.856 149.91 243.856 150.845V156.609C243.856 157.545 243.544 158.349 242.973 158.919C242.402 159.489 241.598 159.802 240.662 159.802H232.006C231.07 159.802 230.265 159.489 229.694 158.919C229.123 158.349 228.811 157.545 228.811 156.609V150.845C228.811 149.91 229.124 149.106 229.694 148.536C230.265 147.966 231.07 147.653 232.006 147.653H240.662ZM200.267 130.359C201.203 130.359 202.007 130.672 202.578 131.242C203.149 131.812 203.462 132.616 203.462 133.551V139.315C203.462 140.251 203.149 141.055 202.578 141.625C202.007 142.195 201.203 142.508 200.267 142.508H191.611C190.675 142.508 189.871 142.195 189.3 141.625C188.729 141.055 188.416 140.251 188.416 139.315V133.551C188.416 132.616 188.729 131.812 189.3 131.242C189.871 130.672 190.675 130.359 191.611 130.359H200.267ZM220.464 130.359C221.4 130.359 222.204 130.672 222.775 131.242C223.346 131.812 223.659 132.616 223.659 133.551V139.315C223.659 140.251 223.346 141.055 222.775 141.625C222.204 142.195 221.4 142.508 220.464 142.508H211.809C210.873 142.508 210.068 142.195 209.497 141.625C208.926 141.055 208.613 140.251 208.613 139.315V133.551C208.613 132.616 208.926 131.812 209.497 131.242C210.068 130.672 210.873 130.359 211.809 130.359H220.464ZM240.662 130.359C241.598 130.359 242.402 130.672 242.973 131.242C243.543 131.812 243.856 132.616 243.856 133.551V139.315C243.856 140.251 243.544 141.055 242.973 141.625C242.402 142.195 241.598 142.508 240.662 142.508H232.006C231.07 142.508 230.265 142.195 229.694 141.625C229.123 141.055 228.811 140.251 228.811 139.315V133.551C228.811 132.616 229.124 131.812 229.694 131.242C230.265 130.672 231.07 130.359 232.006 130.359H240.662ZM200.267 113.065C201.203 113.065 202.007 113.378 202.578 113.948C203.149 114.518 203.462 115.322 203.462 116.257V122.021C203.462 122.957 203.149 123.761 202.578 124.331C202.007 124.901 201.203 125.214 200.267 125.214H191.611C190.675 125.214 189.871 124.901 189.3 124.331C188.729 123.761 188.416 122.957 188.416 122.021V116.257C188.416 115.322 188.729 114.518 189.3 113.948C189.871 113.378 190.675 113.065 191.611 113.065H200.267ZM220.464 113.065C221.4 113.065 222.204 113.378 222.775 113.948C223.346 114.518 223.659 115.322 223.659 116.257V122.021C223.659 122.957 223.346 123.761 222.775 124.331C222.204 124.901 221.4 125.214 220.464 125.214H211.809C210.873 125.214 210.068 124.901 209.497 124.331C208.926 123.761 208.613 122.957 208.613 122.021V116.257C208.613 115.322 208.926 114.518 209.497 113.948C210.068 113.378 210.873 113.065 211.809 113.065H220.464ZM240.662 113.065C241.598 113.066 242.402 113.378 242.973 113.948C243.543 114.518 243.856 115.322 243.856 116.257V122.021C243.856 122.957 243.544 123.761 242.973 124.331C242.402 124.901 241.598 125.214 240.662 125.214H232.006C231.07 125.214 230.265 124.901 229.694 124.331C229.123 123.761 228.811 122.957 228.811 122.021V116.257C228.811 115.322 229.124 114.518 229.694 113.948C230.265 113.378 231.07 113.065 232.006 113.065H240.662Z" fill="#CFD1EC" stroke="black" stroke-width="0.619835"/>
<path d="M260.864 164.946C261.8 164.946 262.605 165.259 263.176 165.829C263.747 166.399 264.059 167.203 264.06 168.138V173.902C264.06 174.838 263.747 175.642 263.176 176.212C262.605 176.782 261.8 177.095 260.864 177.095H252.209C251.273 177.095 250.468 176.782 249.897 176.212C249.327 175.642 249.014 174.838 249.014 173.902V168.138C249.014 167.203 249.327 166.399 249.897 165.829C250.468 165.259 251.273 164.946 252.209 164.946H260.864ZM260.864 147.652C261.8 147.652 262.605 147.965 263.176 148.535C263.747 149.105 264.059 149.909 264.06 150.844V156.608C264.06 157.544 263.747 158.348 263.176 158.918C262.605 159.488 261.8 159.801 260.864 159.801H252.209C251.273 159.801 250.468 159.488 249.897 158.918C249.327 158.348 249.014 157.544 249.014 156.608V150.844C249.014 149.909 249.327 149.105 249.897 148.535C250.468 147.965 251.273 147.652 252.209 147.652H260.864ZM260.864 130.358C261.8 130.358 262.605 130.671 263.176 131.241C263.747 131.811 264.059 132.615 264.06 133.55V139.314C264.06 140.25 263.747 141.054 263.176 141.624C262.605 142.194 261.8 142.507 260.864 142.507H252.209C251.273 142.507 250.468 142.194 249.897 141.624C249.327 141.054 249.014 140.25 249.014 139.314V133.55C249.014 132.615 249.327 131.811 249.897 131.241C250.468 130.671 251.273 130.358 252.209 130.358H260.864Z" fill="#CFD1EC" stroke="black" stroke-width="0.619835"/>
<path d="M153.979 171.385H153.984C157.824 171.365 161.075 174.517 161.056 178.497V178.499C161.055 182.126 158.116 185.591 153.923 185.571H153.922C149.903 185.571 146.829 182.343 146.849 178.46C146.888 174.222 150.376 171.326 153.979 171.385Z" fill="#FD950E" stroke="black" stroke-width="0.619835"/>
<path d="M156.242 171.385H156.248C160.087 171.365 163.339 174.517 163.319 178.497V178.499C163.319 182.126 160.38 185.591 156.187 185.571H156.186C152.167 185.571 149.093 182.343 149.112 178.46C149.152 174.222 152.64 171.326 156.242 171.385Z" fill="#FEC33B" stroke="black" stroke-width="0.619835"/>
<path d="M151.668 33.9629H151.675C155.478 33.9435 158.698 37.0664 158.679 41.0088V41.0098C158.679 44.6027 155.768 48.0351 151.613 48.0156H151.612C147.631 48.0156 144.586 44.8182 144.605 40.9717C144.645 36.7734 148.1 33.9044 151.668 33.9629Z" fill="#FD950E" stroke="black" stroke-width="0.619835"/>
<path d="M153.911 33.9629H153.918C157.721 33.9435 160.941 37.0664 160.922 41.0088V41.0098C160.922 44.6027 158.011 48.0351 153.856 48.0156H153.855C149.874 48.0156 146.83 44.8182 146.849 40.9717C146.888 36.7734 150.343 33.9044 153.911 33.9629Z" fill="#FEC33B" stroke="black" stroke-width="0.619835"/>
<path d="M216.67 55.4746H216.677C220.48 55.4552 223.7 58.5781 223.681 62.5205V62.5215C223.681 66.1144 220.77 69.5468 216.615 69.5273H216.614C212.633 69.5273 209.588 66.3299 209.607 62.4834C209.647 58.2851 213.102 55.4161 216.67 55.4746Z" fill="#FD950E" stroke="black" stroke-width="0.619835"/>
<path d="M218.914 55.4746H218.921C222.724 55.4552 225.944 58.5781 225.925 62.5205V62.5215C225.925 66.1144 223.014 69.5468 218.859 69.5273H218.858C214.877 69.5273 211.833 66.3299 211.852 62.4834C211.891 58.2851 215.346 55.4161 218.914 55.4746Z" fill="#FEC33B" stroke="black" stroke-width="0.619835"/>
<path d="M24.4297 150.33H24.4365C28.2395 150.311 31.4599 153.434 31.4404 157.376V157.377C31.4404 160.97 28.5293 164.402 24.375 164.383H24.374C20.393 164.383 17.3482 161.185 17.3672 157.339C17.4064 153.141 20.8614 150.272 24.4297 150.33Z" fill="#FD950E" stroke="black" stroke-width="0.619835"/>
<path d="M26.6729 150.33H26.6797C30.4827 150.311 33.7031 153.434 33.6836 157.376V157.377C33.6836 160.97 30.7724 164.402 26.6182 164.383H26.6172C22.6362 164.383 19.5913 161.185 19.6104 157.339C19.6496 153.141 23.1046 150.272 26.6729 150.33Z" fill="#FEC33B" stroke="black" stroke-width="0.619835"/>
<path d="M276.008 171.385H276.015C279.818 171.365 283.038 174.488 283.019 178.431V178.432C283.019 182.025 280.107 185.457 275.953 185.438H275.952C271.971 185.438 268.926 182.24 268.945 178.394C268.985 174.195 272.44 171.326 276.008 171.385Z" fill="#FD950E" stroke="black" stroke-width="0.619835"/>
<path d="M278.251 171.385H278.258C282.061 171.365 285.281 174.488 285.262 178.431V178.432C285.262 182.025 282.351 185.457 278.196 185.438H278.195C274.214 185.438 271.169 182.24 271.188 178.394C271.228 174.195 274.683 171.326 278.251 171.385Z" fill="#FEC33B" stroke="black" stroke-width="0.619835"/>
<g filter="url(#filter0_d_1203_85191)">
<mask id="path-20-outside-1_1203_85191" maskUnits="userSpaceOnUse" x="32.9941" y="90.1562" width="127" height="96" fill="black">
<rect fill="white" x="32.9941" y="90.1562" width="127" height="96"/>
<path d="M86.6165 112.886H107.21V112.773C101.863 110.321 99.9569 105.558 99.8432 102.599C103.399 102.599 104.878 102.599 107.097 105.502V95.891C104.963 98.7376 103.399 98.7376 99.7578 98.7376C99.7578 95.0455 100.924 92.7627 103.313 91.1562H90.5418C93.0449 92.7627 93.7276 95.0455 93.7276 98.7094C90.1436 98.7094 88.5791 98.7094 86.7018 95.891V105.502C88.5507 102.599 90.1436 102.599 93.6138 102.599C93.4716 105.502 92.1916 110.405 86.6165 112.773V112.886Z"/>
<path d="M36.4973 142.732C36.4973 141.238 37.7488 140.026 39.2848 140.026C40.8493 140.026 42.0724 141.21 42.0724 142.732C42.0724 144.254 40.8208 145.522 39.2848 145.522C37.7488 145.522 36.4973 144.225 36.4973 142.732Z"/>
<path d="M36.7817 137.321C35.2741 137.321 33.9941 136.109 33.9941 134.615C33.9941 133.121 35.2457 131.825 36.7817 131.825C38.3177 131.825 39.5693 133.093 39.5693 134.615C39.5693 136.137 38.3177 137.321 36.7817 137.321Z"/>
<path d="M37.2368 123.821C35.7008 123.821 34.4493 125.033 34.4493 126.526C34.4493 128.048 35.7008 129.26 37.2368 129.26C38.7728 129.26 39.9959 128.02 39.9959 126.526C39.9959 125.033 38.7728 123.821 37.2368 123.821Z"/>
<path d="M37.7488 119.199C37.7488 117.705 39.0288 116.493 40.5364 116.493C42.0439 116.493 43.3239 117.705 43.3239 119.199C43.3239 120.692 42.0724 121.932 40.5364 121.932C39.0004 121.932 37.7488 120.749 37.7488 119.199Z"/>
<path d="M47.3915 110.885C45.7986 110.885 44.6039 112.096 44.6039 113.59C44.6039 115.112 45.8839 116.352 47.3915 116.352C48.8991 116.352 50.0937 115.084 50.0937 113.59C50.0937 112.096 48.9844 110.885 47.3915 110.885Z"/>
<path d="M52.8813 110.575C52.8813 109.081 54.1044 107.869 55.6404 107.869C57.1764 107.869 58.3711 109.081 58.3711 110.575C58.3711 112.068 57.148 113.365 55.6404 113.365C54.1328 113.365 52.8813 112.096 52.8813 110.575Z"/>
<path d="M64.4866 108.827C62.9506 108.827 61.6991 110.067 61.6991 111.589C61.6991 113.083 62.9791 114.323 64.4866 114.323C65.9942 114.323 67.2458 113.111 67.2458 111.589C67.2458 110.067 66.0226 108.827 64.4866 108.827Z"/>
<path d="M69.8058 113.759C69.8058 112.237 71.0289 111.025 72.5933 111.025C74.1578 111.025 75.3524 112.237 75.3524 113.759C75.3524 115.281 74.1293 116.493 72.5933 116.493C71.0573 116.493 69.8058 115.281 69.8058 113.759Z"/>
<path d="M80.7285 113.703C79.1925 113.703 77.9409 114.971 77.9409 116.493C77.9409 118.015 79.1925 119.199 80.7285 119.199C82.2645 119.199 83.5445 118.043 83.5445 116.493C83.5445 114.943 82.2645 113.703 80.7285 113.703Z"/>
<path d="M156.59 142.732C156.59 144.254 155.338 145.522 153.859 145.522C152.266 145.522 151.043 144.254 151.043 142.732C151.043 141.21 152.266 140.026 153.859 140.026C155.367 140.026 156.59 141.238 156.59 142.732Z"/>
<path d="M156.334 137.321C157.841 137.321 159.093 136.109 159.093 134.615C159.093 133.093 157.898 131.825 156.334 131.825C154.769 131.825 153.546 133.121 153.546 134.615C153.546 136.109 154.826 137.321 156.334 137.321Z"/>
<path d="M155.879 123.821C157.415 123.821 158.666 125.033 158.666 126.526C158.666 128.02 157.443 129.288 155.879 129.288C154.314 129.288 153.12 128.076 153.12 126.526C153.12 124.976 154.343 123.821 155.879 123.821Z"/>
<path d="M152.551 116.493C150.986 116.493 149.763 117.705 149.763 119.199C149.763 120.749 151.043 121.932 152.551 121.932C154.058 121.932 155.281 120.692 155.281 119.199C155.281 117.705 154.115 116.493 152.551 116.493Z"/>
<path d="M142.965 113.59C142.965 112.096 144.188 110.885 145.724 110.885C147.26 110.885 148.512 112.096 148.512 113.59C148.512 115.084 147.232 116.352 145.724 116.352C144.217 116.352 142.965 115.112 142.965 113.59Z"/>
<path d="M137.447 107.869C135.939 107.869 134.688 109.081 134.688 110.575C134.688 112.096 135.911 113.365 137.447 113.365C138.983 113.365 140.234 112.068 140.234 110.575C140.234 109.081 138.954 107.869 137.447 107.869Z"/>
<path d="M125.813 111.589C125.813 110.067 127.093 108.827 128.629 108.827C130.165 108.827 131.417 110.067 131.417 111.589C131.417 113.111 130.165 114.323 128.629 114.323C127.093 114.323 125.813 113.083 125.813 111.589Z"/>
<path d="M120.522 111.025C118.986 111.025 117.763 112.237 117.763 113.759C117.763 115.281 118.986 116.493 120.522 116.493C122.058 116.493 123.338 115.281 123.338 113.759C123.338 112.237 122.058 111.025 120.522 111.025Z"/>
<path d="M109.6 116.493C109.6 114.971 110.823 113.703 112.387 113.703C113.952 113.703 115.146 114.943 115.146 116.493C115.146 118.043 113.895 119.199 112.387 119.199C110.88 119.199 109.6 118.015 109.6 116.493Z"/>
<path d="M143.733 155.752C144.444 151.215 144.16 146.959 142.652 145.099L142.737 145.071L150.645 148.058L136.707 185.317H56.6929L42.755 148.058L50.6342 145.071C49.1551 146.931 48.8706 151.13 49.5817 155.64C50.9186 154.963 52.5968 153.695 53.3648 151.412L56.6644 163.503C54.9577 161.981 52.796 161.812 51.26 161.981C53.308 167.477 56.9204 171.93 61.8129 171.31C68.0422 170.52 69.6351 165.729 69.2084 162.826C68.924 160.854 68.0422 158.007 65.8235 157.303C63.8893 156.739 61.0449 157.5 60.6751 161.107C58.8831 158.74 58.0582 155.781 58.9969 152.68C59.964 149.383 63.548 148.904 65.8235 149.947C62.9791 142.196 66.108 137.321 68.1275 136.024C70.4315 136.785 74.7267 140.703 73.9587 148.904C75.2102 147.128 78.6236 146.396 80.956 149.129C83.0609 151.553 83.004 154.625 81.468 158.233C80.7569 155.414 77.6565 154.766 75.836 155.893C74.0156 157.049 73.6173 159.924 74.1009 162.376C74.5844 165.081 77.4573 168.97 83.26 168.294C88.7214 167.646 91.1676 162.206 91.3951 157.303C89.4325 157.641 87.7258 158.43 86.6165 160.234V147.692C87.6974 149.355 89.3471 150.144 91.3098 150.454C91.0254 147.1 90.2005 143.803 87.4129 141.069V130.275L86.844 129.993C79.6476 126.583 57.6315 116.183 50.0937 124.469C45.4203 129.577 48.3054 138.093 49.7061 142.228L49.724 142.281L46.0831 143.549L46.0664 143.499C44.55 138.964 41.0994 128.643 47.2493 121.904C56.38 111.927 77.9978 121.622 87.3845 126.047V125.258C87.2991 122.242 87.1 119.791 86.4743 118.607H106.784C106.158 119.791 105.959 122.242 105.959 125.258C105.94 125.277 105.934 125.394 105.923 125.586C105.918 125.684 105.911 125.801 105.902 125.934C115.374 121.51 136.793 112.012 145.838 121.904C151.923 128.572 148.582 138.745 147.068 143.353C147.047 143.42 147.025 143.485 147.004 143.549L143.363 142.281L143.412 142.134C144.796 137.964 147.604 129.51 142.993 124.469C135.37 116.183 113.44 126.583 106.272 129.993L105.902 130.19V141.069C103.086 143.859 102.204 147.213 101.948 150.623C103.825 150.257 105.418 149.439 106.528 147.72V160.262C105.418 158.627 103.825 157.866 101.92 157.5C102.176 162.376 104.622 167.674 110.055 168.322C115.801 168.999 118.702 165.109 119.185 162.404C119.669 159.952 119.299 157.049 117.479 155.922C115.658 154.822 112.529 155.471 111.818 158.261C110.282 154.653 110.225 151.581 112.33 149.158C114.663 146.424 118.076 147.128 119.356 148.932C118.617 140.731 122.826 136.813 125.159 136.052C127.235 137.377 130.336 142.253 127.463 149.975C129.767 148.932 133.351 149.411 134.318 152.709C135.228 155.809 134.432 158.796 132.64 161.135C132.27 157.528 129.425 156.767 127.491 157.331C125.244 158.035 124.391 160.882 124.106 162.855C123.708 165.758 125.273 170.549 131.53 171.338C136.423 171.958 140.007 167.505 142.083 162.009C140.462 161.84 138.243 161.953 136.48 163.531L139.808 151.44C140.519 153.836 142.339 155.076 143.733 155.752Z"/>
</mask>
<path d="M86.6165 112.886H107.21V112.773C101.863 110.321 99.9569 105.558 99.8432 102.599C103.399 102.599 104.878 102.599 107.097 105.502V95.891C104.963 98.7376 103.399 98.7376 99.7578 98.7376C99.7578 95.0455 100.924 92.7627 103.313 91.1562H90.5418C93.0449 92.7627 93.7276 95.0455 93.7276 98.7094C90.1436 98.7094 88.5791 98.7094 86.7018 95.891V105.502C88.5507 102.599 90.1436 102.599 93.6138 102.599C93.4716 105.502 92.1916 110.405 86.6165 112.773V112.886Z" fill="#434559"/>
<path d="M36.4973 142.732C36.4973 141.238 37.7488 140.026 39.2848 140.026C40.8493 140.026 42.0724 141.21 42.0724 142.732C42.0724 144.254 40.8208 145.522 39.2848 145.522C37.7488 145.522 36.4973 144.225 36.4973 142.732Z" fill="#434559"/>
<path d="M36.7817 137.321C35.2741 137.321 33.9941 136.109 33.9941 134.615C33.9941 133.121 35.2457 131.825 36.7817 131.825C38.3177 131.825 39.5693 133.093 39.5693 134.615C39.5693 136.137 38.3177 137.321 36.7817 137.321Z" fill="#434559"/>
<path d="M37.2368 123.821C35.7008 123.821 34.4493 125.033 34.4493 126.526C34.4493 128.048 35.7008 129.26 37.2368 129.26C38.7728 129.26 39.9959 128.02 39.9959 126.526C39.9959 125.033 38.7728 123.821 37.2368 123.821Z" fill="#434559"/>
<path d="M37.7488 119.199C37.7488 117.705 39.0288 116.493 40.5364 116.493C42.0439 116.493 43.3239 117.705 43.3239 119.199C43.3239 120.692 42.0724 121.932 40.5364 121.932C39.0004 121.932 37.7488 120.749 37.7488 119.199Z" fill="#434559"/>
<path d="M47.3915 110.885C45.7986 110.885 44.6039 112.096 44.6039 113.59C44.6039 115.112 45.8839 116.352 47.3915 116.352C48.8991 116.352 50.0937 115.084 50.0937 113.59C50.0937 112.096 48.9844 110.885 47.3915 110.885Z" fill="#434559"/>
<path d="M52.8813 110.575C52.8813 109.081 54.1044 107.869 55.6404 107.869C57.1764 107.869 58.3711 109.081 58.3711 110.575C58.3711 112.068 57.148 113.365 55.6404 113.365C54.1328 113.365 52.8813 112.096 52.8813 110.575Z" fill="#434559"/>
<path d="M64.4866 108.827C62.9506 108.827 61.6991 110.067 61.6991 111.589C61.6991 113.083 62.9791 114.323 64.4866 114.323C65.9942 114.323 67.2458 113.111 67.2458 111.589C67.2458 110.067 66.0226 108.827 64.4866 108.827Z" fill="#434559"/>
<path d="M69.8058 113.759C69.8058 112.237 71.0289 111.025 72.5933 111.025C74.1578 111.025 75.3524 112.237 75.3524 113.759C75.3524 115.281 74.1293 116.493 72.5933 116.493C71.0573 116.493 69.8058 115.281 69.8058 113.759Z" fill="#434559"/>
<path d="M80.7285 113.703C79.1925 113.703 77.9409 114.971 77.9409 116.493C77.9409 118.015 79.1925 119.199 80.7285 119.199C82.2645 119.199 83.5445 118.043 83.5445 116.493C83.5445 114.943 82.2645 113.703 80.7285 113.703Z" fill="#434559"/>
<path d="M156.59 142.732C156.59 144.254 155.338 145.522 153.859 145.522C152.266 145.522 151.043 144.254 151.043 142.732C151.043 141.21 152.266 140.026 153.859 140.026C155.367 140.026 156.59 141.238 156.59 142.732Z" fill="#434559"/>
<path d="M156.334 137.321C157.841 137.321 159.093 136.109 159.093 134.615C159.093 133.093 157.898 131.825 156.334 131.825C154.769 131.825 153.546 133.121 153.546 134.615C153.546 136.109 154.826 137.321 156.334 137.321Z" fill="#434559"/>
<path d="M155.879 123.821C157.415 123.821 158.666 125.033 158.666 126.526C158.666 128.02 157.443 129.288 155.879 129.288C154.314 129.288 153.12 128.076 153.12 126.526C153.12 124.976 154.343 123.821 155.879 123.821Z" fill="#434559"/>
<path d="M152.551 116.493C150.986 116.493 149.763 117.705 149.763 119.199C149.763 120.749 151.043 121.932 152.551 121.932C154.058 121.932 155.281 120.692 155.281 119.199C155.281 117.705 154.115 116.493 152.551 116.493Z" fill="#434559"/>
<path d="M142.965 113.59C142.965 112.096 144.188 110.885 145.724 110.885C147.26 110.885 148.512 112.096 148.512 113.59C148.512 115.084 147.232 116.352 145.724 116.352C144.217 116.352 142.965 115.112 142.965 113.59Z" fill="#434559"/>
<path d="M137.447 107.869C135.939 107.869 134.688 109.081 134.688 110.575C134.688 112.096 135.911 113.365 137.447 113.365C138.983 113.365 140.234 112.068 140.234 110.575C140.234 109.081 138.954 107.869 137.447 107.869Z" fill="#434559"/>
<path d="M125.813 111.589C125.813 110.067 127.093 108.827 128.629 108.827C130.165 108.827 131.417 110.067 131.417 111.589C131.417 113.111 130.165 114.323 128.629 114.323C127.093 114.323 125.813 113.083 125.813 111.589Z" fill="#434559"/>
<path d="M120.522 111.025C118.986 111.025 117.763 112.237 117.763 113.759C117.763 115.281 118.986 116.493 120.522 116.493C122.058 116.493 123.338 115.281 123.338 113.759C123.338 112.237 122.058 111.025 120.522 111.025Z" fill="#434559"/>
<path d="M109.6 116.493C109.6 114.971 110.823 113.703 112.387 113.703C113.952 113.703 115.146 114.943 115.146 116.493C115.146 118.043 113.895 119.199 112.387 119.199C110.88 119.199 109.6 118.015 109.6 116.493Z" fill="#434559"/>
<path d="M143.733 155.752C144.444 151.215 144.16 146.959 142.652 145.099L142.737 145.071L150.645 148.058L136.707 185.317H56.6929L42.755 148.058L50.6342 145.071C49.1551 146.931 48.8706 151.13 49.5817 155.64C50.9186 154.963 52.5968 153.695 53.3648 151.412L56.6644 163.503C54.9577 161.981 52.796 161.812 51.26 161.981C53.308 167.477 56.9204 171.93 61.8129 171.31C68.0422 170.52 69.6351 165.729 69.2084 162.826C68.924 160.854 68.0422 158.007 65.8235 157.303C63.8893 156.739 61.0449 157.5 60.6751 161.107C58.8831 158.74 58.0582 155.781 58.9969 152.68C59.964 149.383 63.548 148.904 65.8235 149.947C62.9791 142.196 66.108 137.321 68.1275 136.024C70.4315 136.785 74.7267 140.703 73.9587 148.904C75.2102 147.128 78.6236 146.396 80.956 149.129C83.0609 151.553 83.004 154.625 81.468 158.233C80.7569 155.414 77.6565 154.766 75.836 155.893C74.0156 157.049 73.6173 159.924 74.1009 162.376C74.5844 165.081 77.4573 168.97 83.26 168.294C88.7214 167.646 91.1676 162.206 91.3951 157.303C89.4325 157.641 87.7258 158.43 86.6165 160.234V147.692C87.6974 149.355 89.3471 150.144 91.3098 150.454C91.0254 147.1 90.2005 143.803 87.4129 141.069V130.275L86.844 129.993C79.6476 126.583 57.6315 116.183 50.0937 124.469C45.4203 129.577 48.3054 138.093 49.7061 142.228L49.724 142.281L46.0831 143.549L46.0664 143.499C44.55 138.964 41.0994 128.643 47.2493 121.904C56.38 111.927 77.9978 121.622 87.3845 126.047V125.258C87.2991 122.242 87.1 119.791 86.4743 118.607H106.784C106.158 119.791 105.959 122.242 105.959 125.258C105.94 125.277 105.934 125.394 105.923 125.586C105.918 125.684 105.911 125.801 105.902 125.934C115.374 121.51 136.793 112.012 145.838 121.904C151.923 128.572 148.582 138.745 147.068 143.353C147.047 143.42 147.025 143.485 147.004 143.549L143.363 142.281L143.412 142.134C144.796 137.964 147.604 129.51 142.993 124.469C135.37 116.183 113.44 126.583 106.272 129.993L105.902 130.19V141.069C103.086 143.859 102.204 147.213 101.948 150.623C103.825 150.257 105.418 149.439 106.528 147.72V160.262C105.418 158.627 103.825 157.866 101.92 157.5C102.176 162.376 104.622 167.674 110.055 168.322C115.801 168.999 118.702 165.109 119.185 162.404C119.669 159.952 119.299 157.049 117.479 155.922C115.658 154.822 112.529 155.471 111.818 158.261C110.282 154.653 110.225 151.581 112.33 149.158C114.663 146.424 118.076 147.128 119.356 148.932C118.617 140.731 122.826 136.813 125.159 136.052C127.235 137.377 130.336 142.253 127.463 149.975C129.767 148.932 133.351 149.411 134.318 152.709C135.228 155.809 134.432 158.796 132.64 161.135C132.27 157.528 129.425 156.767 127.491 157.331C125.244 158.035 124.391 160.882 124.106 162.855C123.708 165.758 125.273 170.549 131.53 171.338C136.423 171.958 140.007 167.505 142.083 162.009C140.462 161.84 138.243 161.953 136.48 163.531L139.808 151.44C140.519 153.836 142.339 155.076 143.733 155.752Z" fill="#434559"/>
<path d="M86.6165 112.886H107.21V112.773C101.863 110.321 99.9569 105.558 99.8432 102.599C103.399 102.599 104.878 102.599 107.097 105.502V95.891C104.963 98.7376 103.399 98.7376 99.7578 98.7376C99.7578 95.0455 100.924 92.7627 103.313 91.1562H90.5418C93.0449 92.7627 93.7276 95.0455 93.7276 98.7094C90.1436 98.7094 88.5791 98.7094 86.7018 95.891V105.502C88.5507 102.599 90.1436 102.599 93.6138 102.599C93.4716 105.502 92.1916 110.405 86.6165 112.773V112.886Z" stroke="black" stroke-width="1.23967" stroke-linejoin="round" mask="url(#path-20-outside-1_1203_85191)"/>
<path d="M36.4973 142.732C36.4973 141.238 37.7488 140.026 39.2848 140.026C40.8493 140.026 42.0724 141.21 42.0724 142.732C42.0724 144.254 40.8208 145.522 39.2848 145.522C37.7488 145.522 36.4973 144.225 36.4973 142.732Z" stroke="black" stroke-width="1.23967" stroke-linejoin="round" mask="url(#path-20-outside-1_1203_85191)"/>
<path d="M36.7817 137.321C35.2741 137.321 33.9941 136.109 33.9941 134.615C33.9941 133.121 35.2457 131.825 36.7817 131.825C38.3177 131.825 39.5693 133.093 39.5693 134.615C39.5693 136.137 38.3177 137.321 36.7817 137.321Z" stroke="black" stroke-width="1.23967" stroke-linejoin="round" mask="url(#path-20-outside-1_1203_85191)"/>
<path d="M37.2368 123.821C35.7008 123.821 34.4493 125.033 34.4493 126.526C34.4493 128.048 35.7008 129.26 37.2368 129.26C38.7728 129.26 39.9959 128.02 39.9959 126.526C39.9959 125.033 38.7728 123.821 37.2368 123.821Z" stroke="black" stroke-width="1.23967" stroke-linejoin="round" mask="url(#path-20-outside-1_1203_85191)"/>
<path d="M37.7488 119.199C37.7488 117.705 39.0288 116.493 40.5364 116.493C42.0439 116.493 43.3239 117.705 43.3239 119.199C43.3239 120.692 42.0724 121.932 40.5364 121.932C39.0004 121.932 37.7488 120.749 37.7488 119.199Z" stroke="black" stroke-width="1.23967" stroke-linejoin="round" mask="url(#path-20-outside-1_1203_85191)"/>
<path d="M47.3915 110.885C45.7986 110.885 44.6039 112.096 44.6039 113.59C44.6039 115.112 45.8839 116.352 47.3915 116.352C48.8991 116.352 50.0937 115.084 50.0937 113.59C50.0937 112.096 48.9844 110.885 47.3915 110.885Z" stroke="black" stroke-width="1.23967" stroke-linejoin="round" mask="url(#path-20-outside-1_1203_85191)"/>
<path d="M52.8813 110.575C52.8813 109.081 54.1044 107.869 55.6404 107.869C57.1764 107.869 58.3711 109.081 58.3711 110.575C58.3711 112.068 57.148 113.365 55.6404 113.365C54.1328 113.365 52.8813 112.096 52.8813 110.575Z" stroke="black" stroke-width="1.23967" stroke-linejoin="round" mask="url(#path-20-outside-1_1203_85191)"/>
<path d="M64.4866 108.827C62.9506 108.827 61.6991 110.067 61.6991 111.589C61.6991 113.083 62.9791 114.323 64.4866 114.323C65.9942 114.323 67.2458 113.111 67.2458 111.589C67.2458 110.067 66.0226 108.827 64.4866 108.827Z" stroke="black" stroke-width="1.23967" stroke-linejoin="round" mask="url(#path-20-outside-1_1203_85191)"/>
<path d="M69.8058 113.759C69.8058 112.237 71.0289 111.025 72.5933 111.025C74.1578 111.025 75.3524 112.237 75.3524 113.759C75.3524 115.281 74.1293 116.493 72.5933 116.493C71.0573 116.493 69.8058 115.281 69.8058 113.759Z" stroke="black" stroke-width="1.23967" stroke-linejoin="round" mask="url(#path-20-outside-1_1203_85191)"/>
<path d="M80.7285 113.703C79.1925 113.703 77.9409 114.971 77.9409 116.493C77.9409 118.015 79.1925 119.199 80.7285 119.199C82.2645 119.199 83.5445 118.043 83.5445 116.493C83.5445 114.943 82.2645 113.703 80.7285 113.703Z" stroke="black" stroke-width="1.23967" stroke-linejoin="round" mask="url(#path-20-outside-1_1203_85191)"/>
<path d="M156.59 142.732C156.59 144.254 155.338 145.522 153.859 145.522C152.266 145.522 151.043 144.254 151.043 142.732C151.043 141.21 152.266 140.026 153.859 140.026C155.367 140.026 156.59 141.238 156.59 142.732Z" stroke="black" stroke-width="1.23967" stroke-linejoin="round" mask="url(#path-20-outside-1_1203_85191)"/>
<path d="M156.334 137.321C157.841 137.321 159.093 136.109 159.093 134.615C159.093 133.093 157.898 131.825 156.334 131.825C154.769 131.825 153.546 133.121 153.546 134.615C153.546 136.109 154.826 137.321 156.334 137.321Z" stroke="black" stroke-width="1.23967" stroke-linejoin="round" mask="url(#path-20-outside-1_1203_85191)"/>
<path d="M155.879 123.821C157.415 123.821 158.666 125.033 158.666 126.526C158.666 128.02 157.443 129.288 155.879 129.288C154.314 129.288 153.12 128.076 153.12 126.526C153.12 124.976 154.343 123.821 155.879 123.821Z" stroke="black" stroke-width="1.23967" stroke-linejoin="round" mask="url(#path-20-outside-1_1203_85191)"/>
<path d="M152.551 116.493C150.986 116.493 149.763 117.705 149.763 119.199C149.763 120.749 151.043 121.932 152.551 121.932C154.058 121.932 155.281 120.692 155.281 119.199C155.281 117.705 154.115 116.493 152.551 116.493Z" stroke="black" stroke-width="1.23967" stroke-linejoin="round" mask="url(#path-20-outside-1_1203_85191)"/>
<path d="M142.965 113.59C142.965 112.096 144.188 110.885 145.724 110.885C147.26 110.885 148.512 112.096 148.512 113.59C148.512 115.084 147.232 116.352 145.724 116.352C144.217 116.352 142.965 115.112 142.965 113.59Z" stroke="black" stroke-width="1.23967" stroke-linejoin="round" mask="url(#path-20-outside-1_1203_85191)"/>
<path d="M137.447 107.869C135.939 107.869 134.688 109.081 134.688 110.575C134.688 112.096 135.911 113.365 137.447 113.365C138.983 113.365 140.234 112.068 140.234 110.575C140.234 109.081 138.954 107.869 137.447 107.869Z" stroke="black" stroke-width="1.23967" stroke-linejoin="round" mask="url(#path-20-outside-1_1203_85191)"/>
<path d="M125.813 111.589C125.813 110.067 127.093 108.827 128.629 108.827C130.165 108.827 131.417 110.067 131.417 111.589C131.417 113.111 130.165 114.323 128.629 114.323C127.093 114.323 125.813 113.083 125.813 111.589Z" stroke="black" stroke-width="1.23967" stroke-linejoin="round" mask="url(#path-20-outside-1_1203_85191)"/>
<path d="M120.522 111.025C118.986 111.025 117.763 112.237 117.763 113.759C117.763 115.281 118.986 116.493 120.522 116.493C122.058 116.493 123.338 115.281 123.338 113.759C123.338 112.237 122.058 111.025 120.522 111.025Z" stroke="black" stroke-width="1.23967" stroke-linejoin="round" mask="url(#path-20-outside-1_1203_85191)"/>
<path d="M109.6 116.493C109.6 114.971 110.823 113.703 112.387 113.703C113.952 113.703 115.146 114.943 115.146 116.493C115.146 118.043 113.895 119.199 112.387 119.199C110.88 119.199 109.6 118.015 109.6 116.493Z" stroke="black" stroke-width="1.23967" stroke-linejoin="round" mask="url(#path-20-outside-1_1203_85191)"/>
<path d="M143.733 155.752C144.444 151.215 144.16 146.959 142.652 145.099L142.737 145.071L150.645 148.058L136.707 185.317H56.6929L42.755 148.058L50.6342 145.071C49.1551 146.931 48.8706 151.13 49.5817 155.64C50.9186 154.963 52.5968 153.695 53.3648 151.412L56.6644 163.503C54.9577 161.981 52.796 161.812 51.26 161.981C53.308 167.477 56.9204 171.93 61.8129 171.31C68.0422 170.52 69.6351 165.729 69.2084 162.826C68.924 160.854 68.0422 158.007 65.8235 157.303C63.8893 156.739 61.0449 157.5 60.6751 161.107C58.8831 158.74 58.0582 155.781 58.9969 152.68C59.964 149.383 63.548 148.904 65.8235 149.947C62.9791 142.196 66.108 137.321 68.1275 136.024C70.4315 136.785 74.7267 140.703 73.9587 148.904C75.2102 147.128 78.6236 146.396 80.956 149.129C83.0609 151.553 83.004 154.625 81.468 158.233C80.7569 155.414 77.6565 154.766 75.836 155.893C74.0156 157.049 73.6173 159.924 74.1009 162.376C74.5844 165.081 77.4573 168.97 83.26 168.294C88.7214 167.646 91.1676 162.206 91.3951 157.303C89.4325 157.641 87.7258 158.43 86.6165 160.234V147.692C87.6974 149.355 89.3471 150.144 91.3098 150.454C91.0254 147.1 90.2005 143.803 87.4129 141.069V130.275L86.844 129.993C79.6476 126.583 57.6315 116.183 50.0937 124.469C45.4203 129.577 48.3054 138.093 49.7061 142.228L49.724 142.281L46.0831 143.549L46.0664 143.499C44.55 138.964 41.0994 128.643 47.2493 121.904C56.38 111.927 77.9978 121.622 87.3845 126.047V125.258C87.2991 122.242 87.1 119.791 86.4743 118.607H106.784C106.158 119.791 105.959 122.242 105.959 125.258C105.94 125.277 105.934 125.394 105.923 125.586C105.918 125.684 105.911 125.801 105.902 125.934C115.374 121.51 136.793 112.012 145.838 121.904C151.923 128.572 148.582 138.745 147.068 143.353C147.047 143.42 147.025 143.485 147.004 143.549L143.363 142.281L143.412 142.134C144.796 137.964 147.604 129.51 142.993 124.469C135.37 116.183 113.44 126.583 106.272 129.993L105.902 130.19V141.069C103.086 143.859 102.204 147.213 101.948 150.623C103.825 150.257 105.418 149.439 106.528 147.72V160.262C105.418 158.627 103.825 157.866 101.92 157.5C102.176 162.376 104.622 167.674 110.055 168.322C115.801 168.999 118.702 165.109 119.185 162.404C119.669 159.952 119.299 157.049 117.479 155.922C115.658 154.822 112.529 155.471 111.818 158.261C110.282 154.653 110.225 151.581 112.33 149.158C114.663 146.424 118.076 147.128 119.356 148.932C118.617 140.731 122.826 136.813 125.159 136.052C127.235 137.377 130.336 142.253 127.463 149.975C129.767 148.932 133.351 149.411 134.318 152.709C135.228 155.809 134.432 158.796 132.64 161.135C132.27 157.528 129.425 156.767 127.491 157.331C125.244 158.035 124.391 160.882 124.106 162.855C123.708 165.758 125.273 170.549 131.53 171.338C136.423 171.958 140.007 167.505 142.083 162.009C140.462 161.84 138.243 161.953 136.48 163.531L139.808 151.44C140.519 153.836 142.339 155.076 143.733 155.752Z" stroke="black" stroke-width="1.23967" stroke-linejoin="round" mask="url(#path-20-outside-1_1203_85191)"/>
</g>
</g>
<defs>
<filter id="filter0_d_1203_85191" x="33.374" y="90.5352" width="128.818" height="95.4023" filterUnits="userSpaceOnUse" color-interpolation-filters="sRGB">
<feFlood flood-opacity="0" result="BackgroundImageFix"/>
<feColorMatrix in="SourceAlpha" type="matrix" values="0 0 0 0 0 0 0 0 0 0 0 0 0 0 0 0 0 0 127 0" result="hardAlpha"/>
<feOffset dx="2.47934"/>
<feComposite in2="hardAlpha" operator="out"/>
<feColorMatrix type="matrix" values="0 0 0 0 0.813916 0 0 0 0 0.813916 0 0 0 0 0.813916 0 0 0 1 0"/>
<feBlend mode="normal" in2="BackgroundImageFix" result="effect1_dropShadow_1203_85191"/>
<feBlend mode="normal" in="SourceGraphic" in2="effect1_dropShadow_1203_85191" result="shape"/>
</filter>
<clipPath id="clip0_1203_85191">
<rect width="300" height="185.95" fill="white"/>
</clipPath>
</defs>
</svg>
