<svg width="288" height="169" viewBox="0 0 288 169" fill="none" xmlns="http://www.w3.org/2000/svg">
<path d="M240.36 168.586H47.7853C5.29879 168.586 -15.9805 116.964 14.0651 86.7742L64.7375 35.852C108.385 -8.01055 179.408 -8.01055 223.059 35.852L273.98 87.0236C303.93 117.121 282.718 168.586 240.364 168.586" fill="#AB7BC2" fill-opacity="0.4"/>
<path d="M44.1604 168.584H164.58C191.147 168.584 204.455 136.339 185.668 117.484L153.982 85.6746C126.689 58.2777 82.2769 58.2777 54.9805 85.6746L23.137 117.639C4.40816 136.439 17.6707 168.584 44.1572 168.584" fill="#AB7BC2" fill-opacity="0.2"/>
<path d="M139.759 36.8447V52.46C139.759 74.4519 123.308 89.0938 108.523 93.6895C108.23 93.7806 107.934 93.8623 107.636 93.9355C106.712 94.1627 106.082 94.545 105.683 95.0078C105.282 95.4722 105.137 95.9908 105.137 96.4443C105.137 96.9035 105.28 97.4337 105.677 97.9082C106.074 98.3824 106.701 98.7742 107.622 99.001C108.025 99.1002 108.424 99.213 108.818 99.3418C124.332 104.404 139.759 118.488 139.759 140.43V156.045H60.6963V140.43C60.6963 118.438 77.1472 103.796 91.9316 99.2002C92.2252 99.109 92.5212 99.0264 92.8193 98.9531C94.5241 98.5339 95.3184 97.4069 95.3184 96.4443C95.3183 95.9851 95.1755 95.4549 94.7783 94.9805C94.3814 94.5063 93.7538 94.1155 92.833 93.8887C92.4304 93.7895 92.0313 93.6767 91.6367 93.5479C76.1229 88.4861 60.6964 74.4014 60.6963 52.46V36.8447H139.759Z" fill="#6FD8D8" stroke="black" stroke-width="0.786561"/>
<path fill-rule="evenodd" clip-rule="evenodd" d="M64.9824 36.4512H135.475V54.0059C135.475 73.4376 121.076 86.4149 108.014 90.6286C107.085 90.9284 106.779 91.1085 105.843 91.4712C103.504 92.3778 102.1 94.4042 102.1 96.4447C102.1 98.9769 102.88 100.641 105.063 102.04C106.311 102.662 106.945 102.875 108.315 103.337C121.979 107.949 135.475 120.44 135.475 139.816V156.438H64.9824V139.816C64.9824 120.384 79.3809 107.407 92.4431 103.193C93.7055 102.786 94.3676 102.503 95.2379 102.04C97.5772 100.797 98.357 98.9605 98.357 96.4447C98.357 94.3863 96.9534 92.4925 94.926 91.6266C93.8343 91.1603 93.1793 90.8346 92.1422 90.4846C78.4776 85.873 64.9824 73.3824 64.9824 54.0059V36.4512Z" fill="#D1EAEA"/>
<path fill-rule="evenodd" clip-rule="evenodd" d="M92.1407 90.4838C78.8097 85.9849 65.6401 73.9869 65.0049 55.4121H135.448C134.773 74.0632 120.757 86.5167 108.012 90.6279C107.423 90.8181 107.084 90.9602 106.676 91.1314C106.441 91.2298 106.183 91.3379 105.841 91.4704C103.502 92.3771 102.098 94.4034 102.098 96.444C102.098 96.5491 102.103 96.5994 102.103 96.7548C102.103 101.262 100.227 101.262 100.227 101.262C100.227 101.262 98.3514 100.796 98.3514 96.7548C98.3514 96.5994 98.3555 96.5994 98.3555 96.444C98.3555 94.3855 96.9519 92.4918 94.9245 91.6258C94.6369 91.503 94.3796 91.3899 94.1377 91.2836C93.4612 90.9863 92.9046 90.7416 92.1407 90.4838Z" fill="#C82A87"/>
<path d="M100.384 147.578C115.98 147.578 135.475 156.437 135.475 156.437H64.9824C64.9824 156.437 84.7888 147.578 100.384 147.578Z" fill="#C82A87"/>
<path opacity="0.5" d="M129.547 36.7617H120.375C120.843 41.7871 121.406 53.2055 121.282 58.6765C121.126 65.5151 118.659 72.9754 117.412 76.861C116.164 80.7466 116.476 81.2129 120.375 76.861C124.274 72.5092 130.044 62.5621 130.044 54.3246C130.044 47.7346 129.547 40.2847 129.547 36.7617Z" fill="white"/>
<path opacity="0.5" d="M129.547 156.42H120.375C120.843 151.395 121.406 139.976 121.282 134.505C121.126 127.667 118.659 120.206 117.412 116.321C116.164 112.435 116.476 111.969 120.375 116.321C124.274 120.672 130.044 130.62 130.044 138.857C130.044 145.447 129.547 152.897 129.547 156.42Z" fill="white"/>
<rect x="54.6067" y="24.8665" width="91.241" height="11.9771" rx="5.8614" fill="#384A9C" stroke="black" stroke-width="0.786561"/>
<rect x="54.6067" y="156.044" width="91.241" height="11.9771" rx="5.8614" fill="#384A9C" stroke="black" stroke-width="0.786561"/>
<path d="M228.161 148.083H228.172C233.66 148.055 238.308 152.561 238.28 158.251V158.254C238.28 163.439 234.078 168.392 228.083 168.364H228.081C222.336 168.364 217.943 163.751 217.97 158.199C218.026 152.14 223.012 147.999 228.161 148.083Z" fill="#FD950E" stroke="black"/>
<path d="M231.414 148.083H231.425C236.913 148.055 241.561 152.561 241.533 158.251V158.254C241.533 163.439 237.331 168.392 231.336 168.364H231.334C225.589 168.364 221.196 163.751 221.223 158.199C221.279 152.14 226.265 147.999 231.414 148.083Z" fill="#FEC33B" stroke="black"/>
<path d="M206.82 148.083H206.831C212.319 148.055 216.968 152.561 216.939 158.251V158.254C216.939 163.439 212.737 168.392 206.742 168.364H206.74C200.995 168.364 196.602 163.751 196.629 158.199C196.685 152.14 201.671 147.999 206.82 148.083Z" fill="#FD950E" stroke="black"/>
<path d="M210.073 148.083H210.084C215.572 148.055 220.22 152.561 220.192 158.251V158.254C220.192 163.439 215.99 168.392 209.995 168.364H209.993C204.248 168.364 199.855 163.751 199.882 158.199C199.938 152.14 204.924 147.999 210.073 148.083Z" fill="#FEC33B" stroke="black"/>
<path d="M185.414 147.888H185.425C190.965 147.859 195.658 152.408 195.63 158.152V158.155C195.63 163.39 191.387 168.391 185.335 168.362H185.333C179.533 168.362 175.098 163.705 175.125 158.101C175.182 151.983 180.216 147.802 185.414 147.888Z" fill="#FD950E" stroke="black"/>
<path d="M188.697 147.888H188.708C194.248 147.859 198.941 152.408 198.913 158.152V158.155C198.913 163.39 194.67 168.391 188.618 168.362H188.616C182.816 168.362 178.381 163.705 178.408 158.101C178.465 151.983 183.499 147.802 188.697 147.888Z" fill="#FEC33B" stroke="black"/>
<path d="M164.003 148.083H164.014C169.502 148.055 174.15 152.561 174.122 158.251V158.254C174.122 163.439 169.92 168.392 163.925 168.364H163.923C158.178 168.364 153.785 163.751 153.812 158.199C153.868 152.14 158.854 147.999 164.003 148.083Z" fill="#FD950E" stroke="black"/>
<path d="M167.256 148.083H167.267C172.755 148.055 177.403 152.561 177.375 158.251V158.254C177.375 163.439 173.173 168.392 167.178 168.364H167.176C161.431 168.364 157.037 163.751 157.064 158.199C157.121 152.14 162.107 147.999 167.256 148.083Z" fill="#FEC33B" stroke="black"/>
<path d="M142.691 148.083H142.702C148.19 148.055 152.839 152.561 152.811 158.251V158.254C152.81 163.439 148.608 168.392 142.613 168.364H142.611C136.866 168.364 132.473 163.751 132.5 158.199C132.556 152.14 137.542 147.999 142.691 148.083Z" fill="#FD950E" stroke="black"/>
<path d="M145.944 148.083H145.955C151.443 148.055 156.092 152.561 156.063 158.251V158.254C156.063 163.439 151.861 168.392 145.866 168.364H145.864C140.119 168.364 135.726 163.751 135.753 158.199C135.809 152.14 140.795 147.999 145.944 148.083Z" fill="#FEC33B" stroke="black"/>
<path d="M219.187 129.354H219.197C224.685 129.326 229.334 133.833 229.306 139.522V139.525C229.305 144.711 225.103 149.664 219.108 149.636H219.106C213.361 149.636 208.968 145.022 208.995 139.471C209.051 133.411 214.037 129.27 219.187 129.354Z" fill="#FD950E" stroke="black"/>
<path d="M222.439 129.354H222.45C227.938 129.326 232.587 133.833 232.559 139.522V139.525C232.558 144.711 228.356 149.664 222.361 149.636H222.359C216.614 149.636 212.221 145.022 212.248 139.471C212.304 133.411 217.29 129.27 222.439 129.354Z" fill="#FEC33B" stroke="black"/>
<path d="M197.778 129.161H197.789C203.329 129.133 208.022 133.682 207.994 139.426V139.429C207.994 144.664 203.751 149.664 197.699 149.636H197.697C191.897 149.636 187.462 144.978 187.489 139.374C187.546 133.257 192.58 129.076 197.778 129.161Z" fill="#FD950E" stroke="black"/>
<path d="M201.062 129.161H201.072C206.613 129.133 211.306 133.682 211.277 139.426V139.429C211.277 144.664 207.035 149.664 200.982 149.636H200.98C195.181 149.636 190.745 144.978 190.772 139.374C190.829 133.257 195.863 129.076 201.062 129.161Z" fill="#FEC33B" stroke="black"/>
<path d="M176.367 129.354H176.378C181.866 129.326 186.514 133.833 186.486 139.522V139.525C186.486 144.711 182.284 149.664 176.289 149.636H176.287C170.542 149.636 166.149 145.022 166.176 139.471C166.232 133.411 171.218 129.27 176.367 129.354Z" fill="#FD950E" stroke="black"/>
<path d="M179.62 129.354H179.631C185.119 129.326 189.767 133.833 189.739 139.522V139.525C189.739 144.711 185.537 149.664 179.542 149.636H179.54C173.795 149.636 169.402 145.022 169.429 139.471C169.485 133.411 174.471 129.27 179.62 129.354Z" fill="#FEC33B" stroke="black"/>
<path d="M155.058 129.354H155.068C160.557 129.326 165.205 133.833 165.177 139.522V139.525C165.177 144.711 160.974 149.664 154.979 149.636H154.978C149.232 149.636 144.839 145.022 144.866 139.471C144.923 133.411 149.908 129.27 155.058 129.354Z" fill="#FD950E" stroke="black"/>
<path d="M158.311 129.354H158.321C163.809 129.326 168.458 133.833 168.43 139.522V139.525C168.43 144.711 164.227 149.664 158.232 149.636H158.23C152.485 149.636 148.092 145.022 148.119 139.471C148.176 133.411 153.161 129.27 158.311 129.354Z" fill="#FEC33B" stroke="black"/>
<path d="M210.092 110.597H210.103C215.643 110.568 220.336 115.117 220.308 120.861V120.864C220.308 126.099 216.065 131.1 210.013 131.071H210.011C204.211 131.071 199.776 126.414 199.803 120.81C199.86 114.692 204.893 110.511 210.092 110.597Z" fill="#FD950E" stroke="black"/>
<path d="M213.375 110.597H213.386C218.926 110.568 223.619 115.117 223.591 120.861V120.864C223.591 126.099 219.348 131.1 213.296 131.071H213.294C207.494 131.071 203.059 126.414 203.086 120.81C203.143 114.692 208.176 110.511 213.375 110.597Z" fill="#FEC33B" stroke="black"/>
<path d="M188.681 110.79H188.691C194.18 110.762 198.828 115.268 198.8 120.958V120.961C198.8 126.147 194.597 131.099 188.603 131.071H188.601C182.855 131.071 178.462 126.458 178.489 120.906C178.546 114.847 183.531 110.706 188.681 110.79Z" fill="#FD950E" stroke="black"/>
<path d="M191.934 110.79H191.944C197.433 110.762 202.081 115.268 202.053 120.958V120.961C202.053 126.147 197.85 131.099 191.855 131.071H191.854C186.108 131.071 181.715 126.458 181.742 120.906C181.799 114.847 186.784 110.706 191.934 110.79Z" fill="#FEC33B" stroke="black"/>
<path d="M167.368 110.79H167.379C172.867 110.762 177.515 115.268 177.487 120.958V120.961C177.487 126.147 173.285 131.099 167.29 131.071H167.288C161.543 131.071 157.15 126.458 157.177 120.906C157.233 114.847 162.219 110.706 167.368 110.79Z" fill="#FD950E" stroke="black"/>
<path d="M170.621 110.79H170.632C176.12 110.762 180.768 115.268 180.74 120.958V120.961C180.74 126.147 176.538 131.099 170.543 131.071H170.541C164.796 131.071 160.403 126.458 160.43 120.906C160.486 114.847 165.472 110.706 170.621 110.79Z" fill="#FEC33B" stroke="black"/>
<path d="M200.934 92.3096H200.944C206.433 92.2814 211.081 96.7877 211.053 102.478V102.48C211.053 107.666 206.85 112.619 200.855 112.591H200.854C195.108 112.591 190.715 107.977 190.742 102.426C190.799 96.3661 195.784 92.2253 200.934 92.3096Z" fill="#FD950E" stroke="black"/>
<path d="M204.187 92.3096H204.197C209.685 92.2814 214.334 96.7877 214.306 102.478V102.48C214.305 107.666 210.103 112.619 204.108 112.591H204.106C198.361 112.591 193.968 107.977 193.995 102.426C194.051 96.3661 199.037 92.2253 204.187 92.3096Z" fill="#FEC33B" stroke="black"/>
<path d="M179.62 92.3096H179.631C185.119 92.2814 189.767 96.7877 189.739 102.478V102.48C189.739 107.666 185.537 112.619 179.542 112.591H179.54C173.795 112.591 169.402 107.977 169.429 102.426C169.485 96.3661 174.471 92.2253 179.62 92.3096Z" fill="#FD950E" stroke="black"/>
<path d="M182.873 92.3096H182.884C188.372 92.2814 193.02 96.7877 192.992 102.478V102.48C192.992 107.666 188.79 112.619 182.795 112.591H182.793C177.048 112.591 172.655 107.977 172.682 102.426C172.738 96.3661 177.724 92.2253 182.873 92.3096Z" fill="#FEC33B" stroke="black"/>
<path d="M191.934 73.501H191.944C197.433 73.4728 202.081 77.9792 202.053 83.6689V83.6719C202.053 88.8574 197.85 93.8104 191.855 93.7822H191.854C186.108 93.7822 181.715 89.1686 181.742 83.6172C181.799 77.5575 186.784 73.4167 191.934 73.501Z" fill="#FD950E" stroke="black"/>
<path d="M195.187 73.501H195.197C200.685 73.4728 205.334 77.9792 205.306 83.6689V83.6719C205.305 88.8574 201.103 93.8104 195.108 93.7822H195.106C189.361 93.7822 184.968 89.1686 184.995 83.6172C185.051 77.5575 190.037 73.4167 195.187 73.501Z" fill="#FEC33B" stroke="black"/>
<path d="M254.97 147.23H254.979C260.629 147.201 265.413 151.839 265.384 157.695V157.698C265.384 163.035 261.059 168.134 254.889 168.105H254.886C248.972 168.105 244.451 163.355 244.479 157.642C244.538 151.405 249.669 147.144 254.97 147.23Z" fill="#FD950E" stroke="black" stroke-width="0.95794"/>
<path d="M258.308 147.23H258.317C263.966 147.201 268.75 151.839 268.722 157.695V157.698C268.722 163.035 264.397 168.134 258.227 168.105H258.224C252.31 168.105 247.789 163.355 247.817 157.642C247.876 151.405 253.007 147.144 258.308 147.23Z" fill="#FEC33B" stroke="black" stroke-width="0.95794"/>
<path d="M51.9697 147.23H51.9795C57.6285 147.201 62.4126 151.839 62.3838 157.695V157.698C62.3837 163.035 58.0593 168.134 51.8887 168.105H51.8857C45.9725 168.105 41.4514 163.355 41.4795 157.642C41.5377 151.405 46.6693 147.144 51.9697 147.23Z" fill="#FD950E" stroke="black" stroke-width="0.95794"/>
<path d="M55.3076 147.23H55.3174C60.9664 147.201 65.7505 151.839 65.7217 157.695V157.698C65.7216 163.035 61.3972 168.134 55.2266 168.105H55.2236C49.3104 168.105 44.7893 163.355 44.8174 157.642C44.8756 151.405 50.0072 147.144 55.3076 147.23Z" fill="#FEC33B" stroke="black" stroke-width="0.95794"/>
<path d="M35.7461 147.23H35.7559C41.4049 147.201 46.1889 151.839 46.1602 157.695V157.698C46.1601 163.035 41.8357 168.134 35.665 168.105H35.6621C29.7488 168.105 25.2278 163.355 25.2559 157.642C25.314 151.405 30.4457 147.144 35.7461 147.23Z" fill="#FD950E" stroke="black" stroke-width="0.95794"/>
<path d="M39.084 147.23H39.0938C44.7428 147.201 49.5268 151.839 49.498 157.695V157.698C49.498 163.035 45.1736 168.134 39.0029 168.105H39C33.0867 168.105 28.5657 163.355 28.5938 157.642C28.6519 151.405 33.7836 147.144 39.084 147.23Z" fill="#FEC33B" stroke="black" stroke-width="0.95794"/>
</svg>
