<svg viewBox="0 0 236 170" fill="none" xmlns="http://www.w3.org/2000/svg">
<mask id="path-1-inside-1_1080_42949" fill="white">
<path d="M52.0469 121.191C80.2771 121.191 103.162 130.788 103.162 142.627V148.232C103.16 148.235 103.158 148.238 103.156 148.24C102.748 136.549 80.0224 127.125 52.0469 127.125C24.0729 127.125 1.34775 136.548 0.9375 148.238C0.936263 148.236 0.934829 148.234 0.933594 148.232C0.9339 146.254 0.931641 144.566 0.931641 142.627C0.931641 130.788 23.8167 121.191 52.0469 121.191Z"/>
</mask>
<path d="M52.0469 121.191C80.2771 121.191 103.162 130.788 103.162 142.627V148.232C103.16 148.235 103.158 148.238 103.156 148.24C102.748 136.549 80.0224 127.125 52.0469 127.125C24.0729 127.125 1.34775 136.548 0.9375 148.238C0.936263 148.236 0.934829 148.234 0.933594 148.232C0.9339 146.254 0.931641 144.566 0.931641 142.627C0.931641 130.788 23.8167 121.191 52.0469 121.191Z" fill="#9DA1CA"/>
<path d="M52.0469 121.191L52.0469 120.532L52.0469 120.532L52.0469 121.191ZM103.162 148.232L103.717 148.59L103.822 148.427V148.232H103.162ZM103.156 148.24L102.497 148.263L102.57 150.364L103.71 148.598L103.156 148.24ZM52.0469 127.125L52.0469 126.465L52.0469 126.465L52.0469 127.125ZM0.9375 148.238L0.383296 148.596L1.52292 150.362L1.59665 148.261L0.9375 148.238ZM0.933594 148.232L0.274041 148.232L0.274011 148.426L0.379188 148.59L0.933594 148.232ZM0.931641 142.627L0.272088 142.627L0.272088 142.627L0.931641 142.627ZM52.0469 121.191V121.851C66.0962 121.851 78.7844 124.24 87.9358 128.078C92.5128 129.997 96.1739 132.266 98.6809 134.752C101.185 137.235 102.503 139.896 102.503 142.627H103.162H103.822C103.822 139.439 102.278 136.461 99.6096 133.815C96.9434 131.171 93.1189 128.821 88.4459 126.862C79.0972 122.941 66.2278 120.532 52.0469 120.532V121.191ZM103.162 142.627H102.503V148.232H103.162H103.822V142.627H103.162ZM103.162 148.232L102.608 147.875C102.62 147.856 102.63 147.842 102.636 147.834C102.64 147.83 102.642 147.827 102.644 147.825C102.645 147.823 102.646 147.822 102.645 147.823C102.645 147.823 102.644 147.825 102.642 147.827C102.64 147.829 102.637 147.833 102.634 147.838C102.627 147.847 102.615 147.863 102.602 147.883L103.156 148.24L103.71 148.598C103.698 148.617 103.688 148.631 103.682 148.639C103.679 148.643 103.676 148.646 103.675 148.648C103.674 148.649 103.672 148.651 103.673 148.65C103.673 148.65 103.675 148.648 103.676 148.646C103.678 148.643 103.681 148.639 103.685 148.635C103.692 148.625 103.704 148.61 103.717 148.59L103.162 148.232ZM103.156 148.24L103.815 148.217C103.706 145.071 102.095 142.138 99.3899 139.534C96.6865 136.931 92.8537 134.617 88.1915 132.689C78.8648 128.831 66.1001 126.465 52.0469 126.465V127.125V127.785C65.9692 127.785 78.5553 130.131 87.6874 133.908C92.2546 135.797 95.9283 138.032 98.475 140.484C101.02 142.935 102.403 145.564 102.497 148.263L103.156 148.24ZM52.0469 127.125L52.0469 126.465C37.9945 126.465 25.2304 128.831 15.9037 132.688C11.2416 134.617 7.40882 136.93 4.70515 139.532C2.00015 142.137 0.388755 145.069 0.278353 148.215L0.9375 148.238L1.59665 148.261C1.69137 145.562 3.07447 142.933 5.62001 140.483C8.16688 138.031 11.8407 135.796 16.4079 133.907C25.5399 130.131 38.1253 127.785 52.0469 127.785L52.0469 127.125ZM0.9375 148.238L1.4917 147.881C1.4887 147.876 1.48617 147.872 1.4846 147.87C1.48312 147.868 1.48177 147.866 1.48163 147.865C1.48114 147.865 1.48184 147.866 1.4827 147.867C1.48366 147.869 1.48557 147.871 1.488 147.875L0.933594 148.232L0.379188 148.59C0.382231 148.594 0.384792 148.598 0.386398 148.601C0.38792 148.603 0.38928 148.605 0.389458 148.605C0.389989 148.606 0.389313 148.605 0.388488 148.604C0.387571 148.602 0.385685 148.6 0.383296 148.596L0.9375 148.238ZM0.933594 148.232L1.59315 148.233C1.59345 146.256 1.59119 144.563 1.59119 142.627L0.931641 142.627L0.272088 142.627C0.272088 144.569 0.274348 146.252 0.274041 148.232L0.933594 148.232ZM0.931641 142.627H1.59119C1.59119 139.896 2.90843 137.235 5.4129 134.752C7.91982 132.266 11.581 129.997 16.158 128.078C25.3093 124.24 37.9976 121.851 52.0469 121.851L52.0469 121.191L52.0469 120.532C37.866 120.532 24.9966 122.941 15.6479 126.862C10.9749 128.821 7.15038 131.171 4.48416 133.815C1.81549 136.461 0.272088 139.439 0.272088 142.627H0.931641Z" fill="black" mask="url(#path-1-inside-1_1080_42949)"/>
<ellipse cx="52.0489" cy="148.564" rx="51.1153" ry="21.4355" fill="#D9D9D9"/>
<mask id="path-4-inside-2_1080_42949" fill="white">
<path d="M102.326 140.793C102.627 141.109 102.909 141.429 103.167 141.752V148.567C103.167 160.406 80.2819 170.003 52.0518 170.003C23.8215 170.003 0.936523 160.406 0.936523 148.567C0.936523 146.185 0.935771 144.279 0.935547 141.752C1.19363 141.429 1.47382 141.11 1.77441 140.794C1.65577 141.398 1.59474 142.009 1.59473 142.627C1.59473 154.465 23.8225 164.063 52.0527 164.063C80.2824 164.063 102.506 154.467 102.507 142.629C102.507 142.011 102.445 141.398 102.326 140.793Z"/>
</mask>
<path d="M102.326 140.793C102.627 141.109 102.909 141.429 103.167 141.752V148.567C103.167 160.406 80.2819 170.003 52.0518 170.003C23.8215 170.003 0.936523 160.406 0.936523 148.567C0.936523 146.185 0.935771 144.279 0.935547 141.752C1.19363 141.429 1.47382 141.11 1.77441 140.794C1.65577 141.398 1.59474 142.009 1.59473 142.627C1.59473 154.465 23.8225 164.063 52.0527 164.063C80.2824 164.063 102.506 154.467 102.507 142.629C102.507 142.011 102.445 141.398 102.326 140.793Z" fill="#0F19A0"/>
<path d="M102.326 140.793L102.804 140.338L101.242 138.697L101.679 140.92L102.326 140.793ZM103.167 141.752H103.827V141.521L103.682 141.34L103.167 141.752ZM52.0518 170.003L52.0518 170.662L52.0518 170.662L52.0518 170.003ZM0.936523 148.567L1.59608 148.567L0.936523 148.567ZM0.935547 141.752L0.420313 141.34L0.275974 141.521L0.275994 141.752L0.935547 141.752ZM1.77441 140.794L2.42161 140.921L2.85801 138.699L1.29663 140.339L1.77441 140.794ZM1.59473 142.627L0.935174 142.627V142.627H1.59473ZM52.0527 164.063L52.0527 164.723L52.0527 164.723L52.0527 164.063ZM102.507 142.629L103.166 142.629V142.629H102.507ZM102.326 140.793L101.848 141.248C102.138 141.552 102.407 141.857 102.652 142.164L103.167 141.752L103.682 141.34C103.41 141 103.116 140.666 102.804 140.338L102.326 140.793ZM103.167 141.752H102.507V148.567H103.167H103.827V141.752H103.167ZM103.167 148.567H102.507C102.507 151.299 101.19 153.96 98.6857 156.443C96.1788 158.928 92.5177 161.197 87.9406 163.116C78.7893 166.954 66.101 169.343 52.0518 169.343L52.0518 170.003L52.0518 170.662C66.2326 170.662 79.102 168.253 88.4507 164.333C93.1237 162.373 96.9482 160.023 99.6145 157.379C102.283 154.733 103.827 151.755 103.827 148.567H103.167ZM52.0518 170.003V169.343C38.0024 169.343 25.3142 166.954 16.1629 163.116C11.5858 161.197 7.92469 158.928 5.41778 156.443C2.91331 153.96 1.59608 151.299 1.59608 148.567H0.936523H0.276971C0.276971 151.755 1.82037 154.734 4.48903 157.379C7.15525 160.023 10.9798 162.373 15.6527 164.333C25.0015 168.253 37.8709 170.662 52.0518 170.662V170.003ZM0.936523 148.567L1.59608 148.567C1.59608 146.185 1.59532 144.279 1.5951 141.752L0.935547 141.752L0.275994 141.752C0.276218 144.28 0.276971 146.185 0.276971 148.567L0.936523 148.567ZM0.935547 141.752L1.45078 142.164C1.69589 141.857 1.96341 141.552 2.2522 141.249L1.77441 140.794L1.29663 140.339C0.984225 140.668 0.691363 141.001 0.420313 141.34L0.935547 141.752ZM1.77441 140.794L1.12722 140.667C1.00057 141.312 0.93519 141.966 0.935174 142.627L1.59473 142.627L2.25428 142.627C2.25429 142.053 2.31098 141.484 2.42161 140.921L1.77441 140.794ZM1.59473 142.627H0.935174C0.935174 145.808 2.43139 148.785 5.03892 151.433C7.64333 154.079 11.3863 156.431 15.9784 158.391C25.165 162.314 37.8719 164.723 52.0527 164.723V164.063V163.404C38.0034 163.404 25.4813 161.014 16.4964 157.178C12.0028 155.259 8.42441 152.992 5.97891 150.508C3.53654 148.027 2.25428 145.365 2.25428 142.627H1.59473ZM52.0527 164.063L52.0527 164.723C66.2333 164.723 78.9391 162.314 88.1247 158.392C92.7164 156.432 96.4588 154.08 99.0629 151.435C101.67 148.787 103.166 145.81 103.166 142.629L102.507 142.629L101.847 142.629C101.847 145.367 100.565 148.029 98.1229 150.51C95.6777 152.993 92.0998 155.261 87.6067 157.179C78.6228 161.015 66.1018 163.404 52.0527 163.404L52.0527 164.063ZM102.507 142.629H103.166C103.166 141.966 103.1 141.311 102.973 140.666L102.326 140.793L101.679 140.92C101.79 141.485 101.847 142.055 101.847 142.629H102.507Z" fill="black" mask="url(#path-4-inside-2_1080_42949)"/>
<path d="M1.92188 139.328L51.7181 44.6823" stroke="black" stroke-width="0.659552" stroke-linecap="round"/>
<path d="M101.844 138.34L51.7177 44.6834" stroke="black" stroke-width="0.659552" stroke-linecap="round"/>
<path d="M81.1133 136.327H81.1201C85.0096 136.307 88.3041 139.5 88.2842 143.532V143.534C88.2841 147.209 85.3061 150.719 81.0576 150.699H81.0557C76.9842 150.699 73.8713 147.429 73.8906 143.495C73.9307 139.201 77.4639 136.267 81.1133 136.327Z" fill="#FD950E" stroke="black" stroke-width="0.659552"/>
<path d="M83.4121 136.327H83.4189C87.3084 136.307 90.6029 139.5 90.583 143.532V143.534C90.5829 147.209 87.6049 150.719 83.3564 150.699H83.3545C79.2831 150.699 76.1701 147.429 76.1895 143.495C76.2295 139.201 79.7627 136.267 83.4121 136.327Z" fill="#FEC33B" stroke="black" stroke-width="0.659552"/>
<path d="M66.0371 136.327H66.0439C69.9334 136.307 73.2279 139.5 73.208 143.532V143.534C73.2079 147.209 70.2299 150.719 65.9814 150.699H65.9795C61.9081 150.699 58.7951 147.429 58.8145 143.495C58.8545 139.201 62.3877 136.267 66.0371 136.327Z" fill="#FD950E" stroke="black" stroke-width="0.659552"/>
<path d="M68.3359 136.327H68.3428C72.2322 136.307 75.5267 139.5 75.5068 143.532V143.534C75.5067 147.209 72.5288 150.719 68.2803 150.699H68.2783C64.2069 150.699 61.094 147.429 61.1133 143.495C61.1533 139.201 64.6866 136.267 68.3359 136.327Z" fill="#FEC33B" stroke="black" stroke-width="0.659552"/>
<path d="M50.916 136.327H50.9229C54.8493 136.307 58.1753 139.53 58.1553 143.601V143.603C58.1552 147.196 55.3337 150.634 51.2578 150.827L50.8594 150.836H50.8584C46.7483 150.836 43.6056 147.535 43.625 143.563C43.6653 139.229 47.2319 136.267 50.916 136.327Z" fill="#FD950E" stroke="black" stroke-width="0.659552"/>
<path d="M53.2324 136.327H53.2393C57.1657 136.307 60.4917 139.53 60.4717 143.601V143.603C60.4716 147.196 57.6501 150.634 53.5742 150.827L53.1758 150.836H53.1748C49.0647 150.836 45.922 147.535 45.9414 143.563C45.9817 139.229 49.5483 136.267 53.2324 136.327Z" fill="#FEC33B" stroke="black" stroke-width="0.659552"/>
<path d="M35.793 136.327H35.7998C39.6893 136.307 42.9838 139.5 42.9639 143.532V143.534C42.9638 147.209 39.9858 150.719 35.7373 150.699H35.7354C31.6639 150.699 28.551 147.429 28.5703 143.495C28.6103 139.201 32.1436 136.267 35.793 136.327Z" fill="#FD950E" stroke="black" stroke-width="0.659552"/>
<path d="M38.0918 136.327H38.0986C41.9881 136.307 45.2826 139.5 45.2627 143.532V143.534C45.2626 147.209 42.2846 150.719 38.0361 150.699H38.0342C33.9628 150.699 30.8498 147.429 30.8691 143.495C30.9092 139.201 34.4424 136.267 38.0918 136.327Z" fill="#FEC33B" stroke="black" stroke-width="0.659552"/>
<path d="M20.7383 136.327H20.7451C24.6346 136.307 27.9291 139.5 27.9092 143.532V143.534C27.9091 147.209 24.9311 150.719 20.6826 150.699H20.6807C16.6092 150.699 13.4963 147.429 13.5156 143.495C13.5557 139.201 17.0889 136.267 20.7383 136.327Z" fill="#FD950E" stroke="black" stroke-width="0.659552"/>
<path d="M23.0371 136.327H23.0439C26.9334 136.307 30.2279 139.5 30.208 143.532V143.534C30.2079 147.209 27.2299 150.719 22.9814 150.699H22.9795C18.9081 150.699 15.7951 147.429 15.8145 143.495C15.8545 139.201 19.3877 136.267 23.0371 136.327Z" fill="#FEC33B" stroke="black" stroke-width="0.659552"/>
<path d="M74.7695 123.101H74.7764C78.6658 123.081 81.9603 126.274 81.9404 130.306V130.308C81.9403 133.982 78.9623 137.492 74.7139 137.473H74.7119C70.6405 137.473 67.5276 134.203 67.5469 130.269C67.5869 125.975 71.1202 123.041 74.7695 123.101Z" fill="#FD950E" stroke="black" stroke-width="0.659552"/>
<path d="M77.0684 123.101H77.0752C80.9647 123.081 84.2592 126.274 84.2393 130.306V130.308C84.2391 133.982 81.2612 137.492 77.0127 137.473H77.0107C72.9393 137.473 69.8264 134.203 69.8457 130.269C69.8857 125.975 73.419 123.041 77.0684 123.101Z" fill="#FEC33B" stroke="black" stroke-width="0.659552"/>
<path d="M59.6484 123.101H59.6553C63.5817 123.08 66.9077 126.304 66.8877 130.374V130.376C66.8876 133.97 64.0661 137.408 59.9902 137.601L59.5918 137.609H59.5908C55.4807 137.609 52.3381 134.308 52.3574 130.337C52.3977 126.002 55.9643 123.04 59.6484 123.101Z" fill="#FD950E" stroke="black" stroke-width="0.659552"/>
<path d="M61.9648 123.101H61.9717C65.8981 123.08 69.2241 126.304 69.2041 130.374V130.376C69.2041 133.97 66.3825 137.408 62.3066 137.601L61.9082 137.609H61.9072C57.7971 137.609 54.6545 134.308 54.6738 130.337C54.7142 126.002 58.2807 123.04 61.9648 123.101Z" fill="#FEC33B" stroke="black" stroke-width="0.659552"/>
<path d="M44.5293 123.101H44.5361C48.4256 123.081 51.7201 126.274 51.7002 130.306V130.308C51.7001 133.982 48.7221 137.492 44.4736 137.473H44.4717C40.4003 137.473 37.2873 134.203 37.3066 130.269C37.3467 125.975 40.8799 123.041 44.5293 123.101Z" fill="#FD950E" stroke="black" stroke-width="0.659552"/>
<path d="M46.8281 123.101H46.835C50.7244 123.081 54.0189 126.274 53.999 130.306V130.308C53.9989 133.982 51.0209 137.492 46.7725 137.473H46.7705C42.6991 137.473 39.5862 134.203 39.6055 130.269C39.6455 125.975 43.1787 123.041 46.8281 123.101Z" fill="#FEC33B" stroke="black" stroke-width="0.659552"/>
<path d="M29.4727 123.101H29.4795C33.369 123.081 36.6635 126.274 36.6436 130.306V130.308C36.6434 133.982 33.6655 137.492 29.417 137.473H29.415C25.3436 137.473 22.2307 134.203 22.25 130.269C22.29 125.975 25.8233 123.041 29.4727 123.101Z" fill="#FD950E" stroke="black" stroke-width="0.659552"/>
<path d="M31.7715 123.101H31.7783C35.6678 123.081 38.9623 126.274 38.9424 130.306V130.308C38.9423 133.982 35.9643 137.492 31.7158 137.473H31.7139C27.6424 137.473 24.5295 134.203 24.5488 130.269C24.5889 125.975 28.1221 123.041 31.7715 123.101Z" fill="#FEC33B" stroke="black" stroke-width="0.659552"/>
<path d="M68.3457 109.983H68.3525C72.279 109.963 75.605 113.186 75.585 117.257V117.259C75.5849 120.853 72.7634 124.29 68.6875 124.483L68.2891 124.492H68.2881C64.178 124.492 61.0353 121.191 61.0547 117.22C61.095 112.885 64.6616 109.923 68.3457 109.983Z" fill="#FD950E" stroke="black" stroke-width="0.659552"/>
<path d="M70.6641 109.983H70.6709C74.5973 109.963 77.9233 113.186 77.9033 117.257V117.259C77.9033 120.853 75.0817 124.29 71.0059 124.483L70.6074 124.492H70.6064C66.4963 124.492 63.3537 121.191 63.373 117.22C63.4134 112.885 66.9799 109.923 70.6641 109.983Z" fill="#FEC33B" stroke="black" stroke-width="0.659552"/>
<path d="M53.2246 109.983H53.2314C57.1209 109.963 60.4154 113.156 60.3955 117.188V117.19C60.3954 120.865 57.4174 124.375 53.1689 124.355H53.167C49.0956 124.355 45.9826 121.085 46.002 117.151C46.042 112.857 49.5752 109.924 53.2246 109.983Z" fill="#FD950E" stroke="black" stroke-width="0.659552"/>
<path d="M55.5234 109.983H55.5303C59.4197 109.963 62.7142 113.156 62.6943 117.188V117.19C62.6942 120.865 59.7163 124.375 55.4678 124.355H55.4658C51.3944 124.355 48.2815 121.085 48.3008 117.151C48.3408 112.857 51.8741 109.924 55.5234 109.983Z" fill="#FEC33B" stroke="black" stroke-width="0.659552"/>
<path d="M38.168 109.983H38.1748C42.0643 109.963 45.3588 113.156 45.3389 117.188V117.19C45.3388 120.865 42.3608 124.375 38.1123 124.355H38.1104C34.0389 124.355 30.926 121.085 30.9453 117.151C30.9853 112.857 34.5186 109.924 38.168 109.983Z" fill="#FD950E" stroke="black" stroke-width="0.659552"/>
<path d="M40.4668 109.983H40.4736C44.3631 109.963 47.6576 113.156 47.6377 117.188V117.19C47.6376 120.865 44.6596 124.375 40.4111 124.355H40.4092C36.3378 124.355 33.2248 121.085 33.2441 117.151C33.2842 112.857 36.8174 109.924 40.4668 109.983Z" fill="#FEC33B" stroke="black" stroke-width="0.659552"/>
<path d="M61.8789 97.0693H61.8857C65.7752 97.0494 69.0697 100.242 69.0498 104.274V104.276C69.0497 107.951 66.0717 111.461 61.8232 111.441H61.8213C57.7499 111.441 54.6369 108.171 54.6562 104.237C54.6963 99.9433 58.2295 97.0095 61.8789 97.0693Z" fill="#FD950E" stroke="black" stroke-width="0.659552"/>
<path d="M64.1777 97.0693H64.1846C68.074 97.0494 71.3685 100.242 71.3486 104.274V104.276C71.3485 107.951 68.3705 111.461 64.1221 111.441H64.1201C60.0487 111.441 56.9358 108.171 56.9551 104.237C56.9951 99.9433 60.5284 97.0095 64.1777 97.0693Z" fill="#FEC33B" stroke="black" stroke-width="0.659552"/>
<path d="M46.8262 97.0693H46.833C50.7225 97.0494 54.017 100.242 53.9971 104.274V104.276C53.997 107.951 51.019 111.461 46.7705 111.441H46.7686C42.6971 111.441 39.5842 108.171 39.6035 104.237C39.6435 99.9433 43.1768 97.0095 46.8262 97.0693Z" fill="#FD950E" stroke="black" stroke-width="0.659552"/>
<path d="M49.125 97.0693H49.1318C53.0213 97.0494 56.3158 100.242 56.2959 104.274V104.276C56.2958 107.951 53.3178 111.461 49.0693 111.441H49.0674C44.996 111.441 41.883 108.171 41.9023 104.237C41.9424 99.9433 45.4756 97.0095 49.125 97.0693Z" fill="#FEC33B" stroke="black" stroke-width="0.659552"/>
<path d="M55.5195 83.7842H55.5264C59.4158 83.7642 62.7103 86.9571 62.6904 90.9893V90.9912C62.6903 94.6658 59.7123 98.1761 55.4639 98.1562H55.4619C51.3905 98.1562 48.2776 94.8861 48.2969 90.9521C48.3369 86.6581 51.8702 83.7244 55.5195 83.7842Z" fill="#FD950E" stroke="black" stroke-width="0.659552"/>
<path d="M57.8184 83.7842H57.8252C61.7147 83.7642 65.0092 86.9571 64.9893 90.9893V90.9912C64.9891 94.6658 62.0112 98.1761 57.7627 98.1562H57.7607C53.6893 98.1562 50.5764 94.8861 50.5957 90.9521C50.6357 86.6581 54.169 83.7244 57.8184 83.7842Z" fill="#FEC33B" stroke="black" stroke-width="0.659552"/>
<mask id="path-38-inside-3_1080_42949" fill="white">
<path d="M184.879 83.9297C213.109 83.9297 235.994 93.5268 235.994 105.365V110.972C235.992 110.974 235.99 110.977 235.988 110.979C235.581 99.2882 212.855 89.8633 184.879 89.8633C156.904 89.8633 134.179 99.2871 133.77 110.978C133.768 110.976 133.767 110.974 133.766 110.972C133.766 108.993 133.764 107.305 133.764 105.365C133.764 93.5268 156.649 83.9297 184.879 83.9297Z"/>
</mask>
<path d="M184.879 83.9297C213.109 83.9297 235.994 93.5268 235.994 105.365V110.972C235.992 110.974 235.99 110.977 235.988 110.979C235.581 99.2882 212.855 89.8633 184.879 89.8633C156.904 89.8633 134.179 99.2871 133.77 110.978C133.768 110.976 133.767 110.974 133.766 110.972C133.766 108.993 133.764 107.305 133.764 105.365C133.764 93.5268 156.649 83.9297 184.879 83.9297Z" fill="#7E82A5"/>
<path d="M184.879 83.9297L184.879 83.2701L184.879 83.2701L184.879 83.9297ZM235.994 110.972L236.549 111.329L236.654 111.166V110.972H235.994ZM235.988 110.979L235.329 111.002L235.402 113.103L236.542 111.337L235.988 110.979ZM184.879 89.8633L184.879 89.2037H184.879V89.8633ZM133.77 110.978L133.215 111.335L134.355 113.101L134.429 111.001L133.77 110.978ZM133.766 110.972L133.106 110.972L133.106 111.166L133.211 111.329L133.766 110.972ZM133.764 105.365L133.104 105.365V105.365L133.764 105.365ZM184.879 83.9297V84.5892C198.928 84.5892 211.616 86.9786 220.768 90.8163C225.345 92.7357 229.006 95.0044 231.513 97.4899C234.017 99.9731 235.335 102.634 235.335 105.365H235.994H236.654C236.654 102.177 235.11 99.1991 232.442 96.5532C229.775 93.9097 225.951 91.5595 221.278 89.5998C211.929 85.6793 199.06 83.2701 184.879 83.2701V83.9297ZM235.994 105.365H235.335V110.972H235.994H236.654V105.365H235.994ZM235.994 110.972L235.44 110.614C235.452 110.596 235.462 110.582 235.469 110.573C235.472 110.569 235.474 110.566 235.476 110.564C235.477 110.562 235.478 110.561 235.478 110.562C235.478 110.562 235.476 110.564 235.474 110.566C235.472 110.568 235.469 110.572 235.466 110.577C235.458 110.586 235.447 110.602 235.434 110.622L235.988 110.979L236.542 111.337C236.53 111.356 236.52 111.37 236.514 111.378C236.511 111.382 236.508 111.385 236.507 111.387C236.505 111.389 236.504 111.39 236.505 111.39C236.505 111.39 236.506 111.388 236.508 111.385C236.51 111.383 236.513 111.379 236.517 111.374C236.524 111.364 236.536 111.349 236.549 111.329L235.994 110.972ZM235.988 110.979L236.647 110.957C236.538 107.81 234.927 104.877 232.222 102.273C229.519 99.6695 225.686 97.3561 221.024 95.4277C211.697 91.5698 198.932 89.2037 184.879 89.2037L184.879 89.8633L184.879 90.5228C198.801 90.5228 211.388 92.8692 220.52 96.6466C225.087 98.5358 228.761 100.771 231.307 103.223C233.853 105.674 235.235 108.303 235.329 111.002L235.988 110.979ZM184.879 89.8633V89.2037C170.826 89.2037 158.062 91.5695 148.735 95.427C144.073 97.3553 140.24 99.6685 137.537 102.271C134.832 104.876 133.221 107.808 133.11 110.954L133.77 110.978L134.429 111.001C134.523 108.301 135.906 105.672 138.452 103.222C140.998 100.77 144.672 98.535 149.239 96.646C158.371 92.869 170.957 90.5228 184.879 90.5228V89.8633ZM133.77 110.978L134.324 110.62C134.321 110.615 134.318 110.612 134.317 110.609C134.315 110.607 134.314 110.605 134.314 110.605C134.313 110.604 134.314 110.605 134.315 110.606C134.316 110.608 134.318 110.611 134.32 110.614L133.766 110.972L133.211 111.329C133.214 111.334 133.217 111.337 133.218 111.34C133.22 111.342 133.221 111.344 133.222 111.345C133.222 111.345 133.221 111.344 133.221 111.343C133.22 111.342 133.218 111.339 133.215 111.335L133.77 110.978ZM133.766 110.972L134.425 110.972C134.425 108.995 134.423 107.302 134.423 105.365L133.764 105.365L133.104 105.365C133.104 107.308 133.106 108.991 133.106 110.972L133.766 110.972ZM133.764 105.365H134.423C134.423 102.634 135.74 99.9731 138.245 97.4899C140.752 95.0044 144.413 92.7357 148.99 90.8163C158.141 86.9786 170.83 84.5892 184.879 84.5892L184.879 83.9297L184.879 83.2701C170.698 83.2701 157.829 85.6793 148.48 89.5998C143.807 91.5595 139.982 93.9097 137.316 96.5532C134.648 99.1991 133.104 102.177 133.104 105.365H133.764Z" fill="black" mask="url(#path-38-inside-3_1080_42949)"/>
<ellipse cx="184.881" cy="111.307" rx="51.1153" ry="21.4355" fill="#D9D9D9"/>
<mask id="path-41-inside-4_1080_42949" fill="white">
<path d="M235.157 103.531C235.458 103.848 235.741 104.166 235.999 104.489V111.305C235.999 123.143 213.114 132.74 184.884 132.74C156.654 132.74 133.769 123.143 133.769 111.305C133.769 108.922 133.768 107.017 133.768 104.489C134.026 104.166 134.306 103.847 134.606 103.531C134.488 104.136 134.427 104.748 134.427 105.365C134.427 117.203 156.654 126.802 184.884 126.802C213.114 126.802 235.339 117.205 235.339 105.366C235.339 104.748 235.276 104.136 235.157 103.531Z"/>
</mask>
<path d="M235.157 103.531C235.458 103.848 235.741 104.166 235.999 104.489V111.305C235.999 123.143 213.114 132.74 184.884 132.74C156.654 132.74 133.769 123.143 133.769 111.305C133.769 108.922 133.768 107.017 133.768 104.489C134.026 104.166 134.306 103.847 134.606 103.531C134.488 104.136 134.427 104.748 134.427 105.365C134.427 117.203 156.654 126.802 184.884 126.802C213.114 126.802 235.339 117.205 235.339 105.366C235.339 104.748 235.276 104.136 235.157 103.531Z" fill="#0F19A0"/>
<path d="M235.157 103.531L235.635 103.077L234.073 101.436L234.51 103.658L235.157 103.531ZM235.999 104.489H236.659V104.258L236.514 104.078L235.999 104.489ZM184.884 132.74L184.884 133.4L184.884 133.4L184.884 132.74ZM133.769 111.305L134.428 111.305V111.305L133.769 111.305ZM133.768 104.489L133.252 104.077L133.108 104.258L133.108 104.489L133.768 104.489ZM134.606 103.531L135.254 103.658L135.69 101.436L134.129 103.077L134.606 103.531ZM134.427 105.365L133.767 105.365L133.767 105.365L134.427 105.365ZM184.884 126.802L184.884 127.461H184.884V126.802ZM235.339 105.366L235.998 105.366V105.366H235.339ZM235.157 103.531L234.679 103.986C234.97 104.292 235.24 104.595 235.484 104.901L235.999 104.489L236.514 104.078C236.242 103.736 235.946 103.404 235.635 103.077L235.157 103.531ZM235.999 104.489H235.339V111.305H235.999H236.659V104.489H235.999ZM235.999 111.305H235.339C235.339 114.036 234.022 116.697 231.518 119.18C229.011 121.665 225.35 123.934 220.773 125.854C211.621 129.691 198.933 132.081 184.884 132.081L184.884 132.74L184.884 133.4C199.065 133.4 211.934 130.991 221.283 127.07C225.956 125.11 229.78 122.76 232.446 120.117C235.115 117.471 236.659 114.493 236.659 111.305H235.999ZM184.884 132.74V132.081C170.834 132.081 158.146 129.691 148.995 125.854C144.418 123.934 140.757 121.666 138.25 119.18C135.745 116.697 134.428 114.036 134.428 111.305H133.769H133.109C133.109 114.493 134.652 117.471 137.321 120.117C139.987 122.76 143.812 125.11 148.485 127.07C157.834 130.991 170.703 133.4 184.884 133.4V132.74ZM133.769 111.305L134.428 111.305C134.428 108.922 134.427 107.016 134.427 104.489L133.768 104.489L133.108 104.489C133.108 107.017 133.109 108.922 133.109 111.305L133.769 111.305ZM133.768 104.489L134.283 104.901C134.528 104.594 134.795 104.289 135.084 103.986L134.606 103.531L134.129 103.077C133.816 103.405 133.523 103.738 133.252 104.077L133.768 104.489ZM134.606 103.531L133.959 103.404C133.833 104.049 133.767 104.704 133.767 105.365H134.427H135.086C135.086 104.791 135.143 104.222 135.254 103.658L134.606 103.531ZM134.427 105.365L133.767 105.365C133.767 108.546 135.264 111.523 137.871 114.172C140.475 116.817 144.218 119.169 148.81 121.129C157.997 125.052 170.703 127.461 184.884 127.461L184.884 126.802L184.884 126.142C170.835 126.142 158.313 123.753 149.328 119.916C144.835 117.998 141.257 115.73 138.811 113.246C136.369 110.765 135.086 108.103 135.086 105.365L134.427 105.365ZM184.884 126.802V127.461C199.065 127.461 211.771 125.052 220.957 121.13C225.548 119.169 229.291 116.818 231.895 114.173C234.502 111.524 235.998 108.547 235.998 105.366L235.339 105.366L234.679 105.366C234.679 108.104 233.397 110.767 230.955 113.247C228.51 115.731 224.932 117.998 220.439 119.917C211.454 123.753 198.933 126.142 184.884 126.142V126.802ZM235.339 105.366H235.998C235.998 104.703 235.931 104.049 235.804 103.404L235.157 103.531L234.51 103.658C234.621 104.224 234.679 104.793 234.679 105.366H235.339Z" fill="black" mask="url(#path-41-inside-4_1080_42949)"/>
<path d="M134.754 102.066L184.55 7.42059" stroke="black" stroke-width="0.659552" stroke-linecap="round"/>
<path d="M234.676 101.078L184.55 7.42164" stroke="black" stroke-width="0.659552" stroke-linecap="round"/>
<path d="M206.418 100.233H206.425C210.314 100.213 213.609 103.406 213.589 107.438V107.44C213.589 111.115 210.611 114.625 206.362 114.605H206.36C202.289 114.605 199.176 111.335 199.195 107.401C199.235 103.107 202.769 100.174 206.418 100.233Z" fill="#FD950E" stroke="black" stroke-width="0.659552"/>
<path d="M208.717 100.233H208.724C212.613 100.213 215.908 103.406 215.888 107.438V107.44C215.888 111.115 212.91 114.625 208.661 114.605H208.659C204.588 114.605 201.475 111.335 201.494 107.401C201.534 103.107 205.067 100.174 208.717 100.233Z" fill="#FEC33B" stroke="black" stroke-width="0.659552"/>
<path d="M191.344 100.233H191.351C195.24 100.213 198.535 103.406 198.515 107.438V107.44C198.515 111.115 195.537 114.625 191.288 114.605H191.286C187.215 114.605 184.102 111.335 184.121 107.401C184.161 103.107 187.694 100.174 191.344 100.233Z" fill="#FD950E" stroke="black" stroke-width="0.659552"/>
<path d="M193.643 100.233H193.649C197.539 100.213 200.833 103.406 200.813 107.438V107.44C200.813 111.115 197.835 114.625 193.587 114.605H193.585C189.514 114.605 186.401 111.335 186.42 107.401C186.46 103.107 189.993 100.174 193.643 100.233Z" fill="#FEC33B" stroke="black" stroke-width="0.659552"/>
<path d="M176.223 100.233H176.229C180.156 100.213 183.482 103.436 183.462 107.507V107.509C183.462 111.103 180.64 114.54 176.564 114.733L176.166 114.742H176.165C172.055 114.742 168.912 111.441 168.932 107.47C168.972 103.135 172.539 100.173 176.223 100.233Z" fill="#FD950E" stroke="black" stroke-width="0.659552"/>
<path d="M178.541 100.233H178.548C182.474 100.213 185.8 103.436 185.78 107.507V107.509C185.78 111.103 182.959 114.54 178.883 114.733L178.484 114.742H178.483C174.373 114.742 171.231 111.441 171.25 107.47C171.29 103.135 174.857 100.173 178.541 100.233Z" fill="#FEC33B" stroke="black" stroke-width="0.659552"/>
<path d="M161.1 100.233H161.106C164.996 100.213 168.29 103.406 168.271 107.438V107.44C168.27 111.115 165.292 114.625 161.044 114.605H161.042C156.971 114.605 153.858 111.335 153.877 107.401C153.917 103.107 157.45 100.174 161.1 100.233Z" fill="#FD950E" stroke="black" stroke-width="0.659552"/>
<path d="M163.398 100.233H163.405C167.295 100.213 170.589 103.406 170.569 107.438V107.44C170.569 111.115 167.591 114.625 163.343 114.605H163.341C159.269 114.605 156.156 111.335 156.176 107.401C156.216 103.107 159.749 100.174 163.398 100.233Z" fill="#FEC33B" stroke="black" stroke-width="0.659552"/>
<path d="M200.078 87.0068H200.085C203.974 86.9869 207.269 90.1798 207.249 94.2119V94.2139C207.249 97.8885 204.271 101.399 200.022 101.379H200.021C195.949 101.379 192.836 98.1088 192.855 94.1748C192.896 89.8808 196.429 86.947 200.078 87.0068Z" fill="#FD950E" stroke="black" stroke-width="0.659552"/>
<path d="M202.377 87.0068H202.384C206.273 86.9869 209.568 90.1798 209.548 94.2119V94.2139C209.548 97.8885 206.57 101.399 202.321 101.379H202.319C198.248 101.379 195.135 98.1088 195.154 94.1748C195.194 89.8808 198.728 86.947 202.377 87.0068Z" fill="#FEC33B" stroke="black" stroke-width="0.659552"/>
<path d="M184.959 87.0068H184.966C188.892 86.9867 192.218 90.2099 192.198 94.2803V94.2822C192.198 97.876 189.377 101.314 185.301 101.507L184.902 101.516H184.901C180.791 101.516 177.649 98.2145 177.668 94.2432C177.708 89.9083 181.275 86.9465 184.959 87.0068Z" fill="#FD950E" stroke="black" stroke-width="0.659552"/>
<path d="M187.277 87.0068H187.284C191.211 86.9867 194.537 90.2099 194.517 94.2803V94.2822C194.517 97.876 191.695 101.314 187.619 101.507L187.221 101.516H187.22C183.11 101.516 179.967 98.2145 179.986 94.2432C180.027 89.9083 183.593 86.9465 187.277 87.0068Z" fill="#FEC33B" stroke="black" stroke-width="0.659552"/>
<path d="M169.834 87.0068H169.841C173.73 86.9869 177.025 90.1798 177.005 94.2119V94.2139C177.005 97.8885 174.027 101.399 169.778 101.379H169.776C165.705 101.379 162.592 98.1088 162.611 94.1748C162.651 89.8808 166.185 86.947 169.834 87.0068Z" fill="#FD950E" stroke="black" stroke-width="0.659552"/>
<path d="M172.133 87.0068H172.14C176.029 86.9869 179.324 90.1798 179.304 94.2119V94.2139C179.304 97.8885 176.326 101.399 172.077 101.379H172.075C168.004 101.379 164.891 98.1088 164.91 94.1748C164.95 89.8808 168.483 86.947 172.133 87.0068Z" fill="#FEC33B" stroke="black" stroke-width="0.659552"/>
<path d="M193.654 73.8896H193.661C197.588 73.8695 200.914 77.0927 200.894 81.1631V81.165C200.894 84.7588 198.072 88.1967 193.996 88.3896L193.598 88.3984H193.597C189.487 88.3984 186.344 85.0973 186.363 81.126C186.404 76.7911 189.97 73.8293 193.654 73.8896Z" fill="#FD950E" stroke="black" stroke-width="0.659552"/>
<path d="M195.971 73.8896H195.978C199.904 73.8695 203.23 77.0927 203.21 81.1631V81.165C203.21 84.7588 200.388 88.1967 196.312 88.3896L195.914 88.3984H195.913C191.803 88.3984 188.66 85.0973 188.68 81.126C188.72 76.7911 192.287 73.8293 195.971 73.8896Z" fill="#FEC33B" stroke="black" stroke-width="0.659552"/>
<path d="M178.529 73.8896H178.536C182.426 73.8697 185.72 77.0626 185.7 81.0947V81.0967C185.7 84.7713 182.722 88.2815 178.474 88.2617H178.472C174.4 88.2616 171.287 84.9916 171.307 81.0576C171.347 76.7636 174.88 73.8298 178.529 73.8896Z" fill="#FD950E" stroke="black" stroke-width="0.659552"/>
<path d="M180.828 73.8896H180.835C184.724 73.8697 188.019 77.0626 187.999 81.0947V81.0967C187.999 84.7713 185.021 88.2815 180.772 88.2617H180.771C176.699 88.2616 173.586 84.9916 173.605 81.0576C173.646 76.7636 177.179 73.8298 180.828 73.8896Z" fill="#FEC33B" stroke="black" stroke-width="0.659552"/>
<path d="M187.186 60.9756H187.192C191.082 60.9556 194.376 64.1485 194.356 68.1807V68.1826C194.356 71.8572 191.378 75.3675 187.13 75.3477H187.128C183.057 75.3476 179.944 72.0776 179.963 68.1436C180.003 63.8495 183.536 60.9158 187.186 60.9756Z" fill="#FD950E" stroke="black" stroke-width="0.659552"/>
<path d="M189.484 60.9756H189.491C193.381 60.9556 196.675 64.1485 196.655 68.1807V68.1826C196.655 71.8572 193.677 75.3675 189.429 75.3477H189.427C185.355 75.3476 182.242 72.0776 182.262 68.1436C182.302 63.8495 185.835 60.9158 189.484 60.9756Z" fill="#FEC33B" stroke="black" stroke-width="0.659552"/>
<path d="M106.306 156.448L106.305 132.822L111.286 134.302L111.257 157.89L106.306 156.448Z" fill="#9C0052"/>
<path d="M132.85 134.299L111.287 134.299L111.259 157.881L133.052 157.881L132.85 134.299Z" fill="#C82A87"/>
<path d="M106.227 132.824L125.955 132.824L132.812 134.093L111.285 134.296L106.227 132.824Z" fill="#DB7BB4"/>
<path d="M125.948 133.154L132.519 134.267L132.714 157.56L111.304 157.561L106.635 156.209L106.622 133.153L125.948 133.154Z" stroke="black" stroke-width="0.659552" stroke-linejoin="round"/>
<path d="M107.344 133.154L111.285 134.297M111.285 134.297L111.256 157.514M111.285 134.297L132.591 134.297" stroke="black" stroke-width="0.659552" stroke-linejoin="round"/>
<path d="M145.795 43.4575C151.273 42.685 156.303 43.2413 160.345 46.1469C161.196 49.2604 161.255 53.3383 160.637 57.6202C160.011 61.9474 158.699 66.4559 156.848 70.3456C153.131 78.153 145.687 83.6024 140.295 86.8463C135.184 89.9215 132.235 92.3459 128.468 96.8564C125.534 100.369 113.914 111.43 110.53 114.679L106.744 113.305C106.772 112.403 106.769 111.07 106.767 109.634C106.765 108.057 106.767 106.348 106.824 104.916C106.966 101.371 107.926 96.0835 112.415 90.1866C114.655 87.2449 117.396 84.9751 120.431 82.8419C121.949 81.7749 123.537 80.7447 125.172 79.6806C126.806 78.6175 128.486 77.5214 130.179 76.3274C133.618 73.9026 135.832 70.5591 137.102 67.2576C138.37 63.9607 138.704 60.6826 138.36 58.368C137.713 54.0106 134.518 49.8748 129.498 48.3533C134.962 46.1385 140.563 44.1951 145.795 43.4575Z" fill="#9C0052" stroke="black" stroke-width="0.659552" stroke-linejoin="round"/>
<path d="M110.558 28.9817C117.954 26.6896 127.692 26.5267 134.213 27.245C140.697 27.9592 148.367 31.1848 153.524 34.6662L153.524 34.6672C156.341 36.5798 158.128 38.0859 159.1 39.2637C159.586 39.8526 159.852 40.3385 159.952 40.7337C160.05 41.1162 159.994 41.4124 159.831 41.6603C159.66 41.9211 159.348 42.1638 158.869 42.3775C158.392 42.5899 157.778 42.7621 157.041 42.8986C155.565 43.1718 153.646 43.293 151.46 43.3359C149.277 43.3787 146.845 43.3433 144.345 43.3063C141.847 43.2693 139.282 43.2305 136.846 43.269C134.41 43.3075 132.093 43.4232 130.09 43.695C128.155 43.9576 126.482 44.3702 125.273 45.0209C119.819 43.8105 114.061 44.0231 109.057 47.9416C107.09 49.482 102.215 53.3019 97.5289 57.1316C95.1863 59.0463 92.8885 60.9652 91.0251 62.6044C89.2971 64.1244 87.9208 65.4246 87.2347 66.2589L83.2359 65.2196C83.2099 55.5475 87.8502 46.435 91.9032 41.129C95.967 35.8091 103.154 31.2768 110.558 28.9817Z" fill="#DB7BB4" stroke="black" stroke-width="0.659552" stroke-linejoin="round"/>
<path d="M114.997 30.1396C122.394 27.8468 131.296 27.6327 137.815 28.3507C144.298 29.0649 151.304 32.0692 156.216 35.7237C161.112 39.3665 164.46 44.0753 166.234 50.379C168.009 56.6867 167.943 65.9166 164.248 73.6796C160.521 81.5072 154.943 86.4507 149.724 89.9292C147.758 91.2401 145.008 92.8275 142.374 94.6866C139.723 96.5575 137.11 98.7549 135.329 101.366C133.955 103.381 133.104 106.069 132.629 108.608C132.188 110.957 132.067 113.211 132.161 114.739L110.947 114.739C110.971 113.831 110.963 112.507 110.955 111.089C110.947 109.473 110.944 107.727 111.001 106.296C111.142 102.751 112.276 96.9442 116.765 91.0473C119.003 88.1077 121.772 85.8798 124.837 83.787C126.371 82.74 127.973 81.7301 129.62 80.6806C131.266 79.6324 132.954 78.5458 134.649 77.3509C141.509 72.5124 143.589 64.4132 142.904 59.802C142.219 55.1895 138.523 50.1548 132.935 48.8918C127.43 47.6481 120.703 48.3233 115.852 52.5033C113.813 54.26 112.314 56.7651 111.281 59.3273C110.298 61.768 109.73 64.2834 109.524 66.3019L87.675 66.3023C87.6732 56.658 92.2991 47.5791 96.3417 42.2869C100.405 36.9669 107.592 32.4347 114.997 30.1396Z" fill="#C82A87" stroke="black" stroke-width="0.659552" stroke-linejoin="round"/>
<path d="M43.9102 41.4844L47.4456 42.9908V47.8067L43.9102 46.3003V41.4844Z" fill="#5F66AD"/>
<path d="M184.883 1.65625L188.418 3.16269V7.97862L184.883 6.47217V1.65625Z" fill="#D9D9D9"/>
<path d="M43.9109 41.4871L184.88 1.65728L188.432 3.17479L47.4676 43.0004L43.9109 41.4871Z" fill="#CFD1EC"/>
<path d="M47.4467 43.0021L188.417 3.17477L188.417 7.98309L47.4467 47.8104L47.4467 43.0021Z" fill="#0F19A0"/>
<path d="M188.089 3.38867V7.73242L47.4678 47.458L44.2402 46.0811V41.7373L184.858 2.00488L188.089 3.38867Z" stroke="black" stroke-width="0.659552"/>
<path d="M44.2344 41.62L47.4498 42.9993M47.4498 42.9993L47.4498 47.6737M47.4498 42.9993L188.082 3.27344" stroke="black" stroke-width="0.659552" stroke-linejoin="round"/>
<path d="M116.161 22.4039L107.63 13.873H124.691L116.161 22.4039Z" fill="#C82A87" stroke="black" stroke-width="0.659552"/>
</svg>
