<svg width="288" height="170" viewBox="0 0 288 170" fill="none" xmlns="http://www.w3.org/2000/svg">
<path d="M240.36 165.631H47.7853C5.29879 165.631 -15.9805 114.009 14.0651 83.8191L64.7375 32.8969C108.385 -10.9656 179.408 -10.9656 223.059 32.8969L273.98 84.0685C303.93 114.166 282.718 165.631 240.364 165.631" fill="#00808F" fill-opacity="0.4"/>
<path d="M44.1604 165.629H164.58C191.147 165.629 204.455 133.384 185.668 114.529L153.982 82.7195C126.689 55.3227 82.2769 55.3227 54.9805 82.7195L23.137 114.684C4.40816 133.484 17.6707 165.629 44.1572 165.629" fill="#E9F5F6" fill-opacity="0.4"/>
<path d="M156.274 158.073C156.411 158.073 156.557 158.074 156.705 158.076L157.151 158.095L157.163 158.096L157.285 158.116C157.409 158.145 157.535 158.201 157.641 158.304C157.767 158.426 157.824 158.576 157.849 158.718C157.883 158.858 157.881 159.016 157.881 159.1V163.317C157.881 165.116 156.407 166.782 154.426 166.782H140.66C140.348 166.782 140.019 166.783 139.688 166.762L139.676 166.761V166.76C137.998 166.601 136.621 165.215 136.575 163.509C136.536 162.003 136.575 160.483 136.575 159C136.575 158.888 136.58 158.768 136.604 158.656C136.63 158.538 136.684 158.403 136.802 158.291C136.916 158.182 137.05 158.135 137.159 158.111C137.265 158.088 137.382 158.079 137.493 158.074L137.503 158.073H156.274Z" fill="#342556" stroke="black" stroke-width="0.85266"/>
<path d="M228.902 158.073C229.108 158.073 229.299 158.073 229.451 158.091C229.602 158.108 229.808 158.151 229.967 158.316C230.123 158.478 230.162 158.684 230.178 158.834C230.194 158.989 230.193 159.185 230.193 159.399V163.237C230.193 164.181 229.88 165.008 229.23 165.69C228.603 166.351 227.834 166.693 226.948 166.761L226.932 166.762H212.756C212.575 166.762 212.288 166.783 212.049 166.761V166.76C210.323 166.64 208.956 165.248 208.889 163.494L208.871 162.928C208.839 161.605 208.869 160.278 208.869 158.979C208.869 158.802 208.876 158.523 209.063 158.317C209.257 158.105 209.538 158.084 209.704 158.074L209.716 158.073H228.902Z" fill="#342556" stroke="black" stroke-width="0.85266"/>
<path d="M235.805 39.0557C236.423 39.0557 237.113 39.0547 237.79 39.2539L237.791 39.2529C239.779 39.824 241.176 41.6007 241.305 43.6943C241.325 44.0293 241.324 44.3621 241.324 44.6797V152.142C241.324 153.607 241.332 155.292 240.755 156.602C240.459 157.273 240.005 157.86 239.317 158.273C238.634 158.684 237.752 158.904 236.631 158.904H182.353C164.516 158.904 146.679 158.905 128.803 158.925H128.802C128.337 158.925 127.76 158.948 127.206 158.812V158.812C125.033 158.286 123.53 156.467 123.381 154.188L123.38 154.175V44.6797C123.38 44.1472 123.378 43.5616 123.508 42.9697L123.509 42.9658C124.001 40.8118 125.784 39.2308 127.966 39.0771H127.969C128.299 39.0562 128.627 39.0557 128.939 39.0557H235.805Z" fill="#384A9C" stroke="black" stroke-width="0.85266"/>
<path d="M223.456 52.3906V52.3916C225.675 52.3716 228.093 54.1522 228.247 57.1846H228.248C228.269 57.4819 228.249 57.836 228.249 58.0742V139.909C228.249 140.383 228.249 140.897 228.164 141.416C227.799 143.689 225.87 145.313 223.968 145.491L223.967 145.49C223.418 145.552 222.874 145.573 222.336 145.573H142.295C141.755 145.573 141.2 145.553 140.639 145.469L140.631 145.468C138.417 145.096 136.642 143.175 136.598 140.899L136.58 139.983C136.548 137.846 136.578 135.719 136.578 133.593C136.578 133.519 136.588 133.457 136.593 133.422C136.596 133.402 136.597 133.395 136.598 133.388C136.598 133.389 136.598 133.391 136.598 133.394C136.598 133.248 136.629 133.064 136.756 132.906C136.881 132.75 137.054 132.678 137.225 132.654V132.653C137.6 132.586 137.901 132.555 138.223 132.479C139.761 132.065 140.854 130.674 140.925 129.037V115.543C140.925 115.131 140.904 114.762 140.804 114.424H140.803C140.556 113.628 140.177 113.015 139.677 112.566C139.176 112.117 138.534 111.812 137.733 111.664L137.726 111.663C137.554 111.628 137.448 111.635 137.197 111.609L137.187 111.608C137.019 111.587 136.859 111.513 136.741 111.37C136.634 111.239 136.597 111.092 136.582 110.984L136.58 110.963C136.558 110.721 136.559 110.482 136.559 110.266V90.502L136.566 90.2949C136.57 90.2277 136.576 90.1632 136.584 90.1055C136.601 89.9876 136.637 89.8278 136.757 89.6904C136.878 89.5516 137.033 89.4942 137.153 89.4629C137.27 89.4323 137.413 89.4127 137.559 89.3936H137.563C138.935 89.2306 139.93 88.5385 140.555 87.2695C140.831 86.7087 140.925 86.1005 140.925 85.4189V72.166C140.925 70.2551 139.486 68.667 137.803 68.4521L137.519 68.4189C137.416 68.4052 137.308 68.3875 137.205 68.3643C137.06 68.3314 136.906 68.2644 136.782 68.1328C136.658 67.9999 136.601 67.8379 136.583 67.6797L136.581 67.6807C136.558 67.4906 136.559 67.3041 136.559 67.1484C136.559 63.8869 136.578 60.6336 136.539 57.3789C136.518 55.5893 137.629 53.3098 140.072 52.6064V52.6074C140.413 52.4945 140.764 52.4512 141.088 52.4307V52.4316C141.467 52.3911 141.841 52.4102 142.157 52.4102H182.354C195.708 52.4102 209.041 52.4106 222.413 52.3906H223.456Z" fill="#5F66AD" stroke="black" stroke-width="0.85266"/>
<path d="M137.157 110.499C139.38 110.402 141.562 112.284 141.562 114.929V129.02C141.563 129.36 141.564 129.745 141.492 130.136L141.491 130.135C141.136 132.168 139.462 133.654 137.413 133.773H137.408C136.948 133.795 136.434 133.817 135.935 133.772V133.773C135.931 133.773 135.928 133.773 135.925 133.772H135.923V133.771C133.361 133.598 131.875 131.469 131.852 129.609L131.853 129.608C131.832 129.337 131.83 129.049 131.83 128.781V115.492C131.83 115.148 131.83 114.788 131.853 114.427L131.854 114.419V114.411C132.065 112.282 133.786 110.595 135.922 110.499H135.94C136.398 110.499 136.762 110.52 137.153 110.499H137.157Z" fill="#342556" stroke="black" stroke-width="0.85266"/>
<path d="M137.183 67.2949L137.686 67.333L137.689 67.334C139.812 67.5661 141.383 69.22 141.543 71.3389L141.554 71.5459L141.555 71.5518C141.576 72.8302 141.555 74.1177 141.555 75.3818V86.0527C141.555 87.6025 140.887 88.7976 139.719 89.752C139.376 90.0319 138.894 90.2204 138.385 90.3408C137.867 90.4632 137.282 90.524 136.701 90.5254C136.12 90.5268 135.53 90.4685 135.003 90.3438C134.483 90.2207 133.989 90.0251 133.631 89.7285C132.657 88.9228 131.958 87.9168 131.862 86.5576C131.84 86.2377 131.84 85.898 131.84 85.5986V72.2285C131.84 71.9718 131.84 71.6752 131.862 71.376V71.375C132.026 69.2388 133.556 67.5744 135.661 67.334L135.666 67.333C136.165 67.2822 136.677 67.2696 137.183 67.2949Z" fill="#342556" stroke="black" stroke-width="0.85266"/>
<path d="M182.393 73.6787C194.141 73.6991 204.323 82.1189 206.605 93.7881L206.716 94.3711C206.817 94.9528 206.891 95.5309 206.965 96.0986H206.964C206.99 96.2734 206.983 96.4985 206.833 96.6895C206.68 96.8845 206.456 96.9433 206.283 96.958C206.026 96.9798 205.752 96.9795 205.5 96.9795C204.372 96.9795 203.239 96.9994 202.096 96.9795C201.876 96.9797 201.724 97.0181 201.617 97.0781C201.517 97.1343 201.423 97.2273 201.348 97.4023L201.347 97.4043C201.136 97.8832 201.388 98.3784 201.855 98.4912L201.952 98.5088L201.962 98.5098L201.972 98.5117C202.161 98.5437 202.305 98.5254 202.569 98.5254H205.784C206.004 98.5302 206.207 98.5347 206.367 98.5566C206.525 98.5784 206.735 98.6276 206.895 98.7998C207.051 98.969 207.088 99.1809 207.102 99.3398C207.116 99.5032 207.11 99.7106 207.105 99.9404C207.085 100.962 206.985 101.962 206.825 102.958C206.186 106.938 204.706 110.555 202.369 113.825C202.222 114.038 202.057 114.25 201.901 114.447C201.807 114.567 201.633 114.753 201.359 114.763C201.103 114.771 200.913 114.616 200.807 114.519L200.791 114.503C200.398 114.103 200.009 113.708 199.62 113.313C199.232 112.919 198.843 112.524 198.45 112.124C198.273 111.944 198.096 111.764 197.919 111.584C197.791 111.454 197.635 111.402 197.408 111.429H197.407C197.047 111.471 196.839 111.817 196.974 112.155L197.006 112.223V112.224C197.048 112.302 197.102 112.376 197.168 112.453L197.406 112.705L197.409 112.709C197.841 113.158 198.273 113.601 198.705 114.043L200.002 115.364L200.011 115.373C200.087 115.455 200.166 115.542 200.225 115.626C200.284 115.711 200.359 115.841 200.363 116.009C200.368 116.182 200.296 116.316 200.236 116.405C200.179 116.49 200.102 116.575 200.031 116.651L200.028 116.655C199.125 117.615 198.122 118.489 197.062 119.281L197.063 119.282C193.782 121.743 190.118 123.27 186.099 123.92L186.088 123.922V123.921C185.489 124.002 184.871 124.063 184.284 124.123L184.275 124.124C184.098 124.139 183.928 124.15 183.786 124.142C183.646 124.134 183.457 124.104 183.298 123.969C183.134 123.829 183.078 123.642 183.054 123.499C183.03 123.358 183.027 123.191 183.027 123.02V119.761C183.027 119.334 183.046 119 183.011 118.652L182.995 118.562C182.89 118.129 182.426 117.951 182.044 118.213L182.035 118.219C181.879 118.321 181.788 118.475 181.775 118.687L181.774 118.696C181.756 118.916 181.757 119.119 181.757 119.341V122.799C181.757 123.016 181.757 123.255 181.735 123.497L181.732 123.496C181.715 123.835 181.46 124.103 181.112 124.121L181.113 124.123C180.871 124.145 180.628 124.145 180.386 124.123V124.122C174.73 123.614 169.767 121.439 165.549 117.54L165.324 117.336C165.256 117.272 165.195 117.212 165.146 117.155C165.051 117.048 164.919 116.873 164.923 116.635C164.927 116.406 165.057 116.236 165.139 116.139C165.225 116.035 165.357 115.904 165.485 115.77L165.49 115.764C166.296 114.944 167.083 114.145 167.89 113.325C168.09 113.122 168.241 112.983 168.351 112.825C168.496 112.609 168.475 112.302 168.304 112.104H168.303C168.108 111.886 167.844 111.846 167.601 112.009C167.431 112.148 167.275 112.307 167.101 112.484C166.657 112.935 166.209 113.385 165.762 113.835C165.314 114.285 164.867 114.734 164.426 115.183L164.42 115.189L164.413 115.195C164.35 115.254 164.275 115.32 164.192 115.37C164.106 115.423 163.979 115.479 163.821 115.469C163.665 115.458 163.546 115.387 163.467 115.323C163.39 115.262 163.322 115.186 163.264 115.116V115.115C163.148 114.979 163.024 114.831 162.898 114.662C159.903 110.744 158.101 106.332 157.66 101.37L157.586 100.397C157.566 100.073 157.551 99.749 157.541 99.4248L157.54 99.4121C157.54 99.235 157.547 98.9551 157.735 98.749C157.929 98.5373 158.209 98.5162 158.375 98.5068L158.388 98.5059H162.372C162.594 98.5059 162.771 98.5042 162.942 98.4727L163.054 98.4395C163.309 98.3314 163.518 98.0311 163.519 97.7129C163.519 97.331 163.231 97.0155 162.86 96.9775L162.851 96.9766L162.842 96.9756C162.607 96.9415 162.374 96.9599 162.058 96.96H158.95C158.741 96.96 158.544 96.9576 158.385 96.9346C158.229 96.9121 158.014 96.8579 157.861 96.6719C157.712 96.4899 157.695 96.2707 157.697 96.1133C157.7 95.9491 157.728 95.7487 157.762 95.5293V95.5283C157.879 94.7719 158 93.9954 158.182 93.2363C160.343 83.6647 167.822 76.2222 177.248 74.208L177.86 74.0859C179.311 73.8187 180.905 73.6787 182.392 73.6787H182.393Z" fill="#EFD2E6" stroke="black" stroke-width="0.85266"/>
<path d="M182.37 76.6963C182.741 76.6963 183.093 76.7826 183.399 76.9736C183.668 77.1411 183.884 77.3779 184.046 77.6709L184.112 77.7998L184.115 77.8066L184.205 78.0195C184.289 78.2336 184.356 78.4476 184.424 78.6406L184.427 78.6484C185.231 81.0823 186.058 83.5439 186.826 86.0049C186.901 86.234 186.989 86.3868 187.093 86.501C187.171 86.5864 187.27 86.6632 187.405 86.7354L187.554 86.8057L187.559 86.8086C191.613 88.6218 194.219 91.7476 195.253 96.1348L195.254 96.1357C196.878 103.091 192.658 110.215 185.863 112.035C184.646 112.365 183.685 112.489 182.392 112.489L182.393 112.49L182.391 112.489L182.39 112.49V112.489C176.365 112.529 170.7 108.169 169.502 101.568L169.408 100.998C168.565 95.1113 171.699 89.4539 176.88 87.0312L177.118 86.9121C177.336 86.7908 177.506 86.6577 177.643 86.5059C177.823 86.3044 177.964 86.0486 178.067 85.6973V85.6963C178.778 83.3091 179.588 80.9411 180.373 78.5869C180.447 78.3428 180.537 78.0223 180.695 77.7227C181.027 77.0591 181.648 76.6963 182.37 76.6963Z" fill="#D3559F" stroke="black" stroke-width="0.85266"/>
<path d="M182.43 88.8291C188.268 88.8291 192.591 93.6762 192.591 99.1309V99.1318C192.57 104.834 187.965 109.469 182.433 109.431H182.43L182.427 109.432V109.431C176.958 109.469 172.289 104.918 172.289 99.1504C172.269 93.5283 176.717 88.8292 182.43 88.8291Z" fill="#A50E54" stroke="black" stroke-width="0.85266"/>
<path d="M222.993 145.868H223.001C228.898 145.838 233.892 150.679 233.861 156.791V156.793C233.861 162.363 229.349 167.685 222.907 167.654H222.905C216.733 167.654 212.013 162.696 212.043 156.733C212.104 150.225 217.46 145.777 222.993 145.868Z" fill="#FD950E" stroke="black" stroke-width="0.779662"/>
<path d="M226.443 145.868H226.451C232.348 145.838 237.342 150.679 237.312 156.791V156.793C237.311 162.363 232.799 167.685 226.357 167.654H226.355C220.183 167.654 215.464 162.696 215.493 156.733C215.554 150.225 220.91 145.777 226.443 145.868Z" fill="#FEC33B" stroke="black" stroke-width="0.779662"/>
<path d="M86.2207 143.868H86.2285C92.1255 143.838 97.1191 148.679 97.0889 154.791V154.793C97.0887 160.363 92.5762 165.685 86.1348 165.654H86.1328C79.9608 165.654 75.241 160.696 75.2705 154.733C75.3311 148.225 80.6875 143.777 86.2207 143.868Z" fill="#FD950E" stroke="black" stroke-width="0.779662"/>
<path d="M89.6719 143.868H89.6797C95.5767 143.838 100.57 148.679 100.54 154.791V154.793C100.54 160.363 96.0273 165.685 89.5859 165.654H89.584C83.412 165.654 78.6922 160.696 78.7217 154.733C78.7823 148.225 84.1387 143.777 89.6719 143.868Z" fill="#FEC33B" stroke="black" stroke-width="0.779662"/>
<path d="M70.0225 126.325H70.0303C75.9273 126.295 80.9209 131.136 80.8906 137.248V137.25C80.8904 142.82 76.3779 148.142 69.9365 148.111H69.9346C63.7626 148.111 59.0428 143.153 59.0723 137.19C59.1329 130.682 64.4892 126.234 70.0225 126.325Z" fill="#FD950E" stroke="black" stroke-width="0.779662"/>
<path d="M73.4727 126.325H73.4805C79.3775 126.295 84.3711 131.136 84.3408 137.248V137.25C84.3406 142.82 79.8281 148.142 73.3867 148.111H73.3848C67.2128 148.111 62.493 143.153 62.5225 137.19C62.5831 130.682 67.9394 126.234 73.4727 126.325Z" fill="#FEC33B" stroke="black" stroke-width="0.779662"/>
<path d="M158.036 16.4365H158.044C163.941 16.4063 168.935 21.2471 168.904 27.3594V27.3613C168.904 32.9311 164.392 38.2529 157.95 38.2227H157.948C151.776 38.2226 147.056 33.2647 147.086 27.3018C147.147 20.7933 152.503 16.3458 158.036 16.4365Z" fill="#FD950E" stroke="black" stroke-width="0.779662"/>
<path d="M161.486 16.4365H161.494C167.391 16.4063 172.385 21.2471 172.354 27.3594V27.3613C172.354 32.9311 167.842 38.2529 161.4 38.2227H161.398C155.226 38.2226 150.507 33.2647 150.536 27.3018C150.597 20.7933 155.953 16.3458 161.486 16.4365Z" fill="#FEC33B" stroke="black" stroke-width="0.779662"/>
<path d="M240.333 147.277H240.343C245.992 147.248 250.776 151.886 250.747 157.742V157.745C250.747 163.082 246.423 168.181 240.252 168.152H240.249C234.336 168.152 229.815 163.402 229.843 157.688C229.901 151.452 235.033 147.19 240.333 147.277Z" fill="#FD950E" stroke="black" stroke-width="0.95794"/>
<path d="M243.671 147.277H243.681C249.33 147.248 254.114 151.886 254.085 157.742V157.745C254.085 163.082 249.761 168.181 243.59 168.152H243.587C237.674 168.152 233.153 163.402 233.181 157.688C233.239 151.452 238.371 147.19 243.671 147.277Z" fill="#FEC33B" stroke="black" stroke-width="0.95794"/>
<path d="M113.89 147.277H113.899C119.548 147.248 124.332 151.886 124.304 157.742V157.745C124.304 163.082 119.979 168.181 113.809 168.152H113.806C107.892 168.152 103.371 163.402 103.399 157.688C103.458 151.452 108.589 147.19 113.89 147.277Z" fill="#FD950E" stroke="black" stroke-width="0.95794"/>
<path d="M117.228 147.277H117.237C122.886 147.248 127.67 151.886 127.642 157.742V157.745C127.642 163.082 123.317 168.181 117.146 168.152H117.144C111.23 168.152 106.709 163.402 106.737 157.688C106.795 151.452 111.927 147.19 117.228 147.277Z" fill="#FEC33B" stroke="black" stroke-width="0.95794"/>
<path d="M97.4697 147.277H97.4795C103.129 147.248 107.913 151.886 107.884 157.742V157.745C107.884 163.082 103.559 168.181 97.3887 168.152H97.3857C91.4725 168.152 86.9514 163.402 86.9795 157.688C87.0377 151.452 92.1693 147.19 97.4697 147.277Z" fill="#FD950E" stroke="black" stroke-width="0.95794"/>
<path d="M100.808 147.277H100.817C106.466 147.248 111.25 151.886 111.222 157.742V157.745C111.222 163.082 106.897 168.181 100.727 168.152H100.724C94.8104 168.152 90.2893 163.402 90.3174 157.688C90.3756 151.452 95.5072 147.19 100.808 147.277Z" fill="#FEC33B" stroke="black" stroke-width="0.95794"/>
<path d="M61.9697 147.277H61.9795C67.6285 147.248 72.4126 151.886 72.3838 157.742V157.745C72.3837 163.082 68.0593 168.181 61.8887 168.152H61.8857C55.9725 168.152 51.4514 163.402 51.4795 157.688C51.5377 151.452 56.6693 147.19 61.9697 147.277Z" fill="#FD950E" stroke="black" stroke-width="0.95794"/>
<path d="M65.3076 147.277H65.3174C70.9664 147.248 75.7505 151.886 75.7217 157.742V157.745C75.7216 163.082 71.3972 168.181 65.2266 168.152H65.2236C59.3104 168.152 54.7893 163.402 54.8174 157.688C54.8756 151.452 60.0072 147.19 65.3076 147.277Z" fill="#FEC33B" stroke="black" stroke-width="0.95794"/>
<path d="M45.7451 147.277H45.7549C51.4039 147.248 56.188 151.886 56.1592 157.742V157.745C56.1591 163.082 51.8347 168.181 45.6641 168.152H45.6611C39.7479 168.152 35.2268 163.402 35.2549 157.688C35.3131 151.452 40.4447 147.19 45.7451 147.277Z" fill="#FD950E" stroke="black" stroke-width="0.95794"/>
<path d="M49.083 147.277H49.0928C54.7418 147.248 59.5259 151.886 59.4971 157.742V157.745C59.497 163.082 55.1726 168.181 49.002 168.152H48.999C43.0858 168.152 38.5647 163.402 38.5928 157.688C38.6509 151.452 43.7826 147.19 49.083 147.277Z" fill="#FEC33B" stroke="black" stroke-width="0.95794"/>
</svg>
