<svg viewBox="0 0 240 178" fill="none" xmlns="http://www.w3.org/2000/svg">
<path d="M141.203 166.641C141.36 166.641 141.529 166.641 141.7 166.644L142.216 166.665L142.223 166.666H142.229C142.416 166.685 142.62 166.749 142.785 166.908C142.932 167.05 142.999 167.226 143.027 167.391H143.028C143.068 167.554 143.065 167.737 143.065 167.833V172.702C143.065 174.783 141.361 176.71 139.068 176.71H123.175C122.814 176.71 122.435 176.711 122.054 176.687L122.046 176.686H122.038C120.098 176.501 118.505 174.898 118.452 172.924V172.923C118.407 171.185 118.452 169.43 118.452 167.718C118.452 167.589 118.457 167.45 118.485 167.32C118.515 167.183 118.578 167.024 118.716 166.894C118.85 166.767 119.005 166.711 119.132 166.684C119.255 166.657 119.391 166.648 119.52 166.642L119.53 166.641H141.203Z" fill="#342556" stroke="black"/>
<path d="M225.055 166.641C225.292 166.641 225.514 166.64 225.689 166.66C225.864 166.68 226.103 166.731 226.289 166.924C226.471 167.113 226.517 167.352 226.535 167.525C226.554 167.704 226.554 167.931 226.554 168.179V172.61C226.554 173.701 226.191 174.658 225.439 175.447C224.714 176.211 223.824 176.607 222.799 176.686L222.78 176.688H206.413C206.208 176.688 205.882 176.709 205.608 176.686V176.687C205.605 176.686 205.603 176.686 205.6 176.686C205.598 176.685 205.597 176.686 205.596 176.686V176.685C203.599 176.546 202.019 174.936 201.94 172.907L201.92 172.252C201.883 170.725 201.917 169.193 201.917 167.694C201.917 167.49 201.925 167.165 202.145 166.925C202.37 166.677 202.698 166.652 202.889 166.642L202.902 166.641H225.055Z" fill="#342556" stroke="black"/>
<path d="M233.022 29.2305C233.737 29.2305 234.537 29.2275 235.321 29.459L235.32 29.46C237.617 30.1211 239.231 32.1734 239.38 34.5928C239.404 34.9796 239.403 35.364 239.403 35.7305V159.8C239.403 161.491 239.412 163.438 238.745 164.952C238.403 165.729 237.878 166.407 237.082 166.886C236.291 167.361 235.272 167.615 233.977 167.615H171.311C161.014 167.615 150.716 167.615 140.414 167.618L109.484 167.639C108.948 167.639 108.281 167.665 107.64 167.509V167.508C105.128 166.9 103.391 164.797 103.218 162.163L103.217 162.146V35.7305C103.217 35.1159 103.215 34.4391 103.364 33.7549L103.365 33.75C103.934 31.26 105.996 29.4327 108.518 29.2549H108.521C108.903 29.2306 109.282 29.2305 109.643 29.2305H233.022Z" fill="#384A9C" stroke="black"/>
<path d="M218.766 44.6211V44.6221C221.331 44.599 224.127 46.6583 224.305 50.1631C224.329 50.5066 224.307 50.9161 224.307 51.1904V145.674C224.307 146.221 224.307 146.816 224.209 147.416C223.786 150.039 221.563 151.913 219.366 152.123L219.367 152.124C218.73 152.196 218.097 152.22 217.472 152.22H125.062C124.437 152.22 123.797 152.196 123.148 152.099L123.14 152.098C120.58 151.668 118.528 149.448 118.477 146.816L118.456 145.758C118.419 143.291 118.454 140.835 118.454 138.381C118.454 138.294 118.465 138.222 118.471 138.182C118.474 138.159 118.476 138.151 118.477 138.143C118.476 138.144 118.477 138.147 118.477 138.149C118.477 137.98 118.513 137.766 118.661 137.582C118.807 137.401 119.008 137.316 119.206 137.289V137.288C119.637 137.211 119.982 137.175 120.351 137.088C122.125 136.615 123.388 135.012 123.472 133.126V117.541C123.472 117.068 123.448 116.645 123.335 116.258L123.222 115.922C122.939 115.163 122.539 114.565 122.034 114.111C121.457 113.593 120.717 113.241 119.794 113.07L119.785 113.069C119.588 113.029 119.467 113.037 119.176 113.008L119.163 113.006C118.968 112.981 118.78 112.896 118.644 112.729C118.519 112.576 118.476 112.404 118.459 112.279L118.457 112.267L118.456 112.255C118.431 111.975 118.432 111.698 118.432 111.448V88.6309C118.437 88.4692 118.441 88.3057 118.46 88.1719C118.479 88.0352 118.523 87.8489 118.663 87.6885C118.805 87.5267 118.985 87.4592 119.124 87.4229C119.26 87.3874 119.425 87.3658 119.593 87.3438L119.599 87.3428C121.179 87.155 122.326 86.358 123.046 84.8955C123.364 84.2495 123.472 83.5479 123.472 82.7617V67.4609C123.472 65.2582 121.813 63.4269 119.874 63.1797V63.1807C119.681 63.1589 119.422 63.1327 119.185 63.0791C119.016 63.041 118.835 62.9632 118.691 62.8096C118.545 62.653 118.477 62.4621 118.457 62.2764L118.458 62.2754C118.432 62.0581 118.432 61.8455 118.432 61.668C118.432 57.9025 118.454 54.1471 118.408 50.3896V50.3887C118.384 48.3198 119.669 45.6853 122.494 44.8721V44.873C122.889 44.7425 123.294 44.6917 123.668 44.668V44.6699C124.105 44.6231 124.538 44.6445 124.902 44.6445H171.312C186.729 44.6445 202.123 44.6442 217.562 44.6211H218.766Z" fill="#5F66AD" stroke="black"/>
<path d="M119.13 111.711C121.701 111.599 124.225 113.776 124.225 116.834V133.102C124.225 133.492 124.225 133.935 124.143 134.385L124.144 134.386C123.735 136.739 121.797 138.459 119.427 138.598L119.421 138.599C118.89 138.623 118.295 138.649 117.718 138.597V138.598C117.716 138.598 117.714 138.597 117.712 138.597C117.709 138.596 117.707 138.597 117.704 138.597V138.596C114.835 138.401 113.134 136.085 113.005 133.985L112.997 133.782C112.973 133.468 112.973 133.135 112.973 132.826V117.483C112.973 117.086 112.972 116.671 112.998 116.253L112.999 116.244L113 116.234C113.245 113.772 115.234 111.823 117.703 111.711H117.726C118.255 111.711 118.674 111.735 119.125 111.711H119.13Z" fill="#342556" stroke="black"/>
<path d="M117.408 61.875C118.178 61.7968 118.973 61.7968 119.742 61.875H119.746C122.2 62.1433 124.017 64.0567 124.202 66.5068L124.215 66.7461V66.7529C124.239 68.2291 124.215 69.7163 124.215 71.1758V83.4941C124.215 85.2861 123.444 86.6684 122.094 87.7715C121.697 88.0959 121.138 88.314 120.55 88.4531C119.952 88.5945 119.276 88.6653 118.604 88.667C117.933 88.6686 117.251 88.6012 116.642 88.457C116.116 88.3325 115.612 88.1437 115.217 87.8682L115.055 87.7451C113.929 86.8139 113.12 85.6504 113.01 84.0781C112.984 83.7084 112.984 83.3163 112.984 82.9707V67.5342C112.984 67.2378 112.985 66.8947 113.011 66.5488L113.032 66.3184C113.31 63.9598 115.044 62.1453 117.402 61.876L117.408 61.875Z" fill="#342556" stroke="black"/>
<path d="M171.357 69.2031L171.991 69.2109C185.289 69.5308 196.725 79.1602 199.319 92.4258L199.446 93.0996C199.563 93.7714 199.65 94.4393 199.734 95.0947H199.732C199.763 95.2976 199.755 95.5597 199.58 95.7822C199.401 96.0099 199.141 96.0777 198.939 96.0947C198.642 96.1199 198.325 96.1201 198.035 96.1201C196.733 96.1201 195.424 96.1431 194.104 96.1201C193.852 96.1204 193.679 96.164 193.557 96.2324C193.443 96.2963 193.336 96.4025 193.249 96.6035L193.247 96.6064C193.006 97.155 193.295 97.7216 193.829 97.8506L193.939 97.8701L193.951 97.8711L193.963 97.873C194.18 97.9098 194.346 97.8897 194.651 97.8896H198.363C198.617 97.8951 198.852 97.8994 199.037 97.9248C199.22 97.95 199.465 98.0079 199.65 98.209C199.833 98.4063 199.876 98.653 199.892 98.8369C199.9 98.9315 199.902 99.0386 199.902 99.1553L199.896 99.5303C199.873 100.711 199.758 101.865 199.573 103.016C198.835 107.611 197.125 111.788 194.427 115.565C194.257 115.812 194.066 116.056 193.887 116.284C193.778 116.422 193.574 116.64 193.255 116.65C192.956 116.66 192.734 116.48 192.611 116.367L192.602 116.358L192.593 116.349C192.139 115.887 191.69 115.431 191.241 114.976C190.793 114.52 190.345 114.064 189.891 113.603L189.277 112.979C189.132 112.832 188.954 112.771 188.694 112.802L188.692 112.803C188.282 112.85 188.044 113.244 188.198 113.63L188.234 113.707L188.235 113.708C188.284 113.798 188.345 113.883 188.422 113.972L188.696 114.263L188.7 114.267C189.199 114.785 189.697 115.298 190.195 115.808L191.693 117.332L191.698 117.338L191.703 117.343C191.791 117.438 191.883 117.538 191.951 117.636C192.02 117.734 192.106 117.886 192.111 118.082C192.117 118.284 192.035 118.441 191.965 118.544C191.898 118.642 191.808 118.742 191.727 118.83L191.724 118.833C190.81 119.803 189.809 120.699 188.754 121.521L188.299 121.868C184.509 124.71 180.278 126.472 175.637 127.223L175.624 127.226V127.225C174.933 127.318 174.219 127.389 173.541 127.458L173.531 127.459C173.326 127.476 173.13 127.489 172.965 127.479C172.803 127.47 172.583 127.435 172.397 127.277C172.206 127.114 172.14 126.897 172.112 126.731C172.085 126.568 172.082 126.374 172.082 126.176V122.414C172.082 121.921 172.104 121.536 172.063 121.135L172.045 121.032C171.924 120.537 171.395 120.334 170.958 120.634L170.948 120.641L170.947 120.64C170.769 120.756 170.666 120.932 170.652 121.174L170.651 121.186C170.631 121.439 170.63 121.674 170.63 121.93V125.922C170.63 126.172 170.63 126.448 170.605 126.728C170.585 127.122 170.285 127.435 169.88 127.457L169.881 127.458C169.601 127.484 169.32 127.484 169.04 127.458V127.457C162.508 126.87 156.776 124.358 151.904 119.854C151.72 119.689 151.554 119.541 151.438 119.41C151.329 119.286 151.175 119.082 151.18 118.805C151.184 118.538 151.336 118.34 151.431 118.228C151.531 118.108 151.683 117.955 151.831 117.8L151.837 117.794C151.85 117.78 151.845 117.785 151.858 117.771C151.869 117.761 151.859 117.771 151.869 117.761C151.876 117.754 151.873 117.756 151.88 117.749C151.883 117.745 151.921 117.708 151.924 117.705C151.936 117.693 151.933 117.695 151.945 117.683L151.989 117.639C151.991 117.637 151.992 117.635 151.994 117.633C151.996 117.631 151.998 117.63 152 117.628C152.002 117.626 152.003 117.624 152.005 117.622L152.076 117.551L152.119 117.506C152.126 117.499 152.135 117.492 152.142 117.484C152.149 117.476 152.145 117.481 152.152 117.473L152.174 117.451C152.176 117.449 152.177 117.447 152.179 117.445C152.181 117.443 152.183 117.441 152.185 117.439C152.188 117.436 152.225 117.398 152.228 117.396C152.241 117.382 152.237 117.388 152.25 117.374C152.252 117.372 152.27 117.353 152.271 117.352C152.328 117.295 152.302 117.321 152.358 117.264C152.417 117.204 152.472 117.148 152.531 117.088L152.617 117C152.642 116.974 152.636 116.982 152.661 116.956C152.699 116.918 152.667 116.95 152.704 116.912C152.713 116.903 152.706 116.911 152.715 116.901C152.723 116.893 152.718 116.898 152.726 116.89L152.736 116.879C152.738 116.877 152.74 116.876 152.742 116.874C152.744 116.872 152.745 116.87 152.747 116.868L152.769 116.847C152.787 116.827 152.771 116.843 152.79 116.824L152.812 116.803C152.837 116.777 152.808 116.806 152.833 116.78C152.836 116.777 152.873 116.74 152.877 116.736C152.919 116.693 153.007 116.605 153.049 116.562L153.07 116.539L153.092 116.518C153.099 116.51 153.106 116.502 153.113 116.495C153.115 116.493 153.117 116.492 153.119 116.49L153.136 116.474C153.137 116.472 153.139 116.47 153.141 116.468C153.142 116.466 153.145 116.465 153.146 116.463C153.148 116.461 153.155 116.454 153.157 116.452C153.159 116.45 153.16 116.448 153.162 116.446L153.179 116.43C153.21 116.398 153.191 116.417 153.222 116.386C153.282 116.325 153.333 116.272 153.394 116.211C153.407 116.197 153.402 116.202 153.415 116.188C153.444 116.159 153.408 116.197 153.438 116.167C153.458 116.146 153.438 116.165 153.459 116.145L153.502 116.102C153.504 116.1 153.505 116.097 153.507 116.096L153.545 116.058C153.547 116.056 153.548 116.054 153.55 116.052C153.552 116.05 153.554 116.048 153.556 116.046C153.557 116.044 153.56 116.043 153.562 116.041C153.563 116.039 153.565 116.037 153.566 116.035C153.611 115.99 153.608 115.992 153.652 115.947C153.689 115.91 153.703 115.897 153.739 115.86C153.774 115.825 153.748 115.851 153.782 115.816C153.784 115.815 153.786 115.812 153.788 115.811C153.79 115.809 153.791 115.806 153.793 115.805L153.825 115.772C153.856 115.741 153.881 115.716 153.912 115.685C153.914 115.683 153.915 115.681 153.917 115.679L153.955 115.641C153.96 115.636 153.961 115.634 153.966 115.629C153.968 115.627 153.97 115.626 153.972 115.624C153.973 115.622 153.975 115.62 153.977 115.618C153.984 115.611 153.991 115.604 153.998 115.597C154.003 115.592 154.004 115.59 154.009 115.585L154.021 115.574C154.022 115.572 154.024 115.57 154.025 115.568C154.027 115.567 154.03 115.565 154.031 115.563C154.035 115.56 154.038 115.556 154.042 115.553C154.054 115.54 154.073 115.521 154.085 115.509C154.114 115.479 154.143 115.45 154.172 115.42C154.19 115.401 154.196 115.395 154.215 115.376L154.259 115.332C154.269 115.321 154.336 115.254 154.346 115.244C154.347 115.242 154.349 115.24 154.351 115.238L154.378 115.211C154.38 115.209 154.387 115.201 154.389 115.199L154.416 115.172C154.418 115.17 154.419 115.168 154.421 115.166C154.423 115.164 154.425 115.163 154.427 115.161C154.429 115.159 154.431 115.157 154.433 115.155C154.446 115.142 154.507 115.08 154.52 115.066C154.525 115.061 154.536 115.05 154.541 115.045C154.559 115.026 154.544 115.041 154.562 115.022C154.566 115.019 154.571 115.015 154.574 115.012C154.583 115.003 154.577 115.009 154.585 115C154.589 114.996 154.592 114.993 154.596 114.989C154.597 114.987 154.599 114.985 154.601 114.983C154.602 114.982 154.605 114.98 154.606 114.979C154.838 114.743 155.013 114.584 155.139 114.402C155.304 114.156 155.28 113.805 155.085 113.58H155.084C154.861 113.329 154.559 113.284 154.28 113.473C154.087 113.633 153.907 113.814 153.707 114.018C153.195 114.538 152.678 115.059 152.161 115.578C151.645 116.097 151.129 116.616 150.619 117.134L150.611 117.142L150.604 117.148C150.531 117.216 150.444 117.293 150.348 117.352C150.247 117.413 150.099 117.479 149.915 117.467C149.732 117.455 149.594 117.371 149.501 117.297C149.412 117.226 149.333 117.137 149.266 117.057V117.056C149.133 116.898 148.988 116.728 148.844 116.532C145.384 112.008 143.304 106.911 142.795 101.182C142.726 100.433 142.679 99.6843 142.656 98.9355V98.9199C142.656 98.7157 142.664 98.3906 142.884 98.1504C143.11 97.9031 143.437 97.878 143.628 97.8672L143.642 97.8662H148.242C148.499 97.8662 148.703 97.8646 148.9 97.8281C149.244 97.7624 149.558 97.3749 149.559 96.959C149.559 96.5219 149.229 96.1603 148.805 96.1172L148.783 96.1152C148.513 96.076 148.245 96.0967 147.879 96.0967H144.292C144.05 96.0967 143.822 96.095 143.638 96.0684C143.457 96.0423 143.207 95.9788 143.028 95.7617C142.854 95.5494 142.834 95.2936 142.837 95.1113C142.84 94.9212 142.873 94.6896 142.912 94.4365V94.4355C143.048 93.5621 143.187 92.6649 143.396 91.7881C145.893 80.7348 154.53 72.1406 165.415 69.8145L166.122 69.6729C167.798 69.3642 169.639 69.2031 171.356 69.2031H171.357Z" fill="#EFD2E6" stroke="black"/>
<path d="M171.331 72.6836C171.761 72.6836 172.168 72.7834 172.523 73.0049C172.835 73.199 173.085 73.4732 173.272 73.8125L173.35 73.9619L173.354 73.9688C173.428 74.1322 173.49 74.2998 173.548 74.4629L173.71 74.9336L173.713 74.9424C174.642 77.7525 175.597 80.5949 176.483 83.4365L176.551 83.6182C176.621 83.7846 176.701 83.9068 176.79 84.0049C176.909 84.1353 177.07 84.2488 177.318 84.3555L177.325 84.3584L177.76 84.5596C182.052 86.612 184.87 89.9957 186.096 94.6611L186.213 95.1318V95.1328C188.089 103.168 183.216 111.398 175.366 113.5L175.365 113.499C173.96 113.88 172.85 114.023 171.356 114.023H171.355L171.354 114.024V114.023C164.394 114.069 157.85 109.031 156.467 101.405L156.468 101.404C155.156 94.3724 158.813 87.5044 164.989 84.6162L164.994 84.6133C165.381 84.4375 165.658 84.2434 165.867 84.0107C166.075 83.7792 166.237 83.4857 166.356 83.0811V83.0801C167.177 80.3239 168.111 77.59 169.018 74.8721C169.102 74.5939 169.204 74.229 169.384 73.8857C169.766 73.1084 170.489 72.6837 171.331 72.6836Z" fill="#D3559F" stroke="black"/>
<path d="M171.4 86.6953C178.145 86.6955 183.139 92.2943 183.139 98.5957V98.5977C183.115 105.185 177.795 110.54 171.403 110.496H171.4C171.399 110.496 171.398 110.497 171.396 110.497V110.496C165.177 110.54 159.853 105.446 159.688 98.9307L159.684 98.6191C159.661 92.1239 164.8 86.6953 171.4 86.6953Z" fill="#A50E54" stroke="black"/>
<path d="M105.425 148.557H105.437C113 148.518 119.404 154.727 119.365 162.566V162.568C119.365 169.712 113.577 176.54 105.315 176.501H105.312C97.3965 176.501 91.3433 170.141 91.3809 162.493C91.4585 154.145 98.328 148.441 105.425 148.557Z" fill="#FD950E" stroke="black"/>
<path d="M109.851 148.557H109.862C117.426 148.518 123.83 154.727 123.791 162.566V162.568C123.791 169.712 118.003 176.54 109.741 176.501H109.738C101.822 176.501 95.769 170.141 95.8066 162.493C95.8843 154.145 102.754 148.441 109.851 148.557Z" fill="#FEC33B" stroke="black"/>
<path d="M61.708 148.557H61.7197C69.2831 148.518 75.6872 154.727 75.6484 162.566V162.568C75.6484 169.712 69.8605 176.54 61.5986 176.501H61.5957C53.6797 176.501 47.6265 170.141 47.6641 162.493C47.7417 154.145 54.6112 148.441 61.708 148.557Z" fill="#FD950E" stroke="black"/>
<path d="M66.1338 148.557H66.1455C73.7088 148.518 80.113 154.727 80.0742 162.566V162.568C80.0742 169.712 74.2862 176.54 66.0244 176.501H66.0215C58.1054 176.501 52.0522 170.141 52.0898 162.493C52.1675 154.145 59.037 148.441 66.1338 148.557Z" fill="#FEC33B" stroke="black"/>
<path d="M14.5439 148.557H14.5557C22.119 148.518 28.5232 154.727 28.4844 162.566V162.568C28.4844 169.712 22.6964 176.54 14.4346 176.501H14.4316C6.5156 176.501 0.462399 170.141 0.5 162.493C0.577654 154.145 7.44712 148.441 14.5439 148.557Z" fill="#FD950E" stroke="black"/>
<path d="M18.9697 148.557H18.9814C26.5448 148.518 32.949 154.727 32.9102 162.566V162.568C32.9102 169.712 27.1222 176.54 18.8604 176.501H18.8574C10.9414 176.501 4.88818 170.141 4.92578 162.493C5.00343 154.145 11.8729 148.441 18.9697 148.557Z" fill="#FEC33B" stroke="black"/>
<path d="M76.4365 148.557H76.4482C84.0116 148.518 90.4158 154.727 90.377 162.566V162.568C90.377 169.712 84.589 176.54 76.3271 176.501H76.3242C68.4082 176.501 62.355 170.141 62.3926 162.493C62.4702 154.145 69.3397 148.441 76.4365 148.557Z" fill="#FD950E" stroke="black"/>
<path d="M80.8623 148.557H80.874C88.4374 148.518 94.8415 154.727 94.8027 162.566V162.568C94.8027 169.712 89.0148 176.54 80.7529 176.501H80.75C72.834 176.501 66.7808 170.141 66.8184 162.493C66.896 154.145 73.7655 148.441 80.8623 148.557Z" fill="#FEC33B" stroke="black"/>
<path d="M57.8975 127.338H57.9092C65.4725 127.299 71.8767 133.508 71.8379 141.348V141.35C71.8379 148.493 66.0499 155.321 57.7881 155.282H57.7852C49.8691 155.282 43.8159 148.922 43.8535 141.274C43.9312 132.927 50.8006 127.222 57.8975 127.338Z" fill="#FD950E" stroke="black"/>
<path d="M62.3232 127.338H62.335C69.8983 127.299 76.3025 133.508 76.2637 141.348V141.35C76.2637 148.493 70.4757 155.321 62.2139 155.282H62.2109C54.2949 155.282 48.2417 148.922 48.2793 141.274C48.357 132.927 55.2264 127.222 62.3232 127.338Z" fill="#FEC33B" stroke="black"/>
<path d="M39.7588 148.557H39.7705C47.3338 148.518 53.738 154.727 53.6992 162.566V162.568C53.6992 169.712 47.9112 176.54 39.6494 176.501H39.6465C31.7304 176.501 25.6772 170.141 25.7148 162.493C25.7925 154.145 32.662 148.441 39.7588 148.557Z" fill="#FD950E" stroke="black"/>
<path d="M44.1846 148.557H44.1963C51.7596 148.518 58.1638 154.727 58.125 162.566V162.568C58.125 169.712 52.337 176.54 44.0752 176.501H44.0723C36.1562 176.501 30.103 170.141 30.1406 162.493C30.2183 154.145 37.0877 148.441 44.1846 148.557Z" fill="#FEC33B" stroke="black"/>
<path d="M196.437 0.501953H196.448C204.012 0.463434 210.416 6.67222 210.377 14.5117V14.5137C210.377 21.6575 204.589 28.4849 196.327 28.4463H196.324C188.408 28.4461 182.355 22.0863 182.393 14.4385C182.47 6.09071 189.34 0.385868 196.437 0.501953Z" fill="#FD950E" stroke="black"/>
<path d="M200.862 0.501953H200.874C208.437 0.463434 214.842 6.67222 214.803 14.5117V14.5137C214.803 21.6575 209.015 28.4849 200.753 28.4463H200.75C192.834 28.4461 186.781 22.0863 186.818 14.4385C186.896 6.09071 193.765 0.385868 200.862 0.501953Z" fill="#FEC33B" stroke="black"/>
</svg>
