<svg width="288" height="183" viewBox="0 0 288 183" fill="none" xmlns="http://www.w3.org/2000/svg">
  <path d="M240.36 175.303H47.7853C5.29879 175.303 -15.9805 123.681 14.0651 93.491L64.7375 42.5688C108.385 -1.29376 179.408 -1.29376 223.059 42.5688L273.98 93.7404C303.93 123.838 282.718 175.303 240.364 175.303" fill="#B0DBF5"/>
  <path d="M44.1604 175.301H164.58C191.147 175.301 204.455 143.056 185.668 124.201L153.982 92.3914C126.689 64.9945 82.2769 64.9945 54.9806 92.3914L23.137 124.356C4.40816 143.156 17.6707 175.301 44.1572 175.301" fill="#EFF8FD"/>
  <path d="M108.151 175.294V116.38C108.151 89.0536 85.9422 66.8219 58.6474 66.8219H47.0773L64.5636 49.3155L52.9061 37.6445L33.0079 57.571C23.3606 67.2239 23.3606 82.931 33.0079 92.5811L52.9061 112.51L64.5636 100.839L47.0773 83.3302H58.6474C76.8521 83.3302 91.6645 98.1541 91.6645 116.382V175.297H108.151" fill="#FBC028"/>
  <path d="M99.9056 0.839844C93.2984 0.839844 87.0899 3.41303 82.4192 8.09453L62.5156 28.0183L74.1732 39.6892L91.6623 22.1855V79.4902C94.7952 82.3013 97.5703 85.5089 99.9056 89.0282C102.244 85.5089 105.016 82.304 108.149 79.4902V22.1828L125.638 39.6892L137.296 28.0183L117.395 8.09453C112.721 3.41303 106.51 0.839844 99.9056 0.839844Z" fill="#2AA4DE"/>
  <path d="M91.6619 79.4883V175.297V116.382C91.6619 106.281 94.6965 96.8744 99.9025 89.0263C97.5644 85.507 94.7921 82.3021 91.6592 79.4883" fill="#2A7D23"/>
  <path d="M146.868 37.6523L135.211 49.3233L152.7 66.8297H141.162C128.489 66.8297 116.913 71.6233 108.145 79.4933V116.18C108.257 98.0498 123.026 83.3353 141.162 83.3353H152.7L135.211 100.844L146.868 112.515L166.772 92.5862C176.416 82.9361 176.416 67.229 166.772 57.5761L146.868 37.6523Z" fill="#04BB9F"/>
  <path d="M108.148 79.4922C105.015 82.306 102.24 85.5109 99.9043 89.0302C105.075 96.8181 108.101 106.143 108.148 116.159V79.4922Z" fill="#017A8B"/>
  <path d="M99.9035 89.0273C94.6975 96.87 91.6602 106.279 91.6602 116.384V175.298H108.147V116.159C108.1 106.143 105.071 96.818 99.9035 89.0301" fill="#015C16"/>
  <path d="M267.034 15.0645V34.083C267.034 60.8664 246.999 78.6979 228.993 84.2949C228.636 84.406 228.275 84.5064 227.912 84.5957C226.787 84.8724 226.02 85.3368 225.533 85.9004C225.045 86.4662 224.868 87.0988 224.868 87.6514C224.868 88.2107 225.043 88.8557 225.526 89.4336C226.01 90.011 226.773 90.4874 227.895 90.7637C228.385 90.8845 228.872 91.0227 229.353 91.1797C248.247 97.3444 267.034 114.498 267.034 141.22V160.237H170.744V141.22C170.744 114.854 190.159 97.1635 207.94 91.2783L208.785 91.0068C209.143 90.8957 209.504 90.7963 209.867 90.707C211.943 90.1966 212.91 88.8237 212.91 87.6514C212.91 87.092 212.736 86.4462 212.252 85.8682C211.769 85.2908 211.005 84.8143 209.884 84.5381C209.393 84.4173 208.907 84.2799 208.427 84.123C189.533 77.9584 170.744 60.805 170.744 34.083V15.0645H267.034Z" fill="#6FD8D8" stroke="black" stroke-width="0.95794"/>
  <path fill-rule="evenodd" clip-rule="evenodd" d="M175.965 14.5859H261.816V35.9655C261.816 59.6311 244.28 75.436 228.372 80.5678C227.241 80.9329 226.868 81.1523 225.728 81.5939C222.879 82.6981 221.17 85.166 221.17 87.6511C221.17 90.735 222.119 92.7619 224.778 94.4655C226.298 95.2227 227.07 95.4824 228.739 96.0456C245.381 101.662 261.816 116.874 261.816 140.473V160.716H175.965V140.473C175.965 116.807 193.501 101.002 209.409 95.8702C210.946 95.3743 211.753 95.0289 212.813 94.4655C215.662 92.9512 216.611 90.7151 216.611 87.6511C216.611 85.1442 214.902 82.8378 212.433 81.7832C211.103 81.2154 210.305 80.8187 209.042 80.3924C192.4 74.776 175.965 59.5639 175.965 35.9655V14.5859Z" fill="#D1EAEA"/>
  <path fill-rule="evenodd" clip-rule="evenodd" d="M209.041 80.393C192.806 74.9138 176.767 60.3016 175.993 37.6797H261.784C260.963 60.3946 243.892 75.5614 228.371 80.5684C227.653 80.8001 227.241 80.9732 226.744 81.1816C226.458 81.3015 226.144 81.4332 225.727 81.5945C222.878 82.6987 221.169 85.1666 221.169 87.6518C221.169 87.7798 221.174 87.841 221.174 88.0303C221.174 93.5197 218.89 93.5197 218.89 93.5197C218.89 93.5197 216.605 92.9518 216.605 88.0303C216.605 87.841 216.61 87.841 216.61 87.6518C216.61 85.1448 214.901 82.8384 212.432 81.7838C212.082 81.6342 211.768 81.4965 211.474 81.367C210.65 81.0049 209.972 80.707 209.041 80.393Z" fill="#C82A87"/>
  <path d="M219.08 149.926C238.074 149.926 261.816 160.715 261.816 160.715H175.965C175.965 160.715 200.087 149.926 219.08 149.926Z" fill="#C82A87"/>
  <path opacity="0.5" d="M254.597 14.9648H243.426C243.996 21.0852 244.683 34.9915 244.531 41.6545C244.341 49.9831 241.337 59.069 239.818 63.8012C238.298 68.5334 238.678 69.1012 243.426 63.8012C248.175 58.5011 255.202 46.3867 255.202 36.3544C255.202 28.3286 254.597 19.2554 254.597 14.9648Z" fill="white"/>
  <path opacity="0.5" d="M254.597 160.695H243.426C243.996 154.575 244.683 140.669 244.531 134.006C244.341 125.677 241.337 116.591 239.818 111.859C238.298 107.127 238.678 106.559 243.426 111.859C248.175 117.159 255.202 129.273 255.202 139.306C255.202 147.332 254.597 156.405 254.597 160.695Z" fill="white"/>
  <rect x="163.329" y="0.478061" width="111.121" height="14.5867" rx="7.13851" fill="#384A9C" stroke="black" stroke-width="0.95794"/>
  <rect x="163.329" y="160.236" width="111.121" height="14.5867" rx="7.13851" fill="#384A9C" stroke="black" stroke-width="0.95794"/>
  <path d="M139.334 153.949H139.344C144.993 153.92 149.777 158.558 149.748 164.414V164.417C149.748 169.754 145.424 174.853 139.253 174.824H139.25C133.337 174.824 128.816 170.074 128.844 164.36C128.902 158.124 134.034 153.862 139.334 153.949Z" fill="#FD950E" stroke="black" stroke-width="0.95794"/>
  <path d="M142.672 153.949H142.682C148.331 153.92 153.115 158.558 153.086 164.414V164.417C153.086 169.754 148.761 174.853 142.591 174.824H142.588C136.675 174.824 132.154 170.074 132.182 164.36C132.24 158.124 137.371 153.862 142.672 153.949Z" fill="#FEC33B" stroke="black" stroke-width="0.95794"/>
  <path d="M103.891 153.949H103.9C109.549 153.92 114.333 158.558 114.305 164.414V164.417C114.305 169.754 109.98 174.853 103.81 174.824H103.807C97.8934 174.824 93.3723 170.074 93.4004 164.36C93.4586 158.124 98.5902 153.862 103.891 153.949Z" fill="#FD950E" stroke="black" stroke-width="0.95794"/>
  <path d="M107.229 153.949H107.238C112.887 153.92 117.671 158.558 117.643 164.414V164.417C117.642 169.754 113.318 174.853 107.147 174.824H107.145C101.231 174.824 96.7102 170.074 96.7383 164.36C96.7965 158.124 101.928 153.862 107.229 153.949Z" fill="#FEC33B" stroke="black" stroke-width="0.95794"/>
  <path d="M78.9834 153.949H78.9932C84.6422 153.92 89.4262 158.558 89.3975 164.414V164.417C89.3974 169.754 85.073 174.853 78.9023 174.824H78.8994C72.9861 174.824 68.4651 170.074 68.4932 164.36C68.5513 158.124 73.683 153.862 78.9834 153.949Z" fill="#FD950E" stroke="black" stroke-width="0.95794"/>
  <path d="M82.3213 153.949H82.3311C87.9801 153.92 92.7641 158.558 92.7354 164.414V164.417C92.7353 169.754 88.4109 174.853 82.2402 174.824H82.2373C76.324 174.824 71.803 170.074 71.8311 164.36C71.8892 158.124 77.0209 153.862 82.3213 153.949Z" fill="#FEC33B" stroke="black" stroke-width="0.95794"/>
  <path d="M117.47 153.949H117.479C123.129 153.92 127.913 158.558 127.884 164.414V164.417C127.884 169.754 123.559 174.853 117.389 174.824H117.386C111.472 174.824 106.951 170.074 106.979 164.36C107.038 158.124 112.169 153.862 117.47 153.949Z" fill="#FD950E" stroke="black" stroke-width="0.95794"/>
  <path d="M120.808 153.949H120.817C126.466 153.92 131.25 158.558 131.222 164.414V164.417C131.222 169.754 126.897 174.853 120.727 174.824H120.724C114.81 174.824 110.289 170.074 110.317 164.36C110.376 158.124 115.507 153.862 120.808 153.949Z" fill="#FEC33B" stroke="black" stroke-width="0.95794"/>
  <path d="M105.806 136.508H105.815C111.464 136.479 116.249 141.116 116.22 146.973V146.976C116.22 152.313 111.895 157.412 105.725 157.383H105.722C99.8084 157.383 95.2873 152.633 95.3154 146.919C95.3736 140.682 100.505 136.421 105.806 136.508Z" fill="#FD950E" stroke="black" stroke-width="0.95794"/>
  <path d="M109.144 136.508H109.153C114.802 136.479 119.586 141.116 119.558 146.973V146.976C119.558 152.313 115.233 157.412 109.062 157.383H109.06C103.146 157.383 98.6252 152.633 98.6533 146.919C98.7115 140.682 103.843 136.421 109.144 136.508Z" fill="#FEC33B" stroke="black" stroke-width="0.95794"/>
  <path d="M94.2432 153.949H94.2529C99.902 153.92 104.686 158.558 104.657 164.414V164.417C104.657 169.754 100.333 174.853 94.1621 174.824H94.1592C88.2459 174.824 83.7248 170.074 83.7529 164.36C83.8111 158.124 88.9428 153.862 94.2432 153.949Z" fill="#FD950E" stroke="black" stroke-width="0.95794"/>
  <path d="M97.5811 153.949H97.5908C103.24 153.92 108.024 158.558 107.995 164.414V164.417C107.995 169.754 103.671 174.853 97.5 174.824H97.4971C91.5838 174.824 87.0627 170.074 87.0908 164.36C87.149 158.124 92.2807 153.862 97.5811 153.949Z" fill="#FEC33B" stroke="black" stroke-width="0.95794"/>
  <path d="M68.5459 153.949H68.5557C74.2047 153.92 78.9887 158.558 78.96 164.414V164.417C78.9599 169.754 74.6355 174.853 68.4648 174.824H68.4619C62.5486 174.824 58.0276 170.074 58.0557 164.36C58.1138 158.124 63.2455 153.862 68.5459 153.949Z" fill="#FD950E" stroke="black" stroke-width="0.95794"/>
  <path d="M71.8838 153.949H71.8936C77.5426 153.92 82.3266 158.558 82.2979 164.414V164.417C82.2978 169.754 77.9734 174.853 71.8027 174.824H71.7998C65.8865 174.824 61.3655 170.074 61.3936 164.36C61.4517 158.124 66.5834 153.862 71.8838 153.949Z" fill="#FEC33B" stroke="black" stroke-width="0.95794"/>
  <path d="M52.4121 140.32H52.4219C58.0709 140.291 62.855 144.929 62.8262 150.785V150.788C62.8261 156.125 58.5017 161.224 52.3311 161.195H52.3281C46.4149 161.195 41.8938 156.445 41.9219 150.731C41.98 144.495 47.1117 140.233 52.4121 140.32Z" fill="#FD950E" stroke="black" stroke-width="0.95794"/>
  <path d="M55.75 140.32H55.7598C61.4088 140.291 66.1928 144.929 66.1641 150.785V150.788C66.164 156.125 61.8396 161.224 55.6689 161.195H55.666C49.7528 161.195 45.2317 156.445 45.2598 150.731C45.3179 144.495 50.4496 140.233 55.75 140.32Z" fill="#FEC33B" stroke="black" stroke-width="0.95794"/>
  <path d="M35.7451 153.949H35.7549C41.4039 153.92 46.188 158.558 46.1592 164.414V164.417C46.1591 169.754 41.8347 174.853 35.6641 174.824H35.6611C29.7479 174.824 25.2268 170.074 25.2549 164.36C25.3131 158.124 30.4447 153.862 35.7451 153.949Z" fill="#FD950E" stroke="black" stroke-width="0.95794"/>
<path d="M39.083 153.949H39.0928C44.7418 153.92 49.5259 158.558 49.4971 164.414V164.417C49.497 169.754 45.1726 174.853 39.002 174.824H38.999C33.0858 174.824 28.5647 170.074 28.5928 164.36C28.6509 158.124 33.7826 153.862 39.083 153.949Z" fill="#FEC33B" stroke="black" stroke-width="0.95794"/>
</svg>
