<svg width="288" height="169" viewBox="0 0 288 169" fill="none" xmlns="http://www.w3.org/2000/svg">
<path d="M240.36 167.586H47.7853C5.29879 167.586 -15.9805 115.964 14.0651 85.7742L64.7375 34.852C108.385 -9.01055 179.408 -9.01055 223.059 34.852L273.98 86.0236C303.93 116.121 282.718 167.586 240.364 167.586" fill="#B0DBF5"/>
<path d="M44.1604 167.584H164.58C191.147 167.584 204.455 135.339 185.668 116.484L153.982 84.6746C126.689 57.2777 82.2769 57.2777 54.9805 84.6746L23.137 116.639C4.40816 135.439 17.6707 167.584 44.1572 167.584" fill="#EFF8FD"/>
<path d="M253.389 50.3027V64.1924C253.388 83.7528 238.756 96.7757 225.606 100.863C225.345 100.944 225.082 101.017 224.816 101.082C223.995 101.284 223.435 101.624 223.08 102.035C222.723 102.448 222.594 102.911 222.594 103.314C222.594 103.723 222.722 104.194 223.075 104.616C223.428 105.038 223.986 105.386 224.805 105.588C225.163 105.676 225.518 105.776 225.869 105.891C239.668 110.393 253.389 122.921 253.389 142.437V156.325H183.066V142.437C183.066 123.181 197.245 110.261 210.231 105.963L210.849 105.765C211.11 105.684 211.373 105.611 211.639 105.546C213.155 105.173 213.861 104.171 213.861 103.314C213.861 102.906 213.734 102.434 213.381 102.012C213.028 101.59 212.469 101.243 211.65 101.041C211.292 100.953 210.937 100.852 210.586 100.737C196.787 96.2351 183.067 83.7077 183.066 64.1924V50.3027H253.389Z" fill="#6FD8D8" stroke="black" stroke-width="0.699601"/>
<path fill-rule="evenodd" clip-rule="evenodd" d="M186.879 49.9531H249.578V65.567C249.578 82.8505 236.771 94.393 225.153 98.1409C224.327 98.4076 224.054 98.5678 223.222 98.8903C221.141 99.6967 219.893 101.499 219.893 103.314C219.893 105.566 220.586 107.047 222.528 108.291C223.638 108.844 224.202 109.033 225.421 109.445C237.575 113.546 249.578 124.656 249.578 141.89V156.675H186.879V141.89C186.879 124.607 199.686 113.064 211.304 109.317C212.426 108.954 213.015 108.702 213.789 108.291C215.87 107.185 216.564 105.552 216.564 103.314C216.564 101.483 215.315 99.7988 213.512 99.0286C212.541 98.6138 211.958 98.3241 211.036 98.0128C198.882 93.9111 186.879 82.8013 186.879 65.567V49.9531Z" fill="#D1EAEA"/>
<path fill-rule="evenodd" clip-rule="evenodd" d="M211.035 98.0127C199.178 94.0111 187.464 83.3396 186.899 66.8184H249.554C248.954 83.4075 236.488 94.4841 225.152 98.1408C224.628 98.31 224.326 98.4364 223.963 98.5886C223.754 98.6762 223.525 98.7724 223.221 98.8902C221.14 99.6966 219.892 101.499 219.892 103.314C219.892 103.407 219.896 103.452 219.896 103.59C219.896 107.599 218.227 107.599 218.227 107.599C218.227 107.599 216.559 107.185 216.559 103.59C216.559 103.452 216.563 103.452 216.563 103.314C216.563 101.483 215.315 99.7986 213.511 99.0284C213.255 98.9192 213.027 98.8186 212.811 98.724C212.21 98.4596 211.715 98.242 211.035 98.0127Z" fill="#C82A87"/>
<path d="M218.367 148.795C232.238 148.795 249.578 156.675 249.578 156.675H186.879C186.879 156.675 204.496 148.795 218.367 148.795Z" fill="#C82A87"/>
<path opacity="0.5" d="M244.306 50.2305H236.148C236.564 54.7002 237.065 64.8563 236.954 69.7224C236.816 75.805 234.622 82.4405 233.512 85.8966C232.403 89.3526 232.68 89.7673 236.148 85.8966C239.616 82.0258 244.748 73.1784 244.748 65.8517C244.748 59.9903 244.306 53.3639 244.306 50.2305Z" fill="white"/>
<path opacity="0.5" d="M244.306 156.66H236.148C236.564 152.19 237.065 142.034 236.954 137.168C236.816 131.086 234.622 124.45 233.512 120.994C232.403 117.538 232.68 117.123 236.148 120.994C239.616 124.865 244.748 133.712 244.748 141.039C244.748 146.9 244.306 153.527 244.306 156.66Z" fill="white"/>
<rect x="177.65" y="39.6502" width="81.1538" height="10.6529" rx="5.21339" fill="#384A9C" stroke="black" stroke-width="0.699601"/>
<rect x="177.65" y="156.324" width="81.1538" height="10.6529" rx="5.21339" fill="#384A9C" stroke="black" stroke-width="0.699601"/>
<path d="M74.1826 158.999C74.319 158.999 74.4654 158.999 74.6143 159.002L75.0625 159.021L75.0752 159.021L75.1982 159.042C75.3232 159.071 75.4503 159.128 75.5576 159.231C75.6852 159.355 75.744 159.507 75.7686 159.65L75.7881 159.759C75.8021 159.867 75.8008 159.972 75.8008 160.035V164.265C75.8008 166.072 74.3202 167.746 72.3291 167.746H58.5234C58.2103 167.746 57.8812 167.746 57.5498 167.725H57.5361V167.724C55.8509 167.564 54.4667 166.172 54.4209 164.457V164.456C54.3813 162.946 54.4209 161.422 54.4209 159.935C54.4209 159.823 54.4258 159.701 54.4502 159.589C54.4762 159.469 54.5308 159.332 54.6504 159.219C54.7665 159.109 54.902 159.061 55.0117 159.037C55.1185 159.014 55.2361 159.005 55.3477 159L55.3584 158.999H74.1826Z" fill="#342556" stroke="black" stroke-width="0.868608"/>
<path d="M147.017 158.999C147.222 158.999 147.416 158.999 147.568 159.017C147.72 159.034 147.928 159.078 148.089 159.245C148.247 159.409 148.287 159.617 148.303 159.768C148.319 159.923 148.318 160.121 148.318 160.336V164.185C148.318 165.132 148.003 165.962 147.351 166.648C146.72 167.312 145.948 167.657 145.058 167.725L145.041 167.726H130.825C130.647 167.726 130.364 167.744 130.126 167.724V167.725C128.386 167.61 127.008 166.208 126.939 164.442L126.922 163.874C126.89 162.547 126.919 161.217 126.919 159.915C126.919 159.738 126.926 159.455 127.117 159.246C127.313 159.031 127.597 159.009 127.763 159L127.775 158.999H147.017Z" fill="#342556" stroke="black" stroke-width="0.868608"/>
<path d="M153.939 39.6436C154.559 39.6436 155.251 39.6419 155.932 39.8418L155.933 39.8408C157.929 40.4142 159.331 42.1986 159.461 44.3008C159.482 44.637 159.481 44.9715 159.481 45.29V153.058C159.481 154.527 159.489 156.217 158.91 157.532C158.613 158.207 158.157 158.796 157.466 159.212C156.779 159.625 155.893 159.846 154.768 159.846H100.335C91.3912 159.846 82.4476 159.846 73.499 159.849L46.6328 159.866C46.167 159.866 45.5872 159.89 45.0303 159.754V159.753C42.8485 159.225 41.3395 157.398 41.1895 155.11L41.1885 155.096V45.29C41.1885 44.7561 41.1874 44.1677 41.3174 43.5732L41.3184 43.5693C41.8128 41.4067 43.6025 39.8195 45.793 39.665H45.7959C46.1275 39.644 46.4572 39.6436 46.7705 39.6436H153.939Z" fill="#384A9C" stroke="black" stroke-width="0.868608"/>
<path d="M141.556 53.0146V53.0156C143.784 52.9958 146.212 54.7848 146.366 57.8291H146.367C146.388 58.1276 146.368 58.4834 146.368 58.7217V140.79C146.368 141.265 146.369 141.782 146.283 142.304C145.916 144.582 143.984 146.211 142.076 146.393L142.077 146.394C141.524 146.456 140.974 146.476 140.432 146.476H60.1631C59.6209 146.476 59.064 146.456 58.501 146.371L58.4941 146.37C56.2706 145.997 54.488 144.068 54.4434 141.782L54.4258 140.863C54.3936 138.72 54.4238 136.587 54.4238 134.455C54.4238 134.38 54.4332 134.317 54.4385 134.282C54.4415 134.262 54.4425 134.255 54.4434 134.248C54.444 134.243 54.4434 134.247 54.4434 134.255C54.4434 134.107 54.4751 133.921 54.6035 133.762C54.7305 133.604 54.9054 133.531 55.0771 133.507L55.5986 133.423C55.7612 133.397 55.917 133.37 56.0781 133.331C57.6155 132.918 58.7087 131.528 58.7822 129.893V116.354C58.7822 115.941 58.7619 115.572 58.6621 115.233H58.6611C58.414 114.436 58.0335 113.823 57.5332 113.374C57.0321 112.924 56.3893 112.619 55.5879 112.471L55.5801 112.47C55.4085 112.435 55.3037 112.442 55.0508 112.416L55.04 112.415V112.414C54.8707 112.393 54.7078 112.319 54.5889 112.174C54.4803 112.041 54.4429 111.891 54.4277 111.783L54.4258 111.762C54.404 111.519 54.4043 111.279 54.4043 111.062V91.2422C54.4089 91.1018 54.4134 90.9599 54.4297 90.8438C54.4464 90.725 54.4836 90.5632 54.6055 90.4238C54.7285 90.2832 54.8851 90.2249 55.0059 90.1934C55.1236 90.1626 55.267 90.1432 55.4131 90.124L55.418 90.123C56.7912 89.9599 57.7881 89.2676 58.4131 87.9971C58.689 87.4361 58.7822 86.8272 58.7822 86.1445V72.8535C58.782 70.9385 57.3387 69.348 55.6523 69.1357V69.1348C55.4857 69.116 55.2627 69.0939 55.0586 69.0479C54.912 69.0147 54.755 68.947 54.6299 68.8135C54.5037 68.6788 54.446 68.5152 54.4277 68.3555L54.4268 68.3564C54.4033 68.1653 54.4043 67.9783 54.4043 67.8223C54.4043 64.5514 54.4242 61.2893 54.3848 58.0254C54.3632 56.2284 55.4786 53.9389 57.9326 53.2324V53.2334C58.2755 53.1199 58.6276 53.0763 58.9521 53.0557V53.0566C59.3325 53.0159 59.7088 53.0352 60.0254 53.0352H100.337C113.728 53.0352 127.099 53.0347 140.51 53.0146H141.556Z" fill="#5F66AD" stroke="black" stroke-width="0.868608"/>
<path d="M55.0117 111.29C57.245 111.193 59.4365 113.083 59.4365 115.739V129.869C59.4365 130.209 59.4367 130.594 59.3652 130.984L59.3662 130.985C59.0113 133.029 57.3282 134.523 55.2695 134.644L55.2637 134.645C54.8024 134.666 54.286 134.688 53.7852 134.643V134.644C53.7819 134.643 53.7786 134.643 53.7754 134.643H53.7734V134.642C51.2004 134.467 49.7084 132.329 49.6846 130.461L49.6855 130.46C49.6649 130.188 49.6631 129.899 49.6631 129.631V116.304C49.6631 115.959 49.6632 115.598 49.6855 115.235V115.227L49.6865 115.219C49.8993 113.08 51.6274 111.387 53.7725 111.29H53.792C54.2515 111.29 54.6149 111.311 55.0068 111.29H55.0117Z" fill="#342556" stroke="black" stroke-width="0.868608"/>
<path d="M55.0381 67.9629L55.543 68.001L55.5459 68.002C57.6777 68.2349 59.2561 69.8963 59.417 72.0244L59.4277 72.2324V72.2383C59.4491 73.5205 59.4287 74.8124 59.4287 76.0801V86.7803C59.4287 88.3369 58.7575 89.5369 57.585 90.4951C57.2402 90.7769 56.7555 90.966 56.2441 91.0869C55.7245 91.2097 55.1377 91.272 54.5547 91.2734C53.9715 91.2749 53.3788 91.2161 52.8496 91.0908C52.328 90.9673 51.8319 90.7708 51.4717 90.4727C50.494 89.6638 49.7913 88.6528 49.6953 87.2871C49.6727 86.966 49.6729 86.6254 49.6729 86.3252V72.917C49.6729 72.6596 49.6726 72.3619 49.6953 72.0615C49.8595 69.916 51.3959 68.2435 53.5107 68.002L53.5156 68.001C54.017 67.95 54.5307 67.9374 55.0381 67.9629Z" fill="#342556" stroke="black" stroke-width="0.868608"/>
<path d="M100.375 74.3643C112.16 74.3847 122.374 82.8307 124.663 94.5361C124.825 95.3165 124.925 96.0944 125.023 96.8535H125.022C125.049 97.0298 125.042 97.2576 124.89 97.4512C124.734 97.6488 124.509 97.7088 124.334 97.7236C124.076 97.7455 123.8 97.7451 123.548 97.7451C122.417 97.7451 121.28 97.7651 120.134 97.7451C119.915 97.7453 119.764 97.7825 119.658 97.8418C119.559 97.8973 119.466 97.9897 119.391 98.1641L119.39 98.167C119.18 98.6438 119.431 99.1353 119.896 99.2471L119.991 99.2646L120.001 99.2656L120.011 99.2676C120.199 99.2995 120.344 99.2812 120.609 99.2812H123.833V99.2822C124.054 99.287 124.257 99.2905 124.418 99.3125C124.577 99.3344 124.79 99.3849 124.951 99.5596C125.109 99.7309 125.146 99.9448 125.16 100.104C125.167 100.187 125.17 100.28 125.17 100.381L125.165 100.707C125.145 101.732 125.044 102.735 124.884 103.734C124.243 107.726 122.758 111.354 120.414 114.635L120.415 114.636C120.268 114.85 120.1 115.062 119.944 115.26C119.85 115.38 119.674 115.569 119.396 115.578C119.137 115.587 118.944 115.429 118.837 115.331L118.828 115.324L118.82 115.315C118.426 114.915 118.036 114.519 117.646 114.123C117.257 113.727 116.868 113.331 116.474 112.93C116.385 112.84 116.296 112.749 116.207 112.659C116.118 112.569 116.03 112.479 115.941 112.389C115.815 112.26 115.661 112.208 115.435 112.235H115.433C115.052 112.28 114.844 112.665 115.035 113.021L115.036 113.021C115.078 113.1 115.132 113.173 115.198 113.251L115.437 113.504L115.439 113.507L116.738 114.845L118.039 116.17L118.049 116.179V116.18C118.125 116.262 118.204 116.349 118.263 116.434C118.323 116.519 118.399 116.651 118.403 116.821C118.408 116.997 118.336 117.133 118.275 117.223C118.218 117.308 118.139 117.394 118.068 117.471L118.065 117.474C117.272 118.316 116.403 119.094 115.486 119.808L115.091 120.109C111.799 122.578 108.124 124.108 104.093 124.761L104.081 124.763C103.481 124.844 102.861 124.905 102.272 124.965L102.264 124.966C102.086 124.98 101.916 124.993 101.772 124.984C101.632 124.976 101.439 124.946 101.278 124.809C101.112 124.667 101.055 124.478 101.031 124.334C101.008 124.192 101.005 124.024 101.005 123.852V120.584C101.005 120.153 101.024 119.817 100.987 119.466H100.986C100.923 118.977 100.432 118.761 100.029 119.037L100.021 119.043C99.8655 119.144 99.7749 119.297 99.7627 119.507L99.7617 119.517C99.7437 119.737 99.7441 119.941 99.7441 120.163V123.631C99.7441 123.848 99.7444 124.088 99.7227 124.331L99.7197 124.33C99.7017 124.673 99.4438 124.944 99.0918 124.963L99.0928 124.966C98.8494 124.988 98.6057 124.988 98.3623 124.966V124.965C92.6887 124.455 87.7097 122.272 83.4785 118.36C83.3186 118.217 83.1744 118.088 83.0742 117.975C82.979 117.867 82.8445 117.69 82.8486 117.449C82.8527 117.217 82.9843 117.045 83.0664 116.947C83.1536 116.843 83.2856 116.711 83.4141 116.576L83.4199 116.57C83.453 116.537 83.5387 116.45 83.5713 116.417C83.5761 116.412 83.585 116.402 83.5898 116.397L83.6279 116.359C83.6564 116.33 83.6179 116.369 83.6465 116.34L83.6846 116.302C83.6915 116.295 83.6864 116.299 83.6934 116.292L83.708 116.277C83.7095 116.276 83.7114 116.275 83.7129 116.273C83.7143 116.272 83.7154 116.27 83.7168 116.269C83.7183 116.267 83.7202 116.265 83.7217 116.264C83.7637 116.221 83.8312 116.153 83.873 116.11C83.8745 116.109 83.8755 116.107 83.877 116.105L83.9102 116.072C83.9157 116.067 83.9231 116.058 83.9287 116.053C83.9418 116.039 83.9254 116.056 83.9385 116.043C83.9476 116.034 83.9388 116.044 83.9482 116.034C83.9965 115.985 83.9752 116.006 84.0234 115.957L84.0977 115.881C84.0987 115.88 84.1162 115.863 84.1172 115.862C84.1265 115.853 84.1264 115.852 84.1357 115.843L84.1641 115.814C84.1711 115.807 84.1657 115.812 84.1729 115.805C84.1741 115.803 84.2468 115.73 84.248 115.729C84.2493 115.727 84.2567 115.72 84.2578 115.719C84.2593 115.717 84.2603 115.715 84.2617 115.714C84.2632 115.712 84.2652 115.711 84.2666 115.71L84.2812 115.695C84.2827 115.694 84.2837 115.692 84.2852 115.69C84.2925 115.683 84.2974 115.679 84.3047 115.672C84.3112 115.665 84.3071 115.669 84.3135 115.662C84.3315 115.644 84.3052 115.671 84.3232 115.652C84.3651 115.61 84.4309 115.542 84.4727 115.5C84.48 115.493 84.5405 115.431 84.5479 115.424C84.5706 115.401 84.5621 115.409 84.585 115.386L84.623 115.348C84.6306 115.34 84.653 115.317 84.6602 115.31C84.6633 115.306 84.6757 115.294 84.6787 115.291C84.6963 115.273 84.6796 115.289 84.6973 115.271C84.7398 115.228 84.7299 115.239 84.7725 115.195C84.7963 115.171 84.7856 115.182 84.8096 115.157C84.811 115.156 84.813 115.155 84.8145 115.153L84.8242 115.144C84.8257 115.142 84.8267 115.14 84.8281 115.139L84.8662 115.101C84.8771 115.09 84.8642 115.102 84.875 115.091L84.9131 115.053C84.9167 115.049 84.9182 115.047 84.9219 115.043C84.9253 115.04 84.9567 115.008 84.96 115.005C84.9614 115.003 84.9634 115.002 84.9648 115.001C84.9663 114.999 84.9673 114.998 84.9688 114.996L84.9883 114.977C84.9897 114.975 84.9907 114.973 84.9922 114.972C84.9937 114.97 84.9955 114.968 84.9971 114.967C85.0256 114.938 85.0437 114.92 85.0723 114.891C85.0911 114.871 85.0718 114.891 85.0908 114.872C85.0977 114.865 85.1025 114.859 85.1094 114.853C85.1116 114.85 85.1168 114.846 85.1191 114.844C85.1373 114.825 85.1108 114.852 85.1289 114.834C85.1304 114.833 85.1314 114.831 85.1328 114.829L85.1475 114.814C85.1796 114.782 85.1904 114.771 85.2227 114.738L85.2461 114.715C85.2475 114.713 85.2485 114.711 85.25 114.71L85.2695 114.69C85.2711 114.689 85.2777 114.681 85.2783 114.681C85.2924 114.666 85.2837 114.676 85.2979 114.662C85.3191 114.641 85.3519 114.607 85.373 114.586C85.3861 114.573 85.3971 114.56 85.4102 114.547C85.4204 114.536 85.4095 114.549 85.4199 114.538C85.4406 114.517 85.4085 114.549 85.4287 114.528C85.4408 114.516 85.4361 114.521 85.4482 114.509C85.463 114.494 85.4706 114.486 85.4854 114.471L85.5234 114.433C85.5504 114.405 85.5716 114.383 85.5986 114.355L85.6367 114.317C85.6439 114.31 85.6481 114.305 85.6553 114.298C85.6568 114.296 85.6586 114.295 85.6602 114.293C85.6616 114.291 85.6636 114.291 85.665 114.289C85.6672 114.287 85.6715 114.282 85.6738 114.279L85.7031 114.25C85.7046 114.249 85.7056 114.247 85.707 114.245C85.7086 114.244 85.7103 114.242 85.7119 114.24C85.7355 114.216 85.7077 114.246 85.7314 114.222C85.7387 114.214 85.7332 114.219 85.7402 114.212C85.7467 114.205 85.7435 114.209 85.75 114.202C85.7587 114.193 85.7598 114.191 85.7686 114.183L85.7832 114.168C85.7847 114.166 85.7866 114.166 85.7881 114.164L85.8252 114.125C86.0274 113.919 86.1803 113.781 86.29 113.622C86.4317 113.408 86.4101 113.105 86.2412 112.91H86.2402C86.0478 112.694 85.787 112.654 85.5459 112.814C85.3764 112.954 85.2199 113.113 85.0449 113.291C84.6003 113.743 84.1506 114.195 83.7021 114.646C83.2533 115.097 82.8051 115.547 82.3623 115.997L82.3486 116.011C82.2858 116.069 82.2102 116.136 82.127 116.187C82.0396 116.24 81.9107 116.297 81.751 116.286C81.592 116.276 81.471 116.204 81.3906 116.14C81.3132 116.078 81.2448 116.001 81.1865 115.931V115.93C81.0698 115.791 80.9426 115.642 80.8154 115.47V115.469C77.8134 111.54 76.007 107.116 75.5654 102.142L75.4912 101.166C75.4712 100.841 75.4553 100.516 75.4453 100.19V100.177C75.4453 99.9993 75.452 99.7165 75.6426 99.5078C75.8387 99.2931 76.123 99.2721 76.2891 99.2627L76.3018 99.2617H80.2979C80.5208 99.2617 80.6979 99.2601 80.8691 99.2285C81.1682 99.1715 81.4414 98.8341 81.4414 98.4727C81.4412 98.0932 81.1548 97.7797 80.7861 97.7422L80.7773 97.7412L80.7676 97.7402C80.533 97.7062 80.3001 97.7246 79.9824 97.7246H76.8662C76.6561 97.7246 76.458 97.7233 76.2979 97.7002C76.1412 97.6775 75.9238 97.6221 75.7686 97.4336C75.6169 97.2493 75.6 97.0274 75.6025 96.8691C75.6053 96.704 75.6343 96.5022 75.668 96.2822V96.2812C75.7855 95.5245 75.9054 94.7471 76.0869 93.9873C78.2534 84.3838 85.7569 76.9165 95.2139 74.8955L95.8281 74.7725C97.2835 74.5044 98.8828 74.3643 100.374 74.3643H100.375Z" fill="#EFD2E6" stroke="black" stroke-width="0.868608"/>
<path d="M100.353 77.3896C100.726 77.3897 101.079 77.4767 101.388 77.6689C101.658 77.8376 101.876 78.0754 102.039 78.3701L102.105 78.5L102.108 78.5068C102.173 78.6489 102.228 78.7938 102.278 78.9355L102.419 79.3438L102.421 79.3516C103.228 81.7924 104.058 84.2613 104.828 86.7295L104.887 86.8877C104.948 87.0322 105.016 87.1385 105.094 87.2236C105.197 87.337 105.337 87.4357 105.553 87.5283L105.559 87.5312C109.499 89.2936 112.077 92.292 113.177 96.4795L113.278 96.8887L113.279 96.8896C114.909 103.868 110.675 111.016 103.857 112.842C102.636 113.173 101.672 113.298 100.374 113.298L100.375 113.299L100.373 113.298L100.372 113.299V113.298C94.3274 113.338 88.6437 108.962 87.4414 102.34L87.3467 101.768C86.501 95.8613 89.6459 90.1856 94.8438 87.7549L94.8477 87.7529C95.1836 87.6002 95.4249 87.4307 95.6064 87.2285C95.787 87.0274 95.9275 86.7723 96.0312 86.4209V86.4199C96.7438 84.0259 97.5554 81.6509 98.3428 79.29C98.4166 79.0454 98.5075 78.724 98.667 78.4229C99.0006 77.755 99.6256 77.3896 100.353 77.3896Z" fill="#D3559F" stroke="black" stroke-width="0.868608"/>
<path d="M100.413 89.5576C106.271 89.5579 110.609 94.4212 110.609 99.8945V99.8965C110.589 105.619 105.967 110.269 100.415 110.23L100.416 110.231C100.415 110.231 100.413 110.23 100.412 110.23L100.409 110.231V110.23C95.0929 110.267 90.5292 105.984 90.249 100.454L90.2354 99.915C90.2156 94.2732 94.6801 89.5576 100.413 89.5576Z" fill="#A50E54" stroke="black" stroke-width="0.868608"/>
<path d="M150.333 146.23H150.343C155.992 146.201 160.776 150.839 160.747 156.695V156.698C160.747 162.035 156.423 167.134 150.252 167.105H150.249C144.336 167.105 139.815 162.355 139.843 156.642C139.901 150.405 145.033 146.144 150.333 146.23Z" fill="#FD950E" stroke="black" stroke-width="0.95794"/>
<path d="M153.671 146.23H153.681C159.33 146.201 164.114 150.839 164.085 156.695V156.698C164.085 162.035 159.761 167.134 153.59 167.105H153.587C147.674 167.105 143.153 162.355 143.181 156.642C143.239 150.405 148.371 146.144 153.671 146.23Z" fill="#FEC33B" stroke="black" stroke-width="0.95794"/>
<path d="M103.89 146.23H103.899C109.548 146.201 114.332 150.839 114.304 156.695V156.698C114.304 162.035 109.979 167.134 103.809 167.105H103.806C97.8924 167.105 93.3713 162.355 93.3994 156.642C93.4576 150.405 98.5893 146.144 103.89 146.23Z" fill="#FD950E" stroke="black" stroke-width="0.95794"/>
<path d="M107.228 146.23H107.237C112.886 146.201 117.67 150.839 117.642 156.695V156.698C117.642 162.035 113.317 167.134 107.146 167.105H107.144C101.23 167.105 96.7092 162.355 96.7373 156.642C96.7955 150.405 101.927 146.144 107.228 146.23Z" fill="#FEC33B" stroke="black" stroke-width="0.95794"/>
<path d="M117.47 146.23H117.479C123.129 146.201 127.913 150.839 127.884 156.695V156.698C127.884 162.035 123.559 167.134 117.389 167.105H117.386C111.472 167.105 106.951 162.355 106.979 156.642C107.038 150.405 112.169 146.144 117.47 146.23Z" fill="#FD950E" stroke="black" stroke-width="0.95794"/>
<path d="M120.808 146.23H120.817C126.466 146.201 131.25 150.839 131.222 156.695V156.698C131.222 162.035 126.897 167.134 120.727 167.105H120.724C114.81 167.105 110.289 162.355 110.317 156.642C110.376 150.405 115.507 146.144 120.808 146.23Z" fill="#FEC33B" stroke="black" stroke-width="0.95794"/>
<path d="M51.9697 146.23H51.9795C57.6285 146.201 62.4126 150.839 62.3838 156.695V156.698C62.3837 162.035 58.0593 167.134 51.8887 167.105H51.8857C45.9725 167.105 41.4514 162.355 41.4795 156.642C41.5377 150.405 46.6693 146.144 51.9697 146.23Z" fill="#FD950E" stroke="black" stroke-width="0.95794"/>
<path d="M55.3076 146.23H55.3174C60.9664 146.201 65.7505 150.839 65.7217 156.695V156.698C65.7216 162.035 61.3972 167.134 55.2266 167.105H55.2236C49.3104 167.105 44.7893 162.355 44.8174 156.642C44.8756 150.405 50.0072 146.144 55.3076 146.23Z" fill="#FEC33B" stroke="black" stroke-width="0.95794"/>
<path d="M35.7461 146.23H35.7559C41.4049 146.201 46.1889 150.839 46.1602 156.695V156.698C46.1601 162.035 41.8357 167.134 35.665 167.105H35.6621C29.7488 167.105 25.2278 162.355 25.2559 156.642C25.314 150.405 30.4457 146.144 35.7461 146.23Z" fill="#FD950E" stroke="black" stroke-width="0.95794"/>
<path d="M39.084 146.23H39.0938C44.7428 146.201 49.5268 150.839 49.498 156.695V156.698C49.498 162.035 45.1736 167.134 39.0029 167.105H39C33.0867 167.105 28.5657 162.355 28.5938 156.642C28.6519 150.405 33.7836 146.144 39.084 146.23Z" fill="#FEC33B" stroke="black" stroke-width="0.95794"/>
</svg>
