<svg width="238" height="212" viewBox="0 0 238 212" fill="none" xmlns="http://www.w3.org/2000/svg">
<g clip-path="url(#clip0_1196_94312)">
<path d="M202.066 125.721H57.113C25.1346 125.721 9.11644 85.9112 31.7299 63.1644L69.8703 24.7889C102.723 -8.26295 156.181 -8.26295 189.038 24.7889L227.368 63.3512C249.911 86.0318 234.265 125.721 202.384 125.721" fill="#A0D4F3"/>
<path d="M134.16 125.235H26.6719C2.95872 125.235 -8.91939 95.7245 7.84936 78.8625L36.1319 50.4149C60.4934 25.9138 100.135 25.9138 124.499 50.4149L152.922 79.001C169.639 95.8139 158.037 125.235 134.396 125.235" fill="#DBF0FC"/>
<path d="M148.749 28.9543C148.762 28.7191 148.762 28.4786 148.746 28.2356C148.558 25.2168 146.16 22.7443 143.157 22.4699C143.136 22.4699 143.113 22.4647 143.089 22.4647C141.541 22.3392 140.123 21.5734 139.192 20.3293C137.404 17.9431 134.56 16.3984 131.356 16.3984C128.358 16.3984 125.676 17.7497 123.882 19.8772C122.514 21.5002 120.322 22.104 118.28 21.5238C117.514 21.3068 116.695 21.2101 115.848 21.2572C112.173 21.4637 109.172 24.4301 108.919 28.1101C108.899 28.395 108.899 28.6773 108.909 28.9543H148.749Z" fill="white"/>
<path d="M137.578 66.8848C142.91 65.7814 148.327 65.4302 151.495 65.9297V127.979H84.8687L101.041 82.5811H117.422L117.569 82.4336C119.285 80.7134 120.142 78.9893 120.968 77.332C121.794 75.6752 122.591 74.085 124.18 72.4912C125.418 71.2506 127.361 70.1348 129.722 69.1816C132.075 68.2319 134.804 67.4587 137.578 66.8848Z" fill="#434559" stroke="black"/>
<path d="M104.703 77.6494C109.078 77.371 114.423 77.3186 120.282 77.4902C119.605 78.8271 118.883 80.1244 117.667 81.4229L117.372 81.7275C117.07 82.029 116.581 82.2162 115.855 82.3418C115.124 82.4684 114.297 82.5146 113.329 82.6221C111.447 82.831 109.235 83.258 107.456 85.042C105.091 87.413 103.211 90.5708 101.585 94.0771C99.9586 97.5851 98.5719 101.476 97.2119 105.322C95.8486 109.178 94.5128 112.989 92.9785 116.379C91.5391 119.559 89.9403 122.334 88.0127 124.407L87.6221 124.812C81.1261 131.324 73.8285 132.949 68.1436 132.949C65.298 132.949 62.8572 132.542 61.1299 132.135C60.3691 131.955 59.7478 131.776 59.292 131.632C70.4393 123.297 75.3111 111.863 79.3506 101.737C81.4235 96.5415 83.2666 91.7184 85.6172 87.7734C87.9603 83.841 90.7793 80.8324 94.7734 79.2305C96.65 78.4779 100.113 77.9415 104.703 77.6494Z" fill="#60637E" stroke="black"/>
<path d="M210.389 125.234H137.687C121.647 125.234 113.613 144.784 124.957 156.217L144.084 175.501C160.561 192.114 187.375 192.114 203.855 175.501L223.08 156.121C234.387 144.723 226.379 125.234 210.389 125.234Z" fill="#4FAB82"/>
<path d="M133.711 125.207H32.9675C10.7418 125.207 -0.391284 152.179 15.3256 167.951L41.8342 194.559C64.6675 217.475 101.822 217.475 124.658 194.559L151.299 167.821C166.967 152.095 155.872 125.207 133.713 125.207" fill="#599174"/>
<path d="M122.874 125.234C122.785 125.474 122.565 125.761 122.136 126.101C121.464 126.632 120.419 127.176 119.085 127.728C116.424 128.828 112.763 129.902 109.034 130.966C105.322 132.025 101.543 133.076 98.6956 134.124C97.2742 134.647 96.0547 135.181 95.1829 135.729C94.7475 136.003 94.3761 136.295 94.1086 136.609C93.8404 136.925 93.6487 137.297 93.6487 137.718C93.6487 138.139 93.8365 138.5 94.1096 138.797C94.3777 139.089 94.7472 139.34 95.1721 139.566C96.0221 140.018 97.2087 140.423 98.5852 140.817C99.9679 141.213 101.579 141.609 103.29 142.033C105.006 142.459 106.828 142.915 108.648 143.437C112.297 144.481 115.893 145.774 118.57 147.562C121.238 149.346 122.921 151.569 122.921 154.48C122.921 157.471 121.683 159.979 119.775 162.21C117.859 164.449 115.292 166.383 112.68 168.215C110.09 170.031 107.435 171.762 105.445 173.557C103.469 175.338 102.031 177.286 102.014 179.585C101.805 182.181 102.606 184.863 103.881 187.397C105.158 189.936 106.931 192.364 108.716 194.468C110.503 196.573 112.313 198.365 113.675 199.63C114.357 200.263 114.927 200.765 115.327 201.109C115.369 201.146 115.41 201.179 115.448 201.212C99.3839 212.046 79.7351 212.852 65.9426 208.646C52.0685 204.414 42.9916 195.372 30.9915 182.913C31.0953 178.626 34.5785 174.712 40.054 171.157C45.5802 167.57 52.9703 164.455 60.3967 161.778C67.8226 159.102 75.236 156.878 80.8284 155.05C83.6157 154.139 85.9604 153.323 87.6116 152.6C88.4344 152.239 89.1107 151.891 89.5881 151.553C89.8265 151.384 90.0353 151.204 90.1887 151.01C90.3415 150.816 90.467 150.573 90.467 150.29C90.467 149.579 90.1058 148.996 89.5852 148.521C89.0708 148.051 88.3616 147.65 87.5618 147.282C85.974 146.553 83.8278 145.877 81.7795 145.107C79.6946 144.324 77.667 143.429 76.1643 142.237C74.6763 141.057 73.7405 139.616 73.7405 137.718C73.7405 136.917 74.261 136.132 75.4104 135.358C76.5521 134.59 78.215 133.903 80.261 133.284C84.3469 132.049 89.8138 131.126 95.3167 130.316C100.8 129.51 106.326 128.814 110.465 128.032C112.533 127.641 114.288 127.223 115.535 126.747C116.156 126.51 116.685 126.247 117.066 125.943C117.309 125.749 117.521 125.513 117.642 125.234H122.874Z" fill="#56BBEC" stroke="black"/>
<path d="M125.961 82.8359C125.944 82.8691 125.926 82.903 125.908 82.9385C125.581 83.5961 125.16 84.6626 124.743 86.3398C123.962 89.4826 123.192 94.7923 123.098 103.619L123.09 105.433L122.929 124.729H117.533V108.731C117.533 97.2257 119.167 90.7015 120.768 87.0742C121.568 85.2629 122.36 84.1765 122.933 83.5508C123.22 83.2378 123.454 83.0387 123.609 82.9219C123.658 82.8848 123.701 82.8577 123.733 82.8359H125.961Z" fill="#226699" stroke="black"/>
<path d="M44.1564 141.069V141.07C45.0161 142.229 45.5989 143.482 45.8927 144.769L46.0939 145.65L46.7335 145.011C47.1516 144.592 47.6177 144.182 48.1046 143.754L48.1036 143.753C49.9836 142.102 52.2636 140.116 52.6202 136.604L54.0616 136.636C53.7404 139.706 51.9745 141.64 50.2159 143.238L49.4269 143.94C48.6953 144.584 47.996 145.198 47.4855 145.827C46.9679 146.465 46.6017 147.168 46.6017 148.002V156.236H44.6583V146.686C44.6582 144.749 43.9894 142.845 42.7482 141.176L37.8263 134.563L39.0284 134.182L44.1564 141.069Z" fill="#B5908B" stroke="black"/>
<path d="M46.5457 65.7939C47.6817 65.8114 48.7575 66.2749 49.3699 67.123L49.4861 67.2979C50.0642 68.2464 50.2151 69.4087 50.3396 70.6523C50.5372 72.6218 50.5923 74.6298 50.6707 76.6592C50.7487 78.6804 50.8496 80.718 51.1433 82.707C51.7039 86.4899 52.604 90.2495 53.7361 93.9004H53.7273L53.9353 94.5527C55.9542 100.884 57.9261 107.422 59.3933 112.986C60.8668 118.574 61.8123 123.115 61.8123 125.487C61.8121 133.868 54.9392 140.671 46.446 140.671C37.9528 140.671 31.079 133.868 31.0789 125.487C31.0789 123.146 32.0133 118.686 33.4714 113.189C34.9232 107.716 36.8754 101.278 38.8757 95.0156C41.057 88.1877 42.3086 81.0784 42.6267 73.9297C42.6522 73.357 42.6443 72.7489 42.6404 72.1484C42.6364 71.5421 42.6356 70.9376 42.6716 70.3447C42.744 69.1535 42.9624 68.0691 43.5466 67.1963H43.5476C44.1688 66.267 45.3334 65.7753 46.5457 65.7939Z" fill="#4DB088" stroke="black"/>
<path d="M40.3501 147.146C42.9533 147.017 45.352 147.873 47.1997 149.363H47.2007C48.9526 150.775 50.6394 151.907 52.897 152.242L52.8608 152.316L53.6558 152.332C55.5881 152.37 56.9122 152.988 57.7505 153.815C58.4555 154.511 58.8406 155.378 58.9478 156.236H30.8589C31.2498 151.502 35.0874 147.639 39.8823 147.18L40.3501 147.146Z" fill="#B4C7BA" stroke="black"/>
<path d="M37.6528 130.008C38.2214 130.008 38.6831 130.47 38.6831 131.046C38.683 131.62 38.2201 132.08 37.6528 132.08C37.0847 132.08 36.6188 131.616 36.6187 131.046C36.6187 130.474 37.0834 130.008 37.6528 130.008Z" fill="#C63D96" stroke="black"/>
<path d="M55.6519 125.816C56.2194 125.816 56.686 126.28 56.686 126.854C56.6859 127.428 56.2232 127.889 55.6519 127.889C55.0852 127.889 54.6217 127.426 54.6216 126.854C54.6216 126.282 55.0865 125.817 55.6519 125.816Z" fill="#C63D96" stroke="black"/>
<path d="M39.8079 112.066C40.3771 112.066 40.8399 112.529 40.8401 113.101C40.8401 113.673 40.3759 114.139 39.8079 114.139C39.2417 114.139 38.7756 113.675 38.7756 113.101C38.7759 112.527 39.2379 112.066 39.8079 112.066Z" fill="#C63D96" stroke="black"/>
<path d="M46.335 120.758C46.9031 120.758 47.3689 121.222 47.3691 121.792C47.3691 122.364 46.9044 122.83 46.335 122.83C45.7689 122.83 45.3047 122.367 45.3047 121.792C45.3049 121.218 45.7677 120.758 46.335 120.758Z" fill="#C63D96" stroke="black"/>
<path d="M53.8645 108.996C54.4332 108.996 54.8967 109.459 54.8967 110.034C54.8966 110.608 54.4345 111.068 53.8645 111.068C53.2977 111.068 52.8324 110.605 52.8323 110.034C52.8323 109.461 53.2965 108.996 53.8645 108.996Z" fill="#C63D96" stroke="black"/>
<path d="M47.3423 96.6875C47.9115 96.6875 48.3743 97.1505 48.3745 97.7217C48.3745 98.2944 47.9103 98.7597 47.3423 98.7598C46.7761 98.7598 46.3101 98.2963 46.3101 97.7217C46.3103 97.148 46.7724 96.6875 47.3423 96.6875Z" fill="#C63D96" stroke="black"/>
<path d="M211.429 33.043C216.219 33.043 220.101 36.9365 220.101 41.7363V117.01C220.101 121.81 216.219 125.703 211.429 125.703H154.739C149.948 125.703 146.067 121.81 146.067 117.01V41.7363C146.067 36.9365 149.948 33.043 154.739 33.043H211.429Z" fill="#FFF3D8" stroke="black"/>
<path d="M211.429 33.043C216.219 33.043 220.101 36.9365 220.101 41.7363V64.2549H146.067V41.7363C146.067 36.9365 149.948 33.043 154.739 33.043H211.429Z" fill="#D3559F" stroke="black"/>
<path d="M210.382 39.9805C211.182 39.9805 211.889 40.2501 212.396 40.7578C212.902 41.2655 213.171 41.9723 213.171 42.7734V54.2363C213.171 55.0375 212.902 55.7443 212.396 56.252C211.889 56.7596 211.182 57.0293 210.382 57.0293H155.445C154.645 57.0293 153.939 56.7597 153.432 56.252C152.925 55.7443 152.656 55.0375 152.656 54.2363V42.7734C152.656 41.9724 152.925 41.2654 153.432 40.7578C153.939 40.2501 154.645 39.9805 155.445 39.9805H210.382Z" fill="#4FAB82" stroke="black"/>
<path d="M203.516 47.3594H208.094V51.9446H203.516V47.3594ZM194.36 47.3594H198.938V51.9446H194.36V47.3594Z" fill="#33691E"/>
<path d="M210.387 67.4922C211.187 67.4922 211.894 67.7618 212.401 68.2695C212.907 68.7772 213.176 69.4841 213.176 70.2852V74.8701C213.176 75.6712 212.907 76.3781 212.401 76.8857C211.894 77.3934 211.187 77.6631 210.387 77.6631H203.52C202.719 77.6631 202.013 77.3935 201.506 76.8857C200.999 76.3781 200.731 75.6713 200.731 74.8701V70.2852C200.731 69.4841 200.999 68.7772 201.506 68.2695C202.013 67.7618 202.719 67.4922 203.52 67.4922H210.387Z" fill="#FF614D" stroke="black"/>
<path d="M162.312 108.76C163.113 108.76 163.819 109.029 164.326 109.537C164.833 110.045 165.101 110.751 165.102 111.552V116.138C165.101 116.938 164.833 117.645 164.326 118.152C163.819 118.66 163.113 118.93 162.312 118.93H155.445C154.645 118.93 153.939 118.66 153.432 118.152C152.925 117.645 152.656 116.939 152.656 116.138V111.552C152.656 110.751 152.925 110.045 153.432 109.537C153.939 109.029 154.645 108.76 155.445 108.76H162.312ZM178.336 108.76C179.136 108.76 179.842 109.029 180.349 109.537C180.855 110.045 181.125 110.751 181.125 111.552V116.138C181.125 116.939 180.855 117.645 180.349 118.152C179.842 118.66 179.136 118.93 178.336 118.93H171.469C170.668 118.93 169.962 118.66 169.455 118.152C168.948 117.645 168.68 116.939 168.68 116.138V111.552C168.68 110.751 168.948 110.045 169.455 109.537C169.962 109.029 170.668 108.76 171.469 108.76H178.336ZM194.358 108.76C195.159 108.76 195.865 109.029 196.372 109.537C196.879 110.045 197.147 110.751 197.147 111.552V116.138C197.147 116.939 196.879 117.645 196.372 118.152C195.865 118.66 195.159 118.93 194.358 118.93H187.492C186.692 118.93 185.985 118.66 185.479 118.152C184.972 117.645 184.703 116.939 184.703 116.138V111.552C184.703 110.751 184.972 110.045 185.479 109.537C185.985 109.029 186.692 108.76 187.492 108.76H194.358ZM162.312 95.0039C163.113 95.0039 163.819 95.2736 164.326 95.7812C164.833 96.2888 165.101 96.9951 165.102 97.7959V102.382C165.101 103.183 164.833 103.89 164.326 104.397C163.819 104.905 163.113 105.174 162.312 105.174H155.445C154.645 105.174 153.939 104.905 153.432 104.397C152.925 103.89 152.656 103.183 152.656 102.382V97.7959C152.656 96.9951 152.925 96.2888 153.432 95.7812C153.939 95.2735 154.645 95.0039 155.445 95.0039H162.312ZM178.336 95.0039C179.136 95.004 179.842 95.2736 180.349 95.7812C180.855 96.2888 181.125 96.9949 181.125 97.7959V102.382C181.125 103.183 180.855 103.89 180.349 104.397C179.842 104.905 179.136 105.174 178.336 105.174H171.469C170.668 105.174 169.962 104.905 169.455 104.397C168.948 103.89 168.68 103.183 168.68 102.382V97.7959C168.68 96.995 168.948 96.2888 169.455 95.7812C169.962 95.2735 170.668 95.0039 171.469 95.0039H178.336ZM194.358 95.0039C195.159 95.0039 195.865 95.2735 196.372 95.7812C196.879 96.2888 197.147 96.9949 197.147 97.7959V102.382C197.147 103.183 196.879 103.89 196.372 104.397C195.865 104.905 195.159 105.174 194.358 105.174H187.492C186.692 105.174 185.985 104.905 185.479 104.397C184.972 103.89 184.703 103.183 184.703 102.382V97.7959C184.703 96.995 184.972 96.2888 185.479 95.7812C185.985 95.2735 186.692 95.0039 187.492 95.0039H194.358ZM162.312 81.248C163.113 81.2481 163.819 81.5177 164.326 82.0254C164.833 82.533 165.102 83.24 165.102 84.041V88.626C165.102 89.4271 164.833 90.134 164.326 90.6416C163.819 91.1493 163.113 91.4179 162.312 91.418H155.445C154.645 91.418 153.939 91.1493 153.432 90.6416C152.925 90.134 152.656 89.4271 152.656 88.626V84.041C152.656 83.24 152.925 82.533 153.432 82.0254C153.939 81.5177 154.645 81.248 155.445 81.248H162.312ZM178.336 81.248C179.136 81.2481 179.842 81.5178 180.349 82.0254C180.855 82.533 181.125 83.2398 181.125 84.041V88.626C181.125 89.4271 180.855 90.134 180.349 90.6416C179.842 91.149 179.136 91.4179 178.336 91.418H171.469C170.668 91.418 169.962 91.1492 169.455 90.6416C168.948 90.134 168.68 89.4271 168.68 88.626V84.041C168.68 83.2399 168.948 82.533 169.455 82.0254C169.962 81.5177 170.668 81.248 171.469 81.248H178.336ZM194.358 81.248C195.159 81.248 195.865 81.5177 196.372 82.0254C196.879 82.533 197.147 83.2399 197.147 84.041V88.626C197.147 89.4271 196.879 90.134 196.372 90.6416C195.865 91.1491 195.159 91.418 194.358 91.418H187.492C186.692 91.418 185.985 91.1492 185.479 90.6416C184.972 90.134 184.703 89.4271 184.703 88.626V84.041C184.703 83.2399 184.972 82.533 185.479 82.0254C185.985 81.5177 186.692 81.248 187.492 81.248H194.358ZM162.312 67.4922C163.113 67.4922 163.819 67.7618 164.326 68.2695C164.833 68.7772 165.102 69.4841 165.102 70.2852V74.8701C165.102 75.6712 164.833 76.3781 164.326 76.8857C163.819 77.3934 163.113 77.6631 162.312 77.6631H155.445C154.645 77.6631 153.939 77.3935 153.432 76.8857C152.925 76.3781 152.656 75.6713 152.656 74.8701V70.2852C152.656 69.4841 152.925 68.7772 153.432 68.2695C153.939 67.7618 154.645 67.4922 155.445 67.4922H162.312ZM178.336 67.4922C179.136 67.4923 179.842 67.762 180.349 68.2695C180.855 68.7772 181.125 69.484 181.125 70.2852V74.8701C181.125 75.6713 180.855 76.3781 180.349 76.8857C179.842 77.3932 179.136 77.663 178.336 77.6631H171.469C170.668 77.6631 169.962 77.3934 169.455 76.8857C168.948 76.3781 168.68 75.6713 168.68 74.8701V70.2852C168.68 69.484 168.948 68.7772 169.455 68.2695C169.962 67.7618 170.668 67.4922 171.469 67.4922H178.336ZM194.358 67.4922C195.159 67.4922 195.865 67.7618 196.372 68.2695C196.879 68.7772 197.147 69.484 197.147 70.2852V74.8701C197.147 75.6713 196.879 76.3781 196.372 76.8857C195.865 77.3933 195.159 77.6631 194.358 77.6631H187.492C186.692 77.6631 185.985 77.3933 185.479 76.8857C184.972 76.3781 184.703 75.6713 184.703 74.8701V70.2852C184.703 69.484 184.972 68.7772 185.479 68.2695C185.985 67.7618 186.692 67.4922 187.492 67.4922H194.358Z" fill="#CFD1EC" stroke="black"/>
<path d="M210.387 108.758C211.187 108.758 211.894 109.027 212.401 109.535C212.907 110.043 213.176 110.749 213.176 111.55V116.136C213.176 116.937 212.907 117.644 212.401 118.151C211.894 118.659 211.187 118.928 210.387 118.928H203.52C202.719 118.928 202.013 118.659 201.506 118.151C200.999 117.644 200.731 116.937 200.731 116.136V111.55L200.743 111.255C200.802 110.576 201.063 109.979 201.506 109.535C202.013 109.027 202.719 108.758 203.52 108.758H210.387ZM210.387 95.002C211.187 95.002 211.894 95.2716 212.401 95.7793C212.907 96.2869 213.176 96.9939 213.176 97.7949V102.38C213.176 103.181 212.907 103.888 212.401 104.396C211.894 104.903 211.187 105.172 210.387 105.172H203.52C202.719 105.172 202.013 104.903 201.506 104.396C200.999 103.888 200.731 103.181 200.731 102.38V97.7949L200.743 97.499C200.802 96.8201 201.063 96.2235 201.506 95.7793C202.013 95.2716 202.719 95.002 203.52 95.002H210.387ZM210.387 81.2461C211.187 81.2461 211.894 81.5157 212.401 82.0234C212.907 82.5311 213.176 83.238 213.176 84.0391V88.624C213.176 89.4251 212.907 90.132 212.401 90.6396C211.894 91.1473 211.187 91.417 210.387 91.417H203.52C202.719 91.417 202.013 91.1474 201.506 90.6396C200.999 90.132 200.731 89.4252 200.731 88.624V84.0391L200.743 83.7432C200.802 83.0643 201.063 82.4677 201.506 82.0234C202.013 81.5157 202.719 81.2461 203.52 81.2461H210.387Z" fill="#CFD1EC" stroke="black"/>
</g>
<defs>
<clipPath id="clip0_1196_94312">
<rect width="238" height="212" fill="white"/>
</clipPath>
</defs>
</svg>
