<svg width="128" height="68" viewBox="0 0 128 68" fill="none" xmlns="http://www.w3.org/2000/svg">
<g clip-path="url(#clip0_13719_34996)">
<rect width="128" height="68" fill="#3C3C3B"/>
<path d="M128 0H0V68H128V0Z" fill="#3C3C3B"/>
<path d="M29.2231 25.0013C30.1829 25.0013 30.8048 24.3486 30.8048 23.4195C30.8048 22.5442 30.1522 21.9529 29.2231 21.9529H27.9254V25.0013H29.2231ZM25.8906 20.2637H29.4227C31.4805 20.2637 32.8703 21.5306 32.8703 23.4272C32.8703 25.3238 31.4575 26.7059 29.369 26.7059H27.9561V29.2782H25.9213V20.2714H25.8906V20.2637Z" fill="white"/>
<path d="M35.4079 19.3262H33.4883V29.2391H35.4079V19.3262Z" fill="white"/>
<path d="M40.9108 26.1381C40.9108 25.0631 40.3426 24.303 39.5287 24.303C38.7148 24.303 38.1466 25.0401 38.1466 26.1381C38.1466 27.2361 38.7148 27.9426 39.5287 27.9426C40.3426 27.9426 40.9108 27.2054 40.9108 26.1381ZM36.25 26.1381C36.25 24.1878 37.4402 22.8057 39.1294 22.8057C39.7514 22.8057 40.4271 23.0283 40.9108 23.6273H40.9415V23.036H42.8304V29.2479H40.9415V28.6567H40.9108C40.4271 29.2249 39.7514 29.4782 39.1294 29.4782C37.4325 29.4475 36.25 28.0961 36.25 26.1458" fill="white"/>
<path d="M43.9918 22.9965H45.9114V29.2391H43.9918V22.9965ZM43.9688 19.3262H45.9498V21.0769H43.9688V19.3262Z" fill="white"/>
<path d="M47.0977 22.9979H48.9866V23.5892H49.0173C49.4396 23.0517 50.146 22.7676 50.768 22.7676C52.2115 22.7676 53.2251 23.927 53.2251 25.5933V29.2328H51.3055V25.9004C51.3055 25.025 50.8831 24.4568 50.1767 24.4568C49.4703 24.4568 49.0173 24.9943 49.0173 25.839V29.2252H47.0977V22.9826V22.9979Z" fill="white"/>
<path d="M65.0069 20.2637V29.2398H63.3637L59.1559 23.7343V29.2398H57.1211V20.2637H58.7336L62.9721 25.9073V20.2637H65.0069Z" fill="white"/>
<path d="M66.0742 26.5301V22.998H67.9938V26.3305C67.9938 27.2058 68.4469 27.774 69.1226 27.774C69.7983 27.774 70.2513 27.2058 70.2513 26.3305V22.998H72.1709V26.5301C72.1709 28.2808 70.9577 29.4403 69.1226 29.4403C67.2874 29.4403 66.0742 28.2808 66.0742 26.5301Z" fill="white"/>
<path d="M73.25 22.9979H75.1389V23.5892H75.1696C75.6764 23.021 76.3291 22.7676 77.0048 22.7676C77.6805 22.7676 78.3869 23.0747 78.8399 23.5892C79.3774 23.021 80.1145 22.7676 80.844 22.7676C82.4258 22.7676 83.5545 23.927 83.5545 25.5933V29.2328H81.6349V25.9004C81.6349 25.025 81.2126 24.4568 80.5061 24.4568C79.7997 24.4568 79.3774 24.9943 79.3774 25.839V29.2252H77.4578V25.8927C77.4578 25.0174 77.0048 24.4492 76.3291 24.4492C75.6534 24.4492 75.1696 24.9867 75.1696 25.8313V29.2175H73.25V22.9749V22.9979Z" fill="white"/>
<path d="M89.2931 26.1374C89.2931 25.0624 88.7249 24.3023 87.911 24.3023C87.0971 24.3023 86.4981 25.0394 86.4981 26.1374C86.4981 27.2354 87.0663 27.9418 87.911 27.9418C88.7556 27.9418 89.2931 27.2047 89.2931 26.1374ZM91.182 26.1374C91.182 28.0877 89.9688 29.4392 88.3026 29.4392C87.5962 29.4392 87.0049 29.1858 86.5212 28.6176H86.4905V29.2088H84.6016V19.2959H86.5212V23.5882H86.5519C86.9512 23.0814 87.6269 22.7666 88.3333 22.7666C89.9995 22.7973 91.182 24.1794 91.182 26.1297" fill="white"/>
<path d="M96.1803 25.6006C96.1496 24.8097 95.6736 24.2492 94.9134 24.2492C94.207 24.2492 93.6695 24.7867 93.5543 25.6006H96.1803ZM91.7499 26.1381C91.7499 24.134 93.0245 22.8057 94.8827 22.8057C96.7409 22.8057 97.9848 24.0726 97.9848 26.1919V26.7524H93.5773C93.7463 27.5126 94.2838 27.9963 94.9595 27.9963C95.3818 27.9963 95.8348 27.7967 96.0344 27.4895H97.9003C97.6162 28.672 96.4337 29.4629 94.9364 29.4629C93.0168 29.4322 91.7422 28.1115 91.7422 26.1304" fill="white"/>
<path d="M98.8668 22.9971H100.756V23.7342H100.786C101.04 23.1123 101.524 22.7744 102.061 22.7744C102.261 22.7744 102.46 22.7744 102.629 22.8589V24.6096C102.43 24.5558 102.23 24.5251 102.061 24.5251C101.27 24.5251 100.763 25.2315 100.763 26.3295V29.2397H98.8438L98.8745 22.9971H98.8668Z" fill="white"/>
<path d="M102.848 27.1824H104.545C104.66 27.7736 105.113 28.0577 105.789 28.0577C106.265 28.0577 106.579 27.8351 106.579 27.4895C106.579 26.2763 103.132 27.4895 103.132 24.8097C103.132 23.5965 104.145 22.8057 105.727 22.8057C107.224 22.8057 108.322 23.5121 108.491 24.9249H106.771C106.687 24.3874 106.211 24.134 105.727 24.134C105.328 24.134 104.99 24.3337 104.99 24.6946C104.99 25.9385 108.553 24.7483 108.553 27.4051C108.553 28.672 107.539 29.4399 105.789 29.4399C104.038 29.4399 102.932 28.5338 102.848 27.1824Z" fill="white"/>
<path d="M24.1932 15.4873H11.5391V18.8735H24.1932V15.4873Z" fill="#FF671C"/>
<path d="M24.1932 9.9209H11.5391V13.3071H24.1932V9.9209Z" fill="#FF671C"/>
<path d="M25.8594 36.7266H108.349" stroke="#3C3C3B" stroke-width="0.138212" stroke-miterlimit="10"/>
<path d="M108.349 36.5264H25.8594V36.9487H108.349V36.5264Z" fill="white"/>
<path d="M26.704 53.4731C25.9669 53.3886 25.606 52.9049 25.606 51.9758C25.5753 50.1099 26.9344 46.6085 28.8233 41.5254C28.854 41.4409 28.9922 41.3564 29.1611 41.3564C29.5527 41.3564 29.8368 41.6405 29.8368 42.1166C29.8368 42.2855 29.499 43.1609 29.0459 44.3203C28.1706 46.6623 26.8115 50.1944 26.8422 51.5534C26.8422 51.8606 26.9267 52.0295 27.1263 52.0295C27.4335 52.0295 27.9709 51.469 28.7618 50.394C30.7122 47.6528 31.1882 46.6085 31.3034 46.1325C31.3341 46.048 31.3572 45.9328 31.3572 45.8791C31.4109 45.595 31.4416 45.4567 31.6643 45.4875C32.2555 45.6026 32.5934 45.7101 32.5934 46.3091C32.5934 46.5087 32.5627 46.7314 32.4782 47.0155C32.363 47.3533 32.2248 48.651 32.2248 49.7874C32.2248 51.1388 32.4245 51.9067 32.7853 51.8759C32.8391 51.8759 32.9005 51.8452 32.9543 51.8222C34.2519 51.1465 35.7185 47.3303 35.6955 45.2417C35.6955 44.0516 34.9584 43.7752 34.5975 43.66C34.4285 43.6062 34.3978 43.5755 34.3978 43.5755C34.3978 43.5218 34.4516 43.4603 34.513 43.4066C34.6819 43.2684 34.8816 43.207 35.0812 43.1839C35.6724 43.1839 36.2944 43.6907 36.4326 44.0055C36.6323 44.4278 36.7705 44.9346 36.7705 45.5566C36.8012 48.3208 34.7357 52.3059 33.2384 52.6438C33.0387 52.6745 32.8698 52.6975 32.7316 52.6975C31.3725 52.7282 31.1805 51.684 31.1498 50.5245C31.1498 50.2174 31.1498 49.9333 31.1805 49.6492C31.1805 49.3651 31.1805 49.1117 31.1498 48.7431C30.8427 49.1117 30.5279 49.5878 30.1593 50.156C29.2302 51.5688 27.9863 53.4347 26.8269 53.4347C26.8269 53.5191 26.7424 53.5191 26.6886 53.4884" fill="#FF671C"/>
<path d="M38.9677 48.6434C38.9369 48.3055 38.8525 47.9677 38.5453 47.9907C38.2075 48.0214 37.8927 48.8353 37.7545 49.2884C38.0078 49.5417 38.2612 49.7414 38.5991 49.8796C38.768 49.5417 38.9907 49.035 38.9677 48.6357M38.1998 50.5937C37.9771 50.4248 37.6623 50.2558 37.4396 49.941C37.24 50.2789 37.0711 50.9008 37.0711 51.2924C37.0711 51.4306 37.1018 51.5458 37.1248 51.6073C37.3782 51.6073 37.885 51.039 38.1998 50.5937ZM35.9961 51.2156C35.9961 49.8028 36.9252 47.3764 38.315 47.3457C39.221 47.3457 40.0119 48.3055 39.9505 49.0426C39.9505 49.2653 39.8968 49.4112 39.6971 49.918C40.2039 49.8873 41.2251 49.3805 41.9008 48.9275C42.016 48.843 42.1005 49.0119 41.7626 49.4342C41.4248 49.8258 40.4957 50.7319 39.3362 50.8471C39.1673 51.0467 38.9446 51.3846 38.6605 51.7224C38.0923 52.3444 37.7314 52.5133 36.9405 52.5133C36.2648 52.4288 36.0115 51.9221 36.0115 51.2156" fill="#FF671C"/>
<path d="M40.3516 52.0293C40.3516 51.8066 40.4667 51.4074 40.6357 50.8392C40.8583 50.1865 40.9735 49.5415 41.1424 48.8658C41.2269 48.4435 41.3651 48.0212 41.4803 47.2533C41.511 47.0844 41.6799 46.9999 41.8489 46.9999C42.156 46.9999 42.586 47.2226 42.586 47.5912C42.586 47.8983 42.3556 48.3513 42.3019 48.6047C42.2712 48.7199 42.0792 49.4494 41.8489 50.1558C42.4401 49.3649 43.1158 48.4588 43.2617 48.2669C43.5996 47.8676 44.3597 46.7158 45.0124 46.7158C45.1276 46.7158 45.212 46.7465 45.3195 46.8003C45.5499 46.9385 45.6036 47.1689 45.6036 47.3915C45.6036 47.5912 45.5729 47.7908 45.5729 47.9597C45.5729 48.3283 45.6036 48.8888 45.6267 49.0885C45.6804 49.5108 45.9338 49.6797 45.596 49.6797C45.5115 49.6797 45.427 49.6797 45.2888 49.649C44.7513 49.5952 44.6976 49.2574 44.6131 48.6892C44.5824 48.4358 44.5286 48.3206 44.4442 48.3206C44.2753 48.3206 44.0449 48.7736 43.8222 49.027C43.5151 49.4186 42.1867 51.2615 42.1023 51.3997C41.9333 51.6838 41.5648 52.2443 41.2576 52.3057C41.0887 52.3365 40.9505 52.3595 40.8353 52.3595C40.4975 52.4132 40.3592 52.3057 40.3592 52.0216" fill="#FF671C"/>
<path d="M49.6394 52.5136C49.3322 52.4828 48.9637 52.3753 48.6796 52.1757C48.3417 51.953 48.0269 51.6075 47.8349 51.2696C47.7505 51.1007 47.4971 50.425 47.4664 50.1716C47.4356 49.9182 47.5508 49.6648 47.7197 49.4959C48.2265 48.9891 48.9329 48.0293 49.8928 47.4611C50.2306 47.2615 50.484 47.177 50.6836 47.177C51.0215 47.177 51.1597 47.4304 51.2211 47.8834C51.2518 48.1368 50.5685 48.5361 50.2076 48.7895C49.7008 49.1811 48.8792 49.6648 48.5413 50.2868C48.5413 51.6382 50.1231 51.6152 50.8602 51.7534C50.6606 52.4061 50.2076 52.5136 49.8697 52.5136H49.647H49.6394ZM45.5391 52.0605C45.5391 51.6382 45.8232 50.9011 46.2992 49.3807C46.9519 47.3997 47.4587 45.8256 48.1651 43.8446C48.3033 43.4223 48.4185 43.0844 48.7333 42.2935C48.9329 41.8175 49.8313 42.5162 49.6931 42.9462C49.4397 43.6833 49.3553 43.9367 49.2094 44.3283C48.8101 45.4263 47.9655 47.7759 47.881 48.1445C47.6506 48.8509 47.5124 49.3884 46.9519 51.0239C46.8137 51.4155 46.4989 52.8053 46.1303 52.6902C45.731 52.552 45.5391 52.4061 45.5391 52.0682" fill="#FF671C"/>
<path d="M53.4282 46.409C53.3745 46.2938 53.3438 46.1018 53.3131 45.8177C53.3131 45.4492 53.5127 44.5508 53.9657 44.5508C54.1039 44.5508 54.2729 44.6352 54.4418 44.8042C54.557 44.9193 54.58 45.0883 54.58 45.2802C54.58 45.6795 54.1039 46.6393 53.6739 46.6393C53.6202 46.6393 53.505 46.5549 53.4206 46.4166M51.9847 49.5725C52.4915 47.5915 52.6911 47.3995 53.3668 47.7066C54.2729 48.0752 53.8736 48.0138 53.3361 49.2039C53.1365 49.5955 52.4607 51.2925 53.052 51.5766C53.4743 51.7762 54.603 51.1235 55.5398 50.2789C55.9314 49.8873 55.3402 51.1543 54.4418 51.9451C53.9043 52.4212 53.1441 52.736 52.4915 52.283C51.5009 51.6073 51.7313 50.5016 51.9847 49.5725Z" fill="#FF671C"/>
<path d="M58.9828 51.6376C58.6987 51.1846 58.645 50.171 59.0135 48.8964C58.7602 49.0653 57.6852 50.2785 57.6007 50.363C57.2628 50.7316 56.6946 51.3228 56.472 51.6299C56.2723 51.914 56.0189 52.2826 55.7118 52.2826C55.5966 52.2826 55.4277 52.1981 55.2895 52.0292C55.1513 51.8603 55.0898 51.7451 55.0898 51.5531C55.0898 51.1846 55.5736 49.8332 56.2493 47.2071C56.3875 46.6389 56.5334 46.6696 56.9557 46.8693C57.4318 47.1227 57.4087 47.2916 57.355 47.5757C57.2705 47.7446 56.9327 48.9271 56.5641 49.8946C57.1861 49.2419 57.355 49.073 58.0614 48.3666C58.3993 48.0287 59.1364 47.4605 59.4742 47.4605C59.7276 47.4605 60.2114 47.7984 60.2114 48.1132C60.2114 48.428 60.0962 48.7889 60.0425 49.1037C59.9887 49.3878 59.8428 49.9791 59.8428 50.4858C59.8428 51.0233 59.9273 51.5301 60.411 51.5301C60.864 51.5301 61.4246 51.0541 61.7394 50.8544C61.8239 50.8007 62.0772 50.601 62.3306 50.4858C62.4688 50.4321 62.2769 50.9926 61.939 51.3612C61.486 51.8373 61.2019 52.0676 60.7489 52.1828C60.6337 52.2135 60.4648 52.2365 60.3266 52.2365C59.9042 52.2903 59.2823 52.1214 58.9982 51.6453" fill="#FF671C"/>
<path d="M63.3631 50.4246C63.6703 50.0868 63.8699 49.9178 64.1847 49.58C64.4074 49.3573 65.1445 48.505 65.2597 48.2209C65.206 48.1902 65.0908 48.1671 64.9526 48.1671C64.7529 48.1671 64.5303 48.2209 64.3613 48.3898C63.6012 49.0118 63.1174 49.603 62.8333 50.1943C62.7796 50.3094 62.4955 50.7548 62.6644 50.87C62.8026 50.9237 63.2863 50.5014 63.3708 50.4169M61.0519 58.4179C61.5894 58.08 62.0117 57.3736 62.3803 56.8668C62.8871 56.1297 63.3401 55.3388 63.7087 54.548C63.8469 54.2408 63.9313 54.0719 64.0772 53.7878C63.7931 53.8415 62.9485 54.4635 62.5492 54.6938C62.0962 54.9779 61.7583 55.3158 61.3591 55.7074C61.0749 55.9915 59.9155 57.0895 59.9155 57.8497C59.9155 57.9034 59.9155 57.9649 59.9462 58.0186C60.0307 58.2413 60.3378 58.5868 60.7064 58.5561C60.8216 58.5254 60.9291 58.4716 61.0442 58.4179M59.8387 59.0322C59.163 58.5561 58.8789 58.0417 58.8789 57.5042C58.8789 56.2065 60.4607 54.8781 61.5894 54.0872C62.3496 53.519 63.2019 52.9892 64.6378 52.2214C64.8604 51.6301 64.9449 51.3153 65.2904 49.9332C64.4995 50.893 63.509 51.968 62.6106 51.968C62.5262 51.968 62.411 51.968 62.3035 51.9142C61.7353 51.7146 61.5433 51.2616 61.5433 50.7855C61.5433 50.3632 61.6815 49.9102 61.8505 49.5416C62.2728 48.697 63.2633 47.1997 64.3613 47.1689C64.4995 47.1689 64.6454 47.1997 64.7836 47.2534C65.037 47.3379 65.2674 47.453 65.5745 47.8447C65.6897 47.5913 65.7972 47.4223 66.112 47.4223C66.6495 47.3916 66.8184 47.5913 66.8184 47.8447C66.8184 48.0673 66.7033 48.3514 66.6188 48.6355C66.3961 49.3112 66.1658 50.271 65.8817 51.515C66.3347 51.2846 67.6324 50.6089 68.5384 50.2173C68.6536 50.1635 68.7073 50.1866 68.7073 50.248C68.7073 50.4169 68.0854 51.1541 67.2638 51.6301C66.6111 52.0217 66.2195 52.3366 65.6283 52.7589C65.4286 53.3501 63.7624 56.6826 63.3401 57.2815C62.6644 58.2413 61.958 59.4007 60.9367 59.4007C60.5989 59.4315 60.2303 59.3163 59.8387 59.0322Z" fill="#FF671C"/>
<path d="M71.7798 51.7528C71.6953 51.6377 71.6953 51.415 71.6953 51.1846C71.726 50.4245 72.0332 49.2343 72.4017 48.3359C72.3173 48.3052 72.1483 48.3666 72.0332 48.3666C71.7491 48.3666 71.6953 48.2515 71.6953 47.9981C71.6953 47.3454 71.9487 47.4913 72.7703 47.3224C72.9699 46.8156 73.0237 46.6159 73.3078 45.9633L74.0142 44.2663C74.1294 43.9285 74.4365 43.1913 74.6055 43.1069C74.6592 43.0762 74.6899 43.0762 74.7437 43.0762C75.1122 43.0762 75.5038 43.5292 75.4194 43.7519C75.2197 44.2894 74.8281 45.2185 74.5978 45.756C74.4826 46.0401 74.2292 46.662 74.0065 47.2533C74.3137 47.2533 74.5671 47.1995 74.9126 47.1688C75.3887 47.1381 75.7342 47.0843 76.1565 47.0843C76.7477 47.0843 75.7035 47.9059 74.9126 48.0441C74.4596 48.1286 74.0372 48.1824 73.638 48.2668C73.5228 48.4895 73.1619 49.5338 72.9853 50.1864C72.9008 50.5857 72.7549 51.0618 72.7319 51.5148C72.7012 51.6837 72.7626 51.8219 72.7626 51.9371C72.7319 52.0753 72.563 52.1675 72.394 52.1368C72.1407 52.1368 71.918 52.0216 71.7721 51.7375" fill="#FF671C"/>
<path d="M77.8808 48.5583C77.8808 48.4738 77.8501 48.4201 77.7963 48.3587C77.7963 48.3894 77.1206 48.136 76.8365 48.3049C76.2453 48.6735 75.9305 49.6333 75.7615 50.0863C75.6771 50.3397 75.5619 50.6545 75.5926 50.7927C75.5926 50.931 75.6464 50.9924 75.7308 50.9924C76.1839 50.9924 77.9038 49.1035 77.8808 48.566M75.393 51.7526C74.8248 51.5529 74.6328 51.0999 74.6328 50.5624C74.6328 49.856 74.94 48.9806 75.2241 48.5046C75.4774 48.0515 76.1531 46.5005 76.7214 46.416C76.944 46.3853 77.3971 46.7232 77.5122 46.9228C77.5967 47.0917 77.5967 47.1762 77.5967 47.2299V47.2607C77.5967 47.3144 77.6274 47.3451 77.7963 47.4833C78.3031 47.9056 78.8713 48.0515 78.8713 48.7272V48.9499C78.7869 49.6563 78.3338 50.0786 77.9115 50.5854C77.4047 51.1767 76.7828 51.8524 76.0457 51.8524C75.7923 51.9061 75.5926 51.8524 75.393 51.7372" fill="#FF671C"/>
<path d="M83.526 48.052C83.3877 47.8523 83.0729 47.883 82.9347 47.9138C82.3128 48.052 81.806 48.5895 81.4067 49.0425C81.2915 49.1807 80.5314 50.033 80.4162 50.7625C80.3855 50.9314 80.4162 51.0466 80.5314 51.0466C80.8999 51.0466 83.0422 48.8736 83.526 48.052ZM79.3796 57.0895C79.2644 56.7517 79.5485 56.1835 80.5928 54.7706C81.0689 54.1794 81.2147 54.0335 82.0363 53.0199C82.1515 52.7358 82.6583 51.0389 82.9424 50.1943C82.3512 50.701 81.5603 51.4382 81.3069 51.6071C80.8001 51.945 80.0399 52.398 79.5024 51.8605C79.0264 51.4075 79.1339 50.6703 79.3335 50.1405C79.7021 49.0962 81.2224 46.8081 82.6353 46.7773C83.2572 46.7773 83.5413 47.0614 83.6795 47.622C83.8485 47.3993 84.1018 47.4838 84.1863 47.5682C84.6086 47.9368 84.4934 48.1057 84.3859 48.7277C84.217 49.5186 83.8485 50.5321 83.5951 51.4382C84.1863 50.8469 84.6086 50.3939 84.862 50.1712C85.315 49.7719 86.3056 48.6432 86.4745 48.5588C86.8431 48.3591 86.6434 49.2959 85.6529 50.3094C84.8927 51.131 84.5779 51.3844 83.2495 52.9355C82.4279 54.9703 81.806 56.0683 81.2685 57.0895C81.0996 57.3967 80.708 57.8804 80.3394 57.9111C80.0323 57.9111 79.4948 57.4888 79.3796 57.0895Z" fill="#FF671C"/>
<path d="M88.5039 47.6302C88.5576 47.3461 88.0816 47.5995 87.4903 48.3366C87.4059 48.4518 87.068 48.8127 86.8377 49.3809C87.8512 48.6438 88.3887 48.0525 88.5039 47.6302ZM86.0698 51.4925C85.732 51.0702 85.5938 50.6479 85.5938 50.1334C85.6782 48.8895 86.3309 47.8452 87.3137 47.0543C87.8512 46.632 88.6114 46.3172 89.1182 46.9699C89.4867 47.3922 89.4867 47.707 89.1182 48.2368C89.003 48.4057 88.4425 49.1966 87.2293 50.1564C87.0296 50.2946 86.9221 50.4098 86.5766 50.6402C86.5766 50.978 86.7762 51.2007 87.2523 51.2007C88.0432 51.2007 89.1412 50.8091 90.1624 49.7572C90.2469 49.6727 90.2776 50.2102 89.7939 50.7707C89.2564 51.4234 88.2428 51.9839 87.3905 51.9839C86.9375 52.0146 86.3462 51.8457 86.0621 51.4771" fill="#FF671C"/>
<path d="M89.7993 51.5536C89.7148 51.4384 89.7148 51.2158 89.7148 50.9854C89.7456 50.2252 90.0527 49.0351 90.4213 48.1367C90.3368 48.106 90.1679 48.1674 90.0527 48.1674C89.7686 48.1674 89.7148 48.0522 89.7148 47.7988C89.7148 47.1462 89.9682 47.2921 90.7898 47.1231C90.9895 46.6164 91.0432 46.4167 91.3273 45.7641L92.0337 44.0671C92.1489 43.7293 92.4561 42.9921 92.625 42.9077C92.6787 42.877 92.7094 42.877 92.7632 42.877C93.1318 42.877 93.5234 43.33 93.4389 43.5527C93.2393 44.0902 92.8477 45.0192 92.6173 45.5567C92.5021 45.8408 92.2487 46.4628 92.0261 47.054C92.3332 47.054 92.5943 47.0003 92.9321 46.9696C93.4082 46.9389 93.7537 46.8851 94.176 46.8851C94.7673 46.8851 93.723 47.7067 92.9014 47.8449C92.4484 47.9294 92.0261 47.9831 91.6345 48.0676C91.5193 48.2903 91.1584 49.3345 90.9818 49.9872C90.8973 50.3865 90.7591 50.8626 90.7284 51.3156C90.6977 51.4845 90.7591 51.6227 90.7591 51.7379C90.7284 51.8761 90.5595 51.9683 90.3906 51.9375C90.1372 51.9068 89.9145 51.7993 89.7993 51.5383" fill="#FF671C"/>
<path d="M93.4398 51.8605C93.0713 51.776 92.9023 51.8298 92.9023 50.9544C92.9023 50.4169 94.2614 46.2629 95.4977 42.6233C95.6359 42.201 95.9737 41.126 96.2348 41.126C96.35 41.126 96.4882 41.2412 96.6341 41.3256C96.8337 41.4638 96.9182 41.6942 96.9182 41.9476C96.9182 42.1702 96.4959 43.4756 96.2962 43.8672C96.0736 44.374 95.8432 44.9959 95.6743 45.6486C95.6205 45.8175 95.0523 47.4837 94.3459 49.5723C94.9371 48.9196 95.2212 48.6662 96.1503 47.9368C96.2348 47.883 96.4882 47.7064 96.6034 47.7064C97.0564 47.7064 97.6783 48.1057 97.6783 48.5511C97.6476 49.3957 97.3942 50.1866 97.3942 50.6396C97.3942 50.9467 97.5325 50.9774 97.7321 50.9774C97.8473 50.9774 97.9855 50.9467 98.1544 50.8623C98.6074 50.6933 98.9991 50.44 99.5365 50.2096C99.3139 50.9698 98.2082 51.7376 97.5017 51.7376C97.1025 51.7376 96.3423 51.3153 96.3423 50.5782C96.3423 50.0714 96.4575 49.388 96.5957 48.7968C95.4977 49.8103 95.0139 50.5782 94.4457 51.2232C94.1079 51.6455 94.0541 51.8758 93.6548 51.8758C93.6011 51.8451 93.5166 51.8451 93.4322 51.8451" fill="#FF671C"/>
<path d="M101.15 48.6968C101.318 48.5817 102.225 47.6219 102.109 47.3992C101.994 47.1995 100.812 48.1594 100.389 48.9809C100.643 49.0961 100.958 48.8658 101.15 48.6968ZM99.5447 51.3536C99.0073 50.9006 98.9765 50.509 98.9535 49.9945C98.9228 48.2438 100.789 46.5776 101.917 46.5469C102.086 46.5469 102.255 46.6006 102.424 46.6851C102.678 46.8233 102.762 46.9922 102.823 47.2763C102.854 47.3608 102.854 47.4453 102.854 47.5604C102.854 47.7831 102.823 48.0442 102.739 48.3206C102.539 48.9963 102.002 49.7027 101.157 49.9024C101.103 49.9331 101.042 49.9331 100.958 49.9331C100.673 49.9331 100.282 49.8486 100.028 49.6797C99.8903 50.1558 99.8903 50.6088 100.144 50.8929C100.282 51.0311 100.512 51.0925 100.819 51.0925C101.61 51.0925 102.739 50.6932 103.753 49.649C103.837 49.5645 103.868 50.102 103.384 50.6625C102.846 51.3152 101.833 51.8757 100.981 51.8757C100.443 51.845 99.8826 51.6223 99.5371 51.3382" fill="#FF671C"/>
<path d="M103.246 51.3222C103.246 51.0381 103.561 49.8556 103.645 49.4333C104.298 46.5231 104.605 46.3235 104.805 46.408C105.511 46.6613 105.511 46.8303 105.481 47.0837C105.427 47.3908 105.227 48.0128 104.912 48.8651C105.312 48.0742 105.926 47.3371 106.494 46.8303C106.832 46.5462 107.254 46.6921 107.423 47.1988C107.623 47.7671 107.761 48.0204 108.183 48.3583C108.299 48.4428 107.961 48.8651 107.7 48.8651C107.162 48.8651 106.878 48.581 106.602 47.9053C106.233 48.1587 105.527 49.034 105.304 49.487C105.104 49.8786 104.882 50.3624 104.713 50.7309C104.574 51.0995 104.29 51.8059 104.121 51.8059C103.361 51.8059 103.246 51.5832 103.246 51.3299" fill="#FF671C"/>
</g>
<defs>
<clipPath id="clip0_13719_34996">
<rect width="128" height="68" fill="white"/>
</clipPath>
</defs>
</svg>
