<svg viewBox="0 0 938 439" fill="none" xmlns="http://www.w3.org/2000/svg">
<g clip-path="url(#clip0_636_3496)">
<path d="M149.131 12.24L139.531 38.34L134.011 54.72H129.391L133.231 42.96L121.951 12.24H126.931L135.511 36.24L144.091 12.24H149.131Z" fill="#0F19A0"/>
<path d="M76.8506 42.48V12.24H81.6506V18.06C83.2106 13.86 86.9906 11.76 91.6106 11.76C98.4506 11.76 102.891 16.62 102.891 24V42.48H98.0906V24.78C98.0906 19.62 95.0906 16.14 90.5306 16.14C85.3706 16.14 81.6506 20.28 81.6506 26.16V42.48H76.8506Z" fill="#0F19A0"/>
<path d="M56.9679 11.76C64.8279 11.76 69.7479 16.26 69.7479 22.98V42.48H64.9479V37.26C63.3279 40.74 59.3079 42.96 54.6279 42.96C48.2679 42.96 44.1279 39.36 44.1279 33.84C44.1279 28.08 48.8679 24.42 56.1879 24.42H63.0279C64.3479 24.42 64.9479 23.76 64.9479 22.8C64.9479 18.66 62.0079 15.84 56.8479 15.84C52.4079 15.84 48.9279 18.6 48.6879 21.9H44.1279C44.6679 16.08 50.1879 11.76 56.9679 11.76ZM55.3479 38.88C61.4079 38.88 64.9479 35.1 64.9479 28.86V28.08H56.4879C51.9879 28.08 49.0479 30.24 49.0479 33.78C49.0479 36.9 51.5079 38.88 55.3479 38.88Z" fill="#0F19A0"/>
<path d="M20.16 42.96C9.78 42.96 0 35.82 0 21.48C0 7.14 9.84 0 20.28 0C29.88 0 37.38 5.7 38.34 13.74H32.94C31.98 8.4 26.7 4.62 20.22 4.62C11.58 4.62 5.22 10.56 5.22 21.48C5.22 32.34 11.58 38.46 20.22 38.46C27.12 38.46 33.24 34.56 33.24 28.5C33.24 26.58 31.98 25.32 29.94 25.32H20.46V20.88H30.84C33.9 20.88 38.28 23.28 38.28 28.08V42.48H33.54V35.16C31.56 39.78 26.34 42.96 20.16 42.96Z" fill="#0F19A0"/>
<path d="M11.3139 373.255C4.30767 369.187 0 361.691 0 353.586V264.884C0 272.999 4.30767 280.495 11.3139 284.553L130.419 353.676V432.543C130.419 436.911 125.682 439.639 121.914 437.44L11.3139 373.255Z" fill="#0F19A0"/>
<path d="M11.3139 245.384C4.30767 249.452 0 256.948 0 265.054V353.756C0 345.64 4.30767 338.144 11.3139 334.086L130.419 264.964V176.262L11.3139 245.384Z" fill="#C82A87"/>
<path d="M249.525 156.672C256.532 160.74 260.839 168.236 260.839 176.342V265.044C260.839 256.928 256.532 249.432 249.525 245.374L130.42 176.252V97.3946C130.42 93.0269 135.157 90.2984 138.925 92.4972L249.525 156.682V156.672Z" fill="#0F19A0"/>
<path d="M249.525 284.553C256.532 280.486 260.839 272.99 260.839 264.884V176.182C260.839 184.298 256.532 191.794 249.525 195.851L130.42 264.974V353.676L249.525 284.553Z" fill="#C82A87"/>
<path d="M308.63 332.582H342.33C359.76 332.582 369.94 343.342 369.94 358.442C369.94 373.542 359.76 384.302 342.33 384.302H326.3V414.492H308.63V332.592V332.582ZM341.27 369.672C349.46 369.672 352.97 364.402 352.97 358.442C352.97 352.482 349.46 347.212 341.27 347.212H326.29V369.672H341.27Z" fill="#0F19A0"/>
<path d="M376.49 329.892H392.75V363.702C396.14 357.972 402.58 354.572 410.77 354.572C423.99 354.572 432.65 364.162 432.65 377.742V414.482H416.39V381.372C416.39 374.232 411.71 369.082 404.92 369.082C397.78 369.082 392.75 374.582 392.75 382.182V414.472H376.49V329.882V329.892Z" fill="#0F19A0"/>
<path d="M497.58 394.482C495.24 407.232 484.01 415.422 469.5 415.422C449.49 415.422 439.2 399.742 439.2 384.882C439.2 370.022 448.33 354.582 468.33 354.582C488.33 354.582 497.46 369.912 497.46 383.362C497.46 385.582 497.34 387.342 497.23 388.622H454.87C456.04 396.932 461.31 402.082 469.5 402.082C476.05 402.082 480.38 399.512 481.67 394.472H497.58V394.482ZM455.11 378.332H481.2C480.73 371.782 476.17 366.512 468.33 366.512C460.96 366.512 456.51 370.142 455.11 378.332Z" fill="#0F19A0"/>
<path d="M504.13 355.512H520.51V363.702C523.79 357.972 530.34 354.572 538.41 354.572C551.75 354.572 560.41 364.162 560.41 377.742V414.482H544.03V381.372C544.03 374.232 539.47 369.082 532.68 369.082C525.54 369.082 520.51 374.582 520.51 382.182V414.472H504.13V355.502V355.512Z" fill="#0F19A0"/>
<path d="M566.73 394.592H580.77C581.35 399.852 585.45 403.132 591.53 403.132C596.56 403.132 600.07 400.672 600.07 397.402C600.07 385.352 568.36 397.172 568.36 372.362C568.36 361.952 577.37 354.572 589.42 354.572C603.58 354.572 613.17 362.182 613.76 373.762H599.6C598.9 368.732 594.33 366.042 589.89 366.042C585.45 366.042 582.17 368.032 582.17 371.772C582.17 383.822 614.46 370.132 614.46 396.812C614.46 408.042 605.33 415.412 591.53 415.412C577.73 415.412 567.31 407.342 566.73 394.582V394.592Z" fill="#0F19A0"/>
<path d="M638.09 329.892V347.092H620.77V329.892H638.09ZM621.25 355.512H637.63V414.482H621.25V355.512Z" fill="#0F19A0"/>
<path d="M678.58 414.252L670.27 438.352H654.71L663.37 414.012L641.96 355.512H658.57L670.97 393.542L683.26 355.512H699.99L678.58 414.252Z" fill="#0F19A0"/>
<path d="M704.31 355.512H720.69V363.702C723.97 357.972 730.52 354.572 738.59 354.572C751.93 354.572 760.59 364.162 760.59 377.742V414.482H744.21V381.372C744.21 374.232 739.65 369.082 732.86 369.082C725.72 369.082 720.69 374.582 720.69 382.182V414.472H704.31V355.502V355.512Z" fill="#0F19A0"/>
<path d="M820.03 376.582V414.492H803.88V406.302C801.89 411.802 795.34 415.432 787.27 415.432C775.8 415.432 767.96 407.832 767.96 397.762C767.96 386.182 776.62 379.162 789.49 379.162H799.44C802.36 379.162 803.89 377.292 803.89 374.832C803.89 369.912 800.03 366.522 793.36 366.522C786.22 366.522 782.6 370.972 782.36 375.882H767.85C768.55 364.062 778.15 354.592 794.29 354.592C809.15 354.592 820.03 363.252 820.03 376.592V376.582ZM803.88 390.262V389.442H791.95C787.04 389.442 783.53 392.482 783.53 397.052C783.53 400.912 786.81 403.602 791.37 403.602C799.33 403.602 803.89 397.752 803.89 390.262H803.88Z" fill="#0F19A0"/>
<path d="M883.79 414.482H867.41V406.292C864.13 411.912 857.58 415.422 849.51 415.422C836.29 415.422 827.63 405.712 827.63 392.252V355.512H843.89V388.622C843.89 395.762 848.57 400.912 855.24 400.912C862.38 400.912 867.41 395.292 867.41 387.812V355.522H883.79V414.492V414.482Z" fill="#0F19A0"/>
<path d="M655.2 271.282V309.192H639.05V301.002C637.06 306.502 630.51 310.132 622.43 310.132C610.96 310.132 603.12 302.522 603.12 292.462C603.12 280.882 611.78 273.862 624.65 273.862H634.6C637.52 273.862 639.05 271.992 639.05 269.532C639.05 264.622 635.19 261.222 628.52 261.222C621.38 261.222 617.76 265.672 617.52 270.582H603.01C603.71 258.762 613.31 249.292 629.45 249.292C644.31 249.292 655.19 257.952 655.19 271.292L655.2 271.282ZM639.05 284.962V284.142H627.12C622.21 284.142 618.7 287.182 618.7 291.752C618.7 295.612 621.98 298.302 626.54 298.302C634.5 298.302 639.06 292.452 639.06 284.962H639.05Z" fill="#0F19A0"/>
<path d="M359.9 291.282H330.3L323.86 309.182H305.61L336.73 227.282H353.46L384.58 309.182H366.33L359.89 291.282H359.9ZM354.63 276.542L345.15 249.982L335.56 276.542H354.63Z" fill="#0F19A0"/>
<path d="M416.87 263.792C408.8 263.792 405.17 270.462 405.17 280.522V309.192H388.79V250.222H405.17V260.052C408.33 252.682 412.78 250.222 419.91 250.222H426.58V263.792H416.87Z" fill="#0F19A0"/>
<path d="M448.7 224.592V241.792H431.38V224.592H448.7ZM431.85 250.212H448.23V309.182H431.85V250.212Z" fill="#0F19A0"/>
<path d="M508.02 271.282V309.192H491.87V301.002C489.88 306.502 483.33 310.132 475.25 310.132C463.78 310.132 455.94 302.522 455.94 292.462C455.94 280.882 464.6 273.862 477.47 273.862H487.42C490.34 273.862 491.87 271.992 491.87 269.532C491.87 264.622 488.01 261.222 481.34 261.222C474.2 261.222 470.58 265.672 470.34 270.582H455.83C456.53 258.762 466.13 249.292 482.27 249.292C497.13 249.292 508.01 257.952 508.01 271.292L508.02 271.282ZM491.87 284.962V284.142H479.94C475.03 284.142 471.52 287.182 471.52 291.752C471.52 295.612 474.8 298.302 479.36 298.302C487.32 298.302 491.88 292.452 491.88 284.962H491.87Z" fill="#0F19A0"/>
<path d="M516.79 250.212H533.17V258.402C536.45 252.672 543 249.272 551.07 249.272C564.41 249.272 573.07 258.862 573.07 272.442V309.182H556.69V276.072C556.69 268.932 552.13 263.782 545.34 263.782C538.2 263.782 533.17 269.282 533.17 276.882V309.172H516.79V250.202V250.212Z" fill="#0F19A0"/>
<path d="M305 162.932C305 134.972 324.89 121.042 346.54 121.042C368.19 121.042 381.87 133.092 382.93 150.642H365.5C364.21 141.862 356.96 136.132 346.43 136.132C332.51 136.132 321.74 145.962 321.74 162.922C321.74 179.882 332.5 190.532 346.08 190.532C356.26 190.532 366.32 183.162 366.32 175.552C366.32 173.562 365.03 172.272 363.04 172.272H347.24V159.052H369.47C377.08 159.052 382.69 165.132 382.69 172.272V203.862H367.13V191.342C364.44 199.412 355.78 204.802 345.25 204.802C324.31 204.822 305 190.902 305 162.932Z" fill="#0F19A0"/>
<path d="M386.2 144.912H402.58L412.53 181.302L422.94 144.912H437.8L448.33 181.302L458.28 144.912H474.54L455.47 203.882H441.2L430.44 167.142L419.56 203.882H405.4L386.21 144.912H386.2Z" fill="#0F19A0"/>
<path d="M527.3 165.972V203.882H511.15V195.692C509.16 201.192 502.61 204.822 494.54 204.822C483.07 204.822 475.23 197.212 475.23 187.152C475.23 175.572 483.89 168.552 496.76 168.552H506.71C509.63 168.552 511.16 166.682 511.16 164.222C511.16 159.312 507.3 155.912 500.63 155.912C493.49 155.912 489.87 160.362 489.63 165.272H475.12C475.82 153.452 485.42 143.982 501.56 143.982C516.42 143.982 527.3 152.642 527.3 165.982V165.972ZM511.16 179.662V178.842H499.23C494.32 178.842 490.81 181.882 490.81 186.452C490.81 190.312 494.09 193.002 498.65 193.002C506.61 193.002 511.17 187.152 511.17 179.662H511.16Z" fill="#0F19A0"/>
<path d="M532.8 183.992H546.84C547.42 189.262 551.52 192.532 557.6 192.532C562.63 192.532 566.14 190.072 566.14 186.802C566.14 174.752 534.43 186.572 534.43 161.762C534.43 151.352 543.44 143.982 555.49 143.982C569.65 143.982 579.24 151.592 579.83 163.172H565.67C564.97 158.142 560.4 155.452 555.96 155.452C551.52 155.452 548.24 157.442 548.24 161.182C548.24 173.232 580.53 159.542 580.53 186.222C580.53 197.452 571.4 204.822 557.6 204.822C543.8 204.822 533.38 196.752 532.8 183.992Z" fill="#0F19A0"/>
<path d="M637.51 165.972V203.882H621.36V195.692C619.37 201.192 612.82 204.822 604.74 204.822C593.27 204.822 585.43 197.212 585.43 187.152C585.43 175.572 594.09 168.552 606.96 168.552H616.91C619.83 168.552 621.36 166.682 621.36 164.222C621.36 159.312 617.5 155.912 610.83 155.912C603.69 155.912 600.07 160.362 599.83 165.272H585.32C586.02 153.452 595.62 143.982 611.76 143.982C626.62 143.982 637.5 152.642 637.5 165.982L637.51 165.972ZM621.37 179.662V178.842H609.44C604.53 178.842 601.02 181.882 601.02 186.452C601.02 190.312 604.3 193.002 608.86 193.002C616.82 193.002 621.38 187.152 621.38 179.662H621.37Z" fill="#0F19A0"/>
<path d="M646.29 144.912H662.67V153.102C665.95 147.372 672.5 143.972 680.57 143.972C693.91 143.972 702.57 153.562 702.57 167.142V203.882H686.19V170.772C686.19 163.632 681.63 158.482 674.84 158.482C667.7 158.482 662.67 163.982 662.67 171.582V203.872H646.29V144.912Z" fill="#0F19A0"/>
<path d="M762 165.972V203.882H745.85V195.692C743.86 201.192 737.31 204.822 729.23 204.822C717.76 204.822 709.92 197.212 709.92 187.152C709.92 175.572 718.58 168.552 731.45 168.552H741.4C744.32 168.552 745.85 166.682 745.85 164.222C745.85 159.312 741.99 155.912 735.32 155.912C728.18 155.912 724.56 160.362 724.32 165.272H709.81C710.51 153.452 720.11 143.982 736.25 143.982C751.11 143.982 761.99 152.642 761.99 165.982L762 165.972ZM745.85 179.662V178.842H733.92C729.01 178.842 725.5 181.882 725.5 186.452C725.5 190.312 728.78 193.002 733.34 193.002C741.3 193.002 745.86 187.152 745.86 179.662H745.85Z" fill="#0F19A0"/>
<path d="M826.12 183.882C823.78 196.632 812.55 204.822 798.04 204.822C778.03 204.822 767.74 189.142 767.74 174.282C767.74 159.422 776.87 143.982 796.87 143.982C816.87 143.982 826 159.312 826 172.762C826 174.982 825.88 176.742 825.77 178.032H783.41C784.58 186.342 789.85 191.492 798.04 191.492C804.59 191.492 808.92 188.922 810.21 183.882H826.12ZM783.64 167.732H809.73C809.26 161.182 804.7 155.912 796.86 155.912C789.49 155.912 785.04 159.542 783.64 167.732Z" fill="#0F19A0"/>
<path d="M855.36 127.482V144.912H871.16V158.482H855.36V181.762C855.36 187.492 858.4 190.182 863.67 190.182H871.16V203.872H861.45C847.88 203.872 839.1 196.152 839.1 182.462V158.472H827.75V144.902H839.1V127.482H855.36Z" fill="#0F19A0"/>
<path d="M882.04 119.292H898.3V153.102C901.69 147.372 908.13 143.972 916.32 143.972C929.54 143.972 938.2 153.562 938.2 167.142V203.882H921.94V170.772C921.94 163.632 917.26 158.482 910.47 158.482C903.33 158.482 898.3 163.982 898.3 171.582V203.872H882.04V119.292Z" fill="#0F19A0"/>
</g>
<defs>
<clipPath id="clip0_636_3496">
<rect width="938" height="438.352" fill="white"/>
</clipPath>
</defs>
</svg>
